%TF.GenerationSoftware,KiCad,Pcbnew,(6.0.11)*%
%TF.CreationDate,2023-07-08T12:47:50-05:00*%
%TF.ProjectId,LittleDX,4c697474-6c65-4445-982e-6b696361645f,rev?*%
%TF.SameCoordinates,Original*%
%TF.FileFunction,Legend,Bot*%
%TF.FilePolarity,Positive*%
%FSLAX46Y46*%
G04 Gerber Fmt 4.6, Leading zero omitted, Abs format (unit mm)*
G04 Created by KiCad (PCBNEW (6.0.11)) date 2023-07-08 12:47:50*
%MOMM*%
%LPD*%
G01*
G04 APERTURE LIST*
G04 Aperture macros list*
%AMRoundRect*
0 Rectangle with rounded corners*
0 $1 Rounding radius*
0 $2 $3 $4 $5 $6 $7 $8 $9 X,Y pos of 4 corners*
0 Add a 4 corners polygon primitive as box body*
4,1,4,$2,$3,$4,$5,$6,$7,$8,$9,$2,$3,0*
0 Add four circle primitives for the rounded corners*
1,1,$1+$1,$2,$3*
1,1,$1+$1,$4,$5*
1,1,$1+$1,$6,$7*
1,1,$1+$1,$8,$9*
0 Add four rect primitives between the rounded corners*
20,1,$1+$1,$2,$3,$4,$5,0*
20,1,$1+$1,$4,$5,$6,$7,0*
20,1,$1+$1,$6,$7,$8,$9,0*
20,1,$1+$1,$8,$9,$2,$3,0*%
G04 Aperture macros list end*
%ADD10RoundRect,0.200000X-0.800000X0.800000X-0.800000X-0.800000X0.800000X-0.800000X0.800000X0.800000X0*%
%ADD11C,2.000000*%
%ADD12RoundRect,0.200000X-1.100000X1.100000X-1.100000X-1.100000X1.100000X-1.100000X1.100000X1.100000X0*%
%ADD13O,2.600000X2.600000*%
%ADD14RoundRect,0.200000X-1.500000X1.500000X-1.500000X-1.500000X1.500000X-1.500000X1.500000X1.500000X0*%
%ADD15C,3.400000*%
%ADD16RoundRect,0.200000X-1.750000X-1.750000X1.750000X-1.750000X1.750000X1.750000X-1.750000X1.750000X0*%
%ADD17RoundRect,0.200000X-1.750000X-1.000000X1.750000X-1.000000X1.750000X1.000000X-1.750000X1.000000X0*%
%ADD18RoundRect,0.200000X-0.850000X-0.850000X0.850000X-0.850000X0.850000X0.850000X-0.850000X0.850000X0*%
%ADD19O,2.100000X2.100000*%
%ADD20RoundRect,0.200000X0.760000X-0.760000X0.760000X0.760000X-0.760000X0.760000X-0.760000X-0.760000X0*%
%ADD21C,1.920000*%
%ADD22C,2.400000*%
%ADD23RoundRect,0.200000X-0.760000X0.760000X-0.760000X-0.760000X0.760000X-0.760000X0.760000X0.760000X0*%
%ADD24C,2.900000*%
%ADD25C,2.500000*%
%ADD26C,1.900000*%
%ADD27RoundRect,0.200000X1.500000X-1.500000X1.500000X1.500000X-1.500000X1.500000X-1.500000X-1.500000X0*%
%ADD28C,2.200000*%
%ADD29RoundRect,0.200000X-0.750000X0.750000X-0.750000X-0.750000X0.750000X-0.750000X0.750000X0.750000X0*%
%ADD30RoundRect,0.200000X0.850000X-0.850000X0.850000X0.850000X-0.850000X0.850000X-0.850000X-0.850000X0*%
%ADD31C,1.924000*%
%ADD32RoundRect,0.200000X-0.850000X0.850000X-0.850000X-0.850000X0.850000X-0.850000X0.850000X0.850000X0*%
%ADD33RoundRect,0.200000X0.800000X0.800000X-0.800000X0.800000X-0.800000X-0.800000X0.800000X-0.800000X0*%
%ADD34O,2.400000X3.900000*%
%ADD35O,4.400000X2.400000*%
%ADD36C,3.448000*%
%ADD37C,1.840000*%
%ADD38C,5.400000*%
%ADD39RoundRect,0.200000X1.100000X1.100000X-1.100000X1.100000X-1.100000X-1.100000X1.100000X-1.100000X0*%
%ADD40O,2.000000X2.000000*%
%ADD41RoundRect,0.200000X-0.800000X-0.800000X0.800000X-0.800000X0.800000X0.800000X-0.800000X0.800000X0*%
%ADD42RoundRect,0.200000X-0.900000X0.900000X-0.900000X-0.900000X0.900000X-0.900000X0.900000X0.900000X0*%
%ADD43O,2.200000X2.200000*%
%ADD44O,2.400000X1.400000*%
%ADD45O,1.400000X2.400000*%
%ADD46O,1.900000X2.400000*%
%ADD47O,2.400000X1.900000*%
%ADD48RoundRect,0.200000X-0.750000X-1.300000X0.750000X-1.300000X0.750000X1.300000X-0.750000X1.300000X0*%
%ADD49O,1.900000X3.000000*%
%ADD50O,2.200000X3.000000*%
%ADD51C,3.600000*%
%ADD52RoundRect,0.200000X0.850000X0.850000X-0.850000X0.850000X-0.850000X-0.850000X0.850000X-0.850000X0*%
%ADD53C,2.100000*%
%ADD54C,3.900000*%
%ADD55C,1.400000*%
G04 APERTURE END LIST*
%LPC*%
D10*
%TO.C,C6*%
X75000000Y-72830000D03*
D11*
X75000000Y-75330000D03*
%TD*%
D10*
%TO.C,C19*%
X130330000Y-128870000D03*
D11*
X130330000Y-131370000D03*
%TD*%
D10*
%TO.C,C22*%
X80666000Y-73084000D03*
D11*
X80666000Y-75084000D03*
%TD*%
D12*
%TO.C,D1*%
X63750000Y-83880000D03*
D13*
X63750000Y-91500000D03*
%TD*%
D14*
%TO.C,J1*%
X56000000Y-85000000D03*
D15*
X56000000Y-90080000D03*
%TD*%
D16*
%TO.C,J2*%
X60500000Y-75000000D03*
X54500000Y-75000000D03*
D17*
X57500000Y-79700000D03*
%TD*%
D18*
%TO.C,J5*%
X109400000Y-103975000D03*
D19*
X111940000Y-103975000D03*
X109400000Y-106515000D03*
X111940000Y-106515000D03*
X109400000Y-109055000D03*
X111940000Y-109055000D03*
%TD*%
D20*
%TO.C,Q3*%
X170350000Y-75630000D03*
D21*
X172890000Y-75630000D03*
X175430000Y-75630000D03*
%TD*%
D22*
%TO.C,SW1*%
X151290000Y-97090000D03*
X151290000Y-90590000D03*
X146790000Y-97090000D03*
X146790000Y-90590000D03*
%TD*%
%TO.C,SW2*%
X93425000Y-121025000D03*
X86925000Y-121025000D03*
X93425000Y-125525000D03*
X86925000Y-125525000D03*
%TD*%
%TO.C,SW3*%
X98650000Y-129325000D03*
X92150000Y-129325000D03*
X92150000Y-133825000D03*
X98650000Y-133825000D03*
%TD*%
%TO.C,SW4*%
X97225000Y-120975000D03*
X103725000Y-120975000D03*
X103725000Y-125475000D03*
X97225000Y-125475000D03*
%TD*%
%TO.C,SW5*%
X98625000Y-137625000D03*
X92125000Y-137625000D03*
X98625000Y-142125000D03*
X92125000Y-142125000D03*
%TD*%
D23*
%TO.C,Q5*%
X185340000Y-90830000D03*
D21*
X182800000Y-90830000D03*
X180260000Y-90830000D03*
%TD*%
D23*
%TO.C,Q6*%
X175560000Y-90680000D03*
D21*
X173020000Y-90680000D03*
X170480000Y-90680000D03*
%TD*%
D20*
%TO.C,Q7*%
X179960000Y-75520000D03*
D21*
X182500000Y-75520000D03*
X185040000Y-75520000D03*
%TD*%
D24*
%TO.C,RV3*%
X96414000Y-73846000D03*
X93914000Y-78886000D03*
X91414000Y-73846000D03*
%TD*%
D18*
%TO.C,JP3*%
X169300000Y-106240000D03*
D19*
X169300000Y-108780000D03*
X169300000Y-111320000D03*
%TD*%
D18*
%TO.C,JP4*%
X169660000Y-126990000D03*
D19*
X169660000Y-129530000D03*
%TD*%
D25*
%TO.C,J12*%
X187025000Y-134505000D03*
X187025000Y-124345000D03*
D26*
X181945000Y-129425000D03*
D27*
X184673000Y-131711000D03*
D26*
X181945000Y-126885000D03*
D15*
X184673000Y-126631000D03*
%TD*%
D28*
%TO.C,RLY1*%
X187775000Y-98845000D03*
X187775000Y-106465000D03*
X187775000Y-111545000D03*
X187775000Y-116625000D03*
X180175000Y-98845000D03*
X180175000Y-106465000D03*
X180175000Y-111545000D03*
X180175000Y-116625000D03*
%TD*%
D29*
%TO.C,Q8*%
X165608000Y-71374000D03*
D26*
X165608000Y-73914000D03*
X165608000Y-76454000D03*
%TD*%
D30*
%TO.C,JP1*%
X174030000Y-70000000D03*
D19*
X176570000Y-70000000D03*
%TD*%
D18*
%TO.C,JP2*%
X173430000Y-126910000D03*
D19*
X173430000Y-129450000D03*
%TD*%
D31*
%TO.C,T3*%
X173355000Y-140970000D03*
X180975000Y-140970000D03*
X177228500Y-143764000D03*
X177228500Y-138176000D03*
%TD*%
D23*
%TO.C,Q9*%
X170670000Y-95770000D03*
D21*
X168130000Y-95770000D03*
X165590000Y-95770000D03*
%TD*%
D32*
%TO.C,JP7*%
X176560000Y-116780000D03*
D19*
X174020000Y-116780000D03*
X171480000Y-116780000D03*
%TD*%
D33*
%TO.C,P1*%
X90630000Y-65930000D03*
D11*
X93230000Y-65930000D03*
X88530000Y-65930000D03*
X95330000Y-65930000D03*
X88530000Y-68730000D03*
X95330000Y-68730000D03*
D34*
X85080000Y-63080000D03*
X98780000Y-63080000D03*
D35*
X91930000Y-62280000D03*
%TD*%
D36*
%TO.C,J13*%
X177600000Y-83200000D03*
%TD*%
D37*
%TO.C,RV4*%
X142790000Y-59940000D03*
X142790000Y-62480000D03*
X142790000Y-65020000D03*
%TD*%
D38*
%TO.C,J3*%
X54000000Y-61000000D03*
%TD*%
%TO.C,J4*%
X185500000Y-60500000D03*
%TD*%
%TO.C,J6*%
X185500000Y-141000000D03*
%TD*%
%TO.C,J7*%
X54000000Y-140500000D03*
%TD*%
D26*
%TO.C,T4*%
X60000000Y-67310000D03*
X60000000Y-59690000D03*
X62540000Y-67310000D03*
X62540000Y-59690000D03*
%TD*%
D39*
%TO.C,D6*%
X187700000Y-95360000D03*
D13*
X180080000Y-95360000D03*
%TD*%
D11*
%TO.C,R41*%
X164750000Y-100820000D03*
D40*
X177450000Y-100820000D03*
%TD*%
D11*
%TO.C,L10*%
X139750000Y-136660000D03*
D40*
X129590000Y-136660000D03*
%TD*%
D18*
%TO.C,J14*%
X158220000Y-135730000D03*
%TD*%
%TO.C,J15*%
X169175000Y-140985000D03*
%TD*%
%TO.C,J16*%
X179900000Y-58900000D03*
%TD*%
D41*
%TO.C,C3*%
X65500000Y-76000000D03*
D11*
X69000000Y-76000000D03*
%TD*%
D31*
%TO.C,L4*%
X152146000Y-58039000D03*
X152146000Y-61849000D03*
%TD*%
%TO.C,L6*%
X161895000Y-82875000D03*
X165705000Y-82875000D03*
%TD*%
D42*
%TO.C,Q15*%
X187210000Y-80770000D03*
D43*
X187210000Y-83310000D03*
X187210000Y-85850000D03*
%TD*%
D28*
%TO.C,RV1*%
X135900000Y-143800000D03*
D24*
X138400000Y-140800000D03*
D28*
X133400000Y-143800000D03*
D24*
X133400000Y-140800000D03*
D28*
X130900000Y-143800000D03*
D24*
X128400000Y-140800000D03*
%TD*%
D18*
%TO.C,J10*%
X140410000Y-100830000D03*
%TD*%
D22*
%TO.C,SW6*%
X102025000Y-133425000D03*
X108525000Y-133425000D03*
X108525000Y-137925000D03*
X102025000Y-137925000D03*
%TD*%
D33*
%TO.C,C53*%
X123500000Y-126260000D03*
D11*
X120000000Y-126260000D03*
%TD*%
D30*
%TO.C,J17*%
X156210000Y-123190000D03*
D19*
X158750000Y-123190000D03*
X161290000Y-123190000D03*
X163830000Y-123190000D03*
%TD*%
D30*
%TO.C,J18*%
X156220000Y-143510000D03*
D19*
X158760000Y-143510000D03*
X161300000Y-143510000D03*
X163840000Y-143510000D03*
%TD*%
D44*
%TO.C,J19*%
X64800000Y-142860000D03*
D45*
X59600000Y-134960000D03*
D46*
X62200000Y-135960000D03*
D45*
X69600000Y-138460000D03*
D47*
X69100000Y-131560000D03*
%TD*%
D18*
%TO.C,J9*%
X87490000Y-73600000D03*
%TD*%
D15*
%TO.C,DS1*%
X68830900Y-85230000D03*
X68830900Y-116230700D03*
X143830000Y-85230000D03*
X143829480Y-116230700D03*
D48*
X74330000Y-85230000D03*
D49*
X76870000Y-85230000D03*
D50*
X79410000Y-85230000D03*
X81950000Y-85230000D03*
X84490000Y-85230000D03*
X87030000Y-85230000D03*
X89570000Y-85230000D03*
D49*
X92110000Y-85230000D03*
X94650000Y-85230000D03*
X97190000Y-85230000D03*
X99730000Y-85230000D03*
X102270000Y-85230000D03*
X104810000Y-85230000D03*
X107350000Y-85230000D03*
X109890000Y-85230000D03*
D50*
X112430000Y-85230000D03*
%TD*%
D18*
%TO.C,J28*%
X87570000Y-78820000D03*
%TD*%
%TO.C,J24*%
X144470000Y-100850000D03*
%TD*%
D51*
%TO.C,J23*%
X159512000Y-67564000D03*
%TD*%
D52*
%TO.C,J22*%
X115390000Y-128820000D03*
D19*
X115390000Y-126280000D03*
%TD*%
D32*
%TO.C,JP9*%
X77978000Y-122936000D03*
D19*
X75438000Y-122936000D03*
%TD*%
D32*
%TO.C,J25*%
X125420000Y-80010000D03*
D19*
X122880000Y-80010000D03*
X120340000Y-80010000D03*
X117800000Y-80010000D03*
%TD*%
D18*
%TO.C,J21*%
X132700000Y-91460000D03*
%TD*%
D44*
%TO.C,J8*%
X119825000Y-143285000D03*
D45*
X114625000Y-135385000D03*
D46*
X117225000Y-136385000D03*
D45*
X124625000Y-138885000D03*
D47*
X124125000Y-131985000D03*
%TD*%
D32*
%TO.C,J27*%
X125476000Y-74676000D03*
D19*
X122936000Y-74676000D03*
X120396000Y-74676000D03*
X117856000Y-74676000D03*
%TD*%
D30*
%TO.C,J26*%
X111410000Y-66760000D03*
D53*
X113910000Y-66760000D03*
X113910000Y-64760000D03*
X111410000Y-64760000D03*
D54*
X118680000Y-62050000D03*
X106640000Y-62050000D03*
%TD*%
D55*
%TO.C,U7*%
X135930000Y-58430000D03*
X127930000Y-58430000D03*
%TD*%
D32*
%TO.C,JP6*%
X69596000Y-122936000D03*
D19*
X67056000Y-122936000D03*
%TD*%
D44*
%TO.C,J11*%
X78000000Y-142710000D03*
D45*
X72800000Y-134810000D03*
D46*
X75400000Y-135810000D03*
D45*
X82800000Y-138310000D03*
D47*
X82300000Y-131410000D03*
%TD*%
D30*
%TO.C,J20*%
X112320000Y-120790000D03*
D19*
X114860000Y-120790000D03*
%TD*%
M02*
