%TF.GenerationSoftware,KiCad,Pcbnew,(6.0.11)*%
%TF.CreationDate,2023-06-15T21:51:14-05:00*%
%TF.ProjectId,LittleDX,4c697474-6c65-4445-982e-6b696361645f,rev?*%
%TF.SameCoordinates,Original*%
%TF.FileFunction,Legend,Bot*%
%TF.FilePolarity,Positive*%
%FSLAX46Y46*%
G04 Gerber Fmt 4.6, Leading zero omitted, Abs format (unit mm)*
G04 Created by KiCad (PCBNEW (6.0.11)) date 2023-06-15 21:51:14*
%MOMM*%
%LPD*%
G01*
G04 APERTURE LIST*
G04 Aperture macros list*
%AMRoundRect*
0 Rectangle with rounded corners*
0 $1 Rounding radius*
0 $2 $3 $4 $5 $6 $7 $8 $9 X,Y pos of 4 corners*
0 Add a 4 corners polygon primitive as box body*
4,1,4,$2,$3,$4,$5,$6,$7,$8,$9,$2,$3,0*
0 Add four circle primitives for the rounded corners*
1,1,$1+$1,$2,$3*
1,1,$1+$1,$4,$5*
1,1,$1+$1,$6,$7*
1,1,$1+$1,$8,$9*
0 Add four rect primitives between the rounded corners*
20,1,$1+$1,$2,$3,$4,$5,0*
20,1,$1+$1,$4,$5,$6,$7,0*
20,1,$1+$1,$6,$7,$8,$9,0*
20,1,$1+$1,$8,$9,$2,$3,0*%
G04 Aperture macros list end*
%ADD10RoundRect,0.200000X-0.800000X0.800000X-0.800000X-0.800000X0.800000X-0.800000X0.800000X0.800000X0*%
%ADD11C,2.000000*%
%ADD12RoundRect,0.200000X-1.100000X1.100000X-1.100000X-1.100000X1.100000X-1.100000X1.100000X1.100000X0*%
%ADD13O,2.600000X2.600000*%
%ADD14RoundRect,0.200000X-1.500000X1.500000X-1.500000X-1.500000X1.500000X-1.500000X1.500000X1.500000X0*%
%ADD15C,3.400000*%
%ADD16RoundRect,0.200000X-1.750000X-1.750000X1.750000X-1.750000X1.750000X1.750000X-1.750000X1.750000X0*%
%ADD17RoundRect,0.200000X-1.750000X-1.000000X1.750000X-1.000000X1.750000X1.000000X-1.750000X1.000000X0*%
%ADD18RoundRect,0.200000X-0.850000X-0.850000X0.850000X-0.850000X0.850000X0.850000X-0.850000X0.850000X0*%
%ADD19O,2.100000X2.100000*%
%ADD20RoundRect,0.200000X0.760000X-0.760000X0.760000X0.760000X-0.760000X0.760000X-0.760000X-0.760000X0*%
%ADD21C,1.920000*%
%ADD22C,2.400000*%
%ADD23RoundRect,0.200000X-0.760000X0.760000X-0.760000X-0.760000X0.760000X-0.760000X0.760000X0.760000X0*%
%ADD24C,2.900000*%
%ADD25RoundRect,0.200000X0.850000X0.850000X-0.850000X0.850000X-0.850000X-0.850000X0.850000X-0.850000X0*%
%ADD26C,2.500000*%
%ADD27C,1.900000*%
%ADD28RoundRect,0.200000X1.500000X-1.500000X1.500000X1.500000X-1.500000X1.500000X-1.500000X-1.500000X0*%
%ADD29C,2.200000*%
%ADD30RoundRect,0.200000X-0.750000X0.750000X-0.750000X-0.750000X0.750000X-0.750000X0.750000X0.750000X0*%
%ADD31RoundRect,0.200000X0.850000X-0.850000X0.850000X0.850000X-0.850000X0.850000X-0.850000X-0.850000X0*%
%ADD32C,1.924000*%
%ADD33RoundRect,0.200000X-0.850000X0.850000X-0.850000X-0.850000X0.850000X-0.850000X0.850000X0.850000X0*%
%ADD34RoundRect,0.200000X0.800000X0.800000X-0.800000X0.800000X-0.800000X-0.800000X0.800000X-0.800000X0*%
%ADD35O,2.400000X3.900000*%
%ADD36O,4.400000X2.400000*%
%ADD37C,3.448000*%
%ADD38C,1.840000*%
%ADD39C,5.400000*%
%ADD40RoundRect,0.200000X1.100000X1.100000X-1.100000X1.100000X-1.100000X-1.100000X1.100000X-1.100000X0*%
%ADD41O,2.000000X2.000000*%
%ADD42RoundRect,0.200000X-0.800000X-0.800000X0.800000X-0.800000X0.800000X0.800000X-0.800000X0.800000X0*%
%ADD43RoundRect,0.200000X-0.900000X0.900000X-0.900000X-0.900000X0.900000X-0.900000X0.900000X0.900000X0*%
%ADD44O,2.200000X2.200000*%
%ADD45O,2.400000X1.400000*%
%ADD46O,1.400000X2.400000*%
%ADD47O,1.900000X2.400000*%
%ADD48O,2.400000X1.900000*%
%ADD49RoundRect,0.200000X-0.750000X-1.300000X0.750000X-1.300000X0.750000X1.300000X-0.750000X1.300000X0*%
%ADD50O,1.900000X3.000000*%
%ADD51O,2.200000X3.000000*%
%ADD52C,3.600000*%
%ADD53C,2.100000*%
%ADD54C,3.900000*%
%ADD55C,1.400000*%
G04 APERTURE END LIST*
%LPC*%
D10*
%TO.C,C6*%
X75000000Y-74000000D03*
D11*
X75000000Y-76500000D03*
%TD*%
D10*
%TO.C,C19*%
X136350000Y-128150000D03*
D11*
X136350000Y-130650000D03*
%TD*%
D10*
%TO.C,C22*%
X82000000Y-73968208D03*
D11*
X82000000Y-75968208D03*
%TD*%
D12*
%TO.C,D1*%
X63750000Y-83880000D03*
D13*
X63750000Y-91500000D03*
%TD*%
D14*
%TO.C,J1*%
X56000000Y-85000000D03*
D15*
X56000000Y-90080000D03*
%TD*%
D16*
%TO.C,J2*%
X60500000Y-75000000D03*
X54500000Y-75000000D03*
D17*
X57500000Y-79700000D03*
%TD*%
D18*
%TO.C,J5*%
X109400000Y-103975000D03*
D19*
X111940000Y-103975000D03*
X109400000Y-106515000D03*
X111940000Y-106515000D03*
X109400000Y-109055000D03*
X111940000Y-109055000D03*
%TD*%
D20*
%TO.C,Q3*%
X170350000Y-75630000D03*
D21*
X172890000Y-75630000D03*
X175430000Y-75630000D03*
%TD*%
D22*
%TO.C,SW1*%
X154142000Y-102056000D03*
X154142000Y-95556000D03*
X149642000Y-102056000D03*
X149642000Y-95556000D03*
%TD*%
%TO.C,SW2*%
X100024000Y-121194000D03*
X93524000Y-121194000D03*
X100024000Y-125694000D03*
X93524000Y-125694000D03*
%TD*%
%TO.C,SW3*%
X104775000Y-129525000D03*
X98275000Y-129525000D03*
X98275000Y-134025000D03*
X104775000Y-134025000D03*
%TD*%
%TO.C,SW4*%
X103430000Y-121158000D03*
X109930000Y-121158000D03*
X109930000Y-125658000D03*
X103430000Y-125658000D03*
%TD*%
%TO.C,SW5*%
X104798000Y-137704000D03*
X98298000Y-137704000D03*
X104798000Y-142204000D03*
X98298000Y-142204000D03*
%TD*%
D18*
%TO.C,J9*%
X116375000Y-105325000D03*
%TD*%
D23*
%TO.C,Q5*%
X185340000Y-90830000D03*
D21*
X182800000Y-90830000D03*
X180260000Y-90830000D03*
%TD*%
D23*
%TO.C,Q6*%
X175560000Y-90680000D03*
D21*
X173020000Y-90680000D03*
X170480000Y-90680000D03*
%TD*%
D20*
%TO.C,Q7*%
X179960000Y-75520000D03*
D21*
X182500000Y-75520000D03*
X185040000Y-75520000D03*
%TD*%
D24*
%TO.C,RV3*%
X93500000Y-75000000D03*
X91000000Y-80040000D03*
X88500000Y-75000000D03*
%TD*%
D25*
%TO.C,JP3*%
X168810000Y-111250000D03*
D19*
X168810000Y-108710000D03*
X168810000Y-106170000D03*
%TD*%
D18*
%TO.C,JP4*%
X169660000Y-126990000D03*
D19*
X169660000Y-129530000D03*
%TD*%
D26*
%TO.C,J12*%
X187025000Y-134505000D03*
X187025000Y-124345000D03*
D27*
X181945000Y-129425000D03*
D28*
X184673000Y-131711000D03*
D27*
X181945000Y-126885000D03*
D15*
X184673000Y-126631000D03*
%TD*%
D29*
%TO.C,RLY1*%
X187775000Y-98845000D03*
X187775000Y-106465000D03*
X187775000Y-111545000D03*
X187775000Y-116625000D03*
X180175000Y-98845000D03*
X180175000Y-106465000D03*
X180175000Y-111545000D03*
X180175000Y-116625000D03*
%TD*%
D30*
%TO.C,Q8*%
X165608000Y-71374000D03*
D27*
X165608000Y-73914000D03*
X165608000Y-76454000D03*
%TD*%
D31*
%TO.C,JP1*%
X174030000Y-70000000D03*
D19*
X176570000Y-70000000D03*
%TD*%
D18*
%TO.C,JP2*%
X173430000Y-126910000D03*
D19*
X173430000Y-129450000D03*
%TD*%
D32*
%TO.C,T3*%
X172085000Y-140970000D03*
X179705000Y-140970000D03*
X175958500Y-143764000D03*
X175958500Y-138176000D03*
%TD*%
D23*
%TO.C,Q9*%
X167575000Y-95250000D03*
D21*
X165035000Y-95250000D03*
X162495000Y-95250000D03*
%TD*%
D33*
%TO.C,JP7*%
X176560000Y-116780000D03*
D19*
X174020000Y-116780000D03*
X171480000Y-116780000D03*
%TD*%
D34*
%TO.C,P1*%
X92050000Y-65380000D03*
D11*
X94650000Y-65380000D03*
X89950000Y-65380000D03*
X96750000Y-65380000D03*
X89950000Y-68180000D03*
X96750000Y-68180000D03*
D35*
X86500000Y-62530000D03*
X100200000Y-62530000D03*
D36*
X93350000Y-61730000D03*
%TD*%
D37*
%TO.C,J13*%
X177600000Y-83200000D03*
%TD*%
D38*
%TO.C,RV4*%
X142790000Y-59940000D03*
X142790000Y-62480000D03*
X142790000Y-65020000D03*
%TD*%
D39*
%TO.C,J3*%
X54000000Y-61000000D03*
%TD*%
%TO.C,J4*%
X185500000Y-60500000D03*
%TD*%
%TO.C,J6*%
X185500000Y-141000000D03*
%TD*%
%TO.C,J7*%
X54000000Y-140500000D03*
%TD*%
D27*
%TO.C,T4*%
X60000000Y-67310000D03*
X60000000Y-59690000D03*
X62540000Y-67310000D03*
X62540000Y-59690000D03*
%TD*%
D40*
%TO.C,D6*%
X186880000Y-95330000D03*
D13*
X179260000Y-95330000D03*
%TD*%
D11*
%TO.C,R41*%
X177075000Y-101100000D03*
D41*
X164375000Y-101100000D03*
%TD*%
D11*
%TO.C,L10*%
X146550000Y-135900000D03*
D41*
X136390000Y-135900000D03*
%TD*%
D18*
%TO.C,J14*%
X158150000Y-132950000D03*
%TD*%
%TO.C,J15*%
X150622000Y-142494000D03*
%TD*%
%TO.C,J16*%
X179900000Y-58900000D03*
%TD*%
D42*
%TO.C,C3*%
X65500000Y-76000000D03*
D11*
X69000000Y-76000000D03*
%TD*%
D32*
%TO.C,L4*%
X152146000Y-58039000D03*
X152146000Y-61849000D03*
%TD*%
%TO.C,L6*%
X161895000Y-82875000D03*
X165705000Y-82875000D03*
%TD*%
D43*
%TO.C,Q15*%
X187210000Y-80770000D03*
D44*
X187210000Y-83310000D03*
X187210000Y-85850000D03*
%TD*%
D29*
%TO.C,RV1*%
X140675000Y-143000000D03*
D24*
X143175000Y-140000000D03*
D29*
X138175000Y-143000000D03*
D24*
X138175000Y-140000000D03*
D29*
X135675000Y-143000000D03*
D24*
X133175000Y-140000000D03*
%TD*%
D18*
%TO.C,J10*%
X140410000Y-100830000D03*
%TD*%
D22*
%TO.C,SW6*%
X108966000Y-133096000D03*
X115466000Y-133096000D03*
X115466000Y-137596000D03*
X108966000Y-137596000D03*
%TD*%
D34*
%TO.C,C53*%
X129475000Y-125900000D03*
D11*
X125975000Y-125900000D03*
%TD*%
D31*
%TO.C,J17*%
X157480000Y-120650000D03*
D19*
X160020000Y-120650000D03*
X162560000Y-120650000D03*
X165100000Y-120650000D03*
%TD*%
D31*
%TO.C,J18*%
X157480000Y-140970000D03*
D19*
X160020000Y-140970000D03*
X162560000Y-140970000D03*
X165100000Y-140970000D03*
%TD*%
D45*
%TO.C,J19*%
X69800000Y-142900000D03*
D46*
X64600000Y-135000000D03*
D47*
X67200000Y-136000000D03*
D46*
X74600000Y-138500000D03*
D48*
X74100000Y-131600000D03*
%TD*%
D15*
%TO.C,DS1*%
X68900900Y-85592500D03*
X68900900Y-116593200D03*
X143900000Y-85592500D03*
X143899480Y-116593200D03*
D49*
X74400000Y-85592500D03*
D50*
X76940000Y-85592500D03*
D51*
X79480000Y-85592500D03*
X82020000Y-85592500D03*
X84560000Y-85592500D03*
X87100000Y-85592500D03*
X89640000Y-85592500D03*
D50*
X92180000Y-85592500D03*
X94720000Y-85592500D03*
X97260000Y-85592500D03*
X99800000Y-85592500D03*
X102340000Y-85592500D03*
X104880000Y-85592500D03*
X107420000Y-85592500D03*
X109960000Y-85592500D03*
D51*
X112500000Y-85592500D03*
%TD*%
D18*
%TO.C,J24*%
X144470000Y-100850000D03*
%TD*%
D52*
%TO.C,J23*%
X159512000Y-67564000D03*
%TD*%
D25*
%TO.C,J22*%
X121425000Y-128555000D03*
D19*
X121425000Y-126015000D03*
%TD*%
D33*
%TO.C,JP9*%
X77978000Y-122936000D03*
D19*
X75438000Y-122936000D03*
%TD*%
D33*
%TO.C,J25*%
X125420000Y-80010000D03*
D19*
X122880000Y-80010000D03*
X120340000Y-80010000D03*
X117800000Y-80010000D03*
%TD*%
D45*
%TO.C,J8*%
X125476000Y-143046000D03*
D46*
X120276000Y-135146000D03*
D47*
X122876000Y-136146000D03*
D46*
X130276000Y-138646000D03*
D48*
X129776000Y-131746000D03*
%TD*%
D33*
%TO.C,J27*%
X125476000Y-74676000D03*
D19*
X122936000Y-74676000D03*
X120396000Y-74676000D03*
X117856000Y-74676000D03*
%TD*%
D31*
%TO.C,J26*%
X110370000Y-66802000D03*
D53*
X112870000Y-66802000D03*
X112870000Y-64802000D03*
X110370000Y-64802000D03*
D54*
X117640000Y-62092000D03*
X105600000Y-62092000D03*
%TD*%
D55*
%TO.C,U7*%
X135230000Y-58370000D03*
X127230000Y-58370000D03*
%TD*%
D33*
%TO.C,JP6*%
X69596000Y-122936000D03*
D19*
X67056000Y-122936000D03*
%TD*%
D45*
%TO.C,J11*%
X83375000Y-142900000D03*
D46*
X78175000Y-135000000D03*
D47*
X80775000Y-136000000D03*
D46*
X88175000Y-138500000D03*
D48*
X87675000Y-131600000D03*
%TD*%
M02*
