%TF.GenerationSoftware,KiCad,Pcbnew,(6.0.11)*%
%TF.CreationDate,2023-07-06T21:07:41-05:00*%
%TF.ProjectId,LittleDX,4c697474-6c65-4445-982e-6b696361645f,rev?*%
%TF.SameCoordinates,Original*%
%TF.FileFunction,Copper,L1,Top*%
%TF.FilePolarity,Positive*%
%FSLAX46Y46*%
G04 Gerber Fmt 4.6, Leading zero omitted, Abs format (unit mm)*
G04 Created by KiCad (PCBNEW (6.0.11)) date 2023-07-06 21:07:41*
%MOMM*%
%LPD*%
G01*
G04 APERTURE LIST*
G04 Aperture macros list*
%AMRoundRect*
0 Rectangle with rounded corners*
0 $1 Rounding radius*
0 $2 $3 $4 $5 $6 $7 $8 $9 X,Y pos of 4 corners*
0 Add a 4 corners polygon primitive as box body*
4,1,4,$2,$3,$4,$5,$6,$7,$8,$9,$2,$3,0*
0 Add four circle primitives for the rounded corners*
1,1,$1+$1,$2,$3*
1,1,$1+$1,$4,$5*
1,1,$1+$1,$6,$7*
1,1,$1+$1,$8,$9*
0 Add four rect primitives between the rounded corners*
20,1,$1+$1,$2,$3,$4,$5,0*
20,1,$1+$1,$4,$5,$6,$7,0*
20,1,$1+$1,$6,$7,$8,$9,0*
20,1,$1+$1,$8,$9,$2,$3,0*%
G04 Aperture macros list end*
%TA.AperFunction,SMDPad,CuDef*%
%ADD10RoundRect,0.250000X0.337500X0.475000X-0.337500X0.475000X-0.337500X-0.475000X0.337500X-0.475000X0*%
%TD*%
%TA.AperFunction,SMDPad,CuDef*%
%ADD11RoundRect,0.250000X0.475000X-0.337500X0.475000X0.337500X-0.475000X0.337500X-0.475000X-0.337500X0*%
%TD*%
%TA.AperFunction,SMDPad,CuDef*%
%ADD12RoundRect,0.250000X-0.337500X-0.475000X0.337500X-0.475000X0.337500X0.475000X-0.337500X0.475000X0*%
%TD*%
%TA.AperFunction,ComponentPad*%
%ADD13R,1.600000X1.600000*%
%TD*%
%TA.AperFunction,ComponentPad*%
%ADD14C,1.600000*%
%TD*%
%TA.AperFunction,SMDPad,CuDef*%
%ADD15RoundRect,0.250000X-0.475000X0.337500X-0.475000X-0.337500X0.475000X-0.337500X0.475000X0.337500X0*%
%TD*%
%TA.AperFunction,ComponentPad*%
%ADD16R,2.200000X2.200000*%
%TD*%
%TA.AperFunction,ComponentPad*%
%ADD17O,2.200000X2.200000*%
%TD*%
%TA.AperFunction,SMDPad,CuDef*%
%ADD18RoundRect,0.250000X0.325000X0.450000X-0.325000X0.450000X-0.325000X-0.450000X0.325000X-0.450000X0*%
%TD*%
%TA.AperFunction,SMDPad,CuDef*%
%ADD19RoundRect,0.250000X-0.325000X-0.450000X0.325000X-0.450000X0.325000X0.450000X-0.325000X0.450000X0*%
%TD*%
%TA.AperFunction,SMDPad,CuDef*%
%ADD20R,3.500000X1.800000*%
%TD*%
%TA.AperFunction,SMDPad,CuDef*%
%ADD21R,1.800000X3.500000*%
%TD*%
%TA.AperFunction,ComponentPad*%
%ADD22R,3.000000X3.000000*%
%TD*%
%TA.AperFunction,ComponentPad*%
%ADD23C,3.000000*%
%TD*%
%TA.AperFunction,ComponentPad*%
%ADD24R,3.500000X3.500000*%
%TD*%
%TA.AperFunction,ComponentPad*%
%ADD25R,3.500000X2.000000*%
%TD*%
%TA.AperFunction,ComponentPad*%
%ADD26R,1.700000X1.700000*%
%TD*%
%TA.AperFunction,ComponentPad*%
%ADD27O,1.700000X1.700000*%
%TD*%
%TA.AperFunction,SMDPad,CuDef*%
%ADD28RoundRect,0.250000X0.450000X-0.325000X0.450000X0.325000X-0.450000X0.325000X-0.450000X-0.325000X0*%
%TD*%
%TA.AperFunction,ComponentPad*%
%ADD29R,1.520000X1.520000*%
%TD*%
%TA.AperFunction,ComponentPad*%
%ADD30C,1.520000*%
%TD*%
%TA.AperFunction,SMDPad,CuDef*%
%ADD31RoundRect,0.150000X-0.587500X-0.150000X0.587500X-0.150000X0.587500X0.150000X-0.587500X0.150000X0*%
%TD*%
%TA.AperFunction,ComponentPad*%
%ADD32C,2.000000*%
%TD*%
%TA.AperFunction,SMDPad,CuDef*%
%ADD33R,1.200000X2.200000*%
%TD*%
%TA.AperFunction,SMDPad,CuDef*%
%ADD34R,5.800000X6.400000*%
%TD*%
%TA.AperFunction,SMDPad,CuDef*%
%ADD35R,2.000000X2.400000*%
%TD*%
%TA.AperFunction,SMDPad,CuDef*%
%ADD36R,1.000000X1.800000*%
%TD*%
%TA.AperFunction,SMDPad,CuDef*%
%ADD37RoundRect,0.075000X0.075000X-0.662500X0.075000X0.662500X-0.075000X0.662500X-0.075000X-0.662500X0*%
%TD*%
%TA.AperFunction,SMDPad,CuDef*%
%ADD38RoundRect,0.075000X0.662500X-0.075000X0.662500X0.075000X-0.662500X0.075000X-0.662500X-0.075000X0*%
%TD*%
%TA.AperFunction,SMDPad,CuDef*%
%ADD39RoundRect,0.150000X0.675000X0.150000X-0.675000X0.150000X-0.675000X-0.150000X0.675000X-0.150000X0*%
%TD*%
%TA.AperFunction,SMDPad,CuDef*%
%ADD40R,1.500000X2.000000*%
%TD*%
%TA.AperFunction,SMDPad,CuDef*%
%ADD41R,3.800000X2.000000*%
%TD*%
%TA.AperFunction,ComponentPad*%
%ADD42C,2.500000*%
%TD*%
%TA.AperFunction,SMDPad,CuDef*%
%ADD43RoundRect,0.250000X-0.350000X-0.450000X0.350000X-0.450000X0.350000X0.450000X-0.350000X0.450000X0*%
%TD*%
%TA.AperFunction,SMDPad,CuDef*%
%ADD44RoundRect,0.250000X0.450000X-0.350000X0.450000X0.350000X-0.450000X0.350000X-0.450000X-0.350000X0*%
%TD*%
%TA.AperFunction,SMDPad,CuDef*%
%ADD45RoundRect,0.250000X0.350000X0.450000X-0.350000X0.450000X-0.350000X-0.450000X0.350000X-0.450000X0*%
%TD*%
%TA.AperFunction,SMDPad,CuDef*%
%ADD46RoundRect,0.250000X-0.450000X0.350000X-0.450000X-0.350000X0.450000X-0.350000X0.450000X0.350000X0*%
%TD*%
%TA.AperFunction,SMDPad,CuDef*%
%ADD47R,1.400000X0.300000*%
%TD*%
%TA.AperFunction,SMDPad,CuDef*%
%ADD48R,2.100000X1.800000*%
%TD*%
%TA.AperFunction,ComponentPad*%
%ADD49C,1.500000*%
%TD*%
%TA.AperFunction,ComponentPad*%
%ADD50C,1.800000*%
%TD*%
%TA.AperFunction,SMDPad,CuDef*%
%ADD51R,1.200000X0.900000*%
%TD*%
%TA.AperFunction,ComponentPad*%
%ADD52R,1.500000X1.500000*%
%TD*%
%TA.AperFunction,ComponentPad*%
%ADD53C,1.524000*%
%TD*%
%TA.AperFunction,SMDPad,CuDef*%
%ADD54RoundRect,0.250000X-0.450000X0.325000X-0.450000X-0.325000X0.450000X-0.325000X0.450000X0.325000X0*%
%TD*%
%TA.AperFunction,SMDPad,CuDef*%
%ADD55RoundRect,0.150000X0.150000X-0.587500X0.150000X0.587500X-0.150000X0.587500X-0.150000X-0.587500X0*%
%TD*%
%TA.AperFunction,ComponentPad*%
%ADD56O,2.000000X3.500000*%
%TD*%
%TA.AperFunction,ComponentPad*%
%ADD57O,4.000000X2.000000*%
%TD*%
%TA.AperFunction,ComponentPad*%
%ADD58C,1.440000*%
%TD*%
%TA.AperFunction,ComponentPad*%
%ADD59C,5.000000*%
%TD*%
%TA.AperFunction,ComponentPad*%
%ADD60O,1.600000X1.600000*%
%TD*%
%TA.AperFunction,ComponentPad*%
%ADD61R,1.800000X1.800000*%
%TD*%
%TA.AperFunction,ComponentPad*%
%ADD62O,1.800000X1.800000*%
%TD*%
%TA.AperFunction,SMDPad,CuDef*%
%ADD63R,0.900000X1.200000*%
%TD*%
%TA.AperFunction,ComponentPad*%
%ADD64O,2.000000X1.000000*%
%TD*%
%TA.AperFunction,ComponentPad*%
%ADD65O,1.000000X2.000000*%
%TD*%
%TA.AperFunction,ComponentPad*%
%ADD66O,1.500000X2.000000*%
%TD*%
%TA.AperFunction,ComponentPad*%
%ADD67O,2.000000X1.500000*%
%TD*%
%TA.AperFunction,SMDPad,CuDef*%
%ADD68RoundRect,0.150000X-0.150000X0.675000X-0.150000X-0.675000X0.150000X-0.675000X0.150000X0.675000X0*%
%TD*%
%TA.AperFunction,SMDPad,CuDef*%
%ADD69R,1.200000X0.400000*%
%TD*%
%TA.AperFunction,ComponentPad*%
%ADD70R,1.500000X2.600000*%
%TD*%
%TA.AperFunction,ComponentPad*%
%ADD71O,1.500000X2.600000*%
%TD*%
%TA.AperFunction,ComponentPad*%
%ADD72O,1.800000X2.600000*%
%TD*%
%TA.AperFunction,ComponentPad*%
%ADD73C,1.700000*%
%TD*%
%TA.AperFunction,ComponentPad*%
%ADD74C,3.500000*%
%TD*%
%TA.AperFunction,SMDPad,CuDef*%
%ADD75RoundRect,0.150000X-0.675000X-0.150000X0.675000X-0.150000X0.675000X0.150000X-0.675000X0.150000X0*%
%TD*%
%TA.AperFunction,SMDPad,CuDef*%
%ADD76R,1.600000X1.400000*%
%TD*%
%TA.AperFunction,SMDPad,CuDef*%
%ADD77R,0.700000X1.600000*%
%TD*%
%TA.AperFunction,SMDPad,CuDef*%
%ADD78R,1.200000X1.400000*%
%TD*%
%TA.AperFunction,ViaPad*%
%ADD79C,0.600000*%
%TD*%
%TA.AperFunction,Conductor*%
%ADD80C,0.500000*%
%TD*%
%TA.AperFunction,Conductor*%
%ADD81C,0.350000*%
%TD*%
%TA.AperFunction,Conductor*%
%ADD82C,0.250000*%
%TD*%
G04 APERTURE END LIST*
D10*
%TO.P,C1,1*%
%TO.N,GND*%
X133625500Y-114046000D03*
%TO.P,C1,2*%
%TO.N,Net-(C1-Pad2)*%
X131550500Y-114046000D03*
%TD*%
D11*
%TO.P,C2,1*%
%TO.N,GND*%
X125476000Y-116727500D03*
%TO.P,C2,2*%
%TO.N,Net-(C2-Pad2)*%
X125476000Y-114652500D03*
%TD*%
%TO.P,C4,1*%
%TO.N,GND*%
X129300000Y-116747500D03*
%TO.P,C4,2*%
%TO.N,Net-(C4-Pad2)*%
X129300000Y-114672500D03*
%TD*%
D12*
%TO.P,C5,1*%
%TO.N,GND*%
X120162500Y-111370000D03*
%TO.P,C5,2*%
%TO.N,Net-(C5-Pad2)*%
X122237500Y-111370000D03*
%TD*%
D13*
%TO.P,C6,1*%
%TO.N,+5V*%
X75000000Y-74000000D03*
D14*
%TO.P,C6,2*%
%TO.N,GND*%
X75000000Y-76500000D03*
%TD*%
D12*
%TO.P,C8,1*%
%TO.N,GND*%
X121202500Y-114030000D03*
%TO.P,C8,2*%
%TO.N,Net-(C8-Pad2)*%
X123277500Y-114030000D03*
%TD*%
D15*
%TO.P,C9,1*%
%TO.N,Net-(U1-Pad9)*%
X132550000Y-108587500D03*
%TO.P,C9,2*%
%TO.N,GND*%
X132550000Y-110662500D03*
%TD*%
D12*
%TO.P,C10,1*%
%TO.N,GND*%
X92187500Y-116725000D03*
%TO.P,C10,2*%
%TO.N,Net-(C10-Pad2)*%
X94262500Y-116725000D03*
%TD*%
D15*
%TO.P,C11,1*%
%TO.N,GND*%
X87150000Y-128462500D03*
%TO.P,C11,2*%
%TO.N,Net-(C11-Pad2)*%
X87150000Y-130537500D03*
%TD*%
D12*
%TO.P,C12,1*%
%TO.N,GND*%
X119432500Y-105530000D03*
%TO.P,C12,2*%
%TO.N,+3.3V*%
X121507500Y-105530000D03*
%TD*%
D15*
%TO.P,C13,1*%
%TO.N,GND*%
X126380000Y-91592500D03*
%TO.P,C13,2*%
%TO.N,+3.3V*%
X126380000Y-93667500D03*
%TD*%
%TO.P,C15,1*%
%TO.N,Net-(C15-Pad1)*%
X147450000Y-138947500D03*
%TO.P,C15,2*%
%TO.N,GND*%
X147450000Y-141022500D03*
%TD*%
D12*
%TO.P,C16,1*%
%TO.N,GND*%
X82287500Y-120425000D03*
%TO.P,C16,2*%
%TO.N,Net-(C16-Pad2)*%
X84362500Y-120425000D03*
%TD*%
D10*
%TO.P,C17,1*%
%TO.N,GND*%
X107717500Y-115300000D03*
%TO.P,C17,2*%
%TO.N,Net-(C17-Pad2)*%
X105642500Y-115300000D03*
%TD*%
D13*
%TO.P,C19,1*%
%TO.N,Net-(C19-Pad1)*%
X130330000Y-128870000D03*
D14*
%TO.P,C19,2*%
%TO.N,SPKR*%
X130330000Y-131370000D03*
%TD*%
D11*
%TO.P,C20,1*%
%TO.N,GND*%
X162890000Y-96527500D03*
%TO.P,C20,2*%
%TO.N,Net-(C14-Pad1)*%
X162890000Y-94452500D03*
%TD*%
D15*
%TO.P,C21,1*%
%TO.N,GND*%
X135870000Y-93682500D03*
%TO.P,C21,2*%
%TO.N,+3.3V*%
X135870000Y-95757500D03*
%TD*%
D13*
%TO.P,C22,1*%
%TO.N,+3.3V*%
X82000000Y-73968208D03*
D14*
%TO.P,C22,2*%
%TO.N,GND*%
X82000000Y-75968208D03*
%TD*%
D10*
%TO.P,C25,1*%
%TO.N,+3.3V*%
X153287500Y-108230000D03*
%TO.P,C25,2*%
%TO.N,GND*%
X151212500Y-108230000D03*
%TD*%
D12*
%TO.P,C33,1*%
%TO.N,Net-(C33-Pad1)*%
X164432500Y-110450000D03*
%TO.P,C33,2*%
%TO.N,Net-(C33-Pad2)*%
X166507500Y-110450000D03*
%TD*%
D10*
%TO.P,C34,1*%
%TO.N,Net-(C34-Pad1)*%
X163162500Y-140235000D03*
%TO.P,C34,2*%
%TO.N,Net-(C34-Pad2)*%
X161087500Y-140235000D03*
%TD*%
D12*
%TO.P,C35,1*%
%TO.N,Net-(C35-Pad1)*%
X164392500Y-104030000D03*
%TO.P,C35,2*%
%TO.N,Net-(C35-Pad2)*%
X166467500Y-104030000D03*
%TD*%
D16*
%TO.P,D1,1,K*%
%TO.N,+12V*%
X63750000Y-83880000D03*
D17*
%TO.P,D1,2,A*%
%TO.N,GND*%
X63750000Y-91500000D03*
%TD*%
D18*
%TO.P,D2,1,K*%
%TO.N,Net-(D2-Pad1)*%
X108285000Y-122550000D03*
%TO.P,D2,2,A*%
%TO.N,+3.3V*%
X106235000Y-122550000D03*
%TD*%
D19*
%TO.P,D3,1,K*%
%TO.N,GND*%
X106255000Y-124660000D03*
%TO.P,D3,2,A*%
%TO.N,Net-(D3-Pad2)*%
X108305000Y-124660000D03*
%TD*%
D20*
%TO.P,D4,1,K*%
%TO.N,+12V*%
X74000000Y-80000000D03*
%TO.P,D4,2,A*%
%TO.N,+5V*%
X79000000Y-80000000D03*
%TD*%
D21*
%TO.P,D5,1,K*%
%TO.N,+5V*%
X108458000Y-77684000D03*
%TO.P,D5,2,A*%
%TO.N,Net-(D5-Pad2)*%
X108458000Y-72684000D03*
%TD*%
D22*
%TO.P,J1,1,Pin_1*%
%TO.N,Net-(C58-Pad1)*%
X56000000Y-85000000D03*
D23*
%TO.P,J1,2,Pin_2*%
%TO.N,Net-(C58-Pad2)*%
X56000000Y-90080000D03*
%TD*%
D24*
%TO.P,J2,1*%
%TO.N,Net-(C58-Pad2)*%
X60500000Y-75000000D03*
%TO.P,J2,2*%
%TO.N,Net-(C58-Pad1)*%
X54500000Y-75000000D03*
D25*
%TO.P,J2,3*%
%TO.N,unconnected-(J2-Pad3)*%
X57500000Y-79700000D03*
%TD*%
D26*
%TO.P,J5,1,Pin_1*%
%TO.N,+3.3V*%
X109400000Y-103975000D03*
D27*
%TO.P,J5,2,Pin_2*%
X111940000Y-103975000D03*
%TO.P,J5,3,Pin_3*%
%TO.N,Net-(J5-Pad3)*%
X109400000Y-106515000D03*
%TO.P,J5,4,Pin_4*%
%TO.N,Net-(J5-Pad4)*%
X111940000Y-106515000D03*
%TO.P,J5,5,Pin_5*%
%TO.N,GND*%
X109400000Y-109055000D03*
%TO.P,J5,6,Pin_6*%
X111940000Y-109055000D03*
%TD*%
D28*
%TO.P,L2,1,1*%
%TO.N,Net-(C27-Pad1)*%
X148830000Y-106495000D03*
%TO.P,L2,2,2*%
%TO.N,+3.3V*%
X148830000Y-104445000D03*
%TD*%
D18*
%TO.P,L3,1,1*%
%TO.N,Net-(C35-Pad2)*%
X166525000Y-107260000D03*
%TO.P,L3,2,2*%
%TO.N,GND*%
X164475000Y-107260000D03*
%TD*%
D28*
%TO.P,L9,1,1*%
%TO.N,TRANSMIT*%
X141320000Y-71175000D03*
%TO.P,L9,2,2*%
%TO.N,Net-(L9-Pad2)*%
X141320000Y-69125000D03*
%TD*%
D29*
%TO.P,Q3,1,S*%
%TO.N,GND*%
X170350000Y-75630000D03*
D30*
%TO.P,Q3,2,G*%
%TO.N,Net-(C23-Pad2)*%
X172890000Y-75630000D03*
%TO.P,Q3,3,D*%
%TO.N,AMPOUT*%
X175430000Y-75630000D03*
%TD*%
D31*
%TO.P,Q4,1,B*%
%TO.N,Net-(Q4-Pad1)*%
X161212500Y-128860000D03*
%TO.P,Q4,2,E*%
%TO.N,GND*%
X161212500Y-130760000D03*
%TO.P,Q4,3,C*%
%TO.N,Net-(C18-Pad1)*%
X163087500Y-129810000D03*
%TD*%
D32*
%TO.P,SW1,1,1*%
%TO.N,GND*%
X151290000Y-97090000D03*
X151290000Y-90590000D03*
%TO.P,SW1,2,2*%
%TO.N,Net-(C1-Pad2)*%
X146790000Y-97090000D03*
X146790000Y-90590000D03*
%TD*%
%TO.P,SW2,1,1*%
%TO.N,Net-(C10-Pad2)*%
X93425000Y-121025000D03*
X86925000Y-121025000D03*
%TO.P,SW2,2,2*%
%TO.N,GND*%
X93425000Y-125525000D03*
X86925000Y-125525000D03*
%TD*%
%TO.P,SW3,1,1*%
%TO.N,Net-(C16-Pad2)*%
X98650000Y-129325000D03*
X92150000Y-129325000D03*
%TO.P,SW3,2,2*%
%TO.N,GND*%
X92150000Y-133825000D03*
X98650000Y-133825000D03*
%TD*%
%TO.P,SW4,1,1*%
%TO.N,Net-(C17-Pad2)*%
X97225000Y-120975000D03*
X103725000Y-120975000D03*
%TO.P,SW4,2,2*%
%TO.N,GND*%
X103725000Y-125475000D03*
X97225000Y-125475000D03*
%TD*%
%TO.P,SW5,1,1*%
%TO.N,Net-(C11-Pad2)*%
X98625000Y-137625000D03*
X92125000Y-137625000D03*
%TO.P,SW5,2,2*%
%TO.N,GND*%
X98625000Y-142125000D03*
X92125000Y-142125000D03*
%TD*%
D33*
%TO.P,U2,1,VI*%
%TO.N,+12V*%
X66245000Y-66975000D03*
D34*
%TO.P,U2,2,GND*%
%TO.N,GND*%
X68525000Y-60675000D03*
D33*
%TO.P,U2,3,VO*%
%TO.N,+5V*%
X70805000Y-66975000D03*
%TD*%
D35*
%TO.P,Y1,1,1*%
%TO.N,Net-(C4-Pad2)*%
X129200000Y-111730000D03*
%TO.P,Y1,2,2*%
%TO.N,Net-(C2-Pad2)*%
X125500000Y-111730000D03*
%TD*%
D36*
%TO.P,Y2,1,1*%
%TO.N,Net-(C8-Pad2)*%
X127220000Y-108600000D03*
%TO.P,Y2,2,2*%
%TO.N,Net-(C5-Pad2)*%
X124720000Y-108600000D03*
%TD*%
D37*
%TO.P,U1,1,VBAT*%
%TO.N,VBAT*%
X127552000Y-105254500D03*
%TO.P,U1,2,PC13*%
%TO.N,Net-(R1-Pad1)*%
X128052000Y-105254500D03*
%TO.P,U1,3,PC14*%
%TO.N,Net-(C5-Pad2)*%
X128552000Y-105254500D03*
%TO.P,U1,4,PC15*%
%TO.N,Net-(C8-Pad2)*%
X129052000Y-105254500D03*
%TO.P,U1,5,PD0*%
%TO.N,Net-(C2-Pad2)*%
X129552000Y-105254500D03*
%TO.P,U1,6,PD1*%
%TO.N,Net-(C4-Pad2)*%
X130052000Y-105254500D03*
%TO.P,U1,7,NRST*%
%TO.N,Net-(C1-Pad2)*%
X130552000Y-105254500D03*
%TO.P,U1,8,VSSA*%
%TO.N,GND*%
X131052000Y-105254500D03*
%TO.P,U1,9,VDDA*%
%TO.N,Net-(U1-Pad9)*%
X131552000Y-105254500D03*
%TO.P,U1,10,PA0*%
%TO.N,LCH*%
X132052000Y-105254500D03*
%TO.P,U1,11,PA1*%
%TO.N,MICPADDLE*%
X132552000Y-105254500D03*
%TO.P,U1,12,PA2*%
%TO.N,DB4*%
X133052000Y-105254500D03*
D38*
%TO.P,U1,13,PA3*%
%TO.N,DB5*%
X134464500Y-103842000D03*
%TO.P,U1,14,PA4*%
%TO.N,DB6*%
X134464500Y-103342000D03*
%TO.P,U1,15,PA5*%
%TO.N,DB7*%
X134464500Y-102842000D03*
%TO.P,U1,16,PA6*%
%TO.N,TRANSMIT*%
X134464500Y-102342000D03*
%TO.P,U1,17,PA7*%
%TO.N,E*%
X134464500Y-101842000D03*
%TO.P,U1,18,PB0*%
%TO.N,RCH*%
X134464500Y-101342000D03*
%TO.P,U1,19,PB1*%
%TO.N,MUTE*%
X134464500Y-100842000D03*
%TO.P,U1,20,PB2*%
%TO.N,Net-(J5-Pad3)*%
X134464500Y-100342000D03*
%TO.P,U1,21,PB10*%
%TO.N,CS*%
X134464500Y-99842000D03*
%TO.P,U1,22,PB11*%
%TO.N,RS*%
X134464500Y-99342000D03*
%TO.P,U1,23,VSS*%
%TO.N,GND*%
X134464500Y-98842000D03*
%TO.P,U1,24,VDD*%
%TO.N,+3.3V*%
X134464500Y-98342000D03*
D37*
%TO.P,U1,25,PB12*%
%TO.N,Net-(J21-Pad1)*%
X133052000Y-96929500D03*
%TO.P,U1,26,PB13*%
%TO.N,SCK*%
X132552000Y-96929500D03*
%TO.P,U1,27,PB14*%
%TO.N,MISO*%
X132052000Y-96929500D03*
%TO.P,U1,28,PB15*%
%TO.N,MOSI*%
X131552000Y-96929500D03*
%TO.P,U1,29,PA8*%
%TO.N,RADIORESET*%
X131052000Y-96929500D03*
%TO.P,U1,30,PA9*%
%TO.N,TXD*%
X130552000Y-96929500D03*
%TO.P,U1,31,PA10*%
%TO.N,RXD*%
X130052000Y-96929500D03*
%TO.P,U1,32,PA11*%
%TO.N,Net-(R9-Pad1)*%
X129552000Y-96929500D03*
%TO.P,U1,33,PA12*%
%TO.N,Net-(R15-Pad2)*%
X129052000Y-96929500D03*
%TO.P,U1,34,PA13*%
%TO.N,Net-(J25-Pad2)*%
X128552000Y-96929500D03*
%TO.P,U1,35,VSS*%
%TO.N,GND*%
X128052000Y-96929500D03*
%TO.P,U1,36,VDD*%
%TO.N,+3.3V*%
X127552000Y-96929500D03*
D38*
%TO.P,U1,37,PA14*%
%TO.N,Net-(J25-Pad3)*%
X126139500Y-98342000D03*
%TO.P,U1,38,PA15*%
%TO.N,PTT*%
X126139500Y-98842000D03*
%TO.P,U1,39,PB3*%
%TO.N,BACKL*%
X126139500Y-99342000D03*
%TO.P,U1,40,PB4*%
%TO.N,PS2CLK*%
X126139500Y-99842000D03*
%TO.P,U1,41,PB5*%
%TO.N,PS2DATA*%
X126139500Y-100342000D03*
%TO.P,U1,42,PB6*%
%TO.N,SCL*%
X126139500Y-100842000D03*
%TO.P,U1,43,PB7*%
%TO.N,SDA*%
X126139500Y-101342000D03*
%TO.P,U1,44,BOOT0*%
%TO.N,Net-(J5-Pad4)*%
X126139500Y-101842000D03*
%TO.P,U1,45,PB8*%
%TO.N,BEEPOUT*%
X126139500Y-102342000D03*
%TO.P,U1,46,PB9*%
%TO.N,Net-(J9-Pad1)*%
X126139500Y-102842000D03*
%TO.P,U1,47,VSS*%
%TO.N,GND*%
X126139500Y-103342000D03*
%TO.P,U1,48,VDD*%
%TO.N,+3.3V*%
X126139500Y-103842000D03*
%TD*%
D26*
%TO.P,J9,1,Pin_1*%
%TO.N,Net-(J9-Pad1)*%
X116375000Y-105325000D03*
%TD*%
D15*
%TO.P,C37,1*%
%TO.N,+12V*%
X143925000Y-138797500D03*
%TO.P,C37,2*%
%TO.N,GND*%
X143925000Y-140872500D03*
%TD*%
D39*
%TO.P,U3,1*%
%TO.N,Net-(C48-Pad1)*%
X154205000Y-136955000D03*
%TO.P,U3,2,-*%
%TO.N,Net-(RV1-Pad2)*%
X154205000Y-135685000D03*
%TO.P,U3,3,+*%
%TO.N,GND*%
X154205000Y-134415000D03*
%TO.P,U3,4,Gnd*%
X154205000Y-133145000D03*
%TO.P,U3,5*%
%TO.N,Net-(L10-Pad1)*%
X148955000Y-133145000D03*
%TO.P,U3,6,V+*%
%TO.N,+12V*%
X148955000Y-134415000D03*
%TO.P,U3,7*%
%TO.N,Net-(C15-Pad1)*%
X148955000Y-135685000D03*
%TO.P,U3,8*%
%TO.N,Net-(C48-Pad2)*%
X148955000Y-136955000D03*
%TD*%
D40*
%TO.P,U4,1,GND*%
%TO.N,GND*%
X79680000Y-61020000D03*
%TO.P,U4,2,VO*%
%TO.N,+3.3V*%
X77380000Y-61020000D03*
D41*
X77380000Y-67320000D03*
D40*
%TO.P,U4,3,VI*%
%TO.N,+5V*%
X75080000Y-61020000D03*
%TD*%
D29*
%TO.P,Q5,1,S*%
%TO.N,GND*%
X185340000Y-90830000D03*
D30*
%TO.P,Q5,2,G*%
%TO.N,Net-(C23-Pad2)*%
X182800000Y-90830000D03*
%TO.P,Q5,3,D*%
%TO.N,AMPOUT*%
X180260000Y-90830000D03*
%TD*%
D29*
%TO.P,Q6,1,S*%
%TO.N,GND*%
X175560000Y-90680000D03*
D30*
%TO.P,Q6,2,G*%
%TO.N,Net-(C23-Pad2)*%
X173020000Y-90680000D03*
%TO.P,Q6,3,D*%
%TO.N,AMPOUT*%
X170480000Y-90680000D03*
%TD*%
D29*
%TO.P,Q7,1,S*%
%TO.N,GND*%
X179960000Y-75520000D03*
D30*
%TO.P,Q7,2,G*%
%TO.N,Net-(C23-Pad2)*%
X182500000Y-75520000D03*
%TO.P,Q7,3,D*%
%TO.N,AMPOUT*%
X185040000Y-75520000D03*
%TD*%
D12*
%TO.P,C14,1*%
%TO.N,Net-(C14-Pad1)*%
X172162500Y-64800000D03*
%TO.P,C14,2*%
%TO.N,Net-(C14-Pad2)*%
X174237500Y-64800000D03*
%TD*%
D42*
%TO.P,RV3,1,1*%
%TO.N,GND*%
X93500000Y-75000000D03*
%TO.P,RV3,2,2*%
%TO.N,Net-(DS1-Pad3)*%
X91000000Y-80040000D03*
%TO.P,RV3,3,3*%
%TO.N,+5V*%
X88500000Y-75000000D03*
%TD*%
D10*
%TO.P,C42,1*%
%TO.N,+3.3V*%
X78727500Y-71140000D03*
%TO.P,C42,2*%
%TO.N,GND*%
X76652500Y-71140000D03*
%TD*%
D26*
%TO.P,JP3,1,A*%
%TO.N,Net-(C35-Pad2)*%
X169300000Y-106240000D03*
D27*
%TO.P,JP3,2,C*%
%TO.N,RF*%
X169300000Y-108780000D03*
%TO.P,JP3,3,B*%
%TO.N,Net-(C33-Pad2)*%
X169300000Y-111320000D03*
%TD*%
D43*
%TO.P,R1,1*%
%TO.N,Net-(R1-Pad1)*%
X117300000Y-116710000D03*
%TO.P,R1,2*%
%TO.N,Net-(D2-Pad1)*%
X119300000Y-116710000D03*
%TD*%
D44*
%TO.P,R2,1*%
%TO.N,Net-(DS1-Pad15)*%
X111590000Y-81000000D03*
%TO.P,R2,2*%
%TO.N,+5V*%
X111590000Y-79000000D03*
%TD*%
%TO.P,R3,1*%
%TO.N,Net-(C11-Pad2)*%
X102700000Y-97550000D03*
%TO.P,R3,2*%
%TO.N,DB5*%
X102700000Y-95550000D03*
%TD*%
D43*
%TO.P,R4,1*%
%TO.N,+3.3V*%
X106240000Y-126870000D03*
%TO.P,R4,2*%
%TO.N,Net-(D3-Pad2)*%
X108240000Y-126870000D03*
%TD*%
D45*
%TO.P,R6,1*%
%TO.N,Net-(C10-Pad2)*%
X89975000Y-116750000D03*
%TO.P,R6,2*%
%TO.N,+3.3V*%
X87975000Y-116750000D03*
%TD*%
%TO.P,R7,1*%
%TO.N,+3.3V*%
X121396000Y-70104000D03*
%TO.P,R7,2*%
%TO.N,Net-(R15-Pad2)*%
X119396000Y-70104000D03*
%TD*%
D43*
%TO.P,R8,1*%
%TO.N,Net-(C14-Pad2)*%
X172200000Y-62500000D03*
%TO.P,R8,2*%
%TO.N,Net-(C31-Pad2)*%
X174200000Y-62500000D03*
%TD*%
D44*
%TO.P,R9,1*%
%TO.N,Net-(R9-Pad1)*%
X114554000Y-71866000D03*
%TO.P,R9,2*%
%TO.N,Net-(J26-Pad2)*%
X114554000Y-69866000D03*
%TD*%
D43*
%TO.P,R11,1*%
%TO.N,Net-(C19-Pad1)*%
X139840000Y-133270000D03*
%TO.P,R11,2*%
%TO.N,Net-(L10-Pad1)*%
X141840000Y-133270000D03*
%TD*%
D44*
%TO.P,R12,1*%
%TO.N,Net-(C16-Pad2)*%
X85620000Y-118230000D03*
%TO.P,R12,2*%
%TO.N,+3.3V*%
X85620000Y-116230000D03*
%TD*%
D43*
%TO.P,R13,1*%
%TO.N,Net-(C17-Pad2)*%
X105630000Y-117620000D03*
%TO.P,R13,2*%
%TO.N,+3.3V*%
X107630000Y-117620000D03*
%TD*%
D46*
%TO.P,R14,1*%
%TO.N,Net-(C14-Pad2)*%
X154178000Y-68850000D03*
%TO.P,R14,2*%
%TO.N,Net-(D18-Pad2)*%
X154178000Y-70850000D03*
%TD*%
%TO.P,R15,1*%
%TO.N,Net-(J26-Pad3)*%
X111760000Y-69866000D03*
%TO.P,R15,2*%
%TO.N,Net-(R15-Pad2)*%
X111760000Y-71866000D03*
%TD*%
%TO.P,R16,1*%
%TO.N,+3.3V*%
X151770000Y-102920000D03*
%TO.P,R16,2*%
%TO.N,Net-(R16-Pad2)*%
X151770000Y-104920000D03*
%TD*%
D44*
%TO.P,R17,1*%
%TO.N,Net-(C50-Pad1)*%
X158910000Y-102900000D03*
%TO.P,R17,2*%
%TO.N,CLK2*%
X158910000Y-100900000D03*
%TD*%
%TO.P,R18,1*%
%TO.N,SDA*%
X137750000Y-85025000D03*
%TO.P,R18,2*%
%TO.N,+3.3V*%
X137750000Y-83025000D03*
%TD*%
%TO.P,R19,1*%
%TO.N,AUDIO*%
X151560000Y-129520000D03*
%TO.P,R19,2*%
%TO.N,Net-(R19-Pad2)*%
X151560000Y-127520000D03*
%TD*%
D45*
%TO.P,R20,1*%
%TO.N,Net-(Q9-Pad2)*%
X157667200Y-89128600D03*
%TO.P,R20,2*%
%TO.N,Net-(C56-Pad1)*%
X155667200Y-89128600D03*
%TD*%
%TO.P,R21,1*%
%TO.N,Net-(C49-Pad1)*%
X140740000Y-127620000D03*
%TO.P,R21,2*%
%TO.N,GND*%
X138740000Y-127620000D03*
%TD*%
D46*
%TO.P,R23,1*%
%TO.N,Net-(C27-Pad1)*%
X153790000Y-114790000D03*
%TO.P,R23,2*%
%TO.N,Net-(C49-Pad1)*%
X153790000Y-116790000D03*
%TD*%
D44*
%TO.P,R29,1*%
%TO.N,Net-(C10-Pad2)*%
X99940000Y-97540000D03*
%TO.P,R29,2*%
%TO.N,DB4*%
X99940000Y-95540000D03*
%TD*%
%TO.P,R30,1*%
%TO.N,Net-(Q4-Pad1)*%
X141560000Y-106460000D03*
%TO.P,R30,2*%
%TO.N,MUTE*%
X141560000Y-104460000D03*
%TD*%
D43*
%TO.P,R31,1*%
%TO.N,Net-(C60-Pad2)*%
X161125000Y-137860000D03*
%TO.P,R31,2*%
%TO.N,Net-(C34-Pad1)*%
X163125000Y-137860000D03*
%TD*%
D44*
%TO.P,R32,1*%
%TO.N,AUDIO*%
X158700000Y-132950000D03*
%TO.P,R32,2*%
%TO.N,Net-(C18-Pad1)*%
X158700000Y-130950000D03*
%TD*%
%TO.P,R33,1*%
%TO.N,Net-(C11-Pad2)*%
X87970000Y-134760000D03*
%TO.P,R33,2*%
%TO.N,+3.3V*%
X87970000Y-132760000D03*
%TD*%
D43*
%TO.P,R34,1*%
%TO.N,Net-(C18-Pad1)*%
X161125000Y-135560000D03*
%TO.P,R34,2*%
%TO.N,Net-(C34-Pad1)*%
X163125000Y-135560000D03*
%TD*%
D44*
%TO.P,R46,1*%
%TO.N,Net-(C17-Pad2)*%
X108360000Y-97530000D03*
%TO.P,R46,2*%
%TO.N,DB7*%
X108360000Y-95530000D03*
%TD*%
%TO.P,R47,1*%
%TO.N,Net-(C16-Pad2)*%
X105610000Y-97560000D03*
%TO.P,R47,2*%
%TO.N,DB6*%
X105610000Y-95560000D03*
%TD*%
D46*
%TO.P,R24,1*%
%TO.N,Net-(R24-Pad1)*%
X153660000Y-127510000D03*
%TO.P,R24,2*%
%TO.N,AUDIO*%
X153660000Y-129510000D03*
%TD*%
D10*
%TO.P,C44,1*%
%TO.N,GND*%
X68267500Y-70000000D03*
%TO.P,C44,2*%
%TO.N,+12V*%
X66192500Y-70000000D03*
%TD*%
D26*
%TO.P,JP4,1,1*%
%TO.N,Net-(C26-Pad2)*%
X169660000Y-126990000D03*
D27*
%TO.P,JP4,2,2*%
%TO.N,Net-(J18-Pad3)*%
X169660000Y-129530000D03*
%TD*%
D15*
%TO.P,C47,1*%
%TO.N,GND*%
X143030000Y-73892500D03*
%TO.P,C47,2*%
%TO.N,+3.3V*%
X143030000Y-75967500D03*
%TD*%
D44*
%TO.P,R35,1*%
%TO.N,SCL*%
X135075000Y-85050000D03*
%TO.P,R35,2*%
%TO.N,+3.3V*%
X135075000Y-83050000D03*
%TD*%
%TO.P,R48,1*%
%TO.N,Net-(R16-Pad2)*%
X153810000Y-104930000D03*
%TO.P,R48,2*%
%TO.N,GND*%
X153810000Y-102930000D03*
%TD*%
D43*
%TO.P,R49,1*%
%TO.N,Net-(R49-Pad1)*%
X150892000Y-77550000D03*
%TO.P,R49,2*%
%TO.N,Net-(C56-Pad2)*%
X152892000Y-77550000D03*
%TD*%
%TO.P,R50,1*%
%TO.N,Net-(R50-Pad1)*%
X150892000Y-80975000D03*
%TO.P,R50,2*%
%TO.N,Net-(C56-Pad2)*%
X152892000Y-80975000D03*
%TD*%
D47*
%TO.P,U6,1,Vdd*%
%TO.N,+3.3V*%
X143290000Y-78670000D03*
%TO.P,U6,2,XA*%
%TO.N,Net-(U6-Pad2)*%
X143290000Y-79170000D03*
%TO.P,U6,3,XB*%
%TO.N,Net-(U6-Pad3)*%
X143290000Y-79670000D03*
%TO.P,U6,4,SCL*%
%TO.N,SCL*%
X143290000Y-80170000D03*
%TO.P,U6,5,SDA*%
%TO.N,SDA*%
X143290000Y-80670000D03*
%TO.P,U6,6,CLK2*%
%TO.N,CLK2*%
X147690000Y-80670000D03*
%TO.P,U6,7,VDDO*%
%TO.N,+3.3V*%
X147690000Y-80170000D03*
%TO.P,U6,8,GND*%
%TO.N,GND*%
X147690000Y-79670000D03*
%TO.P,U6,9,CLK1*%
%TO.N,Net-(R50-Pad1)*%
X147690000Y-79170000D03*
%TO.P,U6,10,CLK0*%
%TO.N,Net-(R49-Pad1)*%
X147690000Y-78670000D03*
%TD*%
D48*
%TO.P,Y3,1,1*%
%TO.N,Net-(U6-Pad3)*%
X136218000Y-79248000D03*
%TO.P,Y3,2,2*%
%TO.N,unconnected-(Y3-Pad2)*%
X139118000Y-79248000D03*
%TO.P,Y3,3,3*%
%TO.N,Net-(U6-Pad2)*%
X139118000Y-76948000D03*
%TO.P,Y3,4,4*%
%TO.N,unconnected-(Y3-Pad4)*%
X136218000Y-76948000D03*
%TD*%
D49*
%TO.P,J12,1,In*%
%TO.N,Net-(J12-Pad1)*%
X181945000Y-129425000D03*
D22*
X184673000Y-131711000D03*
D49*
%TO.P,J12,2,Ext*%
%TO.N,GND*%
X181945000Y-126885000D03*
D23*
X184673000Y-126631000D03*
%TD*%
D50*
%TO.P,RLY1,1,Coil*%
%TO.N,TXRELAY*%
X187775000Y-98845000D03*
%TO.P,RLY1,2,Pole*%
%TO.N,AMPOUT*%
X187775000Y-106465000D03*
%TO.P,RLY1,3,NC*%
%TO.N,Net-(RLY1-Pad3)*%
X187775000Y-111545000D03*
%TO.P,RLY1,4,NO*%
%TO.N,Net-(C26-Pad1)*%
X187775000Y-116625000D03*
%TO.P,RLY1,5,Coil*%
%TO.N,GND*%
X180175000Y-98845000D03*
%TO.P,RLY1,6,Pole*%
%TO.N,RF*%
X180175000Y-106465000D03*
%TO.P,RLY1,7,NC*%
%TO.N,Net-(JP7-Pad2)*%
X180175000Y-111545000D03*
%TO.P,RLY1,8,NO*%
%TO.N,unconnected-(RLY1-Pad8)*%
X180175000Y-116625000D03*
%TD*%
D10*
%TO.P,C30,1*%
%TO.N,Net-(C27-Pad1)*%
X160477500Y-117040000D03*
%TO.P,C30,2*%
%TO.N,Net-(C30-Pad2)*%
X158402500Y-117040000D03*
%TD*%
D51*
%TO.P,D9,1,K*%
%TO.N,RF*%
X176270000Y-104640000D03*
%TO.P,D9,2,A*%
%TO.N,Net-(D11-Pad1)*%
X176270000Y-107940000D03*
%TD*%
D43*
%TO.P,R5,1*%
%TO.N,+3.3V*%
X139800000Y-95850000D03*
%TO.P,R5,2*%
%TO.N,Net-(C1-Pad2)*%
X141800000Y-95850000D03*
%TD*%
D45*
%TO.P,R22,1*%
%TO.N,Net-(R19-Pad2)*%
X138220000Y-124970000D03*
%TO.P,R22,2*%
%TO.N,Net-(R22-Pad2)*%
X136220000Y-124970000D03*
%TD*%
D46*
%TO.P,R25,1*%
%TO.N,Net-(R24-Pad1)*%
X150950000Y-123750000D03*
%TO.P,R25,2*%
%TO.N,Net-(R25-Pad2)*%
X150950000Y-125750000D03*
%TD*%
D52*
%TO.P,Q8,1,E*%
%TO.N,Net-(C31-Pad2)*%
X165608000Y-71374000D03*
D49*
%TO.P,Q8,2,B*%
%TO.N,Net-(C14-Pad2)*%
X165608000Y-73914000D03*
%TO.P,Q8,3,C*%
%TO.N,Net-(C14-Pad1)*%
X165608000Y-76454000D03*
%TD*%
D43*
%TO.P,R38,1*%
%TO.N,Net-(D18-Pad1)*%
X169790000Y-59950000D03*
%TO.P,R38,2*%
%TO.N,Net-(D15-Pad1)*%
X171790000Y-59950000D03*
%TD*%
D45*
%TO.P,R39,1*%
%TO.N,Net-(Q13-Pad1)*%
X180000000Y-64900000D03*
%TO.P,R39,2*%
%TO.N,Net-(D15-Pad2)*%
X178000000Y-64900000D03*
%TD*%
D26*
%TO.P,JP1,1,1*%
%TO.N,Net-(D15-Pad2)*%
X174030000Y-70000000D03*
D27*
%TO.P,JP1,2,2*%
%TO.N,Net-(C31-Pad1)*%
X176570000Y-70000000D03*
%TD*%
D10*
%TO.P,C39,1*%
%TO.N,Net-(C39-Pad1)*%
X153807500Y-112720000D03*
%TO.P,C39,2*%
%TO.N,Net-(C39-Pad2)*%
X151732500Y-112720000D03*
%TD*%
D26*
%TO.P,JP2,1,1*%
%TO.N,Net-(J12-Pad1)*%
X173430000Y-126910000D03*
D27*
%TO.P,JP2,2,2*%
%TO.N,Net-(J18-Pad3)*%
X173430000Y-129450000D03*
%TD*%
D53*
%TO.P,T3,1,RF*%
%TO.N,Net-(J18-Pad3)*%
X173355000Y-140970000D03*
%TO.P,T3,2,RF*%
%TO.N,Net-(J12-Pad1)*%
X180975000Y-140970000D03*
%TO.P,T3,3,SAMPLE*%
%TO.N,GND*%
X177228500Y-143764000D03*
%TO.P,T3,4,SAMPLE*%
%TO.N,Net-(D16-Pad2)*%
X177228500Y-138176000D03*
%TD*%
D54*
%TO.P,D16,1,K*%
%TO.N,Net-(D16-Pad1)*%
X178850000Y-131360000D03*
%TO.P,D16,2,A*%
%TO.N,Net-(D16-Pad2)*%
X178850000Y-133410000D03*
%TD*%
D45*
%TO.P,R28,1*%
%TO.N,Net-(D16-Pad1)*%
X174660000Y-133250000D03*
%TO.P,R28,2*%
%TO.N,GND*%
X172660000Y-133250000D03*
%TD*%
D51*
%TO.P,D17,1,K*%
%TO.N,Net-(C23-Pad2)*%
X157000000Y-82675000D03*
%TO.P,D17,2,A*%
%TO.N,GND*%
X157000000Y-85975000D03*
%TD*%
D29*
%TO.P,Q9,1,S*%
%TO.N,Net-(Q9-Pad1)*%
X170670000Y-95770000D03*
D30*
%TO.P,Q9,2,G*%
%TO.N,Net-(Q9-Pad2)*%
X168130000Y-95770000D03*
%TO.P,Q9,3,D*%
%TO.N,Net-(C14-Pad1)*%
X165590000Y-95770000D03*
%TD*%
D12*
%TO.P,C46,1*%
%TO.N,GND*%
X148012500Y-63810000D03*
%TO.P,C46,2*%
%TO.N,Net-(C31-Pad2)*%
X150087500Y-63810000D03*
%TD*%
D45*
%TO.P,R51,1*%
%TO.N,Net-(Q9-Pad1)*%
X167525000Y-90800000D03*
%TO.P,R51,2*%
%TO.N,Net-(C23-Pad1)*%
X165525000Y-90800000D03*
%TD*%
D46*
%TO.P,R52,1*%
%TO.N,Net-(C14-Pad1)*%
X159766000Y-87138000D03*
%TO.P,R52,2*%
%TO.N,Net-(Q9-Pad2)*%
X159766000Y-89138000D03*
%TD*%
D15*
%TO.P,C24,1*%
%TO.N,GND*%
X166830000Y-64032500D03*
%TO.P,C24,2*%
%TO.N,Net-(C14-Pad1)*%
X166830000Y-66107500D03*
%TD*%
D45*
%TO.P,R53,1*%
%TO.N,Net-(C23-Pad2)*%
X160050000Y-79875000D03*
%TO.P,R53,2*%
%TO.N,Net-(C14-Pad1)*%
X158050000Y-79875000D03*
%TD*%
D11*
%TO.P,C56,1*%
%TO.N,Net-(C56-Pad1)*%
X153430000Y-85197500D03*
%TO.P,C56,2*%
%TO.N,Net-(C56-Pad2)*%
X153430000Y-83122500D03*
%TD*%
D26*
%TO.P,JP7,1,1*%
%TO.N,Net-(J17-Pad4)*%
X176560000Y-116780000D03*
D27*
%TO.P,JP7,2,2*%
%TO.N,Net-(JP7-Pad2)*%
X174020000Y-116780000D03*
%TO.P,JP7,3,3*%
%TO.N,Net-(J18-Pad3)*%
X171480000Y-116780000D03*
%TD*%
D55*
%TO.P,Q12,1,B*%
%TO.N,Net-(Q12-Pad1)*%
X150180000Y-70787500D03*
%TO.P,Q12,2,E*%
%TO.N,GND*%
X152080000Y-70787500D03*
%TO.P,Q12,3,C*%
%TO.N,Net-(D18-Pad1)*%
X151130000Y-68912500D03*
%TD*%
D31*
%TO.P,Q13,1,B*%
%TO.N,Net-(Q13-Pad1)*%
X182312500Y-65050000D03*
%TO.P,Q13,2,E*%
%TO.N,Net-(C31-Pad2)*%
X182312500Y-66950000D03*
%TO.P,Q13,3,C*%
%TO.N,TXRELAY*%
X184187500Y-66000000D03*
%TD*%
D43*
%TO.P,R65,1*%
%TO.N,Net-(L9-Pad2)*%
X143670000Y-68760000D03*
%TO.P,R65,2*%
%TO.N,Net-(Q12-Pad1)*%
X145670000Y-68760000D03*
%TD*%
D46*
%TO.P,R66,1*%
%TO.N,Net-(Q9-Pad2)*%
X162470000Y-98680000D03*
%TO.P,R66,2*%
%TO.N,GND*%
X162470000Y-100680000D03*
%TD*%
D44*
%TO.P,R67,1*%
%TO.N,GND*%
X159550000Y-85100000D03*
%TO.P,R67,2*%
%TO.N,Net-(C23-Pad2)*%
X159550000Y-83100000D03*
%TD*%
D13*
%TO.P,P1,1,1*%
%TO.N,PS2DATA*%
X90630000Y-65930000D03*
D14*
%TO.P,P1,2,2*%
%TO.N,unconnected-(P1-Pad2)*%
X93230000Y-65930000D03*
%TO.P,P1,3,3*%
%TO.N,GND*%
X88530000Y-65930000D03*
%TO.P,P1,4,4*%
%TO.N,+5V*%
X95330000Y-65930000D03*
%TO.P,P1,5,5*%
%TO.N,PS2CLK*%
X88530000Y-68730000D03*
%TO.P,P1,6*%
%TO.N,unconnected-(P1-Pad6)*%
X95330000Y-68730000D03*
D56*
%TO.P,P1,7,Shell*%
%TO.N,GND*%
X85080000Y-63080000D03*
X98780000Y-63080000D03*
D57*
X91930000Y-62280000D03*
%TD*%
D44*
%TO.P,R64,1*%
%TO.N,PS2CLK*%
X82330000Y-67990000D03*
%TO.P,R64,2*%
%TO.N,+5V*%
X82330000Y-65990000D03*
%TD*%
D45*
%TO.P,R70,1*%
%TO.N,+5V*%
X104110000Y-70580000D03*
%TO.P,R70,2*%
%TO.N,PS2DATA*%
X102110000Y-70580000D03*
%TD*%
D28*
%TO.P,D19,1,K*%
%TO.N,Net-(D19-Pad1)*%
X160880000Y-60207000D03*
%TO.P,D19,2,A*%
%TO.N,Net-(C31-Pad2)*%
X160880000Y-58157000D03*
%TD*%
D45*
%TO.P,R71,1*%
%TO.N,Net-(D18-Pad1)*%
X167810000Y-59930000D03*
%TO.P,R71,2*%
%TO.N,Net-(D19-Pad1)*%
X165810000Y-59930000D03*
%TD*%
D12*
%TO.P,C32,1*%
%TO.N,AMPOUT*%
X174542500Y-94520000D03*
%TO.P,C32,2*%
%TO.N,GND*%
X176617500Y-94520000D03*
%TD*%
D55*
%TO.P,Q14,1,B*%
%TO.N,Net-(Q14-Pad1)*%
X117875000Y-86887500D03*
%TO.P,Q14,2,E*%
%TO.N,GND*%
X119775000Y-86887500D03*
%TO.P,Q14,3,C*%
%TO.N,Net-(DS1-Pad16)*%
X118825000Y-85012500D03*
%TD*%
D43*
%TO.P,R72,1*%
%TO.N,Net-(Q14-Pad1)*%
X120375000Y-94500000D03*
%TO.P,R72,2*%
%TO.N,BACKL*%
X122375000Y-94500000D03*
%TD*%
D15*
%TO.P,C38,1*%
%TO.N,Net-(C38-Pad1)*%
X147075000Y-72037500D03*
%TO.P,C38,2*%
%TO.N,GND*%
X147075000Y-74112500D03*
%TD*%
D46*
%TO.P,R73,1*%
%TO.N,Net-(C38-Pad1)*%
X155975000Y-78750000D03*
%TO.P,R73,2*%
%TO.N,Net-(C23-Pad2)*%
X155975000Y-80750000D03*
%TD*%
D58*
%TO.P,RV4,1,1*%
%TO.N,+5V*%
X142790000Y-59940000D03*
%TO.P,RV4,2,2*%
%TO.N,Net-(L11-Pad2)*%
X142790000Y-62480000D03*
%TO.P,RV4,3,3*%
%TO.N,GND*%
X142790000Y-65020000D03*
%TD*%
D46*
%TO.P,R74,1*%
%TO.N,AMPOUT*%
X167225000Y-85675000D03*
%TO.P,R74,2*%
X167225000Y-87675000D03*
%TD*%
D28*
%TO.P,L11,1,1*%
%TO.N,Net-(C38-Pad1)*%
X147900000Y-68675000D03*
%TO.P,L11,2,2*%
%TO.N,Net-(L11-Pad2)*%
X147900000Y-66625000D03*
%TD*%
D59*
%TO.P,J3,1,Pin_1*%
%TO.N,GND*%
X54000000Y-61000000D03*
%TD*%
%TO.P,J4,1,Pin_1*%
%TO.N,GND*%
X185500000Y-60500000D03*
%TD*%
%TO.P,J6,1,Pin_1*%
%TO.N,GND*%
X185500000Y-141000000D03*
%TD*%
%TO.P,J7,1,Pin_1*%
%TO.N,GND*%
X54000000Y-140500000D03*
%TD*%
D15*
%TO.P,C41,1*%
%TO.N,Net-(C19-Pad1)*%
X127225000Y-135247500D03*
%TO.P,C41,2*%
%TO.N,GND*%
X127225000Y-137322500D03*
%TD*%
D12*
%TO.P,C58,1*%
%TO.N,Net-(C58-Pad1)*%
X54500000Y-67000000D03*
%TO.P,C58,2*%
%TO.N,Net-(C58-Pad2)*%
X56575000Y-67000000D03*
%TD*%
D49*
%TO.P,T4,1*%
%TO.N,Net-(C58-Pad1)*%
X60000000Y-67310000D03*
%TO.P,T4,2*%
%TO.N,GND*%
X60000000Y-59690000D03*
%TO.P,T4,3*%
%TO.N,Net-(C58-Pad2)*%
X62540000Y-67310000D03*
%TO.P,T4,4*%
%TO.N,+12V*%
X62540000Y-59690000D03*
%TD*%
D10*
%TO.P,C27,1*%
%TO.N,Net-(C27-Pad1)*%
X153787500Y-110600000D03*
%TO.P,C27,2*%
%TO.N,GND*%
X151712500Y-110600000D03*
%TD*%
D16*
%TO.P,D6,1,K*%
%TO.N,AMPOUT*%
X187700000Y-95360000D03*
D17*
%TO.P,D6,2,A*%
%TO.N,GND*%
X180080000Y-95360000D03*
%TD*%
D45*
%TO.P,R76,1*%
%TO.N,Net-(C66-Pad2)*%
X84566000Y-95758000D03*
%TO.P,R76,2*%
%TO.N,Net-(C66-Pad1)*%
X82566000Y-95758000D03*
%TD*%
D14*
%TO.P,R41,1*%
%TO.N,GND*%
X164750000Y-100820000D03*
D60*
%TO.P,R41,2*%
%TO.N,Net-(Q9-Pad1)*%
X177450000Y-100820000D03*
%TD*%
D12*
%TO.P,C7,1*%
%TO.N,GND*%
X131502500Y-116570000D03*
%TO.P,C7,2*%
%TO.N,MICPADDLE*%
X133577500Y-116570000D03*
%TD*%
D14*
%TO.P,L10,1,1*%
%TO.N,Net-(L10-Pad1)*%
X139750000Y-136660000D03*
D60*
%TO.P,L10,2,2*%
%TO.N,Net-(C19-Pad1)*%
X129590000Y-136660000D03*
%TD*%
D26*
%TO.P,J14,1,Pin_1*%
%TO.N,AUDIO*%
X158220000Y-135730000D03*
%TD*%
%TO.P,J15,1,Pin_1*%
%TO.N,GND*%
X169175000Y-140985000D03*
%TD*%
%TO.P,J16,1,Pin_1*%
%TO.N,GND*%
X179900000Y-58900000D03*
%TD*%
D13*
%TO.P,C3,1*%
%TO.N,+12V*%
X65500000Y-76000000D03*
D14*
%TO.P,C3,2*%
%TO.N,GND*%
X69000000Y-76000000D03*
%TD*%
D53*
%TO.P,L4,1,1*%
%TO.N,+12V*%
X152146000Y-58039000D03*
%TO.P,L4,2,2*%
%TO.N,Net-(C31-Pad2)*%
X152146000Y-61849000D03*
%TD*%
%TO.P,L6,1,1*%
%TO.N,Net-(C14-Pad1)*%
X161895000Y-82875000D03*
%TO.P,L6,2,2*%
%TO.N,AMPOUT*%
X165705000Y-82875000D03*
%TD*%
D61*
%TO.P,Q15,1,G*%
%TO.N,Net-(C23-Pad2)*%
X187210000Y-80770000D03*
D62*
%TO.P,Q15,2,D*%
%TO.N,AMPOUT*%
X187210000Y-83310000D03*
%TO.P,Q15,3,S*%
%TO.N,GND*%
X187210000Y-85850000D03*
%TD*%
D12*
%TO.P,C18,1*%
%TO.N,Net-(C18-Pad1)*%
X161162500Y-133110000D03*
%TO.P,C18,2*%
%TO.N,GND*%
X163237500Y-133110000D03*
%TD*%
%TO.P,C60,1*%
%TO.N,GND*%
X155662500Y-139020000D03*
%TO.P,C60,2*%
%TO.N,Net-(C60-Pad2)*%
X157737500Y-139020000D03*
%TD*%
D43*
%TO.P,R10,1*%
%TO.N,BEEPOUT*%
X121410000Y-116430000D03*
%TO.P,R10,2*%
%TO.N,Net-(C60-Pad2)*%
X123410000Y-116430000D03*
%TD*%
D63*
%TO.P,D15,1,K*%
%TO.N,Net-(D15-Pad1)*%
X173530000Y-59990000D03*
%TO.P,D15,2,A*%
%TO.N,Net-(D15-Pad2)*%
X176830000Y-59990000D03*
%TD*%
%TO.P,D18,1,K*%
%TO.N,Net-(D18-Pad1)*%
X149988000Y-73406000D03*
%TO.P,D18,2,A*%
%TO.N,Net-(D18-Pad2)*%
X153288000Y-73406000D03*
%TD*%
D50*
%TO.P,RV1,1,1*%
%TO.N,Net-(C34-Pad2)*%
X135900000Y-143800000D03*
D42*
X138400000Y-140800000D03*
D50*
%TO.P,RV1,2,2*%
%TO.N,Net-(RV1-Pad2)*%
X133400000Y-143800000D03*
D42*
X133400000Y-140800000D03*
D50*
%TO.P,RV1,3,3*%
%TO.N,GND*%
X130900000Y-143800000D03*
D42*
X128400000Y-140800000D03*
%TD*%
D21*
%TO.P,D8,1,K*%
%TO.N,TXRELAY*%
X187250000Y-66500000D03*
%TO.P,D8,2,A*%
%TO.N,GND*%
X187250000Y-71500000D03*
%TD*%
D26*
%TO.P,J10,1,Pin_1*%
%TO.N,TRANSMIT*%
X140410000Y-100830000D03*
%TD*%
D12*
%TO.P,C61,1*%
%TO.N,GND*%
X106932500Y-130770000D03*
%TO.P,C61,2*%
%TO.N,Net-(C61-Pad2)*%
X109007500Y-130770000D03*
%TD*%
D44*
%TO.P,R40,1*%
%TO.N,Net-(C61-Pad2)*%
X97390000Y-97500000D03*
%TO.P,R40,2*%
%TO.N,RS*%
X97390000Y-95500000D03*
%TD*%
D43*
%TO.P,R75,1*%
%TO.N,Net-(C61-Pad2)*%
X101290000Y-130760000D03*
%TO.P,R75,2*%
%TO.N,+3.3V*%
X103290000Y-130760000D03*
%TD*%
D32*
%TO.P,SW6,1,1*%
%TO.N,Net-(C61-Pad2)*%
X102025000Y-133425000D03*
X108525000Y-133425000D03*
%TO.P,SW6,2,2*%
%TO.N,GND*%
X108525000Y-137925000D03*
X102025000Y-137925000D03*
%TD*%
D13*
%TO.P,C53,1*%
%TO.N,+12V*%
X123500000Y-126260000D03*
D14*
%TO.P,C53,2*%
%TO.N,GND*%
X120000000Y-126260000D03*
%TD*%
D26*
%TO.P,J17,1,Pin_1*%
%TO.N,GND*%
X156210000Y-123190000D03*
D27*
%TO.P,J17,2,Pin_2*%
X158750000Y-123190000D03*
%TO.P,J17,3,Pin_3*%
%TO.N,Net-(C26-Pad2)*%
X161290000Y-123190000D03*
%TO.P,J17,4,Pin_4*%
%TO.N,Net-(J17-Pad4)*%
X163830000Y-123190000D03*
%TD*%
D26*
%TO.P,J18,1,Pin_1*%
%TO.N,GND*%
X156220000Y-143510000D03*
D27*
%TO.P,J18,2,Pin_2*%
X158760000Y-143510000D03*
%TO.P,J18,3,Pin_3*%
%TO.N,Net-(J18-Pad3)*%
X161300000Y-143510000D03*
%TO.P,J18,4,Pin_4*%
X163840000Y-143510000D03*
%TD*%
D10*
%TO.P,C26,1*%
%TO.N,Net-(C26-Pad1)*%
X172587500Y-121230000D03*
%TO.P,C26,2*%
%TO.N,Net-(C26-Pad2)*%
X170512500Y-121230000D03*
%TD*%
D11*
%TO.P,C23,1*%
%TO.N,Net-(C23-Pad1)*%
X162250000Y-91525000D03*
%TO.P,C23,2*%
%TO.N,Net-(C23-Pad2)*%
X162250000Y-89450000D03*
%TD*%
D64*
%TO.P,J19,G*%
%TO.N,GND*%
X64800000Y-142860000D03*
D65*
%TO.P,J19,S1*%
%TO.N,Net-(C68-Pad2)*%
X59600000Y-134960000D03*
D66*
%TO.P,J19,SN1*%
%TO.N,unconnected-(J19-PadSN1)*%
X62200000Y-135960000D03*
D65*
%TO.P,J19,T1*%
%TO.N,Net-(C67-Pad2)*%
X69600000Y-138460000D03*
D67*
%TO.P,J19,TN1*%
%TO.N,unconnected-(J19-PadTN1)*%
X69100000Y-131560000D03*
%TD*%
D11*
%TO.P,C36,1*%
%TO.N,GND*%
X61550000Y-118207500D03*
%TO.P,C36,2*%
%TO.N,+5V*%
X61550000Y-116132500D03*
%TD*%
D51*
%TO.P,D10,1,K*%
%TO.N,GND*%
X173690000Y-112900000D03*
%TO.P,D10,2,A*%
%TO.N,Net-(D10-Pad2)*%
X173690000Y-109600000D03*
%TD*%
D45*
%TO.P,R80,1*%
%TO.N,PTT*%
X83375000Y-126425000D03*
%TO.P,R80,2*%
%TO.N,Net-(L8-Pad1)*%
X81375000Y-126425000D03*
%TD*%
D68*
%TO.P,U5,1*%
%TO.N,Net-(C66-Pad2)*%
X84212500Y-101753000D03*
%TO.P,U5,2,-*%
%TO.N,Net-(C66-Pad1)*%
X82942500Y-101753000D03*
%TO.P,U5,3,+*%
%TO.N,Net-(C64-Pad2)*%
X81672500Y-101753000D03*
%TO.P,U5,4,V-*%
%TO.N,GND*%
X80402500Y-101753000D03*
%TO.P,U5,5,+*%
%TO.N,Net-(C64-Pad2)*%
X80402500Y-107003000D03*
%TO.P,U5,6,-*%
%TO.N,Net-(C69-Pad1)*%
X81672500Y-107003000D03*
%TO.P,U5,7*%
%TO.N,Net-(C69-Pad2)*%
X82942500Y-107003000D03*
%TO.P,U5,8,V+*%
%TO.N,+5V*%
X84212500Y-107003000D03*
%TD*%
D12*
%TO.P,C69,1*%
%TO.N,Net-(C69-Pad1)*%
X81340000Y-109838000D03*
%TO.P,C69,2*%
%TO.N,Net-(C69-Pad2)*%
X83415000Y-109838000D03*
%TD*%
D63*
%TO.P,D14,1,K*%
%TO.N,+3.3V*%
X139950000Y-114780000D03*
%TO.P,D14,2,A*%
%TO.N,LCH*%
X136650000Y-114780000D03*
%TD*%
D12*
%TO.P,C67,1*%
%TO.N,GND*%
X68812500Y-128750000D03*
%TO.P,C67,2*%
%TO.N,Net-(C67-Pad2)*%
X70887500Y-128750000D03*
%TD*%
D18*
%TO.P,L12,1,1*%
%TO.N,Net-(L12-Pad1)*%
X83425000Y-128900000D03*
%TO.P,L12,2,2*%
%TO.N,Net-(C68-Pad2)*%
X81375000Y-128900000D03*
%TD*%
D45*
%TO.P,R56,1*%
%TO.N,Net-(U1-Pad9)*%
X121440000Y-107660000D03*
%TO.P,R56,2*%
%TO.N,+3.3V*%
X119440000Y-107660000D03*
%TD*%
D12*
%TO.P,C49,1*%
%TO.N,Net-(C49-Pad1)*%
X156892500Y-128580000D03*
%TO.P,C49,2*%
%TO.N,GND*%
X158967500Y-128580000D03*
%TD*%
D43*
%TO.P,R36,1*%
%TO.N,Net-(R24-Pad1)*%
X150310000Y-121880000D03*
%TO.P,R36,2*%
%TO.N,GND*%
X152310000Y-121880000D03*
%TD*%
D69*
%TO.P,U8,1,DOUT*%
%TO.N,unconnected-(U8-Pad1)*%
X162250000Y-113617500D03*
%TO.P,U8,2,DFS*%
%TO.N,unconnected-(U8-Pad2)*%
X162250000Y-112982500D03*
%TO.P,U8,3,GPO3/[DCLK]*%
%TO.N,Net-(C51-Pad1)*%
X162250000Y-112347500D03*
%TO.P,U8,4,GPO2/[~{INT}]*%
%TO.N,unconnected-(U8-Pad4)*%
X162250000Y-111712500D03*
%TO.P,U8,5,GPO1*%
%TO.N,unconnected-(U8-Pad5)*%
X162250000Y-111077500D03*
%TO.P,U8,6,NC*%
%TO.N,unconnected-(U8-Pad6)*%
X162250000Y-110442500D03*
%TO.P,U8,7,NC*%
%TO.N,unconnected-(U8-Pad7)*%
X162250000Y-109807500D03*
%TO.P,U8,8,FMI*%
%TO.N,Net-(C33-Pad1)*%
X162250000Y-109172500D03*
%TO.P,U8,9,RFGND*%
%TO.N,GND*%
X162250000Y-108537500D03*
%TO.P,U8,10,NC*%
%TO.N,unconnected-(U8-Pad10)*%
X162250000Y-107902500D03*
%TO.P,U8,11,NC*%
%TO.N,unconnected-(U8-Pad11)*%
X162250000Y-107267500D03*
%TO.P,U8,12,AMI*%
%TO.N,Net-(C35-Pad1)*%
X162250000Y-106632500D03*
%TO.P,U8,13,GND*%
%TO.N,GND*%
X157050000Y-106632500D03*
%TO.P,U8,14,GND*%
X157050000Y-107267500D03*
%TO.P,U8,15,~{RST}*%
%TO.N,RADIORESET*%
X157050000Y-107902500D03*
%TO.P,U8,16,~{SEN}*%
%TO.N,Net-(R16-Pad2)*%
X157050000Y-108537500D03*
%TO.P,U8,17,SCLK*%
%TO.N,SCL*%
X157050000Y-109172500D03*
%TO.P,U8,18,SDIO*%
%TO.N,SDA*%
X157050000Y-109807500D03*
%TO.P,U8,19,RCLK*%
%TO.N,Net-(C50-Pad1)*%
X157050000Y-110442500D03*
%TO.P,U8,20,VD*%
%TO.N,+3.3V*%
X157050000Y-111077500D03*
%TO.P,U8,21,VA*%
%TO.N,Net-(C27-Pad1)*%
X157050000Y-111712500D03*
%TO.P,U8,22,DBYP*%
%TO.N,Net-(C30-Pad2)*%
X157050000Y-112347500D03*
%TO.P,U8,23,ROUT/[DOUT]*%
%TO.N,Net-(C39-Pad1)*%
X157050000Y-112982500D03*
%TO.P,U8,24,LOUT/[DFS]*%
%TO.N,Net-(C28-Pad1)*%
X157050000Y-113617500D03*
%TD*%
D46*
%TO.P,R42,1*%
%TO.N,+5V*%
X59080000Y-116210000D03*
%TO.P,R42,2*%
%TO.N,Net-(C62-Pad2)*%
X59080000Y-118210000D03*
%TD*%
D43*
%TO.P,R77,1*%
%TO.N,Net-(C66-Pad2)*%
X87070000Y-101760000D03*
%TO.P,R77,2*%
%TO.N,GND*%
X89070000Y-101760000D03*
%TD*%
D63*
%TO.P,D12,1,K*%
%TO.N,+3.3V*%
X123870000Y-120760000D03*
%TO.P,D12,2,A*%
%TO.N,MICPADDLE*%
X127170000Y-120760000D03*
%TD*%
D45*
%TO.P,R69,1*%
%TO.N,Net-(C66-Pad1)*%
X74136000Y-105410000D03*
%TO.P,R69,2*%
%TO.N,Net-(JP6-Pad2)*%
X72136000Y-105410000D03*
%TD*%
D23*
%TO.P,DS1,*%
%TO.N,*%
X68830900Y-85230000D03*
X68830900Y-116230700D03*
X143830000Y-85230000D03*
X143829480Y-116230700D03*
D70*
%TO.P,DS1,1,VSS*%
%TO.N,GND*%
X74330000Y-85230000D03*
D71*
%TO.P,DS1,2,VDD*%
%TO.N,+3.3V*%
X76870000Y-85230000D03*
D72*
%TO.P,DS1,3,VO*%
%TO.N,Net-(DS1-Pad3)*%
X79410000Y-85230000D03*
%TO.P,DS1,4,RS*%
%TO.N,RS*%
X81950000Y-85230000D03*
%TO.P,DS1,5,R/W*%
%TO.N,GND*%
X84490000Y-85230000D03*
%TO.P,DS1,6,E*%
%TO.N,E*%
X87030000Y-85230000D03*
%TO.P,DS1,7,D0*%
%TO.N,unconnected-(DS1-Pad7)*%
X89570000Y-85230000D03*
D71*
%TO.P,DS1,8,D1*%
%TO.N,unconnected-(DS1-Pad8)*%
X92110000Y-85230000D03*
%TO.P,DS1,9,D2*%
%TO.N,unconnected-(DS1-Pad9)*%
X94650000Y-85230000D03*
%TO.P,DS1,10,D3*%
%TO.N,unconnected-(DS1-Pad10)*%
X97190000Y-85230000D03*
%TO.P,DS1,11,D4*%
%TO.N,DB4*%
X99730000Y-85230000D03*
%TO.P,DS1,12,D5*%
%TO.N,DB5*%
X102270000Y-85230000D03*
%TO.P,DS1,13,D6*%
%TO.N,DB6*%
X104810000Y-85230000D03*
%TO.P,DS1,14,D7*%
%TO.N,DB7*%
X107350000Y-85230000D03*
%TO.P,DS1,15,LED(+)*%
%TO.N,Net-(DS1-Pad15)*%
X109890000Y-85230000D03*
D72*
%TO.P,DS1,16,LED(-)*%
%TO.N,Net-(DS1-Pad16)*%
X112430000Y-85230000D03*
%TD*%
D63*
%TO.P,D13,1,K*%
%TO.N,+3.3V*%
X140840000Y-112130000D03*
%TO.P,D13,2,A*%
%TO.N,RCH*%
X137540000Y-112130000D03*
%TD*%
D44*
%TO.P,R43,1*%
%TO.N,Net-(C63-Pad2)*%
X68580000Y-107426000D03*
%TO.P,R43,2*%
%TO.N,Net-(JP6-Pad2)*%
X68580000Y-105426000D03*
%TD*%
%TO.P,R44,1*%
%TO.N,Net-(C64-Pad2)*%
X92456000Y-103346000D03*
%TO.P,R44,2*%
%TO.N,GND*%
X92456000Y-101346000D03*
%TD*%
D26*
%TO.P,J24,1,Pin_1*%
%TO.N,TRANSMIT*%
X144470000Y-100850000D03*
%TD*%
D10*
%TO.P,C48,1*%
%TO.N,Net-(C48-Pad1)*%
X152110000Y-140050000D03*
%TO.P,C48,2*%
%TO.N,Net-(C48-Pad2)*%
X150035000Y-140050000D03*
%TD*%
D11*
%TO.P,C63,1*%
%TO.N,Net-(C63-Pad1)*%
X68580000Y-111781500D03*
%TO.P,C63,2*%
%TO.N,Net-(C63-Pad2)*%
X68580000Y-109706500D03*
%TD*%
D26*
%TO.P,J22,1,Pin_1*%
%TO.N,SPKR*%
X115390000Y-128820000D03*
D27*
%TO.P,J22,2,Pin_2*%
%TO.N,GND*%
X115390000Y-126280000D03*
%TD*%
D44*
%TO.P,R37,1*%
%TO.N,Net-(R19-Pad2)*%
X143630000Y-122610000D03*
%TO.P,R37,2*%
%TO.N,GND*%
X143630000Y-120610000D03*
%TD*%
%TO.P,R55,1*%
%TO.N,Net-(R19-Pad2)*%
X141400000Y-122600000D03*
%TO.P,R55,2*%
%TO.N,LCH*%
X141400000Y-120600000D03*
%TD*%
D26*
%TO.P,JP9,1,1*%
%TO.N,Net-(C69-Pad1)*%
X77978000Y-122936000D03*
D27*
%TO.P,JP9,2,2*%
%TO.N,Net-(JP9-Pad2)*%
X75438000Y-122936000D03*
%TD*%
D54*
%TO.P,L7,1,1*%
%TO.N,Net-(C63-Pad1)*%
X59080000Y-120945000D03*
%TO.P,L7,2,2*%
%TO.N,Net-(C62-Pad2)*%
X59080000Y-122995000D03*
%TD*%
D15*
%TO.P,C50,1*%
%TO.N,Net-(C50-Pad1)*%
X162710000Y-116902500D03*
%TO.P,C50,2*%
%TO.N,GND*%
X162710000Y-118977500D03*
%TD*%
D36*
%TO.P,Y4,1,1*%
%TO.N,Net-(C50-Pad1)*%
X164660000Y-117270000D03*
%TO.P,Y4,2,2*%
%TO.N,Net-(C51-Pad1)*%
X167160000Y-117270000D03*
%TD*%
D26*
%TO.P,J25,1,Pin_1*%
%TO.N,+3.3V*%
X125420000Y-80010000D03*
D27*
%TO.P,J25,2,Pin_2*%
%TO.N,Net-(J25-Pad2)*%
X122880000Y-80010000D03*
%TO.P,J25,3,Pin_3*%
%TO.N,Net-(J25-Pad3)*%
X120340000Y-80010000D03*
%TO.P,J25,4,Pin_4*%
%TO.N,GND*%
X117800000Y-80010000D03*
%TD*%
D10*
%TO.P,C65,1*%
%TO.N,GND*%
X88955000Y-107230000D03*
%TO.P,C65,2*%
%TO.N,+5V*%
X86880000Y-107230000D03*
%TD*%
D46*
%TO.P,R81,1*%
%TO.N,MICPADDLE*%
X129540000Y-121200000D03*
%TO.P,R81,2*%
%TO.N,Net-(L12-Pad1)*%
X129540000Y-123200000D03*
%TD*%
%TO.P,R84,1*%
%TO.N,MICPADDLE*%
X131790000Y-121190000D03*
%TO.P,R84,2*%
%TO.N,Net-(C69-Pad2)*%
X131790000Y-123190000D03*
%TD*%
D26*
%TO.P,J21,1,Pin_1*%
%TO.N,Net-(J21-Pad1)*%
X132700000Y-91460000D03*
%TD*%
D64*
%TO.P,J8,G*%
%TO.N,GND*%
X119825000Y-143285000D03*
D65*
%TO.P,J8,S1*%
%TO.N,SPKR*%
X114625000Y-135385000D03*
D66*
%TO.P,J8,SN1*%
%TO.N,unconnected-(J8-PadSN1)*%
X117225000Y-136385000D03*
D65*
%TO.P,J8,T1*%
%TO.N,SPKR*%
X124625000Y-138885000D03*
D67*
%TO.P,J8,TN1*%
%TO.N,unconnected-(J8-PadTN1)*%
X124125000Y-131985000D03*
%TD*%
D10*
%TO.P,C45,1*%
%TO.N,GND*%
X108327500Y-120320000D03*
%TO.P,C45,2*%
%TO.N,+3.3V*%
X106252500Y-120320000D03*
%TD*%
D11*
%TO.P,C68,1*%
%TO.N,GND*%
X61310000Y-124197500D03*
%TO.P,C68,2*%
%TO.N,Net-(C68-Pad2)*%
X61310000Y-122122500D03*
%TD*%
D45*
%TO.P,R83,1*%
%TO.N,Net-(C69-Pad2)*%
X83430000Y-113220000D03*
%TO.P,R83,2*%
%TO.N,Net-(C69-Pad1)*%
X81430000Y-113220000D03*
%TD*%
D26*
%TO.P,J27,1,Pin_1*%
%TO.N,+3.3V*%
X125476000Y-74676000D03*
D27*
%TO.P,J27,2,Pin_2*%
%TO.N,TXD*%
X122936000Y-74676000D03*
%TO.P,J27,3,Pin_3*%
%TO.N,RXD*%
X120396000Y-74676000D03*
%TO.P,J27,4,Pin_4*%
%TO.N,GND*%
X117856000Y-74676000D03*
%TD*%
D11*
%TO.P,C62,1*%
%TO.N,GND*%
X59020000Y-127797500D03*
%TO.P,C62,2*%
%TO.N,Net-(C62-Pad2)*%
X59020000Y-125722500D03*
%TD*%
D44*
%TO.P,R26,1*%
%TO.N,Net-(R25-Pad2)*%
X151660000Y-116780000D03*
%TO.P,R26,2*%
%TO.N,Net-(C39-Pad2)*%
X151660000Y-114780000D03*
%TD*%
D43*
%TO.P,R85,1*%
%TO.N,Net-(C69-Pad2)*%
X85747500Y-109768000D03*
%TO.P,R85,2*%
%TO.N,GND*%
X87747500Y-109768000D03*
%TD*%
D10*
%TO.P,C70,1*%
%TO.N,GND*%
X73000000Y-70000000D03*
%TO.P,C70,2*%
%TO.N,+5V*%
X70925000Y-70000000D03*
%TD*%
D45*
%TO.P,R79,1*%
%TO.N,Net-(C69-Pad1)*%
X79486000Y-109728000D03*
%TO.P,R79,2*%
%TO.N,Net-(JP9-Pad2)*%
X77486000Y-109728000D03*
%TD*%
%TO.P,R27,1*%
%TO.N,Net-(C28-Pad2)*%
X138250000Y-121690000D03*
%TO.P,R27,2*%
%TO.N,Net-(R22-Pad2)*%
X136250000Y-121690000D03*
%TD*%
D12*
%TO.P,C51,1*%
%TO.N,Net-(C51-Pad1)*%
X164432500Y-113790000D03*
%TO.P,C51,2*%
%TO.N,GND*%
X166507500Y-113790000D03*
%TD*%
D26*
%TO.P,J26,1,VBUS*%
%TO.N,Net-(D5-Pad2)*%
X111410000Y-66760000D03*
D73*
%TO.P,J26,2,D-*%
%TO.N,Net-(J26-Pad2)*%
X113910000Y-66760000D03*
%TO.P,J26,3,D+*%
%TO.N,Net-(J26-Pad3)*%
X113910000Y-64760000D03*
%TO.P,J26,4,GND*%
%TO.N,GND*%
X111410000Y-64760000D03*
D74*
%TO.P,J26,5,Shield*%
X118680000Y-62050000D03*
X106640000Y-62050000D03*
%TD*%
D11*
%TO.P,C29,1*%
%TO.N,Net-(C14-Pad1)*%
X169720000Y-66107500D03*
%TO.P,C29,2*%
%TO.N,Net-(C14-Pad2)*%
X169720000Y-64032500D03*
%TD*%
D75*
%TO.P,U9,1*%
%TO.N,Net-(R19-Pad2)*%
X142900000Y-124380000D03*
%TO.P,U9,2,-*%
%TO.N,Net-(R22-Pad2)*%
X142900000Y-125650000D03*
%TO.P,U9,3,+*%
%TO.N,Net-(C49-Pad1)*%
X142900000Y-126920000D03*
%TO.P,U9,4,V-*%
%TO.N,GND*%
X142900000Y-128190000D03*
%TO.P,U9,5,+*%
%TO.N,Net-(C49-Pad1)*%
X148150000Y-128190000D03*
%TO.P,U9,6,-*%
%TO.N,Net-(R25-Pad2)*%
X148150000Y-126920000D03*
%TO.P,U9,7*%
%TO.N,Net-(R24-Pad1)*%
X148150000Y-125650000D03*
%TO.P,U9,8,V+*%
%TO.N,+5V*%
X148150000Y-124380000D03*
%TD*%
D45*
%TO.P,R54,1*%
%TO.N,Net-(R24-Pad1)*%
X152340000Y-118690000D03*
%TO.P,R54,2*%
%TO.N,RCH*%
X150340000Y-118690000D03*
%TD*%
D33*
%TO.P,U7,*%
%TO.N,*%
X138730000Y-58830000D03*
D76*
X124130000Y-68330000D03*
D77*
%TO.P,U7,1*%
%TO.N,N/C*%
X128730000Y-68930000D03*
%TO.P,U7,2,~{CS}*%
%TO.N,CS*%
X129830000Y-68930000D03*
%TO.P,U7,3,DI*%
%TO.N,MOSI*%
X130930000Y-68930000D03*
%TO.P,U7,4,VDD*%
%TO.N,+3.3V*%
X132030000Y-68930000D03*
%TO.P,U7,5,SCLK*%
%TO.N,SCK*%
X133130000Y-68930000D03*
%TO.P,U7,6,GND*%
%TO.N,GND*%
X134230000Y-68930000D03*
%TO.P,U7,7,DO*%
%TO.N,MISO*%
X135330000Y-68930000D03*
%TO.P,U7,8*%
%TO.N,N/C*%
X136430000Y-68930000D03*
%TO.P,U7,9,CD*%
%TO.N,unconnected-(U7-Pad9)*%
X137530000Y-68930000D03*
D78*
%TO.P,U7,10*%
%TO.N,N/C*%
X138730000Y-68330000D03*
D33*
%TO.P,U7,~*%
X123230000Y-58730000D03*
%TD*%
D10*
%TO.P,C40,1*%
%TO.N,+5V*%
X148217500Y-122460000D03*
%TO.P,C40,2*%
%TO.N,GND*%
X146142500Y-122460000D03*
%TD*%
D51*
%TO.P,D7,1,K*%
%TO.N,Net-(D10-Pad2)*%
X173650000Y-107930000D03*
%TO.P,D7,2,A*%
%TO.N,RF*%
X173650000Y-104630000D03*
%TD*%
D26*
%TO.P,JP6,1,1*%
%TO.N,Net-(C66-Pad1)*%
X69596000Y-122936000D03*
D27*
%TO.P,JP6,2,2*%
%TO.N,Net-(JP6-Pad2)*%
X67056000Y-122936000D03*
%TD*%
D15*
%TO.P,C43,1*%
%TO.N,GND*%
X121980000Y-63902500D03*
%TO.P,C43,2*%
%TO.N,+3.3V*%
X121980000Y-65977500D03*
%TD*%
D64*
%TO.P,J11,G*%
%TO.N,GND*%
X78000000Y-142710000D03*
D65*
%TO.P,J11,S1*%
%TO.N,unconnected-(J11-PadS1)*%
X72800000Y-134810000D03*
D66*
%TO.P,J11,SN1*%
%TO.N,unconnected-(J11-PadSN1)*%
X75400000Y-135810000D03*
D65*
%TO.P,J11,T1*%
%TO.N,Net-(C62-Pad2)*%
X82800000Y-138310000D03*
D67*
%TO.P,J11,TN1*%
%TO.N,unconnected-(J11-PadTN1)*%
X82300000Y-131410000D03*
%TD*%
D12*
%TO.P,C66,1*%
%TO.N,Net-(C66-Pad1)*%
X82492500Y-99230000D03*
%TO.P,C66,2*%
%TO.N,Net-(C66-Pad2)*%
X84567500Y-99230000D03*
%TD*%
D44*
%TO.P,R45,1*%
%TO.N,+5V*%
X92456000Y-107442000D03*
%TO.P,R45,2*%
%TO.N,Net-(C64-Pad2)*%
X92456000Y-105442000D03*
%TD*%
D11*
%TO.P,C31,1*%
%TO.N,Net-(C31-Pad1)*%
X180090000Y-70787500D03*
%TO.P,C31,2*%
%TO.N,Net-(C31-Pad2)*%
X180090000Y-68712500D03*
%TD*%
D51*
%TO.P,D11,1,K*%
%TO.N,Net-(D11-Pad1)*%
X176250000Y-109590000D03*
%TO.P,D11,2,A*%
%TO.N,GND*%
X176250000Y-112890000D03*
%TD*%
D54*
%TO.P,L8,1,1*%
%TO.N,Net-(L8-Pad1)*%
X74975000Y-126075000D03*
%TO.P,L8,2,2*%
%TO.N,Net-(C67-Pad2)*%
X74975000Y-128125000D03*
%TD*%
D45*
%TO.P,R82,1*%
%TO.N,+3.3V*%
X124250000Y-84275000D03*
%TO.P,R82,2*%
%TO.N,PTT*%
X122250000Y-84275000D03*
%TD*%
D15*
%TO.P,C28,1*%
%TO.N,Net-(C28-Pad1)*%
X156360000Y-118052500D03*
%TO.P,C28,2*%
%TO.N,Net-(C28-Pad2)*%
X156360000Y-120127500D03*
%TD*%
D26*
%TO.P,J20,1,Pin_1*%
%TO.N,VBAT*%
X112320000Y-120790000D03*
D27*
%TO.P,J20,2,Pin_2*%
%TO.N,GND*%
X114860000Y-120790000D03*
%TD*%
D46*
%TO.P,R78,1*%
%TO.N,Net-(C66-Pad2)*%
X76730000Y-104430000D03*
%TO.P,R78,2*%
%TO.N,Net-(JP9-Pad2)*%
X76730000Y-106430000D03*
%TD*%
D10*
%TO.P,C64,1*%
%TO.N,GND*%
X92477500Y-99060000D03*
%TO.P,C64,2*%
%TO.N,Net-(C64-Pad2)*%
X90402500Y-99060000D03*
%TD*%
D79*
%TO.N,+5V*%
X141680000Y-130630000D03*
X144820000Y-124270000D03*
%TO.N,GND*%
X172240000Y-81780000D03*
X175070000Y-87320000D03*
X60350000Y-119590000D03*
X178620000Y-87470000D03*
X131410000Y-107190000D03*
X85475000Y-127550000D03*
X91300000Y-100840000D03*
X171270000Y-87600000D03*
X179690000Y-80510000D03*
X120000000Y-85520000D03*
X173180000Y-83130000D03*
X176250000Y-111550000D03*
X153775000Y-100725000D03*
X188230000Y-74070000D03*
X126100000Y-90190000D03*
X136490000Y-92060000D03*
X155640000Y-106310000D03*
X144975000Y-139860000D03*
X169990000Y-79850000D03*
X69500000Y-71000000D03*
X164650000Y-132210000D03*
X150040000Y-108020000D03*
X146180000Y-79170000D03*
X118310000Y-105810000D03*
X180848000Y-87376000D03*
X158240000Y-84440000D03*
X157850000Y-127530000D03*
X164030000Y-119090000D03*
X181430000Y-86550000D03*
X174190000Y-78220000D03*
X185440000Y-72150000D03*
X89590000Y-103130000D03*
X158250000Y-76750000D03*
X64500000Y-61000000D03*
X123698000Y-104394000D03*
X160275000Y-129960000D03*
X184650000Y-83670000D03*
X156900000Y-84880000D03*
X144350000Y-74890000D03*
X90000000Y-108000000D03*
X184070000Y-87550000D03*
X181020000Y-78150000D03*
X183170000Y-86570000D03*
X159500000Y-75250000D03*
X168280000Y-64970000D03*
X184630000Y-78280000D03*
X59140000Y-129250000D03*
X134150000Y-109940000D03*
X120650000Y-64500000D03*
X152690000Y-123150000D03*
X172500000Y-78230000D03*
X182610000Y-78370000D03*
X183930000Y-80800000D03*
X159000000Y-71000000D03*
X154125000Y-139960000D03*
X106680000Y-113284000D03*
X67982523Y-65807523D03*
X161500000Y-72750000D03*
X183060000Y-80250000D03*
X178050000Y-94500000D03*
X179970000Y-86010000D03*
X181864000Y-81280000D03*
X171196000Y-82804000D03*
X108580000Y-118980000D03*
X172130000Y-79680000D03*
X152250000Y-69290000D03*
X67470000Y-128620000D03*
X126910000Y-115640000D03*
X177330000Y-79680000D03*
X179520000Y-78190000D03*
X93660000Y-98420000D03*
X184650000Y-82230000D03*
X149540000Y-79960000D03*
X121225000Y-112650000D03*
X161500000Y-74000000D03*
X176710000Y-78170000D03*
X160250000Y-71000000D03*
X133690000Y-67170000D03*
X174780000Y-86100000D03*
X183190000Y-84310000D03*
X180870000Y-79420000D03*
X107920000Y-129860000D03*
X169950000Y-86120000D03*
X80400000Y-103300000D03*
X89000000Y-110000000D03*
X81150000Y-62100000D03*
X155604500Y-107212411D03*
X148875000Y-141735000D03*
X152725000Y-134375000D03*
X161500000Y-76500000D03*
X144740000Y-128160000D03*
X158000000Y-71000000D03*
X144988056Y-120158056D03*
X160000000Y-72000000D03*
X72500000Y-71500000D03*
X170080000Y-83540000D03*
X121150000Y-110190000D03*
X173140000Y-84550000D03*
X181820000Y-82660000D03*
X177370000Y-86260000D03*
X72500000Y-61000000D03*
X156750000Y-76500000D03*
X144950000Y-122490000D03*
X147950000Y-62300000D03*
X156750000Y-72500000D03*
X90975000Y-118100000D03*
X81520000Y-61180000D03*
X161500000Y-71250000D03*
X152725000Y-133200000D03*
X139680000Y-129175500D03*
X128025000Y-115475000D03*
X160500000Y-73750000D03*
X173690000Y-111480000D03*
X148542000Y-75692000D03*
X164120000Y-95460000D03*
X167530000Y-114470000D03*
X62330000Y-125070000D03*
X156500000Y-74500000D03*
X157750000Y-75000000D03*
X173228000Y-86868000D03*
X182370000Y-85790000D03*
X164100000Y-108500000D03*
X136740000Y-99560000D03*
X171196000Y-80772000D03*
X82100000Y-118875000D03*
X171140000Y-78230000D03*
X132040000Y-118310000D03*
X149970000Y-111650000D03*
X127140000Y-95390000D03*
X75470000Y-71490000D03*
X159750000Y-76750000D03*
X173850000Y-81150000D03*
X170040000Y-81630000D03*
X171560000Y-134030000D03*
X132560000Y-115280000D03*
X181356000Y-84328000D03*
X171196000Y-85344000D03*
X156750000Y-71000000D03*
%TO.N,Net-(C11-Pad2)*%
X90085000Y-123925000D03*
X97376944Y-117001944D03*
%TO.N,Net-(C1-Pad2)*%
X138160000Y-104480000D03*
X141110000Y-103130000D03*
X136640000Y-109610000D03*
X132770000Y-112380000D03*
%TO.N,TRANSMIT*%
X138690000Y-89200000D03*
X136425000Y-102700000D03*
X136360000Y-88660000D03*
%TO.N,Net-(C10-Pad2)*%
X98200000Y-115725000D03*
X96300000Y-115650000D03*
%TO.N,DB5*%
X122825000Y-101450000D03*
X129604089Y-103170911D03*
X110000000Y-89875500D03*
%TO.N,DB4*%
X133800000Y-105550000D03*
X108900000Y-90400000D03*
X120775000Y-102000500D03*
%TO.N,DB7*%
X121250000Y-100100000D03*
X131413500Y-102842000D03*
%TO.N,DB6*%
X122025000Y-100725000D03*
X108400000Y-89050000D03*
X136025000Y-103800000D03*
%TO.N,RS*%
X114575000Y-92100000D03*
X124284342Y-92097520D03*
X130325000Y-100300000D03*
X111100000Y-91475000D03*
X127525000Y-98875000D03*
%TO.N,E*%
X117950000Y-94550000D03*
X122500000Y-99400000D03*
X109975000Y-91675000D03*
X114100000Y-93825000D03*
X130650000Y-101699500D03*
%TO.N,Net-(C16-Pad2)*%
X97275000Y-118325000D03*
X91450000Y-122075000D03*
%TO.N,SDA*%
X137580000Y-98710000D03*
X129800000Y-98900000D03*
%TO.N,SCL*%
X158980000Y-107120000D03*
X128950000Y-98749500D03*
X158360000Y-108390000D03*
X137140000Y-97830000D03*
%TO.N,+3.3V*%
X89814000Y-135636000D03*
X115725000Y-107750000D03*
X139475000Y-94600000D03*
X94590000Y-59950000D03*
X113700000Y-107850000D03*
X89320000Y-59670000D03*
X87180000Y-60180000D03*
X126700000Y-83290000D03*
X86244000Y-132684000D03*
X97010000Y-60000000D03*
X136695500Y-94690000D03*
X135025000Y-74850000D03*
X130028000Y-74950000D03*
%TO.N,PS2CLK*%
X122175000Y-97725000D03*
X120475000Y-98600000D03*
%TO.N,SPKR*%
X114890000Y-131780000D03*
%TO.N,Net-(C28-Pad2)*%
X148700000Y-120530000D03*
X154920000Y-120150000D03*
%TO.N,Net-(C50-Pad1)*%
X160910000Y-111640000D03*
X160350000Y-110080000D03*
%TO.N,Net-(J5-Pad3)*%
X128125000Y-103495500D03*
X121595661Y-102626000D03*
%TO.N,CS*%
X138710000Y-90970000D03*
X131710000Y-66110000D03*
X129620000Y-67150000D03*
X136450000Y-90240000D03*
%TO.N,RADIORESET*%
X137750000Y-102350000D03*
X131849500Y-99425000D03*
%TO.N,PTT*%
X122250000Y-92825000D03*
X114875000Y-93225000D03*
%TD*%
D80*
%TO.N,+5V*%
X72000000Y-74000000D02*
X75000000Y-74000000D01*
D81*
X62175000Y-141775000D02*
X88475000Y-141775000D01*
X86880000Y-107230000D02*
X84439500Y-107230000D01*
X59080000Y-116210000D02*
X57315000Y-116210000D01*
D80*
X104130000Y-75370000D02*
X104130000Y-70600000D01*
X72390000Y-83310000D02*
X72390000Y-86532500D01*
X93680000Y-64280000D02*
X95330000Y-65930000D01*
D81*
X90932000Y-105918000D02*
X92456000Y-107442000D01*
X138570000Y-130660000D02*
X141650000Y-130660000D01*
X99850000Y-140550000D02*
X101400000Y-142100000D01*
X61550000Y-116132500D02*
X61630000Y-116052500D01*
D80*
X70780000Y-67200000D02*
X70780000Y-69855000D01*
D81*
X148150000Y-124380000D02*
X148150000Y-122527500D01*
X88475000Y-141775000D02*
X89700000Y-140550000D01*
D80*
X70780000Y-69855000D02*
X70925000Y-70000000D01*
D81*
X80780000Y-69000000D02*
X80780000Y-66840000D01*
D80*
X106444000Y-77684000D02*
X104130000Y-75370000D01*
X76230000Y-58780000D02*
X87500000Y-58780000D01*
X140754000Y-61976000D02*
X142790000Y-59940000D01*
D81*
X141650000Y-130660000D02*
X141680000Y-130630000D01*
X86880000Y-107230000D02*
X86880000Y-106414000D01*
D80*
X79000000Y-80000000D02*
X79000000Y-80360000D01*
D81*
X121035000Y-127535000D02*
X121600000Y-126970000D01*
X80780000Y-66840000D02*
X81630000Y-65990000D01*
X113415000Y-127535000D02*
X121035000Y-127535000D01*
X57315000Y-116210000D02*
X55650000Y-117875000D01*
D80*
X82396000Y-66056000D02*
X85484000Y-66056000D01*
D81*
X148150000Y-122527500D02*
X148217500Y-122460000D01*
D80*
X108458000Y-77684000D02*
X106444000Y-77684000D01*
D81*
X84439500Y-107230000D02*
X84212500Y-107003000D01*
X132860000Y-124950000D02*
X138570000Y-130660000D01*
X121600000Y-126970000D02*
X121600000Y-125590000D01*
X121600000Y-125590000D02*
X122240000Y-124950000D01*
X61550000Y-116132500D02*
X61530000Y-116132500D01*
D80*
X95330000Y-65930000D02*
X95450000Y-66050000D01*
X89820000Y-96670000D02*
X94200000Y-96670000D01*
X89500000Y-63500000D02*
X90280000Y-64280000D01*
X85040000Y-91890000D02*
X89820000Y-96670000D01*
D81*
X61630000Y-114670000D02*
X66450000Y-109850000D01*
X66450000Y-103400000D02*
X77960000Y-91890000D01*
D80*
X95330000Y-65930000D02*
X95330000Y-65230000D01*
D81*
X61630000Y-116052500D02*
X61630000Y-114670000D01*
D80*
X118990000Y-58820000D02*
X122146000Y-61976000D01*
D81*
X110274000Y-77684000D02*
X108458000Y-77684000D01*
D80*
X104110000Y-70030000D02*
X104110000Y-70580000D01*
X77960000Y-91890000D02*
X85040000Y-91890000D01*
X94200000Y-96670000D02*
X94600000Y-97070000D01*
D81*
X81630000Y-65990000D02*
X82330000Y-65990000D01*
D80*
X73670000Y-82030000D02*
X72390000Y-83310000D01*
X82330000Y-65990000D02*
X82396000Y-66056000D01*
X96380000Y-58820000D02*
X118990000Y-58820000D01*
D81*
X88500000Y-75000000D02*
X86780000Y-75000000D01*
X144930000Y-124380000D02*
X148150000Y-124380000D01*
D80*
X79000000Y-80000000D02*
X79000000Y-78000000D01*
D81*
X55650000Y-117875000D02*
X55650000Y-135250000D01*
D80*
X70805000Y-66975000D02*
X72545000Y-66975000D01*
D81*
X61530000Y-116132500D02*
X61452500Y-116210000D01*
D80*
X95480000Y-59720000D02*
X96380000Y-58820000D01*
D81*
X112275000Y-140185000D02*
X112275000Y-128675000D01*
X66450000Y-109850000D02*
X66450000Y-103400000D01*
D80*
X79000000Y-78000000D02*
X75000000Y-74000000D01*
X87500000Y-58780000D02*
X88450000Y-59730000D01*
X93488000Y-107442000D02*
X92456000Y-107442000D01*
X90280000Y-64280000D02*
X93680000Y-64280000D01*
D81*
X55650000Y-135250000D02*
X62175000Y-141775000D01*
D80*
X88450000Y-59730000D02*
X88450000Y-62450000D01*
X70925000Y-70000000D02*
X70925000Y-72925000D01*
X73670000Y-82030000D02*
X77330000Y-82030000D01*
D81*
X61452500Y-116210000D02*
X59080000Y-116210000D01*
D80*
X95330000Y-65230000D02*
X95480000Y-65080000D01*
X72390000Y-86532500D02*
X77747500Y-91890000D01*
X100130000Y-66050000D02*
X104110000Y-70030000D01*
X88040000Y-63500000D02*
X89500000Y-63500000D01*
X104130000Y-70600000D02*
X104110000Y-70580000D01*
D81*
X101400000Y-142100000D02*
X110360000Y-142100000D01*
X86780000Y-75000000D02*
X80780000Y-69000000D01*
D80*
X95450000Y-66050000D02*
X100130000Y-66050000D01*
D81*
X144820000Y-124270000D02*
X144930000Y-124380000D01*
D80*
X75080000Y-64440000D02*
X75080000Y-61020000D01*
X75080000Y-59930000D02*
X76230000Y-58780000D01*
X122146000Y-61976000D02*
X140754000Y-61976000D01*
D81*
X110360000Y-142100000D02*
X112275000Y-140185000D01*
D80*
X77747500Y-91890000D02*
X77960000Y-91890000D01*
D81*
X87376000Y-105918000D02*
X90932000Y-105918000D01*
D80*
X75080000Y-61020000D02*
X75080000Y-59930000D01*
D81*
X111590000Y-79000000D02*
X110274000Y-77684000D01*
X122240000Y-124950000D02*
X132860000Y-124950000D01*
D80*
X72545000Y-66975000D02*
X75080000Y-64440000D01*
X79000000Y-80360000D02*
X77330000Y-82030000D01*
X88450000Y-62450000D02*
X89500000Y-63500000D01*
D81*
X89700000Y-140550000D02*
X99850000Y-140550000D01*
D80*
X85484000Y-66056000D02*
X88040000Y-63500000D01*
X70925000Y-72925000D02*
X72000000Y-74000000D01*
D81*
X86880000Y-106414000D02*
X87376000Y-105918000D01*
D80*
X94600000Y-106330000D02*
X93488000Y-107442000D01*
X95480000Y-65080000D02*
X95480000Y-59720000D01*
D81*
X112275000Y-128675000D02*
X113415000Y-127535000D01*
D80*
X94600000Y-97070000D02*
X94600000Y-106330000D01*
D81*
%TO.N,GND*%
X144350000Y-74890000D02*
X144027500Y-74890000D01*
D80*
X127100000Y-137447500D02*
X127100000Y-139500000D01*
X169990000Y-79380000D02*
X171140000Y-78230000D01*
X75470000Y-71490000D02*
X76302500Y-71490000D01*
X161212500Y-130760000D02*
X161075000Y-130760000D01*
D81*
X157850000Y-127530000D02*
X157917500Y-127530000D01*
X162710000Y-118977500D02*
X163917500Y-118977500D01*
X82100000Y-118875000D02*
X82287500Y-119062500D01*
D80*
X81520000Y-61180000D02*
X80140000Y-61180000D01*
X172550000Y-78280000D02*
X172500000Y-78230000D01*
D81*
X159500000Y-72000000D02*
X160000000Y-72000000D01*
D80*
X184670000Y-78320000D02*
X184670000Y-82210000D01*
D81*
X152480000Y-122940000D02*
X152480000Y-122050000D01*
D80*
X181560000Y-79420000D02*
X182610000Y-78370000D01*
D82*
X131052000Y-106832000D02*
X131410000Y-107190000D01*
D81*
X119775000Y-85745000D02*
X120000000Y-85520000D01*
X149970000Y-111650000D02*
X150662500Y-111650000D01*
X82287500Y-119062500D02*
X82287500Y-120425000D01*
X132560000Y-115111500D02*
X133625500Y-114046000D01*
X119775000Y-86887500D02*
X119775000Y-85745000D01*
D80*
X181864000Y-81280000D02*
X181864000Y-82616000D01*
X170350000Y-77440000D02*
X170350000Y-75630000D01*
X172496000Y-87600000D02*
X173228000Y-86868000D01*
D81*
X164137500Y-132210000D02*
X163237500Y-133110000D01*
X80400000Y-101755500D02*
X80402500Y-101753000D01*
D80*
X92456000Y-101346000D02*
X91806000Y-101346000D01*
D81*
X173690000Y-111480000D02*
X173690000Y-112900000D01*
D80*
X181864000Y-82616000D02*
X181820000Y-82660000D01*
D81*
X90975000Y-118100000D02*
X92187500Y-116887500D01*
D80*
X183170000Y-84290000D02*
X183190000Y-84310000D01*
D81*
X148012500Y-62362500D02*
X147950000Y-62300000D01*
D80*
X175244000Y-79756000D02*
X173850000Y-81150000D01*
X143962500Y-140872500D02*
X143925000Y-140872500D01*
X174780000Y-86100000D02*
X177210000Y-86100000D01*
X68500000Y-60900000D02*
X64600000Y-60900000D01*
X171196000Y-85344000D02*
X170726000Y-85344000D01*
D81*
X89590000Y-103130000D02*
X89070000Y-102610000D01*
X148542000Y-75579500D02*
X147075000Y-74112500D01*
D80*
X91806000Y-101346000D02*
X91300000Y-100840000D01*
D81*
X135870000Y-92680000D02*
X135870000Y-93682500D01*
D80*
X176784000Y-87376000D02*
X175126000Y-87376000D01*
X73000000Y-70000000D02*
X73000000Y-71000000D01*
X171196000Y-82804000D02*
X171216000Y-82804000D01*
D81*
X132560000Y-115280000D02*
X132560000Y-115111500D01*
X156750000Y-71000000D02*
X156750000Y-72500000D01*
X144027500Y-74890000D02*
X143030000Y-73892500D01*
X187250000Y-71500000D02*
X186090000Y-71500000D01*
D80*
X171196000Y-82804000D02*
X171196000Y-80772000D01*
D81*
X157000000Y-84980000D02*
X156900000Y-84880000D01*
D80*
X169990000Y-79850000D02*
X169990000Y-79380000D01*
D81*
X133900000Y-68600000D02*
X133900000Y-67380000D01*
D80*
X144975000Y-139860000D02*
X143962500Y-140872500D01*
D81*
X85475000Y-127550000D02*
X86237500Y-127550000D01*
X163917500Y-118977500D02*
X164030000Y-119090000D01*
D80*
X184630000Y-78280000D02*
X182700000Y-78280000D01*
D81*
X155962500Y-106632500D02*
X157050000Y-106632500D01*
X153775000Y-100725000D02*
X153810000Y-100760000D01*
D80*
X174780000Y-86100000D02*
X176056000Y-87376000D01*
X178526000Y-87376000D02*
X178620000Y-87470000D01*
D81*
X186090000Y-71500000D02*
X185440000Y-72150000D01*
D80*
X175260000Y-79756000D02*
X175244000Y-79756000D01*
X183170000Y-86570000D02*
X183150000Y-86570000D01*
D81*
X106680000Y-114262500D02*
X107717500Y-115300000D01*
D80*
X172130000Y-79680000D02*
X175184000Y-79680000D01*
D81*
X161250000Y-71000000D02*
X161500000Y-71250000D01*
D80*
X93020000Y-99060000D02*
X93660000Y-98420000D01*
D81*
X128025000Y-115475000D02*
X129297500Y-116747500D01*
D80*
X181864000Y-81280000D02*
X182030000Y-81280000D01*
X68500000Y-60900000D02*
X68500000Y-65290046D01*
X178030000Y-94520000D02*
X176617500Y-94520000D01*
X172720000Y-86868000D02*
X171196000Y-85344000D01*
D82*
X136740000Y-99560000D02*
X136022000Y-98842000D01*
D81*
X108327500Y-119232500D02*
X108580000Y-118980000D01*
X106255000Y-124660000D02*
X104540000Y-124660000D01*
D80*
X81150000Y-62100000D02*
X80070000Y-61020000D01*
X181356000Y-84328000D02*
X181356000Y-84776000D01*
D81*
X152780000Y-133145000D02*
X154205000Y-133145000D01*
X152080000Y-69460000D02*
X152250000Y-69290000D01*
D80*
X176056000Y-87376000D02*
X176784000Y-87376000D01*
X184630000Y-83690000D02*
X184630000Y-86990000D01*
D81*
X62330000Y-125070000D02*
X62182500Y-125070000D01*
X154205000Y-134415000D02*
X154205000Y-133145000D01*
X121150000Y-110190000D02*
X120162500Y-111177500D01*
X80400000Y-103300000D02*
X80400000Y-101755500D01*
D80*
X184630000Y-78280000D02*
X184670000Y-78320000D01*
X182700000Y-78280000D02*
X182610000Y-78370000D01*
X162610000Y-100820000D02*
X162470000Y-100680000D01*
X173180000Y-84510000D02*
X173140000Y-84550000D01*
D81*
X150040000Y-108020000D02*
X151002500Y-108020000D01*
D80*
X175126000Y-87376000D02*
X175070000Y-87320000D01*
X68500000Y-60900000D02*
X72400000Y-60900000D01*
X154125000Y-139960000D02*
X154722500Y-139960000D01*
D81*
X68812500Y-128750000D02*
X67600000Y-128750000D01*
X160000000Y-76500000D02*
X161500000Y-76500000D01*
D80*
X178050000Y-94500000D02*
X178030000Y-94520000D01*
X184650000Y-81520000D02*
X183930000Y-80800000D01*
D81*
X151002500Y-108020000D02*
X151212500Y-108230000D01*
D80*
X182030000Y-81280000D02*
X183060000Y-80250000D01*
D81*
X133900000Y-67380000D02*
X133690000Y-67170000D01*
D80*
X183150000Y-86570000D02*
X182370000Y-85790000D01*
D81*
X164100000Y-108500000D02*
X164062500Y-108537500D01*
X164100000Y-107635000D02*
X164100000Y-108500000D01*
X118310000Y-105810000D02*
X118590000Y-105530000D01*
X157000000Y-85975000D02*
X157000000Y-84980000D01*
X160500000Y-73750000D02*
X159500000Y-74750000D01*
X108327500Y-120320000D02*
X108327500Y-119232500D01*
D82*
X124284315Y-104394000D02*
X125336315Y-103342000D01*
D81*
X159550000Y-85100000D02*
X158900000Y-85100000D01*
D80*
X183060000Y-80250000D02*
X183060000Y-82620000D01*
X127100000Y-139500000D02*
X128400000Y-140800000D01*
D81*
X158000000Y-73500000D02*
X159500000Y-72000000D01*
X121225000Y-114007500D02*
X121202500Y-114030000D01*
X152480000Y-122050000D02*
X152310000Y-121880000D01*
D80*
X88768000Y-109768000D02*
X89000000Y-110000000D01*
D81*
X107842500Y-129860000D02*
X106932500Y-130770000D01*
D80*
X92477500Y-99060000D02*
X93020000Y-99060000D01*
X184650000Y-83670000D02*
X184630000Y-83690000D01*
D82*
X127710000Y-95390000D02*
X128052000Y-95732000D01*
D81*
X106680000Y-113284000D02*
X106680000Y-114262500D01*
D80*
X184650000Y-82230000D02*
X184650000Y-81520000D01*
D81*
X134150000Y-109940000D02*
X133272500Y-109940000D01*
D80*
X171216000Y-82804000D02*
X172240000Y-81780000D01*
X88955000Y-107230000D02*
X89230000Y-107230000D01*
D81*
X176250000Y-111550000D02*
X176250000Y-112890000D01*
D80*
X72400000Y-60900000D02*
X72500000Y-61000000D01*
X170080000Y-83540000D02*
X170080000Y-81670000D01*
D81*
X164120000Y-95460000D02*
X163052500Y-96527500D01*
X107920000Y-129860000D02*
X107842500Y-129860000D01*
X187250000Y-71500000D02*
X187250000Y-73090000D01*
D80*
X175184000Y-79680000D02*
X175260000Y-79756000D01*
D81*
X121247500Y-63902500D02*
X121980000Y-63902500D01*
X152725000Y-133200000D02*
X152780000Y-133145000D01*
D82*
X136022000Y-98842000D02*
X134464500Y-98842000D01*
D81*
X126100000Y-91312500D02*
X126380000Y-91592500D01*
X136490000Y-92060000D02*
X135870000Y-92680000D01*
X86237500Y-127550000D02*
X87150000Y-128462500D01*
D80*
X64600000Y-60900000D02*
X64500000Y-61000000D01*
D81*
X166850000Y-113790000D02*
X167530000Y-114470000D01*
D80*
X164750000Y-100820000D02*
X162610000Y-100820000D01*
X176784000Y-87376000D02*
X178526000Y-87376000D01*
D81*
X67600000Y-128750000D02*
X67470000Y-128620000D01*
X129297500Y-116747500D02*
X129300000Y-116747500D01*
X126910000Y-115640000D02*
X126563500Y-115640000D01*
D80*
X80070000Y-61020000D02*
X79680000Y-61020000D01*
X79980000Y-61020000D02*
X79680000Y-61020000D01*
X178620000Y-87470000D02*
X178620000Y-87360000D01*
D81*
X144988056Y-120158056D02*
X144536112Y-120610000D01*
X164475000Y-107260000D02*
X164100000Y-107635000D01*
X59140000Y-129250000D02*
X59140000Y-127917500D01*
X134230000Y-68930000D02*
X133900000Y-68600000D01*
X152725000Y-134375000D02*
X152765000Y-134415000D01*
X187250000Y-73090000D02*
X188230000Y-74070000D01*
X167767500Y-64970000D02*
X166830000Y-64032500D01*
X132040000Y-117107500D02*
X131502500Y-116570000D01*
D80*
X68500000Y-65290046D02*
X67982523Y-65807523D01*
D81*
X138740000Y-128235500D02*
X139680000Y-129175500D01*
D80*
X89230000Y-107230000D02*
X90000000Y-108000000D01*
X181356000Y-84776000D02*
X182370000Y-85790000D01*
D81*
X126100000Y-90190000D02*
X126100000Y-91312500D01*
D80*
X180848000Y-87376000D02*
X180848000Y-87132000D01*
D81*
X166507500Y-113790000D02*
X166850000Y-113790000D01*
D80*
X171270000Y-87600000D02*
X172496000Y-87600000D01*
D81*
X120162500Y-111177500D02*
X120162500Y-111370000D01*
D80*
X183060000Y-82620000D02*
X183170000Y-82730000D01*
D82*
X128052000Y-95732000D02*
X128052000Y-96929500D01*
D81*
X157750000Y-75000000D02*
X157250000Y-74500000D01*
X158000000Y-76500000D02*
X158250000Y-76750000D01*
X59140000Y-127917500D02*
X59020000Y-127797500D01*
X159750000Y-76750000D02*
X160000000Y-76500000D01*
X150662500Y-111650000D02*
X151712500Y-110600000D01*
D80*
X184630000Y-86990000D02*
X184070000Y-87550000D01*
D81*
X144536112Y-120610000D02*
X143630000Y-120610000D01*
D80*
X171140000Y-78230000D02*
X170350000Y-77440000D01*
D81*
X92187500Y-116887500D02*
X92187500Y-116725000D01*
D80*
X176710000Y-78170000D02*
X179500000Y-78170000D01*
D81*
X163052500Y-96527500D02*
X162890000Y-96527500D01*
D80*
X179500000Y-78170000D02*
X179520000Y-78190000D01*
X87747500Y-109768000D02*
X88768000Y-109768000D01*
X184670000Y-82210000D02*
X184650000Y-82230000D01*
X68500000Y-70000000D02*
X69500000Y-71000000D01*
D82*
X125336315Y-103342000D02*
X126139500Y-103342000D01*
D81*
X158000000Y-71000000D02*
X159000000Y-71000000D01*
X172340000Y-133250000D02*
X171560000Y-134030000D01*
X104540000Y-124660000D02*
X103725000Y-125475000D01*
X152690000Y-123150000D02*
X152480000Y-122940000D01*
D80*
X180870000Y-79420000D02*
X181560000Y-79420000D01*
X179520000Y-78190000D02*
X179430000Y-78280000D01*
D81*
X168280000Y-64970000D02*
X167767500Y-64970000D01*
D82*
X146680000Y-79670000D02*
X146180000Y-79170000D01*
D80*
X183170000Y-82730000D02*
X183170000Y-84290000D01*
D82*
X123698000Y-104394000D02*
X124284315Y-104394000D01*
D81*
X132040000Y-118310000D02*
X132040000Y-117107500D01*
D80*
X172500000Y-78230000D02*
X174180000Y-78230000D01*
D81*
X120650000Y-64500000D02*
X121247500Y-63902500D01*
X157917500Y-127530000D02*
X158967500Y-128580000D01*
D80*
X147450000Y-141022500D02*
X148162500Y-141022500D01*
X175260000Y-79756000D02*
X177254000Y-79756000D01*
D81*
X156750000Y-76500000D02*
X158000000Y-76500000D01*
X60350000Y-119590000D02*
X61550000Y-118390000D01*
D80*
X148162500Y-141022500D02*
X148875000Y-141735000D01*
D81*
X118590000Y-105530000D02*
X119432500Y-105530000D01*
D80*
X142930000Y-128160000D02*
X142900000Y-128190000D01*
D81*
X161500000Y-74000000D02*
X161500000Y-72750000D01*
X144950000Y-122490000D02*
X144980000Y-122460000D01*
D80*
X174180000Y-78230000D02*
X174190000Y-78220000D01*
D81*
X148012500Y-63810000D02*
X148012500Y-62362500D01*
X62182500Y-125070000D02*
X61310000Y-124197500D01*
X172660000Y-133250000D02*
X172340000Y-133250000D01*
X126563500Y-115640000D02*
X125476000Y-116727500D01*
X164062500Y-108537500D02*
X162250000Y-108537500D01*
D80*
X170080000Y-81670000D02*
X170040000Y-81630000D01*
X173180000Y-83130000D02*
X173180000Y-84510000D01*
D81*
X152080000Y-70787500D02*
X152080000Y-69460000D01*
D80*
X127225000Y-137322500D02*
X127100000Y-137447500D01*
X76302500Y-71490000D02*
X76652500Y-71140000D01*
X80140000Y-61180000D02*
X79980000Y-61020000D01*
X170726000Y-85344000D02*
X169950000Y-86120000D01*
X177210000Y-86100000D02*
X177370000Y-86260000D01*
D81*
X61550000Y-118390000D02*
X61550000Y-118207500D01*
D80*
X73000000Y-71000000D02*
X72500000Y-71500000D01*
D81*
X157250000Y-74500000D02*
X156500000Y-74500000D01*
X89070000Y-102610000D02*
X89070000Y-101760000D01*
D80*
X173228000Y-86868000D02*
X172720000Y-86868000D01*
D81*
X158900000Y-85100000D02*
X158240000Y-84440000D01*
X138740000Y-127620000D02*
X138740000Y-128235500D01*
D80*
X177254000Y-79756000D02*
X177330000Y-79680000D01*
X180848000Y-87132000D02*
X181430000Y-86550000D01*
D82*
X149540000Y-79960000D02*
X149250000Y-79670000D01*
D81*
X148542000Y-75692000D02*
X148542000Y-75579500D01*
D80*
X154722500Y-139960000D02*
X155662500Y-139020000D01*
D81*
X152765000Y-134415000D02*
X154205000Y-134415000D01*
D80*
X68267500Y-70000000D02*
X68500000Y-70000000D01*
D82*
X131052000Y-105254500D02*
X131052000Y-106832000D01*
D81*
X156994911Y-107212411D02*
X157050000Y-107267500D01*
X144980000Y-122460000D02*
X146142500Y-122460000D01*
X155640000Y-106310000D02*
X155962500Y-106632500D01*
X160250000Y-71000000D02*
X161250000Y-71000000D01*
X164650000Y-132210000D02*
X164137500Y-132210000D01*
D80*
X178620000Y-87360000D02*
X179970000Y-86010000D01*
D81*
X159500000Y-74750000D02*
X159500000Y-75250000D01*
D82*
X127140000Y-95390000D02*
X127710000Y-95390000D01*
D81*
X153810000Y-100760000D02*
X153810000Y-102930000D01*
D82*
X147690000Y-79670000D02*
X146680000Y-79670000D01*
D81*
X133272500Y-109940000D02*
X132550000Y-110662500D01*
X121225000Y-112650000D02*
X121225000Y-114007500D01*
D80*
X144740000Y-128160000D02*
X142930000Y-128160000D01*
D82*
X149250000Y-79670000D02*
X147690000Y-79670000D01*
D81*
X155604500Y-107212411D02*
X156994911Y-107212411D01*
D80*
X161075000Y-130760000D02*
X160275000Y-129960000D01*
D82*
%TO.N,Net-(C2-Pad2)*%
X125500000Y-114628500D02*
X125476000Y-114652500D01*
X129552000Y-108508000D02*
X126330000Y-111730000D01*
X129552000Y-105254500D02*
X129552000Y-108508000D01*
X126330000Y-111730000D02*
X125500000Y-111730000D01*
X125500000Y-111730000D02*
X125500000Y-114628500D01*
D80*
%TO.N,+12V*%
X73430000Y-59170000D02*
X73430000Y-63440000D01*
X65500000Y-77500000D02*
X65500000Y-76000000D01*
X66192500Y-70000000D02*
X66192500Y-67227500D01*
X148955000Y-134415000D02*
X147345000Y-134415000D01*
X64620000Y-83880000D02*
X68500000Y-80000000D01*
X62540000Y-63520000D02*
X66220000Y-67200000D01*
X123500000Y-127650000D02*
X120410000Y-130740000D01*
X63185000Y-144135000D02*
X54300000Y-135250000D01*
X54300000Y-104220000D02*
X61730000Y-96790000D01*
X68500000Y-80000000D02*
X68000000Y-80000000D01*
X119520000Y-57980000D02*
X74620000Y-57980000D01*
X147345000Y-134415000D02*
X143925000Y-137835000D01*
X113200000Y-141035000D02*
X110100000Y-144135000D01*
X122570000Y-61030000D02*
X119520000Y-57980000D01*
X120410000Y-130740000D02*
X114170000Y-130740000D01*
X66192500Y-70000000D02*
X66275000Y-70082500D01*
X66275000Y-75225000D02*
X65500000Y-76000000D01*
X138380000Y-131700000D02*
X132940000Y-126260000D01*
X74000000Y-80000000D02*
X68500000Y-80000000D01*
X66192500Y-67227500D02*
X66220000Y-67200000D01*
X150700000Y-132774000D02*
X149626000Y-131700000D01*
X73430000Y-63440000D02*
X71810000Y-65060000D01*
X66275000Y-70082500D02*
X66275000Y-75225000D01*
X152146000Y-58039000D02*
X142501000Y-58039000D01*
X69790000Y-65060000D02*
X67875000Y-66975000D01*
X123500000Y-126260000D02*
X123500000Y-127650000D01*
X61730000Y-96790000D02*
X61730000Y-86810000D01*
X61730000Y-86810000D02*
X63750000Y-84790000D01*
X132940000Y-126260000D02*
X123500000Y-126260000D01*
X143925000Y-137835000D02*
X143925000Y-138797500D01*
X68000000Y-80000000D02*
X65500000Y-77500000D01*
X139510000Y-61030000D02*
X122570000Y-61030000D01*
X150700000Y-133925000D02*
X150700000Y-132774000D01*
X63750000Y-84790000D02*
X63750000Y-83880000D01*
X150210000Y-134415000D02*
X150700000Y-133925000D01*
X74620000Y-57980000D02*
X73430000Y-59170000D01*
X148955000Y-134415000D02*
X150210000Y-134415000D01*
X142501000Y-58039000D02*
X139510000Y-61030000D01*
X67875000Y-66975000D02*
X66245000Y-66975000D01*
X114170000Y-130740000D02*
X113200000Y-131710000D01*
X110100000Y-144135000D02*
X63185000Y-144135000D01*
X149626000Y-131700000D02*
X138380000Y-131700000D01*
X62540000Y-59690000D02*
X62540000Y-63520000D01*
X113200000Y-131710000D02*
X113200000Y-141035000D01*
X71810000Y-65060000D02*
X69790000Y-65060000D01*
X63750000Y-83880000D02*
X64620000Y-83880000D01*
X54300000Y-135250000D02*
X54300000Y-104220000D01*
D82*
%TO.N,Net-(C8-Pad2)*%
X127220000Y-108600000D02*
X127170000Y-108600000D01*
X129052000Y-107198000D02*
X128040000Y-108210000D01*
X128040000Y-108210000D02*
X127610000Y-108210000D01*
X127170000Y-108600000D02*
X125820000Y-109950000D01*
X124190000Y-109950000D02*
X123460000Y-110680000D01*
X129052000Y-105254500D02*
X129052000Y-107198000D01*
X123460000Y-110680000D02*
X123460000Y-113847500D01*
X127610000Y-108210000D02*
X127220000Y-108600000D01*
X125820000Y-109950000D02*
X124190000Y-109950000D01*
X123460000Y-113847500D02*
X123277500Y-114030000D01*
D81*
%TO.N,Net-(C11-Pad2)*%
X99914056Y-117001944D02*
X101540000Y-115376000D01*
X97376944Y-117001944D02*
X99914056Y-117001944D01*
X92100000Y-137600000D02*
X88900000Y-137600000D01*
X87150000Y-130537500D02*
X88477500Y-130537500D01*
X101540000Y-98710000D02*
X102700000Y-97550000D01*
X88477500Y-130537500D02*
X89340000Y-131400000D01*
X87970000Y-136670000D02*
X87970000Y-134760000D01*
X89320000Y-133850000D02*
X89320000Y-134150000D01*
X88900000Y-137600000D02*
X87970000Y-136670000D01*
X92125000Y-137625000D02*
X98625000Y-137625000D01*
X90085000Y-123925000D02*
X88825000Y-125185000D01*
X89340000Y-133830000D02*
X89320000Y-133850000D01*
X88710000Y-134760000D02*
X87970000Y-134760000D01*
X88825000Y-125185000D02*
X88825000Y-129600000D01*
X101540000Y-115376000D02*
X101540000Y-98710000D01*
X89340000Y-131400000D02*
X89340000Y-133830000D01*
X92125000Y-137625000D02*
X92100000Y-137600000D01*
X88825000Y-129600000D02*
X87887500Y-130537500D01*
X89320000Y-134150000D02*
X88710000Y-134760000D01*
X87887500Y-130537500D02*
X87150000Y-130537500D01*
%TO.N,Net-(C23-Pad2)*%
X168650000Y-74630000D02*
X169270000Y-74010000D01*
D80*
X159125000Y-82675000D02*
X159550000Y-83100000D01*
D81*
X165900000Y-87150000D02*
X165900000Y-88925000D01*
D80*
X182800000Y-90830000D02*
X182800000Y-90758000D01*
X159975000Y-79950000D02*
X160050000Y-79875000D01*
X181058000Y-76962000D02*
X182500000Y-75520000D01*
D81*
X168650000Y-86275000D02*
X168650000Y-74630000D01*
X165900000Y-88925000D02*
X165375000Y-89450000D01*
D80*
X186000000Y-76920000D02*
X187210000Y-78130000D01*
X182500000Y-76090000D02*
X183330000Y-76920000D01*
X182500000Y-75520000D02*
X182500000Y-76090000D01*
D81*
X168525000Y-86675000D02*
X166375000Y-86675000D01*
D80*
X182800000Y-90758000D02*
X185674000Y-87884000D01*
X161500000Y-89450000D02*
X161130000Y-89080000D01*
X173020000Y-89616000D02*
X173020000Y-90680000D01*
X173736000Y-88900000D02*
X173020000Y-89616000D01*
D81*
X165375000Y-89450000D02*
X162250000Y-89450000D01*
X168650000Y-87975000D02*
X168650000Y-86275000D01*
D80*
X161130000Y-89080000D02*
X161130000Y-84680000D01*
X157000000Y-82675000D02*
X159125000Y-82675000D01*
X185674000Y-82306000D02*
X187210000Y-80770000D01*
X172890000Y-75630000D02*
X174222000Y-76962000D01*
X187210000Y-78130000D02*
X187210000Y-80770000D01*
X174222000Y-76962000D02*
X181058000Y-76962000D01*
X159975000Y-82675000D02*
X159975000Y-79950000D01*
D81*
X169270000Y-74010000D02*
X171390000Y-74010000D01*
D80*
X162250000Y-89450000D02*
X161500000Y-89450000D01*
D81*
X166375000Y-86675000D02*
X165900000Y-87150000D01*
X171390000Y-74010000D02*
X172890000Y-75510000D01*
D80*
X185674000Y-87884000D02*
X185674000Y-82306000D01*
X173736000Y-88900000D02*
X173746000Y-88910000D01*
X161130000Y-84680000D02*
X159550000Y-83100000D01*
D81*
X168650000Y-86275000D02*
X168650000Y-86550000D01*
D80*
X155975000Y-81650000D02*
X157000000Y-82675000D01*
X155975000Y-80750000D02*
X155975000Y-81650000D01*
D81*
X172890000Y-75510000D02*
X172890000Y-75630000D01*
X168650000Y-86550000D02*
X168525000Y-86675000D01*
D80*
X183330000Y-76920000D02*
X186000000Y-76920000D01*
X180880000Y-88910000D02*
X182800000Y-90830000D01*
X173746000Y-88910000D02*
X180880000Y-88910000D01*
D81*
X169575000Y-88900000D02*
X168650000Y-87975000D01*
D80*
X159550000Y-83100000D02*
X159975000Y-82675000D01*
D81*
X173736000Y-88900000D02*
X169575000Y-88900000D01*
D80*
%TO.N,Net-(C26-Pad1)*%
X183210000Y-121190000D02*
X187775000Y-116625000D01*
X172627500Y-121190000D02*
X183210000Y-121190000D01*
X172587500Y-121230000D02*
X172627500Y-121190000D01*
%TO.N,Net-(C26-Pad2)*%
X165100000Y-127000000D02*
X161290000Y-123190000D01*
X169650000Y-127000000D02*
X165100000Y-127000000D01*
X169660000Y-126990000D02*
X169660000Y-122082500D01*
X169660000Y-126990000D02*
X169650000Y-127000000D01*
X169660000Y-122082500D02*
X170512500Y-121230000D01*
D81*
%TO.N,Net-(C34-Pad1)*%
X163130000Y-140202500D02*
X163130000Y-137865000D01*
X163280000Y-135715000D02*
X163280000Y-137705000D01*
X163130000Y-137865000D02*
X163125000Y-137860000D01*
X163125000Y-135560000D02*
X163280000Y-135715000D01*
X163280000Y-137705000D02*
X163125000Y-137860000D01*
X163162500Y-140235000D02*
X163130000Y-140202500D01*
%TO.N,Net-(C34-Pad2)*%
X138400000Y-140800000D02*
X141042000Y-143442000D01*
X153940000Y-140960000D02*
X159320000Y-140960000D01*
X160045000Y-140235000D02*
X161087500Y-140235000D01*
X151458000Y-143442000D02*
X153940000Y-140960000D01*
X159320000Y-140960000D02*
X160045000Y-140235000D01*
X138400000Y-140800000D02*
X135900000Y-143300000D01*
X135900000Y-143300000D02*
X135900000Y-143800000D01*
X141042000Y-143442000D02*
X151458000Y-143442000D01*
%TO.N,Net-(D3-Pad2)*%
X108240000Y-126870000D02*
X108240000Y-124725000D01*
X108240000Y-124725000D02*
X108305000Y-124660000D01*
D82*
%TO.N,SCK*%
X130780000Y-93000000D02*
X130780000Y-76870000D01*
X132552000Y-96126315D02*
X131452000Y-95026315D01*
X130780000Y-76870000D02*
X131550000Y-76100000D01*
X131550000Y-71396000D02*
X133130000Y-69816000D01*
X132552000Y-96929500D02*
X132552000Y-96126315D01*
X131452000Y-93672000D02*
X130780000Y-93000000D01*
X131550000Y-76100000D02*
X131550000Y-71396000D01*
X133130000Y-69816000D02*
X133130000Y-68930000D01*
X131452000Y-95026315D02*
X131452000Y-93672000D01*
%TO.N,MOSI*%
X130910000Y-75430000D02*
X130910000Y-68950000D01*
X131552000Y-95992000D02*
X131002000Y-95442000D01*
X131002000Y-95442000D02*
X131002000Y-93982000D01*
X130910000Y-68950000D02*
X130930000Y-68930000D01*
X130240000Y-76100000D02*
X130910000Y-75430000D01*
X131552000Y-96929500D02*
X131552000Y-95992000D01*
X131002000Y-93982000D02*
X130240000Y-93220000D01*
X130240000Y-93220000D02*
X130240000Y-76100000D01*
%TO.N,TXD*%
X122936000Y-74676000D02*
X122936000Y-75076000D01*
X129740000Y-77590000D02*
X129740000Y-93450000D01*
X129740000Y-93450000D02*
X130552000Y-94262000D01*
X128858000Y-76708000D02*
X129740000Y-77590000D01*
X130552000Y-94262000D02*
X130552000Y-96929500D01*
X124568000Y-76708000D02*
X128858000Y-76708000D01*
X122936000Y-75076000D02*
X124568000Y-76708000D01*
%TO.N,RXD*%
X129230000Y-78300000D02*
X129230000Y-93700000D01*
X129230000Y-93700000D02*
X130052000Y-94522000D01*
X121906000Y-77216000D02*
X128146000Y-77216000D01*
X120396000Y-74676000D02*
X120396000Y-75706000D01*
X128146000Y-77216000D02*
X129230000Y-78300000D01*
X130052000Y-94522000D02*
X130052000Y-96929500D01*
X120396000Y-75706000D02*
X121906000Y-77216000D01*
D81*
%TO.N,Net-(C1-Pad2)*%
X136640000Y-109610000D02*
X136640000Y-106770000D01*
X138160000Y-105250000D02*
X138160000Y-104480000D01*
X145580000Y-102940000D02*
X146270000Y-102250000D01*
X136640000Y-106770000D02*
X138160000Y-105250000D01*
X146270000Y-97610000D02*
X146790000Y-97090000D01*
D82*
X130552000Y-105254500D02*
X130552000Y-108708000D01*
D81*
X146790000Y-90590000D02*
X146790000Y-97090000D01*
X132770000Y-112380000D02*
X132745000Y-112380000D01*
X141800000Y-95850000D02*
X145550000Y-95850000D01*
X132745000Y-112380000D02*
X131550500Y-113574500D01*
X145550000Y-95850000D02*
X146790000Y-97090000D01*
D82*
X131318000Y-113813500D02*
X131550500Y-114046000D01*
X131318000Y-109474000D02*
X131318000Y-113813500D01*
X130552000Y-108708000D02*
X131318000Y-109474000D01*
D81*
X146270000Y-102250000D02*
X146270000Y-97610000D01*
X141300000Y-102940000D02*
X145580000Y-102940000D01*
X131550500Y-113574500D02*
X131550500Y-114046000D01*
X141110000Y-103130000D02*
X141300000Y-102940000D01*
%TO.N,TRANSMIT*%
X133540000Y-86850000D02*
X133540000Y-73880000D01*
X140800000Y-97100000D02*
X141325000Y-97625000D01*
D82*
X136067000Y-102342000D02*
X134464500Y-102342000D01*
D81*
X133540000Y-73880000D02*
X136245000Y-71175000D01*
X143700000Y-97625000D02*
X144470000Y-98395000D01*
X144470000Y-100850000D02*
X140430000Y-100850000D01*
X140800000Y-93870000D02*
X140800000Y-97100000D01*
X144470000Y-98395000D02*
X144470000Y-100850000D01*
X138690000Y-89200000D02*
X139900000Y-90410000D01*
X140430000Y-100850000D02*
X140410000Y-100830000D01*
X136360000Y-88660000D02*
X135350000Y-88660000D01*
D82*
X136425000Y-102700000D02*
X136067000Y-102342000D01*
D81*
X141325000Y-97625000D02*
X143700000Y-97625000D01*
X139900000Y-92970000D02*
X140800000Y-93870000D01*
X135350000Y-88660000D02*
X133540000Y-86850000D01*
X136245000Y-71175000D02*
X141320000Y-71175000D01*
X139900000Y-90410000D02*
X139900000Y-92970000D01*
D82*
%TO.N,BEEPOUT*%
X121450000Y-117800000D02*
X116810000Y-122440000D01*
X110110000Y-121610000D02*
X110110000Y-114200000D01*
X116810000Y-122440000D02*
X110940000Y-122440000D01*
X123833000Y-102342000D02*
X126139500Y-102342000D01*
X122425000Y-103750000D02*
X123833000Y-102342000D01*
X110940000Y-122440000D02*
X110110000Y-121610000D01*
X114540000Y-109770000D02*
X114540000Y-104085000D01*
X121410000Y-116430000D02*
X121450000Y-116470000D01*
X114875000Y-103750000D02*
X122425000Y-103750000D01*
X114540000Y-104085000D02*
X114875000Y-103750000D01*
X110110000Y-114200000D02*
X114540000Y-109770000D01*
X121450000Y-116470000D02*
X121450000Y-117800000D01*
D81*
%TO.N,Net-(RV1-Pad2)*%
X151080000Y-140850000D02*
X149250000Y-142680000D01*
X153665000Y-135685000D02*
X151080000Y-138270000D01*
X139600000Y-138410000D02*
X135210000Y-138410000D01*
X141470000Y-142680000D02*
X140800000Y-142010000D01*
X140800000Y-142010000D02*
X140800000Y-139610000D01*
X151080000Y-138270000D02*
X151080000Y-140850000D01*
X140800000Y-139610000D02*
X139600000Y-138410000D01*
X154205000Y-135685000D02*
X153665000Y-135685000D01*
X133400000Y-140220000D02*
X133400000Y-140800000D01*
X135210000Y-138410000D02*
X133400000Y-140220000D01*
X149250000Y-142680000D02*
X141470000Y-142680000D01*
X133400000Y-140800000D02*
X133400000Y-143800000D01*
%TO.N,AUDIO*%
X157390000Y-132950000D02*
X158700000Y-132950000D01*
D80*
X158730000Y-132980000D02*
X158730000Y-135220000D01*
X158700000Y-132950000D02*
X158730000Y-132980000D01*
D81*
X153660000Y-129510000D02*
X153950000Y-129510000D01*
X151570000Y-129510000D02*
X151560000Y-129520000D01*
X153950000Y-129510000D02*
X157390000Y-132950000D01*
D80*
X158730000Y-135220000D02*
X158220000Y-135730000D01*
D81*
X153660000Y-129510000D02*
X151570000Y-129510000D01*
D82*
%TO.N,Net-(C4-Pad2)*%
X130052000Y-105254500D02*
X130052000Y-110878000D01*
X130052000Y-110878000D02*
X129200000Y-111730000D01*
X129200000Y-111730000D02*
X129340000Y-111870000D01*
X129340000Y-114632500D02*
X129300000Y-114672500D01*
X129340000Y-111870000D02*
X129340000Y-114632500D01*
%TO.N,Net-(C5-Pad2)*%
X124720000Y-108600000D02*
X124600000Y-108600000D01*
X128552000Y-105254500D02*
X128552000Y-106608000D01*
X127880000Y-107280000D02*
X125440000Y-107280000D01*
X124600000Y-108600000D02*
X122237500Y-110962500D01*
X128552000Y-106608000D02*
X127880000Y-107280000D01*
X122237500Y-110962500D02*
X122237500Y-111370000D01*
X125440000Y-107280000D02*
X124720000Y-108000000D01*
X124720000Y-108000000D02*
X124720000Y-108600000D01*
D81*
%TO.N,Net-(C10-Pad2)*%
X93375000Y-118244771D02*
X94262500Y-117357271D01*
X96300000Y-115650000D02*
X95225000Y-116725000D01*
X98200000Y-115725000D02*
X99275000Y-115725000D01*
X89975000Y-115750000D02*
X90350000Y-115375000D01*
X89975000Y-116750000D02*
X89975000Y-115750000D01*
X90350000Y-115375000D02*
X93475000Y-115375000D01*
X99940000Y-115060000D02*
X99940000Y-97540000D01*
X94262500Y-116162500D02*
X94262500Y-116725000D01*
X93425000Y-121025000D02*
X93375000Y-120975000D01*
X93375000Y-120975000D02*
X93375000Y-118244771D01*
X95225000Y-116725000D02*
X94262500Y-116725000D01*
X99275000Y-115725000D02*
X99940000Y-115060000D01*
X93425000Y-121025000D02*
X86925000Y-121025000D01*
X94262500Y-117357271D02*
X94262500Y-116725000D01*
X93475000Y-115375000D02*
X94262500Y-116162500D01*
%TO.N,Net-(C17-Pad2)*%
X105630000Y-117620000D02*
X104122000Y-117620000D01*
X104122000Y-117620000D02*
X103880000Y-117862000D01*
X103590000Y-121110000D02*
X103725000Y-120975000D01*
X105642500Y-117607500D02*
X105642500Y-115300000D01*
X108360000Y-97530000D02*
X108360000Y-99115000D01*
X108360000Y-99115000D02*
X103880000Y-103595000D01*
X97360000Y-121110000D02*
X103010000Y-121110000D01*
X105630000Y-117620000D02*
X105642500Y-117607500D01*
X103590000Y-121110000D02*
X103880000Y-120820000D01*
X103880000Y-120820000D02*
X103880000Y-117862000D01*
X103880000Y-103595000D02*
X103880000Y-117862000D01*
X103010000Y-121110000D02*
X103590000Y-121110000D01*
X97225000Y-120975000D02*
X97360000Y-121110000D01*
D82*
%TO.N,MISO*%
X134570000Y-96796919D02*
X133256919Y-98110000D01*
X133256919Y-98110000D02*
X132429315Y-98110000D01*
X132052000Y-97732685D02*
X132052000Y-96929500D01*
X134570000Y-89640000D02*
X134570000Y-96796919D01*
X132429315Y-98110000D02*
X132052000Y-97732685D01*
X135330000Y-68930000D02*
X135330000Y-69910000D01*
X135330000Y-69910000D02*
X132210000Y-73030000D01*
X132210000Y-73030000D02*
X132210000Y-87280000D01*
X132210000Y-87280000D02*
X134570000Y-89640000D01*
D81*
%TO.N,Net-(C64-Pad2)*%
X92456000Y-103346000D02*
X91472000Y-103346000D01*
X82099000Y-104394000D02*
X81672500Y-103967500D01*
X90424000Y-104394000D02*
X82099000Y-104394000D01*
X90402500Y-99060000D02*
X90402500Y-102594500D01*
X91472000Y-103346000D02*
X91313000Y-103505000D01*
X92456000Y-105442000D02*
X92456000Y-103346000D01*
X90402500Y-102594500D02*
X91313000Y-103505000D01*
X80402500Y-105237500D02*
X81672500Y-103967500D01*
X80402500Y-107003000D02*
X80402500Y-105237500D01*
X91313000Y-103505000D02*
X90424000Y-104394000D01*
X81672500Y-103967500D02*
X81672500Y-101753000D01*
%TO.N,DB5*%
X102340000Y-95190000D02*
X102340000Y-85300000D01*
D82*
X122750500Y-101375500D02*
X117800500Y-101375500D01*
X133612280Y-103842000D02*
X133300280Y-103530000D01*
X114775000Y-89825000D02*
X110050500Y-89825000D01*
X134464500Y-103842000D02*
X133612280Y-103842000D01*
D81*
X102700000Y-95550000D02*
X102340000Y-95190000D01*
D82*
X117800500Y-101375500D02*
X116050000Y-99625000D01*
X133300280Y-103530000D02*
X129963178Y-103530000D01*
D81*
X102340000Y-85300000D02*
X102270000Y-85230000D01*
D82*
X122825000Y-101450000D02*
X122750500Y-101375500D01*
X116050000Y-99625000D02*
X116050000Y-91100000D01*
X129963178Y-103530000D02*
X129604089Y-103170911D01*
X116050000Y-91100000D02*
X114775000Y-89825000D01*
X110050500Y-89825000D02*
X110000000Y-89875500D01*
D81*
%TO.N,DB4*%
X99940000Y-95540000D02*
X99800000Y-95400000D01*
D82*
X115550000Y-91650000D02*
X115550000Y-100025000D01*
X115550000Y-100025000D02*
X117525500Y-102000500D01*
X109000000Y-90500000D02*
X114400000Y-90500000D01*
X108900000Y-90400000D02*
X109000000Y-90500000D01*
X117525500Y-102000500D02*
X120775000Y-102000500D01*
X114400000Y-90500000D02*
X115550000Y-91650000D01*
X133504500Y-105254500D02*
X133800000Y-105550000D01*
D81*
X99800000Y-85300000D02*
X99730000Y-85230000D01*
D82*
X133052000Y-105254500D02*
X133504500Y-105254500D01*
D81*
X99800000Y-95400000D02*
X99800000Y-85300000D01*
D82*
%TO.N,DB7*%
X115400000Y-88450000D02*
X109300000Y-88450000D01*
X109300000Y-88450000D02*
X107350000Y-86500000D01*
X117200000Y-99150000D02*
X117200000Y-90250000D01*
X117200000Y-90250000D02*
X115400000Y-88450000D01*
D81*
X108360000Y-95530000D02*
X108360000Y-95135000D01*
X107420000Y-85300000D02*
X107350000Y-85230000D01*
D82*
X131413500Y-102842000D02*
X134464500Y-102842000D01*
X107350000Y-86500000D02*
X107350000Y-85230000D01*
D81*
X107420000Y-94195000D02*
X107420000Y-85300000D01*
X108360000Y-95135000D02*
X107420000Y-94195000D01*
D82*
X121250000Y-100100000D02*
X118150000Y-100100000D01*
X118150000Y-100100000D02*
X117200000Y-99150000D01*
%TO.N,DB6*%
X115225000Y-89125000D02*
X108475000Y-89125000D01*
D81*
X105610000Y-95560000D02*
X104880000Y-94830000D01*
D82*
X134464500Y-103342000D02*
X135567000Y-103342000D01*
D81*
X104880000Y-85300000D02*
X104810000Y-85230000D01*
D82*
X122025000Y-100725000D02*
X118000000Y-100725000D01*
D81*
X104880000Y-94830000D02*
X104880000Y-85300000D01*
D82*
X108475000Y-89125000D02*
X108400000Y-89050000D01*
X116600000Y-99325000D02*
X116600000Y-90500000D01*
X118000000Y-100725000D02*
X116600000Y-99325000D01*
X135567000Y-103342000D02*
X136025000Y-103800000D01*
X116600000Y-90500000D02*
X115225000Y-89125000D01*
D81*
%TO.N,Net-(DS1-Pad3)*%
X90290000Y-80750000D02*
X83380000Y-80750000D01*
X79410000Y-84720000D02*
X79410000Y-85230000D01*
X83380000Y-80750000D02*
X79410000Y-84720000D01*
X91000000Y-80040000D02*
X90290000Y-80750000D01*
D82*
%TO.N,RS*%
X132925000Y-100236396D02*
X132925000Y-99975000D01*
X124760000Y-95660000D02*
X127525000Y-98425000D01*
X127525000Y-98425000D02*
X127525000Y-98875000D01*
D81*
X97390000Y-95500000D02*
X91927500Y-95500000D01*
D82*
X132536396Y-100625000D02*
X132925000Y-100236396D01*
X132925000Y-99975000D02*
X133558000Y-99342000D01*
X114575000Y-92100000D02*
X114550000Y-92075000D01*
X130325000Y-100300000D02*
X130650000Y-100625000D01*
X114550000Y-92075000D02*
X111700000Y-92075000D01*
X111700000Y-92075000D02*
X111100000Y-91475000D01*
X130650000Y-100625000D02*
X132536396Y-100625000D01*
X133558000Y-99342000D02*
X134464500Y-99342000D01*
D81*
X91927500Y-95500000D02*
X81950000Y-85522500D01*
X81950000Y-85522500D02*
X81950000Y-85230000D01*
D82*
X124760000Y-92540000D02*
X124760000Y-95660000D01*
X124284342Y-92097520D02*
X124317520Y-92097520D01*
X124317520Y-92097520D02*
X124760000Y-92540000D01*
%TO.N,E*%
X109975000Y-91737500D02*
X109975000Y-91675000D01*
X114100000Y-93825000D02*
X113000000Y-92725000D01*
X118425000Y-99400000D02*
X117950000Y-98925000D01*
X130792500Y-101842000D02*
X130650000Y-101699500D01*
X113000000Y-92725000D02*
X110962500Y-92725000D01*
X122500000Y-99400000D02*
X118425000Y-99400000D01*
X110962500Y-92725000D02*
X109975000Y-91737500D01*
X134464500Y-101842000D02*
X130792500Y-101842000D01*
X117950000Y-98925000D02*
X117950000Y-94550000D01*
D81*
%TO.N,Net-(C16-Pad2)*%
X99775000Y-118325000D02*
X102800000Y-115300000D01*
X85210000Y-118640000D02*
X85210000Y-119577500D01*
X91600000Y-128775000D02*
X92150000Y-129325000D01*
X91185000Y-122640000D02*
X90785000Y-122640000D01*
X97275000Y-118325000D02*
X99775000Y-118325000D01*
X90885000Y-122640000D02*
X91450000Y-122075000D01*
X102800000Y-115300000D02*
X102800000Y-100370000D01*
X84362500Y-121537500D02*
X84362500Y-120425000D01*
X90785000Y-122640000D02*
X85465000Y-122640000D01*
X102800000Y-100370000D02*
X105610000Y-97560000D01*
X91600000Y-123055000D02*
X91185000Y-122640000D01*
X85210000Y-119577500D02*
X84362500Y-120425000D01*
X91600000Y-128775000D02*
X91600000Y-123055000D01*
X90785000Y-122640000D02*
X90885000Y-122640000D01*
X98650000Y-129325000D02*
X92150000Y-129325000D01*
X85465000Y-122640000D02*
X84362500Y-121537500D01*
X85620000Y-118230000D02*
X85210000Y-118640000D01*
D82*
%TO.N,Net-(U1-Pad9)*%
X132140000Y-107020000D02*
X132550000Y-107430000D01*
X123484000Y-105606000D02*
X125815081Y-105606000D01*
X132550000Y-107430000D02*
X132550000Y-108587500D01*
X121460000Y-107630000D02*
X123484000Y-105606000D01*
X127301081Y-104120000D02*
X131552000Y-104120000D01*
X131552000Y-104120000D02*
X131552000Y-105254500D01*
X132123884Y-107020000D02*
X132140000Y-107020000D01*
X131552000Y-105254500D02*
X131552000Y-106448116D01*
X125815081Y-105606000D02*
X127301081Y-104120000D01*
X131552000Y-106448116D02*
X132123884Y-107020000D01*
%TO.N,SDA*%
X144920000Y-80670000D02*
X143290000Y-80670000D01*
X156290000Y-94220000D02*
X153090000Y-91020000D01*
X137900000Y-85175000D02*
X137750000Y-85025000D01*
X158130000Y-105090000D02*
X156290000Y-103250000D01*
X129725000Y-98900000D02*
X127283000Y-101342000D01*
X129800000Y-98900000D02*
X129725000Y-98900000D01*
X150390000Y-84270000D02*
X149780000Y-83660000D01*
X157050000Y-109807500D02*
X158167500Y-109807500D01*
X147030000Y-81790000D02*
X146040000Y-81790000D01*
X139525000Y-82975000D02*
X139525000Y-83675000D01*
X158985000Y-108990000D02*
X158985000Y-108131116D01*
X142430000Y-80670000D02*
X140975000Y-82125000D01*
X156290000Y-103250000D02*
X156290000Y-94220000D01*
X139525000Y-83675000D02*
X138175000Y-85025000D01*
X158985000Y-108131116D02*
X158130000Y-107276116D01*
X137580000Y-98710000D02*
X137900000Y-98390000D01*
X140375000Y-82125000D02*
X139525000Y-82975000D01*
X127283000Y-101342000D02*
X126139500Y-101342000D01*
X146040000Y-81790000D02*
X144920000Y-80670000D01*
X137900000Y-98390000D02*
X137900000Y-85175000D01*
X138175000Y-85025000D02*
X137750000Y-85025000D01*
X158167500Y-109807500D02*
X158985000Y-108990000D01*
X153090000Y-89430000D02*
X150390000Y-86730000D01*
X149780000Y-83660000D02*
X148900000Y-83660000D01*
X153090000Y-91020000D02*
X153090000Y-89430000D01*
X140975000Y-82125000D02*
X140375000Y-82125000D01*
X150390000Y-86730000D02*
X150390000Y-84270000D01*
X143290000Y-80670000D02*
X142430000Y-80670000D01*
X148900000Y-83660000D02*
X147030000Y-81790000D01*
X158130000Y-107276116D02*
X158130000Y-105090000D01*
%TO.N,SCL*%
X128950000Y-98749500D02*
X128950000Y-98800000D01*
X137320000Y-97650000D02*
X137320000Y-88345000D01*
X153560000Y-90590000D02*
X153560000Y-88880000D01*
X158980000Y-107120000D02*
X158950000Y-107090000D01*
X136150000Y-83975000D02*
X135075000Y-85050000D01*
X140725000Y-81450000D02*
X140075000Y-81450000D01*
X156850000Y-102970000D02*
X156850000Y-93880000D01*
X153560000Y-88880000D02*
X150960000Y-86280000D01*
X158360000Y-108765000D02*
X157952500Y-109172500D01*
X142005000Y-80170000D02*
X140725000Y-81450000D01*
X158950000Y-105070000D02*
X156850000Y-102970000D01*
X150150000Y-83210000D02*
X149400000Y-83210000D01*
X126942685Y-100842000D02*
X126139500Y-100842000D01*
X150960000Y-84020000D02*
X150150000Y-83210000D01*
X137140000Y-97830000D02*
X137320000Y-97650000D01*
X138450000Y-83975000D02*
X136150000Y-83975000D01*
X145319604Y-80170000D02*
X143290000Y-80170000D01*
X143290000Y-80170000D02*
X142005000Y-80170000D01*
X149400000Y-83210000D02*
X147335000Y-81145000D01*
X135075000Y-86100000D02*
X135075000Y-85050000D01*
X137320000Y-88345000D02*
X135075000Y-86100000D01*
X128950000Y-98800000D02*
X127202000Y-100548000D01*
X138975000Y-82550000D02*
X138975000Y-83450000D01*
X140075000Y-81450000D02*
X138975000Y-82550000D01*
X127202000Y-100582685D02*
X126942685Y-100842000D01*
X150960000Y-86280000D02*
X150960000Y-84020000D01*
X146294604Y-81145000D02*
X145319604Y-80170000D01*
X158950000Y-107090000D02*
X158950000Y-105070000D01*
X127202000Y-100548000D02*
X127202000Y-100582685D01*
X138975000Y-83450000D02*
X138450000Y-83975000D01*
X147335000Y-81145000D02*
X146294604Y-81145000D01*
X156850000Y-93880000D02*
X153560000Y-90590000D01*
X157952500Y-109172500D02*
X157050000Y-109172500D01*
X158360000Y-108390000D02*
X158360000Y-108765000D01*
D80*
%TO.N,Net-(C23-Pad1)*%
X165525000Y-90800000D02*
X164775000Y-91550000D01*
X164775000Y-91550000D02*
X162275000Y-91550000D01*
X162275000Y-91550000D02*
X162250000Y-91525000D01*
%TO.N,+3.3V*%
X118011500Y-66061500D02*
X121896000Y-66061500D01*
D82*
X129575000Y-99875000D02*
X129575000Y-99800000D01*
D80*
X80190000Y-64480000D02*
X77380000Y-64480000D01*
D82*
X161060000Y-110460000D02*
X161060000Y-95590000D01*
X131350000Y-100100000D02*
X132425000Y-100100000D01*
D81*
X85675000Y-129375000D02*
X84675000Y-128375000D01*
X113650000Y-107800000D02*
X108450000Y-107800000D01*
D80*
X84110000Y-75790000D02*
X84110000Y-78310000D01*
D82*
X130250000Y-98125000D02*
X131225000Y-99100000D01*
D81*
X135100000Y-83025000D02*
X135075000Y-83050000D01*
D80*
X77380000Y-64480000D02*
X77380000Y-67320000D01*
D81*
X106240000Y-127810000D02*
X106240000Y-126870000D01*
D80*
X121396000Y-70104000D02*
X122180000Y-69320000D01*
D82*
X152090000Y-83440000D02*
X150960000Y-82310000D01*
X121881500Y-105156000D02*
X121507500Y-105530000D01*
X131225000Y-99975000D02*
X131350000Y-100100000D01*
D81*
X107250000Y-123340000D02*
X107250000Y-125860000D01*
D80*
X87180000Y-60180000D02*
X84490000Y-60180000D01*
D81*
X104905000Y-129145000D02*
X106240000Y-127810000D01*
D82*
X127552000Y-101898000D02*
X129575000Y-99875000D01*
D81*
X126700000Y-83440000D02*
X125865000Y-84275000D01*
D82*
X143030000Y-75967500D02*
X143030000Y-78410000D01*
D81*
X86010000Y-132684000D02*
X85675000Y-132349000D01*
D82*
X131225000Y-99100000D02*
X131225000Y-99975000D01*
X127905000Y-98125000D02*
X130250000Y-98125000D01*
X144456000Y-78670000D02*
X145956000Y-80170000D01*
D81*
X126700000Y-83290000D02*
X126700000Y-83440000D01*
X107900000Y-107250000D02*
X107900000Y-104850000D01*
X107900000Y-107250000D02*
X107900000Y-112218000D01*
D82*
X126942685Y-103842000D02*
X127552000Y-103232685D01*
D81*
X153287500Y-108230000D02*
X153530000Y-108230000D01*
X87894000Y-132684000D02*
X87970000Y-132760000D01*
X150525000Y-104475000D02*
X149125000Y-104475000D01*
X85620000Y-116350000D02*
X85620000Y-116230000D01*
D82*
X129725000Y-99650000D02*
X131225000Y-99650000D01*
D81*
X150525000Y-104475000D02*
X150525000Y-104165000D01*
X152900000Y-106240000D02*
X151090000Y-106240000D01*
D82*
X110290000Y-126540000D02*
X110310000Y-126540000D01*
D81*
X86010000Y-132684000D02*
X87894000Y-132684000D01*
X116025000Y-107450000D02*
X118965000Y-107450000D01*
X83300000Y-118670000D02*
X85620000Y-116350000D01*
X84675000Y-128375000D02*
X84675000Y-124525000D01*
D80*
X104870000Y-65010000D02*
X108160000Y-65010000D01*
D82*
X127149500Y-96929500D02*
X127552000Y-96929500D01*
X127552000Y-97772000D02*
X127905000Y-98125000D01*
X160442500Y-111077500D02*
X161060000Y-110460000D01*
D81*
X107900000Y-112218000D02*
X109202000Y-113520000D01*
X107900000Y-104850000D02*
X108775000Y-103975000D01*
X129980000Y-65970000D02*
X125900000Y-65970000D01*
X113700000Y-107850000D02*
X113650000Y-107800000D01*
X118965000Y-107450000D02*
X119145000Y-107630000D01*
X110250000Y-126580000D02*
X110250000Y-129170000D01*
D82*
X132425000Y-100100000D02*
X132475000Y-100050000D01*
X120040000Y-120760000D02*
X123870000Y-120760000D01*
D81*
X110225000Y-129145000D02*
X110250000Y-129170000D01*
X109202000Y-113520000D02*
X109202000Y-116078000D01*
X137750000Y-83025000D02*
X135100000Y-83025000D01*
X110290000Y-126540000D02*
X110250000Y-126580000D01*
X83300000Y-123150000D02*
X83300000Y-118670000D01*
D82*
X110310000Y-126540000D02*
X113420000Y-123430000D01*
D81*
X153287500Y-106627500D02*
X152900000Y-106240000D01*
D82*
X155623600Y-90153600D02*
X155079027Y-90153600D01*
X126139500Y-103842000D02*
X126942685Y-103842000D01*
D80*
X114510000Y-62560000D02*
X118011500Y-66061500D01*
X82288208Y-73968208D02*
X84110000Y-75790000D01*
D81*
X135025000Y-74850000D02*
X141912500Y-74850000D01*
D80*
X77380000Y-61020000D02*
X77380000Y-64480000D01*
D81*
X109414000Y-135636000D02*
X110250000Y-134800000D01*
X148830000Y-104445000D02*
X148525000Y-104445000D01*
X119407500Y-107630000D02*
X119145000Y-107630000D01*
D82*
X150190000Y-82310000D02*
X148875000Y-80995000D01*
D81*
X125750000Y-74950000D02*
X125476000Y-74676000D01*
D80*
X79171792Y-71140000D02*
X82000000Y-73968208D01*
X82000000Y-73968208D02*
X82288208Y-73968208D01*
D82*
X126380000Y-93667500D02*
X126380000Y-93310000D01*
D81*
X85675000Y-132349000D02*
X85675000Y-129375000D01*
X111940000Y-103975000D02*
X109400000Y-103975000D01*
D82*
X126080000Y-95860000D02*
X127149500Y-96929500D01*
D81*
X149125000Y-104475000D02*
X148975000Y-104625000D01*
D82*
X143290000Y-78670000D02*
X144456000Y-78670000D01*
X132475000Y-99528315D02*
X133661315Y-98342000D01*
D81*
X87975000Y-116750000D02*
X86140000Y-116750000D01*
X155867500Y-111077500D02*
X157050000Y-111077500D01*
D82*
X127552000Y-96929500D02*
X127552000Y-97772000D01*
D81*
X89814000Y-135636000D02*
X109414000Y-135636000D01*
D80*
X78727500Y-71140000D02*
X78727500Y-68667500D01*
X78990000Y-81960000D02*
X76870000Y-84080000D01*
D82*
X143030000Y-78410000D02*
X143290000Y-78670000D01*
D81*
X134175000Y-82150000D02*
X134175000Y-75700000D01*
X132030000Y-68020000D02*
X129980000Y-65970000D01*
X121507500Y-105530000D02*
X119407500Y-107630000D01*
D80*
X121896000Y-66061500D02*
X121980000Y-65977500D01*
D81*
X130028000Y-74950000D02*
X125750000Y-74950000D01*
D80*
X76870000Y-84080000D02*
X76870000Y-85230000D01*
X110610000Y-62560000D02*
X114510000Y-62560000D01*
D82*
X134464500Y-98342000D02*
X135870000Y-96936500D01*
D81*
X104905000Y-129145000D02*
X110225000Y-129145000D01*
X140840000Y-113890000D02*
X139950000Y-114780000D01*
X155270000Y-110480000D02*
X155867500Y-111077500D01*
D80*
X89600000Y-59950000D02*
X89320000Y-59670000D01*
D81*
X106460000Y-122550000D02*
X107250000Y-123340000D01*
X86140000Y-116750000D02*
X85620000Y-116230000D01*
D82*
X124825500Y-105156000D02*
X121881500Y-105156000D01*
D80*
X108160000Y-65010000D02*
X110610000Y-62560000D01*
X99860000Y-60000000D02*
X104870000Y-65010000D01*
D82*
X127552000Y-103232685D02*
X127552000Y-101898000D01*
X136695500Y-94932000D02*
X135870000Y-95757500D01*
D81*
X134175000Y-75700000D02*
X135025000Y-74850000D01*
D82*
X139800000Y-94925000D02*
X139475000Y-94600000D01*
D81*
X108450000Y-107800000D02*
X107900000Y-107250000D01*
X151090000Y-106240000D02*
X150525000Y-105675000D01*
D80*
X84490000Y-60180000D02*
X80190000Y-64480000D01*
D82*
X126139500Y-103842000D02*
X124825500Y-105156000D01*
D80*
X78727500Y-71140000D02*
X79171792Y-71140000D01*
D81*
X107250000Y-125860000D02*
X106240000Y-126870000D01*
D82*
X126380000Y-93667500D02*
X126080000Y-93967500D01*
X133661315Y-98342000D02*
X134464500Y-98342000D01*
D81*
X132030000Y-68930000D02*
X132030000Y-68020000D01*
X140840000Y-112130000D02*
X140840000Y-113890000D01*
X106252500Y-120320000D02*
X106252500Y-122532500D01*
X103290000Y-130760000D02*
X104905000Y-129145000D01*
D82*
X124700000Y-85100000D02*
X124250000Y-84650000D01*
D81*
X125865000Y-84275000D02*
X124250000Y-84275000D01*
D82*
X126080000Y-93967500D02*
X126080000Y-95860000D01*
D81*
X107630000Y-117620000D02*
X107630000Y-118942500D01*
X108775000Y-103975000D02*
X109400000Y-103975000D01*
X150525000Y-105675000D02*
X150525000Y-104475000D01*
D82*
X161060000Y-95590000D02*
X155623600Y-90153600D01*
X148875000Y-80375000D02*
X148670000Y-80170000D01*
X113420000Y-123430000D02*
X117370000Y-123430000D01*
D81*
X107630000Y-118942500D02*
X106252500Y-120320000D01*
D82*
X148670000Y-80170000D02*
X147690000Y-80170000D01*
X139800000Y-95850000D02*
X139800000Y-94925000D01*
X117370000Y-123430000D02*
X120040000Y-120760000D01*
D81*
X107630000Y-117620000D02*
X107660000Y-117620000D01*
D82*
X124700000Y-91630000D02*
X124700000Y-85100000D01*
X152090000Y-85800000D02*
X152090000Y-83440000D01*
D81*
X121987500Y-65970000D02*
X121980000Y-65977500D01*
X84675000Y-124525000D02*
X83300000Y-123150000D01*
D82*
X136695500Y-94690000D02*
X136695500Y-94932000D01*
D81*
X106235000Y-122550000D02*
X106460000Y-122550000D01*
D80*
X80460000Y-81960000D02*
X78990000Y-81960000D01*
D81*
X86244000Y-132684000D02*
X86010000Y-132684000D01*
D82*
X124250000Y-84650000D02*
X124250000Y-84275000D01*
D81*
X125476000Y-74676000D02*
X125476000Y-65970000D01*
X153287500Y-108230000D02*
X153287500Y-106627500D01*
D82*
X155079027Y-90153600D02*
X154590000Y-89664573D01*
X129575000Y-99800000D02*
X129725000Y-99650000D01*
X145956000Y-80170000D02*
X147690000Y-80170000D01*
D80*
X97010000Y-60000000D02*
X99860000Y-60000000D01*
D81*
X141912500Y-74850000D02*
X143030000Y-75967500D01*
X107660000Y-117620000D02*
X109202000Y-116078000D01*
X125900000Y-65970000D02*
X121987500Y-65970000D01*
D82*
X154590000Y-88300000D02*
X152090000Y-85800000D01*
X157050000Y-111077500D02*
X160442500Y-111077500D01*
D81*
X153530000Y-108230000D02*
X155270000Y-109970000D01*
X155270000Y-109970000D02*
X155270000Y-110480000D01*
D80*
X122180000Y-69320000D02*
X122180000Y-66177500D01*
D82*
X132475000Y-100050000D02*
X132475000Y-99528315D01*
X126380000Y-93310000D02*
X124700000Y-91630000D01*
D80*
X94590000Y-59950000D02*
X89600000Y-59950000D01*
D81*
X125476000Y-65970000D02*
X125900000Y-65970000D01*
X150525000Y-104165000D02*
X151770000Y-102920000D01*
X106252500Y-122532500D02*
X106235000Y-122550000D01*
X110250000Y-129170000D02*
X110250000Y-134800000D01*
X148525000Y-104445000D02*
X140840000Y-112130000D01*
D82*
X135870000Y-96936500D02*
X135870000Y-95757500D01*
X150960000Y-82310000D02*
X150190000Y-82310000D01*
D80*
X78727500Y-68667500D02*
X77380000Y-67320000D01*
X122180000Y-66177500D02*
X121980000Y-65977500D01*
D81*
X115725000Y-107750000D02*
X116025000Y-107450000D01*
D80*
X84110000Y-78310000D02*
X80460000Y-81960000D01*
D82*
X148875000Y-80995000D02*
X148875000Y-80375000D01*
X154590000Y-89664573D02*
X154590000Y-88300000D01*
D81*
X135075000Y-83050000D02*
X134175000Y-82150000D01*
D82*
%TO.N,Net-(U6-Pad2)*%
X143290000Y-79170000D02*
X142290000Y-79170000D01*
X142290000Y-79170000D02*
X141986000Y-78866000D01*
X141210000Y-76948000D02*
X139118000Y-76948000D01*
X141986000Y-77724000D02*
X141210000Y-76948000D01*
X141986000Y-78866000D02*
X141986000Y-77724000D01*
D81*
%TO.N,Net-(C28-Pad1)*%
X157050000Y-113617500D02*
X157050000Y-117362500D01*
X157050000Y-117362500D02*
X156360000Y-118052500D01*
%TO.N,Net-(C33-Pad1)*%
X162250000Y-109172500D02*
X163962500Y-109172500D01*
X164432500Y-109642500D02*
X164432500Y-110450000D01*
X163962500Y-109172500D02*
X164432500Y-109642500D01*
%TO.N,Net-(C33-Pad2)*%
X167020000Y-111320000D02*
X169300000Y-111320000D01*
X166507500Y-110450000D02*
X166507500Y-110807500D01*
X166507500Y-110807500D02*
X167020000Y-111320000D01*
%TO.N,Net-(C35-Pad1)*%
X162250000Y-106172500D02*
X164392500Y-104030000D01*
X162250000Y-106632500D02*
X162250000Y-106172500D01*
%TO.N,Net-(C35-Pad2)*%
X166467500Y-104030000D02*
X166800000Y-104030000D01*
X166800000Y-104030000D02*
X169010000Y-106240000D01*
X169300000Y-106240000D02*
X167545000Y-106240000D01*
X169010000Y-106240000D02*
X169300000Y-106240000D01*
X167545000Y-106240000D02*
X166525000Y-107260000D01*
D82*
%TO.N,RCH*%
X139320000Y-119480000D02*
X148450000Y-119480000D01*
X137540000Y-112130000D02*
X137780000Y-112370000D01*
X137070000Y-101810000D02*
X137070000Y-104970000D01*
X137070000Y-104970000D02*
X135980000Y-106060000D01*
X148450000Y-119480000D02*
X149240000Y-118690000D01*
X135980000Y-106060000D02*
X135980000Y-111040000D01*
X135980000Y-111040000D02*
X137070000Y-112130000D01*
X134464500Y-101342000D02*
X136602000Y-101342000D01*
X137070000Y-112130000D02*
X137540000Y-112130000D01*
X137780000Y-112370000D02*
X137780000Y-117940000D01*
X149240000Y-118690000D02*
X150340000Y-118690000D01*
X137780000Y-117940000D02*
X139320000Y-119480000D01*
X136602000Y-101342000D02*
X137070000Y-101810000D01*
D81*
%TO.N,Net-(D15-Pad2)*%
X178000000Y-67080000D02*
X178000000Y-64900000D01*
X174030000Y-70000000D02*
X176030000Y-68000000D01*
X177080000Y-68000000D02*
X178000000Y-67080000D01*
D80*
X176825000Y-63725000D02*
X178000000Y-64900000D01*
X176825000Y-59995000D02*
X176825000Y-63725000D01*
D81*
X176030000Y-68000000D02*
X177080000Y-68000000D01*
D80*
X176830000Y-59990000D02*
X176825000Y-59995000D01*
D81*
%TO.N,Net-(L9-Pad2)*%
X143305000Y-69125000D02*
X143670000Y-68760000D01*
X141320000Y-69125000D02*
X143305000Y-69125000D01*
D80*
%TO.N,Net-(J12-Pad1)*%
X173430000Y-126910000D02*
X179430000Y-126910000D01*
X180848000Y-140462000D02*
X180848000Y-135536000D01*
X180975000Y-140589000D02*
X180848000Y-140462000D01*
X180975000Y-140970000D02*
X180975000Y-140589000D01*
X184673000Y-131711000D02*
X184231000Y-131711000D01*
X179430000Y-126910000D02*
X181945000Y-129425000D01*
X180848000Y-135536000D02*
X184673000Y-131711000D01*
X184231000Y-131711000D02*
X181945000Y-129425000D01*
%TO.N,Net-(D16-Pad2)*%
X177292000Y-138176000D02*
X178800000Y-136668000D01*
X178800000Y-136668000D02*
X178800000Y-133220000D01*
X177228500Y-138176000D02*
X177292000Y-138176000D01*
%TO.N,Net-(D16-Pad1)*%
X176550000Y-131360000D02*
X174660000Y-133250000D01*
X178850000Y-131360000D02*
X176550000Y-131360000D01*
%TO.N,Net-(Q9-Pad2)*%
X165750000Y-98680000D02*
X168130000Y-96300000D01*
X168130000Y-95770000D02*
X165220000Y-92860000D01*
X165220000Y-92860000D02*
X161270000Y-92860000D01*
X162470000Y-98680000D02*
X165750000Y-98680000D01*
X161270000Y-92860000D02*
X159766000Y-91356000D01*
X159766000Y-89138000D02*
X157676600Y-89138000D01*
X157676600Y-89138000D02*
X157667200Y-89128600D01*
X168130000Y-96300000D02*
X168130000Y-95770000D01*
X159766000Y-91356000D02*
X159766000Y-89138000D01*
%TO.N,Net-(Q9-Pad1)*%
X167600000Y-90875000D02*
X167525000Y-90800000D01*
X170670000Y-95770000D02*
X167600000Y-92700000D01*
X171070000Y-96170000D02*
X171500000Y-96170000D01*
X176150000Y-100820000D02*
X177450000Y-100820000D01*
X170670000Y-95770000D02*
X171070000Y-96170000D01*
X167600000Y-92700000D02*
X167600000Y-90875000D01*
X171500000Y-96170000D02*
X176150000Y-100820000D01*
%TO.N,Net-(C56-Pad2)*%
X152575000Y-81292000D02*
X152575000Y-82267500D01*
X152892000Y-80975000D02*
X152575000Y-81292000D01*
X152575000Y-82267500D02*
X153430000Y-83122500D01*
X152550000Y-80633000D02*
X152892000Y-80975000D01*
X152892000Y-77550000D02*
X152550000Y-77892000D01*
X152550000Y-77892000D02*
X152550000Y-80633000D01*
D82*
%TO.N,Net-(D2-Pad1)*%
X122410000Y-117700000D02*
X117150000Y-122960000D01*
X120160000Y-115260000D02*
X122020000Y-115260000D01*
X119130000Y-116810000D02*
X119130000Y-116290000D01*
X122410000Y-115650000D02*
X122410000Y-117700000D01*
X117150000Y-122960000D02*
X108695000Y-122960000D01*
X108695000Y-122960000D02*
X108285000Y-122550000D01*
X119130000Y-116290000D02*
X120160000Y-115260000D01*
X122020000Y-115260000D02*
X122410000Y-115650000D01*
D80*
%TO.N,Net-(D5-Pad2)*%
X111410000Y-66760000D02*
X109770000Y-66760000D01*
X109770000Y-66760000D02*
X108458000Y-68072000D01*
X108458000Y-68072000D02*
X108458000Y-72684000D01*
D82*
%TO.N,Net-(J9-Pad1)*%
X124308000Y-102842000D02*
X122770000Y-104380000D01*
X117320000Y-104380000D02*
X116375000Y-105325000D01*
X122770000Y-104380000D02*
X117320000Y-104380000D01*
X126139500Y-102842000D02*
X124308000Y-102842000D01*
%TO.N,Net-(J25-Pad2)*%
X127220000Y-82040000D02*
X124910000Y-82040000D01*
X124910000Y-82040000D02*
X122880000Y-80010000D01*
X128552000Y-95442000D02*
X127660000Y-94550000D01*
X127660000Y-94550000D02*
X127660000Y-82480000D01*
X127660000Y-82480000D02*
X127220000Y-82040000D01*
X128552000Y-96929500D02*
X128552000Y-95442000D01*
%TO.N,Net-(J25-Pad3)*%
X124140000Y-96342500D02*
X124140000Y-93360000D01*
X126139500Y-98342000D02*
X124140000Y-96342500D01*
X124140000Y-93360000D02*
X123175000Y-92395000D01*
X123175000Y-92395000D02*
X123175000Y-82845000D01*
X123175000Y-82845000D02*
X120340000Y-80010000D01*
%TO.N,Net-(R1-Pad1)*%
X128052000Y-105254500D02*
X128052000Y-106111604D01*
X127573604Y-106590000D02*
X124042000Y-106590000D01*
X118840000Y-110210000D02*
X118840000Y-115170000D01*
X123444000Y-108712000D02*
X122606000Y-109550000D01*
X119500000Y-109550000D02*
X118840000Y-110210000D01*
X118840000Y-115170000D02*
X117300000Y-116710000D01*
X123444000Y-107188000D02*
X123444000Y-108712000D01*
X128052000Y-106111604D02*
X127573604Y-106590000D01*
X124042000Y-106590000D02*
X123444000Y-107188000D01*
X122606000Y-109550000D02*
X119500000Y-109550000D01*
%TO.N,Net-(R15-Pad2)*%
X128190000Y-79650000D02*
X126772000Y-78232000D01*
X114552000Y-78232000D02*
X111820000Y-75500000D01*
D81*
X112746000Y-70880000D02*
X111760000Y-71866000D01*
X119396000Y-70104000D02*
X116966000Y-70104000D01*
D82*
X126772000Y-78232000D02*
X114552000Y-78232000D01*
X129052000Y-96929500D02*
X129052000Y-95102000D01*
X128190000Y-94240000D02*
X128190000Y-79650000D01*
X111820000Y-75500000D02*
X111820000Y-71926000D01*
D81*
X116966000Y-70104000D02*
X116190000Y-70880000D01*
D82*
X129052000Y-95102000D02*
X128190000Y-94240000D01*
D81*
X116190000Y-70880000D02*
X112746000Y-70880000D01*
D82*
X111820000Y-71926000D02*
X111760000Y-71866000D01*
%TO.N,Net-(R9-Pad1)*%
X127784000Y-77724000D02*
X116078000Y-77724000D01*
X128700000Y-94030000D02*
X128700000Y-78640000D01*
X114554000Y-76200000D02*
X114554000Y-71866000D01*
X129552000Y-94882000D02*
X128700000Y-94030000D01*
X116078000Y-77724000D02*
X114554000Y-76200000D01*
X129552000Y-96929500D02*
X129552000Y-94882000D01*
X128700000Y-78640000D02*
X127784000Y-77724000D01*
D80*
%TO.N,Net-(C56-Pad1)*%
X153430000Y-85197500D02*
X153430000Y-86100000D01*
X153430000Y-86100000D02*
X155667200Y-88337200D01*
X155667200Y-88337200D02*
X155667200Y-89128600D01*
%TO.N,TXRELAY*%
X189620000Y-97000000D02*
X189620000Y-67590000D01*
X187775000Y-98845000D02*
X189620000Y-97000000D01*
X187240000Y-66000000D02*
X184187500Y-66000000D01*
X188530000Y-66500000D02*
X187250000Y-66500000D01*
X187250000Y-66010000D02*
X187240000Y-66000000D01*
X187250000Y-66500000D02*
X187250000Y-66010000D01*
X189620000Y-67590000D02*
X188530000Y-66500000D01*
%TO.N,Net-(D15-Pad1)*%
X171830000Y-59990000D02*
X171790000Y-59950000D01*
X173530000Y-59990000D02*
X171830000Y-59990000D01*
%TO.N,Net-(D18-Pad1)*%
X169542000Y-60198000D02*
X168078000Y-60198000D01*
X166130000Y-61610000D02*
X167810000Y-59930000D01*
X151130000Y-68912500D02*
X151130000Y-72264000D01*
X151130000Y-72264000D02*
X149988000Y-73406000D01*
X155306000Y-61610000D02*
X166130000Y-61610000D01*
X169790000Y-59950000D02*
X169542000Y-60198000D01*
X151130000Y-65786000D02*
X155306000Y-61610000D01*
X151130000Y-68912500D02*
X151130000Y-65786000D01*
X168078000Y-60198000D02*
X167810000Y-59930000D01*
%TO.N,Net-(D18-Pad2)*%
X154178000Y-72516000D02*
X153288000Y-73406000D01*
X154178000Y-70850000D02*
X154178000Y-72516000D01*
D81*
%TO.N,Net-(J26-Pad2)*%
X113910000Y-66760000D02*
X113910000Y-66807500D01*
X113910000Y-66807500D02*
X114554000Y-67451500D01*
X114554000Y-67451500D02*
X114554000Y-69866000D01*
D80*
%TO.N,Net-(JP7-Pad2)*%
X181180000Y-119720000D02*
X182660000Y-118240000D01*
X174020000Y-116780000D02*
X174020000Y-118280000D01*
X174020000Y-118280000D02*
X175460000Y-119720000D01*
X182660000Y-114030000D02*
X180175000Y-111545000D01*
X182660000Y-118240000D02*
X182660000Y-114030000D01*
X175460000Y-119720000D02*
X181180000Y-119720000D01*
%TO.N,AMPOUT*%
X180260000Y-90830000D02*
X184790000Y-95360000D01*
X187700000Y-95360000D02*
X186880000Y-94540000D01*
X173990000Y-72644000D02*
X183642000Y-72644000D01*
X188290000Y-83310000D02*
X188730000Y-82870000D01*
X167225000Y-85675000D02*
X167420000Y-85480000D01*
X170480000Y-90680000D02*
X172510000Y-92710000D01*
X174470000Y-92710000D02*
X174470000Y-94447500D01*
X187210000Y-83310000D02*
X188290000Y-83310000D01*
X186880000Y-94540000D02*
X186880000Y-89472000D01*
X172510000Y-92710000D02*
X174470000Y-92710000D01*
X187700000Y-95420000D02*
X187700000Y-95360000D01*
X174470000Y-92710000D02*
X178380000Y-92710000D01*
X187775000Y-106465000D02*
X185166000Y-103856000D01*
X167850000Y-74100000D02*
X169306000Y-72644000D01*
X167225000Y-87775000D02*
X170130000Y-90680000D01*
X185166000Y-97954000D02*
X187700000Y-95420000D01*
X175430000Y-75630000D02*
X175430000Y-74084000D01*
X188730000Y-77710000D02*
X186540000Y-75520000D01*
X185040000Y-74042000D02*
X185040000Y-75520000D01*
X174470000Y-94447500D02*
X174542500Y-94520000D01*
X186880000Y-89472000D02*
X188730000Y-87622000D01*
X169306000Y-72644000D02*
X173990000Y-72644000D01*
X188730000Y-87622000D02*
X188730000Y-82870000D01*
X184790000Y-95360000D02*
X187700000Y-95360000D01*
X167850000Y-80730000D02*
X167850000Y-74100000D01*
X188730000Y-82870000D02*
X188730000Y-77710000D01*
X167420000Y-85480000D02*
X167420000Y-84590000D01*
X175430000Y-74084000D02*
X173990000Y-72644000D01*
X185166000Y-103856000D02*
X185166000Y-97954000D01*
X186540000Y-75520000D02*
X185040000Y-75520000D01*
X165705000Y-82875000D02*
X167850000Y-80730000D01*
X178380000Y-92710000D02*
X180260000Y-90830000D01*
X167420000Y-84590000D02*
X165705000Y-82875000D01*
X183642000Y-72644000D02*
X185040000Y-74042000D01*
X170130000Y-90680000D02*
X170480000Y-90680000D01*
X167225000Y-87675000D02*
X167225000Y-87775000D01*
D81*
%TO.N,RF*%
X173540000Y-104630000D02*
X173650000Y-104630000D01*
D80*
X173650000Y-104630000D02*
X173670000Y-104650000D01*
D81*
X169300000Y-108780000D02*
X169390000Y-108780000D01*
D80*
X176260000Y-104650000D02*
X176270000Y-104640000D01*
X178350000Y-104640000D02*
X180175000Y-106465000D01*
X173670000Y-104650000D02*
X176260000Y-104650000D01*
D81*
X169390000Y-108780000D02*
X173540000Y-104630000D01*
D80*
X176270000Y-104640000D02*
X178350000Y-104640000D01*
D82*
%TO.N,PS2CLK*%
X122625000Y-97725000D02*
X124742000Y-99842000D01*
X122175000Y-97725000D02*
X122625000Y-97725000D01*
D81*
X102320000Y-80860000D02*
X90190000Y-68730000D01*
X109550000Y-87725000D02*
X108610000Y-86785000D01*
X82520000Y-68180000D02*
X82330000Y-67990000D01*
X116800000Y-87725000D02*
X109550000Y-87725000D01*
X118800000Y-98125000D02*
X118800000Y-89725000D01*
D82*
X124742000Y-99842000D02*
X126139500Y-99842000D01*
D81*
X108610000Y-81600000D02*
X107870000Y-80860000D01*
X88530000Y-68730000D02*
X87980000Y-68180000D01*
X87980000Y-68180000D02*
X82520000Y-68180000D01*
X108610000Y-86785000D02*
X108610000Y-81600000D01*
X120475000Y-98600000D02*
X119275000Y-98600000D01*
X118800000Y-89725000D02*
X116800000Y-87725000D01*
X107870000Y-80860000D02*
X102320000Y-80860000D01*
X90190000Y-68730000D02*
X88530000Y-68730000D01*
X119275000Y-98600000D02*
X118800000Y-98125000D01*
D80*
%TO.N,Net-(D19-Pad1)*%
X165810000Y-59930000D02*
X165533000Y-60207000D01*
X165533000Y-60207000D02*
X160880000Y-60207000D01*
D81*
%TO.N,Net-(DS1-Pad15)*%
X109890000Y-85230000D02*
X109890000Y-81710000D01*
X109890000Y-81710000D02*
X110600000Y-81000000D01*
X110600000Y-81000000D02*
X111590000Y-81000000D01*
D80*
%TO.N,Net-(C38-Pad1)*%
X148675000Y-74507000D02*
X148675000Y-71975000D01*
X148675000Y-71975000D02*
X148675000Y-69675000D01*
X155975000Y-78750000D02*
X155600000Y-78750000D01*
X154150000Y-76250000D02*
X153475000Y-75575000D01*
X148675000Y-71975000D02*
X147137500Y-71975000D01*
X148675000Y-69675000D02*
X147900000Y-68900000D01*
X153475000Y-75575000D02*
X149743000Y-75575000D01*
X149743000Y-75575000D02*
X148675000Y-74507000D01*
X147137500Y-71975000D02*
X147075000Y-72037500D01*
X147900000Y-68900000D02*
X147900000Y-68675000D01*
X155600000Y-78750000D02*
X154150000Y-77300000D01*
X154150000Y-77300000D02*
X154150000Y-76250000D01*
%TO.N,Net-(L11-Pad2)*%
X146935000Y-66625000D02*
X142790000Y-62480000D01*
X147900000Y-66625000D02*
X146935000Y-66625000D01*
%TO.N,Net-(C58-Pad1)*%
X58190000Y-65500000D02*
X55000000Y-65500000D01*
X54500000Y-66000000D02*
X54500000Y-67000000D01*
X54500000Y-67000000D02*
X54500000Y-75000000D01*
X54500000Y-83500000D02*
X56000000Y-85000000D01*
X60000000Y-67310000D02*
X58190000Y-65500000D01*
X54500000Y-75000000D02*
X54500000Y-83500000D01*
X55000000Y-65500000D02*
X54500000Y-66000000D01*
%TO.N,Net-(C58-Pad2)*%
X61000000Y-68850000D02*
X62540000Y-67310000D01*
X61000000Y-69000000D02*
X60500000Y-69500000D01*
X56575000Y-67575000D02*
X58000000Y-69000000D01*
X60500000Y-69500000D02*
X60500000Y-75000000D01*
X60500000Y-85580000D02*
X56000000Y-90080000D01*
X56575000Y-67000000D02*
X56575000Y-67575000D01*
X60500000Y-75000000D02*
X60500000Y-85580000D01*
X58000000Y-69000000D02*
X61000000Y-69000000D01*
X61000000Y-69000000D02*
X61000000Y-68850000D01*
%TO.N,Net-(C19-Pad1)*%
X127852500Y-134620000D02*
X129075000Y-134620000D01*
X135080000Y-135930000D02*
X136020000Y-135930000D01*
X130330000Y-128870000D02*
X133360000Y-128870000D01*
X129590000Y-136660000D02*
X130320000Y-135930000D01*
X135080000Y-130590000D02*
X135080000Y-135930000D01*
X136020000Y-135930000D02*
X138680000Y-133270000D01*
X129075000Y-134620000D02*
X129590000Y-135135000D01*
X133360000Y-128870000D02*
X135080000Y-130590000D01*
X130320000Y-135930000D02*
X135080000Y-135930000D01*
X129590000Y-135135000D02*
X129590000Y-136660000D01*
X127225000Y-135247500D02*
X127852500Y-134620000D01*
X138680000Y-133270000D02*
X139840000Y-133270000D01*
%TO.N,Net-(L10-Pad1)*%
X141840000Y-133270000D02*
X141840000Y-134200000D01*
X141935000Y-133175000D02*
X141840000Y-133270000D01*
X139750000Y-136290000D02*
X139750000Y-136660000D01*
X141840000Y-134200000D02*
X139750000Y-136290000D01*
X148925000Y-133175000D02*
X141935000Y-133175000D01*
X148955000Y-133145000D02*
X148925000Y-133175000D01*
D81*
%TO.N,Net-(C18-Pad1)*%
X158700000Y-130950000D02*
X159002500Y-130950000D01*
X161162500Y-133110000D02*
X161305000Y-133252500D01*
X161305000Y-133252500D02*
X161305000Y-135380000D01*
X161305000Y-135380000D02*
X161125000Y-135560000D01*
X163087500Y-130972500D02*
X163087500Y-129810000D01*
X159002500Y-130950000D02*
X161162500Y-133110000D01*
X161162500Y-133110000D02*
X161162500Y-132897500D01*
X161162500Y-132897500D02*
X163087500Y-130972500D01*
%TO.N,Net-(C60-Pad2)*%
X155800000Y-132425000D02*
X155800000Y-137085000D01*
X154085000Y-130710000D02*
X155800000Y-132425000D01*
X159290000Y-139020000D02*
X157737500Y-139020000D01*
X157735000Y-139020000D02*
X157737500Y-139020000D01*
X125630000Y-121750000D02*
X126085000Y-122205000D01*
X126085000Y-122205000D02*
X132865000Y-122205000D01*
X142230000Y-129850000D02*
X143090000Y-130710000D01*
X138800000Y-129850000D02*
X142230000Y-129850000D01*
X143090000Y-130710000D02*
X154085000Y-130710000D01*
X132865000Y-122205000D02*
X134790000Y-124130000D01*
X134790000Y-125840000D02*
X138800000Y-129850000D01*
X160450000Y-137860000D02*
X159290000Y-139020000D01*
X134790000Y-124130000D02*
X134790000Y-125840000D01*
X155800000Y-137085000D02*
X157735000Y-139020000D01*
X123410000Y-117790000D02*
X125630000Y-120010000D01*
X125630000Y-120010000D02*
X125630000Y-121750000D01*
X161125000Y-137860000D02*
X160450000Y-137860000D01*
X123410000Y-116430000D02*
X123410000Y-117790000D01*
D82*
%TO.N,MICPADDLE*%
X134780000Y-108405000D02*
X134780000Y-115367500D01*
D81*
X129210000Y-120870000D02*
X127280000Y-120870000D01*
X133625500Y-119354500D02*
X131790000Y-121190000D01*
X131790000Y-121190000D02*
X131780000Y-121200000D01*
X133625500Y-116618000D02*
X133625500Y-119354500D01*
X127280000Y-120870000D02*
X127170000Y-120760000D01*
X129540000Y-121200000D02*
X129210000Y-120870000D01*
X131780000Y-121200000D02*
X129540000Y-121200000D01*
D82*
X134780000Y-115367500D02*
X133577500Y-116570000D01*
X132552000Y-105254500D02*
X132552000Y-106177000D01*
X132552000Y-106177000D02*
X134780000Y-108405000D01*
D81*
X133577500Y-116570000D02*
X133625500Y-116618000D01*
D80*
%TO.N,SPKR*%
X116053000Y-138885000D02*
X124625000Y-138885000D01*
X114625000Y-137390000D02*
X115199000Y-137964000D01*
X114625000Y-135225000D02*
X114625000Y-135385000D01*
X115199000Y-137964000D02*
X115199000Y-138031000D01*
X130330000Y-131370000D02*
X128765000Y-132935000D01*
X115199000Y-138031000D02*
X116053000Y-138885000D01*
X124525000Y-138785000D02*
X124625000Y-138885000D01*
X114890000Y-131780000D02*
X114890000Y-134960000D01*
X114890000Y-134960000D02*
X114625000Y-135225000D01*
X124525000Y-134935000D02*
X124525000Y-138785000D01*
X126525000Y-132935000D02*
X124525000Y-134935000D01*
X128765000Y-132935000D02*
X126525000Y-132935000D01*
X114625000Y-135385000D02*
X114625000Y-137390000D01*
D81*
%TO.N,Net-(C61-Pad2)*%
X109007500Y-130770000D02*
X109007500Y-132942500D01*
X101290000Y-130760000D02*
X101290000Y-128700000D01*
X100140000Y-127550000D02*
X96250000Y-127550000D01*
X97425000Y-97535000D02*
X97390000Y-97500000D01*
X108525000Y-133425000D02*
X102025000Y-133425000D01*
X109007500Y-132942500D02*
X108525000Y-133425000D01*
X95125000Y-126425000D02*
X95125000Y-118000000D01*
X101060000Y-132460000D02*
X102025000Y-133425000D01*
X97425000Y-115700000D02*
X97425000Y-97535000D01*
X101290000Y-130760000D02*
X101060000Y-130990000D01*
X95125000Y-118000000D02*
X97425000Y-115700000D01*
X96250000Y-127550000D02*
X95125000Y-126425000D01*
X101290000Y-128700000D02*
X100140000Y-127550000D01*
X101060000Y-130990000D02*
X101060000Y-132460000D01*
D80*
%TO.N,Net-(J18-Pad3)*%
X171760000Y-129450000D02*
X169740000Y-129450000D01*
X173430000Y-129450000D02*
X171760000Y-129450000D01*
X173355000Y-140970000D02*
X170815000Y-143510000D01*
D81*
X171480000Y-116780000D02*
X171545000Y-116845000D01*
D80*
X169660000Y-137148000D02*
X173355000Y-140843000D01*
X170815000Y-143510000D02*
X163840000Y-143510000D01*
D81*
X171545000Y-129235000D02*
X171760000Y-129450000D01*
D80*
X173355000Y-140843000D02*
X173355000Y-140970000D01*
D81*
X171545000Y-116845000D02*
X171545000Y-129235000D01*
D80*
X169660000Y-129530000D02*
X169660000Y-137148000D01*
X163840000Y-143510000D02*
X161300000Y-143510000D01*
X169740000Y-129450000D02*
X169660000Y-129530000D01*
%TO.N,Net-(J17-Pad4)*%
X169175000Y-120545000D02*
X166530000Y-123190000D01*
X169175000Y-115750000D02*
X169175000Y-120545000D01*
X176560000Y-116780000D02*
X174160000Y-114380000D01*
X170545000Y-114380000D02*
X169175000Y-115750000D01*
X166530000Y-123190000D02*
X163830000Y-123190000D01*
X174160000Y-114380000D02*
X170545000Y-114380000D01*
D81*
%TO.N,Net-(C28-Pad2)*%
X148700000Y-120540000D02*
X148160000Y-121080000D01*
X138365000Y-121575000D02*
X138250000Y-121690000D01*
X148160000Y-121080000D02*
X145255000Y-121080000D01*
X145255000Y-121080000D02*
X144740000Y-121595000D01*
X155505000Y-120150000D02*
X155527500Y-120127500D01*
X155527500Y-120127500D02*
X156360000Y-120127500D01*
X148700000Y-120530000D02*
X148700000Y-120540000D01*
X154920000Y-120150000D02*
X155505000Y-120150000D01*
X144740000Y-121595000D02*
X140850000Y-121595000D01*
X140830000Y-121575000D02*
X138365000Y-121575000D01*
X140850000Y-121595000D02*
X140830000Y-121575000D01*
%TO.N,Net-(C39-Pad1)*%
X157050000Y-112982500D02*
X156255000Y-112982500D01*
X155992500Y-112720000D02*
X153807500Y-112720000D01*
X156255000Y-112982500D02*
X155992500Y-112720000D01*
%TO.N,Net-(J26-Pad3)*%
X112670000Y-66000000D02*
X112670000Y-68956000D01*
X113910000Y-64760000D02*
X112670000Y-66000000D01*
X112670000Y-68956000D02*
X111760000Y-69866000D01*
D80*
%TO.N,Net-(C14-Pad1)*%
X165590000Y-95420000D02*
X164622500Y-94452500D01*
D81*
X155470000Y-85980000D02*
X154770000Y-85280000D01*
D80*
X164620000Y-69140000D02*
X167785000Y-69140000D01*
X164680000Y-72680000D02*
X164000000Y-72000000D01*
X159045000Y-78430000D02*
X158050000Y-79425000D01*
X163700000Y-81070000D02*
X163700000Y-78390000D01*
X164000000Y-69760000D02*
X164620000Y-69140000D01*
D81*
X156660000Y-90246116D02*
X156660000Y-87200000D01*
D80*
X167785000Y-69140000D02*
X169720000Y-67205000D01*
X161895000Y-79770000D02*
X160555000Y-78430000D01*
D81*
X154490000Y-81250000D02*
X154490000Y-79980000D01*
D80*
X166540000Y-72680000D02*
X164680000Y-72680000D01*
X166980000Y-73120000D02*
X166540000Y-72680000D01*
D81*
X154490000Y-79980000D02*
X154720000Y-79750000D01*
X166830000Y-66107500D02*
X169720000Y-66107500D01*
X159766000Y-87138000D02*
X159731200Y-87172800D01*
D80*
X165590000Y-95770000D02*
X165590000Y-95420000D01*
D81*
X159731200Y-87172800D02*
X156632800Y-87172800D01*
X160866384Y-94452500D02*
X156660000Y-90246116D01*
X169720000Y-66107500D02*
X170855000Y-66107500D01*
D80*
X161895000Y-82875000D02*
X163700000Y-81070000D01*
D81*
X157925000Y-79750000D02*
X158050000Y-79875000D01*
X156632800Y-87172800D02*
X156397800Y-87172800D01*
D80*
X164000000Y-72000000D02*
X164000000Y-69760000D01*
D81*
X155470000Y-86245000D02*
X155470000Y-85980000D01*
D80*
X163700000Y-78390000D02*
X166980000Y-75110000D01*
X169720000Y-67205000D02*
X169720000Y-66107500D01*
X166980000Y-75110000D02*
X166980000Y-73120000D01*
D81*
X154770000Y-81530000D02*
X154490000Y-81250000D01*
X154720000Y-79750000D02*
X157925000Y-79750000D01*
X162890000Y-94452500D02*
X160866384Y-94452500D01*
D80*
X158050000Y-79425000D02*
X158050000Y-79875000D01*
X164622500Y-94452500D02*
X162890000Y-94452500D01*
X160555000Y-78430000D02*
X159045000Y-78430000D01*
D81*
X170855000Y-66107500D02*
X172162500Y-64800000D01*
X154770000Y-85280000D02*
X154770000Y-81530000D01*
X156397800Y-87172800D02*
X155470000Y-86245000D01*
D80*
X161895000Y-82875000D02*
X161895000Y-79770000D01*
D81*
X156660000Y-87200000D02*
X156632800Y-87172800D01*
%TO.N,Net-(C14-Pad2)*%
X169720000Y-63310000D02*
X169720000Y-64032500D01*
X163080000Y-69410000D02*
X165290000Y-67200000D01*
X165290000Y-67200000D02*
X165290000Y-62480000D01*
X157000000Y-62450000D02*
X165260000Y-62450000D01*
X171252500Y-62500000D02*
X169720000Y-64032500D01*
X174237500Y-64300000D02*
X172437500Y-62500000D01*
X172437500Y-62500000D02*
X172200000Y-62500000D01*
X165608000Y-73914000D02*
X164294000Y-73914000D01*
X164294000Y-73914000D02*
X163080000Y-72700000D01*
X172200000Y-62500000D02*
X171252500Y-62500000D01*
X154178000Y-65272000D02*
X157000000Y-62450000D01*
X168860000Y-62450000D02*
X169720000Y-63310000D01*
X154178000Y-68850000D02*
X154178000Y-65272000D01*
X165290000Y-62480000D02*
X165260000Y-62450000D01*
X174237500Y-64800000D02*
X174237500Y-64300000D01*
X165260000Y-62450000D02*
X168860000Y-62450000D01*
X163080000Y-72700000D02*
X163080000Y-69410000D01*
%TO.N,Net-(C15-Pad1)*%
X148215000Y-135685000D02*
X147330000Y-136570000D01*
X148955000Y-135685000D02*
X148215000Y-135685000D01*
X147330000Y-138827500D02*
X147450000Y-138947500D01*
X147330000Y-136570000D02*
X147330000Y-138827500D01*
%TO.N,Net-(C31-Pad1)*%
X179302500Y-70000000D02*
X180090000Y-70787500D01*
X176570000Y-70000000D02*
X179302500Y-70000000D01*
D80*
%TO.N,Net-(C31-Pad2)*%
X174850000Y-60510000D02*
X174850000Y-58842000D01*
X160889000Y-58166000D02*
X160880000Y-58157000D01*
X175700000Y-62370000D02*
X174330000Y-62370000D01*
X175700000Y-62370000D02*
X175700000Y-61360000D01*
X175700000Y-65960000D02*
X175700000Y-62370000D01*
X173210000Y-66730000D02*
X174930000Y-66730000D01*
X160871000Y-58166000D02*
X155829000Y-58166000D01*
X168670000Y-71280000D02*
X172080000Y-67870000D01*
D81*
X181347500Y-68712500D02*
X180090000Y-68712500D01*
D80*
X174850000Y-58842000D02*
X174174000Y-58166000D01*
X172080000Y-67870000D02*
X172080000Y-67860000D01*
D81*
X179000000Y-63300000D02*
X179000000Y-67270000D01*
D80*
X160880000Y-58157000D02*
X160871000Y-58166000D01*
D81*
X179000000Y-67270000D02*
X180090000Y-68360000D01*
X182130000Y-67132500D02*
X182130000Y-67930000D01*
D80*
X174330000Y-62370000D02*
X174200000Y-62500000D01*
X175700000Y-61360000D02*
X174850000Y-60510000D01*
X155829000Y-58166000D02*
X152146000Y-61849000D01*
X174930000Y-66730000D02*
X175700000Y-65960000D01*
X150185000Y-63810000D02*
X150087500Y-63810000D01*
D81*
X174174000Y-58166000D02*
X177326000Y-58166000D01*
X182130000Y-67930000D02*
X181347500Y-68712500D01*
D80*
X174174000Y-58166000D02*
X160889000Y-58166000D01*
X165730000Y-71280000D02*
X168670000Y-71280000D01*
X152146000Y-61849000D02*
X150185000Y-63810000D01*
D81*
X178110000Y-62410000D02*
X179000000Y-63300000D01*
D80*
X172080000Y-67860000D02*
X173210000Y-66730000D01*
D81*
X177326000Y-58166000D02*
X178110000Y-58950000D01*
X180090000Y-68360000D02*
X180090000Y-68712500D01*
X182312500Y-66950000D02*
X182130000Y-67132500D01*
X178110000Y-58950000D02*
X178110000Y-62410000D01*
%TO.N,Net-(C39-Pad2)*%
X151732500Y-112720000D02*
X151732500Y-114707500D01*
X151732500Y-114707500D02*
X151660000Y-114780000D01*
%TO.N,Net-(C50-Pad1)*%
X163077500Y-117270000D02*
X162710000Y-116902500D01*
D82*
X158910000Y-103950000D02*
X160350000Y-105390000D01*
D81*
X164660000Y-117270000D02*
X163077500Y-117270000D01*
D82*
X159987500Y-110442500D02*
X160350000Y-110080000D01*
D81*
X160850000Y-114760000D02*
X162710000Y-116620000D01*
X160850000Y-114760000D02*
X160850000Y-111700000D01*
X162710000Y-116902500D02*
X162710000Y-116620000D01*
D82*
X160350000Y-110080000D02*
X160350000Y-105390000D01*
X158910000Y-102900000D02*
X158910000Y-103950000D01*
X159987500Y-110442500D02*
X157050000Y-110442500D01*
D81*
X160850000Y-111700000D02*
X160910000Y-111640000D01*
%TO.N,Net-(Q4-Pad1)*%
X161212500Y-128860000D02*
X161212500Y-128242500D01*
X147750000Y-118980000D02*
X140120000Y-118980000D01*
X159770000Y-126800000D02*
X155940000Y-126800000D01*
X155940000Y-126800000D02*
X154170000Y-125030000D01*
X154710000Y-115790000D02*
X150940000Y-115790000D01*
X154170000Y-125030000D02*
X154170000Y-118520000D01*
X140120000Y-118980000D02*
X138870000Y-117730000D01*
X138870000Y-117730000D02*
X138870000Y-109640000D01*
X150940000Y-115790000D02*
X147750000Y-118980000D01*
X161212500Y-128242500D02*
X159770000Y-126800000D01*
X154170000Y-118520000D02*
X155020000Y-117670000D01*
X138870000Y-109640000D02*
X141560000Y-106950000D01*
X155020000Y-116100000D02*
X154710000Y-115790000D01*
X155020000Y-117670000D02*
X155020000Y-116100000D01*
X141560000Y-106950000D02*
X141560000Y-106460000D01*
D82*
%TO.N,CLK2*%
X154140000Y-88640000D02*
X154140000Y-90350000D01*
X151490000Y-83650000D02*
X151490000Y-85990000D01*
X150600000Y-82760000D02*
X151490000Y-83650000D01*
X151490000Y-85990000D02*
X154140000Y-88640000D01*
X154140000Y-90350000D02*
X158970000Y-95180000D01*
X158970000Y-95180000D02*
X158970000Y-100840000D01*
X158970000Y-100840000D02*
X158910000Y-100900000D01*
X147690000Y-80670000D02*
X149780000Y-82760000D01*
X149780000Y-82760000D02*
X150600000Y-82760000D01*
%TO.N,MUTE*%
X134464500Y-100842000D02*
X137442000Y-100842000D01*
X141060000Y-104460000D02*
X141560000Y-104460000D01*
X137442000Y-100842000D02*
X141060000Y-104460000D01*
%TO.N,Net-(R49-Pad1)*%
X149772000Y-78670000D02*
X150892000Y-77550000D01*
X147690000Y-78670000D02*
X149772000Y-78670000D01*
D81*
%TO.N,Net-(Q12-Pad1)*%
X145670000Y-68570000D02*
X146610000Y-67630000D01*
X146610000Y-67630000D02*
X149520000Y-67630000D01*
X145670000Y-68760000D02*
X145670000Y-68570000D01*
X150010000Y-70617500D02*
X150180000Y-70787500D01*
X149520000Y-67630000D02*
X150010000Y-68120000D01*
X150010000Y-68120000D02*
X150010000Y-70617500D01*
D82*
%TO.N,Net-(Q14-Pad1)*%
X120375000Y-94500000D02*
X120175000Y-94300000D01*
X117887500Y-86887500D02*
X117875000Y-86887500D01*
X120175000Y-94300000D02*
X120175000Y-89175000D01*
X120175000Y-89175000D02*
X117887500Y-86887500D01*
D80*
%TO.N,Net-(Q13-Pad1)*%
X180100000Y-65000000D02*
X180000000Y-64900000D01*
X182312500Y-65050000D02*
X182262500Y-65000000D01*
X182262500Y-65000000D02*
X180100000Y-65000000D01*
D82*
%TO.N,Net-(U6-Pad3)*%
X140528000Y-80772000D02*
X137742000Y-80772000D01*
X141630000Y-79670000D02*
X140528000Y-80772000D01*
X137742000Y-80772000D02*
X136218000Y-79248000D01*
X143290000Y-79670000D02*
X141630000Y-79670000D01*
D81*
%TO.N,Net-(C62-Pad2)*%
X57690000Y-121605000D02*
X59080000Y-122995000D01*
X58427500Y-125722500D02*
X59020000Y-125722500D01*
X62174000Y-140660000D02*
X57404000Y-135890000D01*
X58930000Y-118210000D02*
X57690000Y-119450000D01*
X59110000Y-123025000D02*
X59080000Y-122995000D01*
X82800000Y-138478000D02*
X80618000Y-140660000D01*
X59220000Y-123135000D02*
X59220000Y-125522500D01*
X57404000Y-135890000D02*
X57404000Y-126746000D01*
X59220000Y-125522500D02*
X59020000Y-125722500D01*
X57690000Y-119450000D02*
X57690000Y-121605000D01*
X57404000Y-126746000D02*
X58427500Y-125722500D01*
X59080000Y-122995000D02*
X59220000Y-123135000D01*
X59080000Y-118210000D02*
X58930000Y-118210000D01*
X80618000Y-140660000D02*
X62174000Y-140660000D01*
X82800000Y-138310000D02*
X82800000Y-138478000D01*
%TO.N,Net-(C63-Pad1)*%
X61620000Y-120700000D02*
X59325000Y-120700000D01*
X59325000Y-120700000D02*
X59080000Y-120945000D01*
X68580000Y-111781500D02*
X68050500Y-111781500D01*
X68050500Y-111781500D02*
X64008000Y-115824000D01*
X64008000Y-118312000D02*
X61620000Y-120700000D01*
X64008000Y-115824000D02*
X64008000Y-118312000D01*
%TO.N,Net-(C63-Pad2)*%
X68580000Y-107426000D02*
X68580000Y-109706500D01*
%TO.N,Net-(C66-Pad1)*%
X74136000Y-118396000D02*
X69596000Y-122936000D01*
X74136000Y-105410000D02*
X74136000Y-118396000D01*
X78360000Y-105410000D02*
X79060000Y-104710000D01*
X82942500Y-101753000D02*
X82942500Y-99680000D01*
X82492500Y-99230000D02*
X82492500Y-95831500D01*
X82942500Y-99680000D02*
X82492500Y-99230000D01*
X79830000Y-99230000D02*
X82492500Y-99230000D01*
X79060000Y-104710000D02*
X79060000Y-100000000D01*
X74136000Y-105410000D02*
X78360000Y-105410000D01*
X82492500Y-95831500D02*
X82566000Y-95758000D01*
X79060000Y-100000000D02*
X79830000Y-99230000D01*
%TO.N,Net-(C66-Pad2)*%
X84212500Y-101753000D02*
X87063000Y-101753000D01*
X76710000Y-97026000D02*
X80518000Y-93218000D01*
X76710000Y-104410000D02*
X76710000Y-97026000D01*
X87063000Y-101753000D02*
X87070000Y-101760000D01*
X84212500Y-101753000D02*
X84212500Y-99585000D01*
X84567500Y-95759500D02*
X84566000Y-95758000D01*
X87122000Y-101708000D02*
X87070000Y-101760000D01*
X84212500Y-99585000D02*
X84567500Y-99230000D01*
X84567500Y-99230000D02*
X84567500Y-95759500D01*
X87122000Y-95504000D02*
X87122000Y-101708000D01*
X80518000Y-93218000D02*
X84836000Y-93218000D01*
X84836000Y-93218000D02*
X87122000Y-95504000D01*
X76730000Y-104430000D02*
X76710000Y-104410000D01*
%TO.N,Net-(C67-Pad2)*%
X71120000Y-128982500D02*
X71120000Y-135382000D01*
X74350000Y-128750000D02*
X74975000Y-128125000D01*
X70887500Y-128750000D02*
X74350000Y-128750000D01*
X69600000Y-136902000D02*
X69600000Y-138460000D01*
X70887500Y-128750000D02*
X71120000Y-128982500D01*
X71120000Y-135382000D02*
X69600000Y-136902000D01*
%TO.N,Net-(C68-Pad2)*%
X61310000Y-122122500D02*
X62262500Y-122122500D01*
X64600000Y-130340000D02*
X64410000Y-130340000D01*
X64600000Y-128800000D02*
X64600000Y-130340000D01*
X79600000Y-127125000D02*
X66275000Y-127125000D01*
X81375000Y-128900000D02*
X79600000Y-127125000D01*
X62262500Y-122122500D02*
X64600000Y-124460000D01*
X64410000Y-130340000D02*
X59790000Y-134960000D01*
X64600000Y-124460000D02*
X64600000Y-130340000D01*
X59790000Y-134960000D02*
X59600000Y-134960000D01*
X66275000Y-127125000D02*
X64600000Y-128800000D01*
%TO.N,Net-(C69-Pad1)*%
X81340000Y-113130000D02*
X81430000Y-113220000D01*
X79596000Y-109838000D02*
X79486000Y-109728000D01*
X78160000Y-122754000D02*
X77978000Y-122936000D01*
X81430000Y-113690000D02*
X78160000Y-116960000D01*
X81340000Y-109838000D02*
X79596000Y-109838000D01*
X81672500Y-109505500D02*
X81340000Y-109838000D01*
X81340000Y-109838000D02*
X81340000Y-113130000D01*
X78160000Y-116960000D02*
X78160000Y-122754000D01*
X81672500Y-107003000D02*
X81672500Y-109505500D01*
X81430000Y-113220000D02*
X81430000Y-113690000D01*
%TO.N,Net-(C69-Pad2)*%
X82976117Y-130110000D02*
X82360000Y-129493883D01*
X83415000Y-109838000D02*
X83415000Y-113205000D01*
X101230000Y-140800000D02*
X100330000Y-139900000D01*
X84290000Y-136680000D02*
X84290000Y-131090000D01*
X83310000Y-130110000D02*
X82976117Y-130110000D01*
X118950000Y-124670000D02*
X114060000Y-124670000D01*
X80350000Y-123550000D02*
X80350000Y-117040000D01*
X82360000Y-129493883D02*
X82360000Y-125560000D01*
X119370000Y-124250000D02*
X118950000Y-124670000D01*
X131790000Y-123190000D02*
X131790000Y-123880000D01*
X85747500Y-109768000D02*
X83485000Y-109768000D01*
X114060000Y-124670000D02*
X111700000Y-127030000D01*
X84290000Y-131090000D02*
X83310000Y-130110000D01*
X83430000Y-113960000D02*
X83430000Y-113220000D01*
X111700000Y-139010000D02*
X109910000Y-140800000D01*
X83415000Y-113205000D02*
X83430000Y-113220000D01*
X82360000Y-125560000D02*
X80350000Y-123550000D01*
X131420000Y-124250000D02*
X119370000Y-124250000D01*
X83485000Y-109768000D02*
X83415000Y-109838000D01*
X80350000Y-117040000D02*
X83430000Y-113960000D01*
X131790000Y-123880000D02*
X131420000Y-124250000D01*
X87510000Y-139900000D02*
X84290000Y-136680000D01*
X82942500Y-109365500D02*
X83415000Y-109838000D01*
X100330000Y-139900000D02*
X87510000Y-139900000D01*
X82942500Y-107003000D02*
X82942500Y-109365500D01*
X111700000Y-127030000D02*
X111700000Y-139010000D01*
X109910000Y-140800000D02*
X101230000Y-140800000D01*
%TO.N,Net-(L8-Pad1)*%
X74975000Y-126075000D02*
X81025000Y-126075000D01*
X81025000Y-126075000D02*
X81375000Y-126425000D01*
%TO.N,Net-(L12-Pad1)*%
X85000000Y-135920000D02*
X85000000Y-130270000D01*
X119260000Y-123000000D02*
X118330000Y-123930000D01*
X109460000Y-139900000D02*
X101240000Y-139900000D01*
X101240000Y-139900000D02*
X100660000Y-139320000D01*
X118330000Y-123930000D02*
X113740000Y-123930000D01*
X129340000Y-123000000D02*
X119260000Y-123000000D01*
X85000000Y-130270000D02*
X83630000Y-128900000D01*
X100660000Y-139320000D02*
X88400000Y-139320000D01*
X110950000Y-138410000D02*
X109460000Y-139900000D01*
X129540000Y-123200000D02*
X129340000Y-123000000D01*
X113740000Y-123930000D02*
X110950000Y-126720000D01*
X83630000Y-128900000D02*
X83425000Y-128900000D01*
X88400000Y-139320000D02*
X85000000Y-135920000D01*
X110950000Y-126720000D02*
X110950000Y-138410000D01*
%TO.N,Net-(JP6-Pad2)*%
X67564000Y-120904000D02*
X67056000Y-121412000D01*
X72136000Y-105410000D02*
X72136000Y-118364000D01*
X72136000Y-118364000D02*
X69596000Y-120904000D01*
X69596000Y-120904000D02*
X67564000Y-120904000D01*
X67056000Y-121412000D02*
X67056000Y-122936000D01*
X68596000Y-105410000D02*
X68580000Y-105426000D01*
X72136000Y-105410000D02*
X68596000Y-105410000D01*
%TO.N,Net-(JP9-Pad2)*%
X76520000Y-110694000D02*
X76520000Y-121854000D01*
X76520000Y-121854000D02*
X75438000Y-122936000D01*
X76730000Y-106430000D02*
X77486000Y-107186000D01*
X77486000Y-107186000D02*
X77486000Y-109728000D01*
X77486000Y-109728000D02*
X76520000Y-110694000D01*
%TO.N,Net-(DS1-Pad16)*%
X118812500Y-85000000D02*
X112660000Y-85000000D01*
X112660000Y-85000000D02*
X112430000Y-85230000D01*
X118825000Y-85012500D02*
X118812500Y-85000000D01*
D82*
%TO.N,Net-(R50-Pad1)*%
X147690000Y-79170000D02*
X150036000Y-79170000D01*
X150036000Y-79170000D02*
X150892000Y-80026000D01*
X150892000Y-80026000D02*
X150892000Y-80975000D01*
%TO.N,PS2DATA*%
X122938604Y-98675000D02*
X121700000Y-98675000D01*
X121325000Y-98300000D02*
X121325000Y-96088173D01*
D81*
X90630000Y-67020000D02*
X94110000Y-70500000D01*
X90630000Y-65930000D02*
X90630000Y-67020000D01*
D82*
X116070000Y-83070000D02*
X112975000Y-79975000D01*
X112975000Y-79975000D02*
X106350000Y-79975000D01*
X120900000Y-84525000D02*
X119445000Y-83070000D01*
X121325000Y-96088173D02*
X121375000Y-96038173D01*
X119445000Y-83070000D02*
X116070000Y-83070000D01*
X124605604Y-100342000D02*
X122938604Y-98675000D01*
D81*
X94110000Y-70500000D02*
X102030000Y-70500000D01*
X102030000Y-70500000D02*
X102110000Y-70580000D01*
D82*
X121375000Y-93575000D02*
X120900000Y-93100000D01*
X102130000Y-75755000D02*
X102130000Y-70600000D01*
X106350000Y-79975000D02*
X102130000Y-75755000D01*
X121375000Y-96038173D02*
X121375000Y-93575000D01*
X120900000Y-93100000D02*
X120900000Y-84525000D01*
X121700000Y-98675000D02*
X121325000Y-98300000D01*
X126139500Y-100342000D02*
X124605604Y-100342000D01*
X102130000Y-70600000D02*
X102110000Y-70580000D01*
%TO.N,BACKL*%
X125067000Y-99342000D02*
X122375000Y-96650000D01*
X122375000Y-96650000D02*
X122375000Y-94500000D01*
X126139500Y-99342000D02*
X125067000Y-99342000D01*
%TO.N,Net-(J5-Pad3)*%
X128125000Y-102125000D02*
X129175000Y-101075000D01*
X129175000Y-101075000D02*
X132875000Y-101075000D01*
X133608000Y-100342000D02*
X134464500Y-100342000D01*
X121595661Y-102626000D02*
X121594661Y-102625000D01*
X128125000Y-103495500D02*
X128125000Y-102125000D01*
X113460000Y-104630000D02*
X112860000Y-105230000D01*
X132875000Y-101075000D02*
X133608000Y-100342000D01*
X113460000Y-103315000D02*
X113460000Y-104630000D01*
X114150000Y-102625000D02*
X113460000Y-103315000D01*
X121594661Y-102625000D02*
X114150000Y-102625000D01*
X112860000Y-105230000D02*
X110685000Y-105230000D01*
X110685000Y-105230000D02*
X109400000Y-106515000D01*
%TO.N,CS*%
X131780000Y-66040000D02*
X131710000Y-66110000D01*
X132880000Y-87170000D02*
X132880000Y-73400000D01*
X139954000Y-69876000D02*
X139954000Y-67244000D01*
X139400000Y-70430000D02*
X139954000Y-69876000D01*
X135950000Y-90240000D02*
X132880000Y-87170000D01*
X137475000Y-100275000D02*
X135700685Y-100275000D01*
X138700000Y-99050000D02*
X137475000Y-100275000D01*
X136450000Y-90240000D02*
X135950000Y-90240000D01*
X138750000Y-66040000D02*
X131780000Y-66040000D01*
X138700000Y-90980000D02*
X138700000Y-99050000D01*
X135850000Y-70430000D02*
X139400000Y-70430000D01*
X139954000Y-67244000D02*
X138750000Y-66040000D01*
X129620000Y-67150000D02*
X129620000Y-68720000D01*
X129620000Y-68720000D02*
X129830000Y-68930000D01*
X132880000Y-73400000D02*
X135850000Y-70430000D01*
X135267685Y-99842000D02*
X134464500Y-99842000D01*
X135700685Y-100275000D02*
X135267685Y-99842000D01*
X138710000Y-90970000D02*
X138700000Y-90980000D01*
%TO.N,RADIORESET*%
X151090000Y-99850000D02*
X154100000Y-99850000D01*
X131849500Y-99425000D02*
X131849500Y-98609500D01*
X155392500Y-107902500D02*
X157050000Y-107902500D01*
X154100000Y-99850000D02*
X154980000Y-100730000D01*
X131052000Y-97812000D02*
X131052000Y-96929500D01*
X154980000Y-100730000D02*
X154980000Y-107490000D01*
X154980000Y-107490000D02*
X155392500Y-107902500D01*
X140870000Y-105470000D02*
X145470000Y-105470000D01*
X137750000Y-102350000D02*
X140870000Y-105470000D01*
X145470000Y-105470000D02*
X151090000Y-99850000D01*
X131849500Y-98609500D02*
X131052000Y-97812000D01*
%TO.N,Net-(J5-Pad4)*%
X119390000Y-103140000D02*
X119500500Y-103250500D01*
X114560000Y-103140000D02*
X119390000Y-103140000D01*
X113960000Y-103740000D02*
X114560000Y-103140000D01*
X123408000Y-101842000D02*
X126139500Y-101842000D01*
X112435000Y-106515000D02*
X113960000Y-104990000D01*
X121999500Y-103250500D02*
X123408000Y-101842000D01*
X113960000Y-104990000D02*
X113960000Y-103740000D01*
X111940000Y-106515000D02*
X112435000Y-106515000D01*
X119500500Y-103250500D02*
X121999500Y-103250500D01*
D81*
%TO.N,Net-(C51-Pad1)*%
X163577500Y-112347500D02*
X164432500Y-113202500D01*
X167160000Y-116517500D02*
X164432500Y-113790000D01*
X162250000Y-112347500D02*
X163577500Y-112347500D01*
X167160000Y-117270000D02*
X167160000Y-116517500D01*
X164432500Y-113202500D02*
X164432500Y-113790000D01*
%TO.N,Net-(C48-Pad1)*%
X152800000Y-140050000D02*
X154205000Y-138645000D01*
X152110000Y-140050000D02*
X152800000Y-140050000D01*
X154205000Y-138645000D02*
X154205000Y-136955000D01*
%TO.N,Net-(C48-Pad2)*%
X148955000Y-136955000D02*
X148980000Y-136980000D01*
X148980000Y-138995000D02*
X150035000Y-140050000D01*
X148980000Y-136980000D02*
X148980000Y-138995000D01*
D80*
%TO.N,Net-(D10-Pad2)*%
X173650000Y-109560000D02*
X173690000Y-109600000D01*
X173650000Y-107930000D02*
X173650000Y-109560000D01*
%TO.N,Net-(D11-Pad1)*%
X176250000Y-107960000D02*
X176250000Y-109590000D01*
X176270000Y-107940000D02*
X176250000Y-107960000D01*
D81*
%TO.N,Net-(R16-Pad2)*%
X154400000Y-108050000D02*
X154887500Y-108537500D01*
X154887500Y-108537500D02*
X157050000Y-108537500D01*
X153800000Y-104920000D02*
X153810000Y-104930000D01*
X153810000Y-104930000D02*
X154400000Y-105520000D01*
X151770000Y-104920000D02*
X153800000Y-104920000D01*
X154400000Y-105520000D02*
X154400000Y-108050000D01*
D82*
%TO.N,LCH*%
X135340000Y-106040000D02*
X135340000Y-111780000D01*
X133113884Y-103980000D02*
X133425884Y-104292000D01*
X136650000Y-113090000D02*
X136650000Y-114780000D01*
X136750000Y-117740000D02*
X139610000Y-120600000D01*
X135340000Y-111780000D02*
X136650000Y-113090000D01*
X132052000Y-105254500D02*
X132052000Y-104058000D01*
X139610000Y-120600000D02*
X141400000Y-120600000D01*
X133592000Y-104292000D02*
X135340000Y-106040000D01*
X133425884Y-104292000D02*
X133592000Y-104292000D01*
X132130000Y-103980000D02*
X133113884Y-103980000D01*
X132052000Y-104058000D02*
X132130000Y-103980000D01*
X136650000Y-114780000D02*
X136650000Y-117660000D01*
X136650000Y-117660000D02*
X136730000Y-117740000D01*
X136730000Y-117740000D02*
X136750000Y-117740000D01*
D81*
%TO.N,PTT*%
X95490000Y-97220000D02*
X95490000Y-107450000D01*
D82*
X123570000Y-97075685D02*
X125336315Y-98842000D01*
X122775000Y-92825000D02*
X123570000Y-93620000D01*
X122250000Y-92825000D02*
X121690000Y-92265000D01*
D81*
X95770000Y-96940000D02*
X95490000Y-97220000D01*
X81175000Y-117935000D02*
X81175000Y-122625000D01*
X86140000Y-112970000D02*
X81175000Y-117935000D01*
D82*
X123570000Y-93620000D02*
X123570000Y-97075685D01*
D81*
X83375000Y-124825000D02*
X83375000Y-126425000D01*
X89970000Y-112970000D02*
X86140000Y-112970000D01*
D82*
X114875000Y-94500000D02*
X114875000Y-93225000D01*
X112875000Y-96500000D02*
X114875000Y-94500000D01*
X121690000Y-92265000D02*
X121690000Y-84835000D01*
D81*
X81175000Y-122625000D02*
X83375000Y-124825000D01*
D82*
X122250000Y-92825000D02*
X122775000Y-92825000D01*
D81*
X95770000Y-96890000D02*
X95770000Y-96940000D01*
D82*
X125336315Y-98842000D02*
X126139500Y-98842000D01*
X95770000Y-96890000D02*
X96160000Y-96500000D01*
X121690000Y-84835000D02*
X122250000Y-84275000D01*
X96160000Y-96500000D02*
X112875000Y-96500000D01*
D81*
X95490000Y-107450000D02*
X89970000Y-112970000D01*
D82*
%TO.N,VBAT*%
X122830000Y-107060000D02*
X122830000Y-108350000D01*
X126500000Y-106070000D02*
X123820000Y-106070000D01*
X115475000Y-117635000D02*
X112320000Y-120790000D01*
X122205000Y-108975000D02*
X119375000Y-108975000D01*
X123820000Y-106070000D02*
X122830000Y-107060000D01*
X127552000Y-105254500D02*
X127315500Y-105254500D01*
X119375000Y-108975000D02*
X115475000Y-112875000D01*
X115475000Y-112875000D02*
X115475000Y-117635000D01*
X122830000Y-108350000D02*
X122205000Y-108975000D01*
X127315500Y-105254500D02*
X126500000Y-106070000D01*
%TO.N,Net-(J21-Pad1)*%
X133052000Y-91812000D02*
X132700000Y-91460000D01*
X133052000Y-96929500D02*
X133052000Y-91812000D01*
D81*
%TO.N,Net-(C30-Pad2)*%
X158562500Y-112942500D02*
X158562500Y-116880000D01*
X157967500Y-112347500D02*
X158562500Y-112942500D01*
X158562500Y-116880000D02*
X158402500Y-117040000D01*
X157050000Y-112347500D02*
X157967500Y-112347500D01*
%TO.N,Net-(C49-Pad1)*%
X144810000Y-126920000D02*
X142900000Y-126920000D01*
X154860000Y-128290000D02*
X154640000Y-128510000D01*
X156892500Y-128580000D02*
X155660000Y-128580000D01*
X155660000Y-128580000D02*
X154860000Y-127780000D01*
X149730000Y-128510000D02*
X149410000Y-128190000D01*
X141440000Y-126920000D02*
X140740000Y-127620000D01*
X154640000Y-128510000D02*
X149730000Y-128510000D01*
X142900000Y-126920000D02*
X141440000Y-126920000D01*
X154860000Y-126670000D02*
X154860000Y-127780000D01*
X153790000Y-116790000D02*
X153420000Y-117160000D01*
X148150000Y-128190000D02*
X146080000Y-128190000D01*
X153420000Y-125230000D02*
X154860000Y-126670000D01*
X146080000Y-128190000D02*
X144810000Y-126920000D01*
X154860000Y-127780000D02*
X154860000Y-128290000D01*
X149410000Y-128190000D02*
X148150000Y-128190000D01*
X153420000Y-117160000D02*
X153420000Y-125230000D01*
%TO.N,Net-(R19-Pad2)*%
X142830000Y-124310000D02*
X142900000Y-124380000D01*
D82*
X151520000Y-127560000D02*
X146660000Y-127560000D01*
D81*
X139410000Y-124310000D02*
X142830000Y-124310000D01*
X138220000Y-124970000D02*
X138750000Y-124970000D01*
D82*
X146660000Y-127560000D02*
X143480000Y-124380000D01*
D81*
X138750000Y-124970000D02*
X139410000Y-124310000D01*
D82*
X151560000Y-127520000D02*
X151520000Y-127560000D01*
D81*
X141400000Y-122600000D02*
X141400000Y-122880000D01*
X143630000Y-122610000D02*
X143630000Y-123650000D01*
D82*
X143480000Y-124380000D02*
X142900000Y-124380000D01*
D81*
X141400000Y-122880000D02*
X142900000Y-124380000D01*
X143630000Y-123650000D02*
X142900000Y-124380000D01*
%TO.N,Net-(R22-Pad2)*%
X136250000Y-124940000D02*
X136220000Y-124970000D01*
D80*
X140070000Y-126320000D02*
X137310000Y-126320000D01*
X142900000Y-125650000D02*
X140740000Y-125650000D01*
X136220000Y-125230000D02*
X136220000Y-124970000D01*
X137310000Y-126320000D02*
X136220000Y-125230000D01*
X140740000Y-125650000D02*
X140070000Y-126320000D01*
D81*
X136250000Y-121690000D02*
X136250000Y-124940000D01*
%TO.N,Net-(C27-Pad1)*%
X153370000Y-110600000D02*
X152770000Y-111200000D01*
X154260000Y-110600000D02*
X155372500Y-111712500D01*
X159112500Y-112714682D02*
X158110318Y-111712500D01*
X152770000Y-113770000D02*
X153790000Y-114790000D01*
X148830000Y-108630000D02*
X149630000Y-109430000D01*
X160477500Y-117040000D02*
X159920000Y-116482500D01*
X155372500Y-111712500D02*
X157050000Y-111712500D01*
X149630000Y-109430000D02*
X152617500Y-109430000D01*
X153787500Y-110600000D02*
X154260000Y-110600000D01*
X159920000Y-116482500D02*
X159920000Y-113530000D01*
X158110318Y-111712500D02*
X157050000Y-111712500D01*
X153787500Y-110600000D02*
X153370000Y-110600000D01*
X148830000Y-106495000D02*
X148830000Y-108630000D01*
X152770000Y-111200000D02*
X152770000Y-113770000D01*
X152617500Y-109430000D02*
X153787500Y-110600000D01*
X159920000Y-113530000D02*
X159112500Y-112722500D01*
X159112500Y-112722500D02*
X159112500Y-112714682D01*
%TO.N,Net-(R24-Pad1)*%
X149150000Y-125710000D02*
X150950000Y-123910000D01*
X152340000Y-119850000D02*
X152340000Y-118690000D01*
X150310000Y-121880000D02*
X152340000Y-119850000D01*
X153660000Y-127510000D02*
X153430000Y-127510000D01*
X148210000Y-125710000D02*
X149150000Y-125710000D01*
X150950000Y-123910000D02*
X150950000Y-123750000D01*
X152700000Y-125680000D02*
X150950000Y-123930000D01*
X152700000Y-126780000D02*
X152700000Y-125680000D01*
X153430000Y-127510000D02*
X152700000Y-126780000D01*
X150950000Y-123930000D02*
X150950000Y-123750000D01*
X150310000Y-121880000D02*
X150310000Y-123110000D01*
X150310000Y-123110000D02*
X150950000Y-123750000D01*
X148150000Y-125650000D02*
X148210000Y-125710000D01*
D82*
%TO.N,Net-(R25-Pad2)*%
X148150000Y-126920000D02*
X147260000Y-126920000D01*
X149300000Y-124033249D02*
X149250000Y-123983249D01*
D80*
X150500000Y-125750000D02*
X150950000Y-125750000D01*
D82*
X151350000Y-117090000D02*
X151660000Y-116780000D01*
X151350000Y-119850000D02*
X151350000Y-117090000D01*
X146625000Y-126285000D02*
X146625000Y-125385000D01*
X147260000Y-126920000D02*
X146625000Y-126285000D01*
D80*
X148150000Y-126920000D02*
X149330000Y-126920000D01*
D82*
X147000000Y-125010000D02*
X149125000Y-125010000D01*
X149250000Y-123983249D02*
X149250000Y-121040000D01*
X149125000Y-125010000D02*
X149300000Y-124835000D01*
X149300000Y-124835000D02*
X149300000Y-124033249D01*
X150420000Y-120780000D02*
X151350000Y-119850000D01*
D80*
X149330000Y-126920000D02*
X150500000Y-125750000D01*
D82*
X149510000Y-120780000D02*
X150420000Y-120780000D01*
X146625000Y-125385000D02*
X147000000Y-125010000D01*
X149250000Y-121040000D02*
X149510000Y-120780000D01*
%TD*%
%TA.AperFunction,Conductor*%
%TO.N,GND*%
G36*
X173579913Y-77742954D02*
G01*
X173642001Y-77780040D01*
X173668403Y-77801573D01*
X173686858Y-77811221D01*
X173714312Y-77827913D01*
X173731379Y-77839863D01*
X173782623Y-77862039D01*
X173799044Y-77869871D01*
X173848530Y-77895741D01*
X173868556Y-77901483D01*
X173898807Y-77912315D01*
X173917919Y-77920586D01*
X173961373Y-77929664D01*
X173972559Y-77932001D01*
X173990262Y-77936382D01*
X174043913Y-77951766D01*
X174064684Y-77953364D01*
X174096488Y-77957891D01*
X174116880Y-77962151D01*
X174123539Y-77962500D01*
X174173846Y-77962500D01*
X174192949Y-77963234D01*
X174246570Y-77967360D01*
X174269502Y-77964463D01*
X174300710Y-77962500D01*
X181040114Y-77962500D01*
X181047067Y-77962597D01*
X181119048Y-77964608D01*
X181119049Y-77964608D01*
X181131653Y-77964960D01*
X181186628Y-77955266D01*
X181204707Y-77952758D01*
X181247667Y-77948395D01*
X181247671Y-77948394D01*
X181260216Y-77947120D01*
X181272246Y-77943350D01*
X181272251Y-77943349D01*
X181280093Y-77940891D01*
X181311310Y-77933281D01*
X181331821Y-77929664D01*
X181343547Y-77925021D01*
X181343552Y-77925020D01*
X181383707Y-77909122D01*
X181400902Y-77903033D01*
X181442135Y-77890111D01*
X181442142Y-77890108D01*
X181454172Y-77886338D01*
X181465201Y-77880224D01*
X181465204Y-77880223D01*
X181472385Y-77876242D01*
X181501447Y-77862504D01*
X181502647Y-77862029D01*
X181520805Y-77854840D01*
X181536040Y-77844871D01*
X181567506Y-77824280D01*
X181583127Y-77814857D01*
X181631944Y-77787797D01*
X181641523Y-77779587D01*
X181651878Y-77772390D01*
X181653313Y-77774455D01*
X181721126Y-77736322D01*
X181798485Y-77724000D01*
X182650066Y-77724000D01*
X182745354Y-77742954D01*
X182775897Y-77759160D01*
X182776403Y-77759573D01*
X182794858Y-77769221D01*
X182822312Y-77785913D01*
X182839379Y-77797863D01*
X182890623Y-77820039D01*
X182907044Y-77827871D01*
X182956530Y-77853741D01*
X182976556Y-77859483D01*
X183006807Y-77870315D01*
X183025919Y-77878586D01*
X183079319Y-77889742D01*
X183080559Y-77890001D01*
X183098262Y-77894382D01*
X183151913Y-77909766D01*
X183172684Y-77911364D01*
X183204488Y-77915891D01*
X183224880Y-77920151D01*
X183231539Y-77920500D01*
X183281846Y-77920500D01*
X183300949Y-77921234D01*
X183354570Y-77925360D01*
X183377502Y-77922463D01*
X183408710Y-77920500D01*
X185171000Y-77920500D01*
X185266288Y-77939454D01*
X185347070Y-77993430D01*
X185401046Y-78074212D01*
X185420000Y-78169500D01*
X185420000Y-81041940D01*
X185401046Y-81137228D01*
X185347070Y-81218010D01*
X184979180Y-81585900D01*
X184974195Y-81590747D01*
X184912720Y-81648881D01*
X184905487Y-81659211D01*
X184880703Y-81694606D01*
X184869696Y-81709159D01*
X184834427Y-81752403D01*
X184828584Y-81763581D01*
X184828582Y-81763583D01*
X184824780Y-81770856D01*
X184808086Y-81798315D01*
X184796137Y-81815379D01*
X184791129Y-81826952D01*
X184773975Y-81866593D01*
X184766117Y-81883067D01*
X184740258Y-81932530D01*
X184734514Y-81952563D01*
X184723683Y-81982810D01*
X184715414Y-82001919D01*
X184712836Y-82014260D01*
X184704002Y-82056546D01*
X184699619Y-82074256D01*
X184695713Y-82087880D01*
X184684234Y-82127913D01*
X184682636Y-82148684D01*
X184678109Y-82180488D01*
X184673849Y-82200880D01*
X184673500Y-82207539D01*
X184673500Y-82257847D01*
X184672766Y-82276950D01*
X184668640Y-82330571D01*
X184671538Y-82353509D01*
X184673500Y-82384704D01*
X184673500Y-87366439D01*
X184654546Y-87461727D01*
X184600570Y-87542509D01*
X183824009Y-88319070D01*
X183743227Y-88373046D01*
X183647939Y-88392000D01*
X181880060Y-88392000D01*
X181784772Y-88373046D01*
X181703990Y-88319070D01*
X181600100Y-88215180D01*
X181595253Y-88210195D01*
X181545784Y-88157883D01*
X181537119Y-88148720D01*
X181491394Y-88116703D01*
X181476841Y-88105696D01*
X181443372Y-88078399D01*
X181443370Y-88078397D01*
X181433597Y-88070427D01*
X181422419Y-88064584D01*
X181422417Y-88064582D01*
X181415144Y-88060780D01*
X181387684Y-88044085D01*
X181370621Y-88032137D01*
X181354736Y-88025263D01*
X181319407Y-88009975D01*
X181302930Y-88002116D01*
X181264648Y-87982102D01*
X181264649Y-87982102D01*
X181253470Y-87976258D01*
X181233437Y-87970514D01*
X181203190Y-87959683D01*
X181200719Y-87958614D01*
X181195655Y-87956422D01*
X181195651Y-87956421D01*
X181184081Y-87951414D01*
X181129451Y-87940001D01*
X181111744Y-87935619D01*
X181070210Y-87923710D01*
X181070209Y-87923710D01*
X181058087Y-87920234D01*
X181037316Y-87918636D01*
X181005512Y-87914109D01*
X180985120Y-87909849D01*
X180978461Y-87909500D01*
X180928153Y-87909500D01*
X180909050Y-87908766D01*
X180868012Y-87905608D01*
X180868010Y-87905608D01*
X180855429Y-87904640D01*
X180832491Y-87907538D01*
X180801296Y-87909500D01*
X173923259Y-87909500D01*
X173890509Y-87905710D01*
X173890313Y-87907220D01*
X173877798Y-87905595D01*
X173865524Y-87902716D01*
X173794449Y-87900731D01*
X173782312Y-87900095D01*
X173711429Y-87894640D01*
X173698915Y-87896221D01*
X173686904Y-87896514D01*
X173674951Y-87897392D01*
X173662347Y-87897040D01*
X173610275Y-87906222D01*
X173592337Y-87909385D01*
X173580305Y-87911205D01*
X173522287Y-87918534D01*
X173522282Y-87918535D01*
X173509776Y-87920115D01*
X173497835Y-87924180D01*
X173486139Y-87926881D01*
X173474603Y-87930145D01*
X173462179Y-87932336D01*
X173413994Y-87951414D01*
X173399850Y-87957014D01*
X173308186Y-87974500D01*
X170061494Y-87974500D01*
X169966206Y-87955546D01*
X169885424Y-87901570D01*
X169744930Y-87761076D01*
X169690954Y-87680294D01*
X169672000Y-87585006D01*
X169672000Y-83247740D01*
X175320909Y-83247740D01*
X175347243Y-83548745D01*
X175413156Y-83843623D01*
X175416005Y-83851366D01*
X175514638Y-84119443D01*
X175514641Y-84119450D01*
X175517490Y-84127193D01*
X175658411Y-84394474D01*
X175833444Y-84640768D01*
X175839074Y-84646805D01*
X176033878Y-84855708D01*
X176033884Y-84855714D01*
X176039513Y-84861750D01*
X176272998Y-85053537D01*
X176529797Y-85212759D01*
X176537322Y-85216141D01*
X176537326Y-85216143D01*
X176624405Y-85255278D01*
X176805398Y-85336620D01*
X176980080Y-85388695D01*
X177087043Y-85420582D01*
X177087045Y-85420582D01*
X177094960Y-85422942D01*
X177393395Y-85470209D01*
X177400342Y-85470524D01*
X177400347Y-85470525D01*
X177485081Y-85474373D01*
X177485103Y-85474374D01*
X177487889Y-85474500D01*
X177676648Y-85474500D01*
X177680738Y-85474228D01*
X177680748Y-85474228D01*
X177803761Y-85466057D01*
X177901490Y-85459566D01*
X178197684Y-85399843D01*
X178483377Y-85301471D01*
X178753550Y-85166178D01*
X178760385Y-85161533D01*
X178760390Y-85161530D01*
X178996631Y-85000980D01*
X179003456Y-84996342D01*
X179160747Y-84855708D01*
X179222545Y-84800454D01*
X179222548Y-84800451D01*
X179228705Y-84794946D01*
X179234079Y-84788676D01*
X179234084Y-84788671D01*
X179419964Y-84571801D01*
X179425340Y-84565529D01*
X179589905Y-84312120D01*
X179719510Y-84039173D01*
X179722034Y-84031311D01*
X179722037Y-84031304D01*
X179809350Y-83759353D01*
X179811877Y-83751483D01*
X179865384Y-83454104D01*
X179879091Y-83152260D01*
X179852757Y-82851255D01*
X179786844Y-82556377D01*
X179766610Y-82501383D01*
X179685362Y-82280557D01*
X179685359Y-82280550D01*
X179682510Y-82272807D01*
X179541589Y-82005526D01*
X179366556Y-81759232D01*
X179255572Y-81640216D01*
X179166122Y-81544292D01*
X179166116Y-81544286D01*
X179160487Y-81538250D01*
X178927002Y-81346463D01*
X178670203Y-81187241D01*
X178662678Y-81183859D01*
X178662674Y-81183857D01*
X178558920Y-81137228D01*
X178394602Y-81063380D01*
X178219920Y-81011305D01*
X178112957Y-80979418D01*
X178112955Y-80979418D01*
X178105040Y-80977058D01*
X177806605Y-80929791D01*
X177799658Y-80929476D01*
X177799653Y-80929475D01*
X177714919Y-80925627D01*
X177714897Y-80925626D01*
X177712111Y-80925500D01*
X177523352Y-80925500D01*
X177519262Y-80925772D01*
X177519252Y-80925772D01*
X177396239Y-80933943D01*
X177298510Y-80940434D01*
X177002316Y-81000157D01*
X176716623Y-81098529D01*
X176446450Y-81233822D01*
X176439615Y-81238467D01*
X176439610Y-81238470D01*
X176314350Y-81323597D01*
X176196544Y-81403658D01*
X176190395Y-81409156D01*
X176190391Y-81409159D01*
X175989982Y-81588346D01*
X175971295Y-81605054D01*
X175965921Y-81611324D01*
X175965916Y-81611329D01*
X175894539Y-81694606D01*
X175774660Y-81834471D01*
X175770164Y-81841395D01*
X175770162Y-81841397D01*
X175718239Y-81921352D01*
X175610095Y-82087880D01*
X175480490Y-82360827D01*
X175477966Y-82368689D01*
X175477963Y-82368696D01*
X175420192Y-82548634D01*
X175388123Y-82648517D01*
X175334616Y-82945896D01*
X175320909Y-83247740D01*
X169672000Y-83247740D01*
X169672000Y-77973000D01*
X169690954Y-77877712D01*
X169744930Y-77796930D01*
X169825712Y-77742954D01*
X169921000Y-77724000D01*
X173484625Y-77724000D01*
X173579913Y-77742954D01*
G37*
%TD.AperFunction*%
%TD*%
%TA.AperFunction,Conductor*%
%TO.N,GND*%
G36*
X162096621Y-70520002D02*
G01*
X162143114Y-70573658D01*
X162154500Y-70626000D01*
X162154500Y-72617242D01*
X162152949Y-72636951D01*
X162150677Y-72651297D01*
X162151022Y-72657884D01*
X162151022Y-72657889D01*
X162154327Y-72720942D01*
X162154500Y-72727536D01*
X162154500Y-72748504D01*
X162154844Y-72751776D01*
X162154844Y-72751778D01*
X162156692Y-72769364D01*
X162157209Y-72775938D01*
X162160859Y-72845578D01*
X162164618Y-72859607D01*
X162168221Y-72879049D01*
X162169738Y-72893482D01*
X162171778Y-72899760D01*
X162171778Y-72899761D01*
X162191285Y-72959797D01*
X162193157Y-72966115D01*
X162211212Y-73033497D01*
X162214208Y-73039377D01*
X162217805Y-73046437D01*
X162225370Y-73064700D01*
X162229856Y-73078508D01*
X162233156Y-73084224D01*
X162233157Y-73084226D01*
X162264734Y-73138919D01*
X162267882Y-73144717D01*
X162299535Y-73206840D01*
X162303690Y-73211972D01*
X162303692Y-73211974D01*
X162308674Y-73218127D01*
X162319867Y-73234412D01*
X162327130Y-73246992D01*
X162331550Y-73251901D01*
X162331553Y-73251905D01*
X162373796Y-73298821D01*
X162378080Y-73303836D01*
X162391275Y-73320130D01*
X162406090Y-73334945D01*
X162410631Y-73339729D01*
X162457308Y-73391569D01*
X162459151Y-73392908D01*
X162495549Y-73451986D01*
X162500000Y-73485179D01*
X162500000Y-77374000D01*
X162479998Y-77442121D01*
X162426342Y-77488614D01*
X162374000Y-77500000D01*
X160959228Y-77500000D01*
X160924499Y-77495119D01*
X160900796Y-77488323D01*
X160885494Y-77482844D01*
X160859081Y-77471414D01*
X160852837Y-77470110D01*
X160852832Y-77470108D01*
X160810323Y-77461228D01*
X160800033Y-77459078D01*
X160791083Y-77456864D01*
X160733087Y-77440234D01*
X160704388Y-77438026D01*
X160688295Y-77435735D01*
X160660120Y-77429849D01*
X160655281Y-77429595D01*
X160655278Y-77429595D01*
X160655129Y-77429587D01*
X160655113Y-77429587D01*
X160653461Y-77429500D01*
X160598435Y-77429500D01*
X160588768Y-77429129D01*
X160536789Y-77425129D01*
X160536785Y-77425129D01*
X160530429Y-77424640D01*
X160511424Y-77427041D01*
X160499827Y-77428506D01*
X160484035Y-77429500D01*
X159061148Y-77429500D01*
X159057630Y-77429451D01*
X158977729Y-77427219D01*
X158977726Y-77427219D01*
X158971347Y-77427041D01*
X158957679Y-77429451D01*
X158911944Y-77437515D01*
X158902798Y-77438784D01*
X158849130Y-77444235D01*
X158849126Y-77444236D01*
X158842784Y-77444880D01*
X158815317Y-77453488D01*
X158799518Y-77457339D01*
X158771178Y-77462336D01*
X158765245Y-77464685D01*
X158715096Y-77484540D01*
X158706401Y-77487619D01*
X158685293Y-77494234D01*
X158647615Y-77500000D01*
X156893958Y-77500000D01*
X156835582Y-77485661D01*
X156804132Y-77469219D01*
X156798470Y-77466259D01*
X156762428Y-77455924D01*
X156721663Y-77444235D01*
X156603087Y-77410234D01*
X156571455Y-77407411D01*
X156485609Y-77399749D01*
X156485603Y-77399749D01*
X156482816Y-77399500D01*
X155876000Y-77399500D01*
X155807879Y-77379498D01*
X155761386Y-77325842D01*
X155750000Y-77273500D01*
X155750000Y-70626000D01*
X155770002Y-70557879D01*
X155823658Y-70511386D01*
X155876000Y-70500000D01*
X162028500Y-70500000D01*
X162096621Y-70520002D01*
G37*
%TD.AperFunction*%
%TD*%
M02*
