%TF.GenerationSoftware,KiCad,Pcbnew,(6.0.11)*%
%TF.CreationDate,2023-07-08T12:47:50-05:00*%
%TF.ProjectId,LittleDX,4c697474-6c65-4445-982e-6b696361645f,rev?*%
%TF.SameCoordinates,Original*%
%TF.FileFunction,Paste,Top*%
%TF.FilePolarity,Positive*%
%FSLAX46Y46*%
G04 Gerber Fmt 4.6, Leading zero omitted, Abs format (unit mm)*
G04 Created by KiCad (PCBNEW (6.0.11)) date 2023-07-08 12:47:50*
%MOMM*%
%LPD*%
G01*
G04 APERTURE LIST*
G04 Aperture macros list*
%AMRoundRect*
0 Rectangle with rounded corners*
0 $1 Rounding radius*
0 $2 $3 $4 $5 $6 $7 $8 $9 X,Y pos of 4 corners*
0 Add a 4 corners polygon primitive as box body*
4,1,4,$2,$3,$4,$5,$6,$7,$8,$9,$2,$3,0*
0 Add four circle primitives for the rounded corners*
1,1,$1+$1,$2,$3*
1,1,$1+$1,$4,$5*
1,1,$1+$1,$6,$7*
1,1,$1+$1,$8,$9*
0 Add four rect primitives between the rounded corners*
20,1,$1+$1,$2,$3,$4,$5,0*
20,1,$1+$1,$4,$5,$6,$7,0*
20,1,$1+$1,$6,$7,$8,$9,0*
20,1,$1+$1,$8,$9,$2,$3,0*%
G04 Aperture macros list end*
%ADD10RoundRect,0.250000X0.337500X0.475000X-0.337500X0.475000X-0.337500X-0.475000X0.337500X-0.475000X0*%
%ADD11RoundRect,0.250000X0.475000X-0.337500X0.475000X0.337500X-0.475000X0.337500X-0.475000X-0.337500X0*%
%ADD12RoundRect,0.250000X-0.337500X-0.475000X0.337500X-0.475000X0.337500X0.475000X-0.337500X0.475000X0*%
%ADD13RoundRect,0.250000X-0.475000X0.337500X-0.475000X-0.337500X0.475000X-0.337500X0.475000X0.337500X0*%
%ADD14RoundRect,0.250000X0.325000X0.450000X-0.325000X0.450000X-0.325000X-0.450000X0.325000X-0.450000X0*%
%ADD15RoundRect,0.250000X-0.325000X-0.450000X0.325000X-0.450000X0.325000X0.450000X-0.325000X0.450000X0*%
%ADD16R,3.500000X1.800000*%
%ADD17R,1.800000X3.500000*%
%ADD18RoundRect,0.250000X0.450000X-0.325000X0.450000X0.325000X-0.450000X0.325000X-0.450000X-0.325000X0*%
%ADD19RoundRect,0.150000X-0.587500X-0.150000X0.587500X-0.150000X0.587500X0.150000X-0.587500X0.150000X0*%
%ADD20R,2.750000X3.050000*%
%ADD21R,1.200000X2.200000*%
%ADD22R,2.000000X2.400000*%
%ADD23R,1.000000X1.800000*%
%ADD24RoundRect,0.075000X0.075000X-0.662500X0.075000X0.662500X-0.075000X0.662500X-0.075000X-0.662500X0*%
%ADD25RoundRect,0.075000X0.662500X-0.075000X0.662500X0.075000X-0.662500X0.075000X-0.662500X-0.075000X0*%
%ADD26RoundRect,0.150000X0.675000X0.150000X-0.675000X0.150000X-0.675000X-0.150000X0.675000X-0.150000X0*%
%ADD27R,1.500000X2.000000*%
%ADD28R,3.800000X2.000000*%
%ADD29RoundRect,0.250000X-0.350000X-0.450000X0.350000X-0.450000X0.350000X0.450000X-0.350000X0.450000X0*%
%ADD30RoundRect,0.250000X0.450000X-0.350000X0.450000X0.350000X-0.450000X0.350000X-0.450000X-0.350000X0*%
%ADD31RoundRect,0.250000X0.350000X0.450000X-0.350000X0.450000X-0.350000X-0.450000X0.350000X-0.450000X0*%
%ADD32RoundRect,0.250000X-0.450000X0.350000X-0.450000X-0.350000X0.450000X-0.350000X0.450000X0.350000X0*%
%ADD33R,1.400000X0.300000*%
%ADD34R,2.100000X1.800000*%
%ADD35R,1.200000X0.900000*%
%ADD36RoundRect,0.250000X-0.450000X0.325000X-0.450000X-0.325000X0.450000X-0.325000X0.450000X0.325000X0*%
%ADD37RoundRect,0.150000X0.150000X-0.587500X0.150000X0.587500X-0.150000X0.587500X-0.150000X-0.587500X0*%
%ADD38R,0.900000X1.200000*%
%ADD39RoundRect,0.150000X-0.150000X0.675000X-0.150000X-0.675000X0.150000X-0.675000X0.150000X0.675000X0*%
%ADD40R,1.200000X0.400000*%
%ADD41RoundRect,0.150000X-0.675000X-0.150000X0.675000X-0.150000X0.675000X0.150000X-0.675000X0.150000X0*%
%ADD42R,1.600000X1.400000*%
%ADD43R,0.700000X1.600000*%
%ADD44R,1.200000X1.400000*%
G04 APERTURE END LIST*
D10*
%TO.C,C1*%
X133625500Y-114046000D03*
X131550500Y-114046000D03*
%TD*%
D11*
%TO.C,C2*%
X125476000Y-116727500D03*
X125476000Y-114652500D03*
%TD*%
%TO.C,C4*%
X129300000Y-116747500D03*
X129300000Y-114672500D03*
%TD*%
D12*
%TO.C,C5*%
X120162500Y-111370000D03*
X122237500Y-111370000D03*
%TD*%
%TO.C,C8*%
X121202500Y-114030000D03*
X123277500Y-114030000D03*
%TD*%
D13*
%TO.C,C9*%
X132550000Y-108587500D03*
X132550000Y-110662500D03*
%TD*%
D12*
%TO.C,C10*%
X92187500Y-116725000D03*
X94262500Y-116725000D03*
%TD*%
D13*
%TO.C,C11*%
X87150000Y-128462500D03*
X87150000Y-130537500D03*
%TD*%
D12*
%TO.C,C12*%
X119432500Y-105530000D03*
X121507500Y-105530000D03*
%TD*%
D13*
%TO.C,C13*%
X126380000Y-91592500D03*
X126380000Y-93667500D03*
%TD*%
%TO.C,C15*%
X147450000Y-138947500D03*
X147450000Y-141022500D03*
%TD*%
D12*
%TO.C,C16*%
X82287500Y-120425000D03*
X84362500Y-120425000D03*
%TD*%
D10*
%TO.C,C17*%
X107717500Y-115300000D03*
X105642500Y-115300000D03*
%TD*%
D11*
%TO.C,C20*%
X162890000Y-96527500D03*
X162890000Y-94452500D03*
%TD*%
D13*
%TO.C,C21*%
X135870000Y-93682500D03*
X135870000Y-95757500D03*
%TD*%
D10*
%TO.C,C25*%
X153287500Y-108230000D03*
X151212500Y-108230000D03*
%TD*%
D12*
%TO.C,C33*%
X164432500Y-110450000D03*
X166507500Y-110450000D03*
%TD*%
D10*
%TO.C,C34*%
X163162500Y-140235000D03*
X161087500Y-140235000D03*
%TD*%
D12*
%TO.C,C35*%
X164392500Y-104030000D03*
X166467500Y-104030000D03*
%TD*%
D14*
%TO.C,D2*%
X108285000Y-122550000D03*
X106235000Y-122550000D03*
%TD*%
D15*
%TO.C,D3*%
X106255000Y-124660000D03*
X108305000Y-124660000D03*
%TD*%
D16*
%TO.C,D4*%
X74000000Y-80000000D03*
X79000000Y-80000000D03*
%TD*%
D17*
%TO.C,D5*%
X108458000Y-77684000D03*
X108458000Y-72684000D03*
%TD*%
D18*
%TO.C,L2*%
X148830000Y-106495000D03*
X148830000Y-104445000D03*
%TD*%
D14*
%TO.C,L3*%
X166525000Y-107260000D03*
X164475000Y-107260000D03*
%TD*%
D18*
%TO.C,L9*%
X141320000Y-71175000D03*
X141320000Y-69125000D03*
%TD*%
D19*
%TO.C,Q4*%
X161212500Y-128860000D03*
X161212500Y-130760000D03*
X163087500Y-129810000D03*
%TD*%
D20*
%TO.C,U2*%
X67000000Y-62350000D03*
X70050000Y-62350000D03*
X70050000Y-59000000D03*
X67000000Y-59000000D03*
D21*
X66245000Y-66975000D03*
X70805000Y-66975000D03*
%TD*%
D22*
%TO.C,Y1*%
X129200000Y-111730000D03*
X125500000Y-111730000D03*
%TD*%
D23*
%TO.C,Y2*%
X127220000Y-108600000D03*
X124720000Y-108600000D03*
%TD*%
D24*
%TO.C,U1*%
X127552000Y-105254500D03*
X128052000Y-105254500D03*
X128552000Y-105254500D03*
X129052000Y-105254500D03*
X129552000Y-105254500D03*
X130052000Y-105254500D03*
X130552000Y-105254500D03*
X131052000Y-105254500D03*
X131552000Y-105254500D03*
X132052000Y-105254500D03*
X132552000Y-105254500D03*
X133052000Y-105254500D03*
D25*
X134464500Y-103842000D03*
X134464500Y-103342000D03*
X134464500Y-102842000D03*
X134464500Y-102342000D03*
X134464500Y-101842000D03*
X134464500Y-101342000D03*
X134464500Y-100842000D03*
X134464500Y-100342000D03*
X134464500Y-99842000D03*
X134464500Y-99342000D03*
X134464500Y-98842000D03*
X134464500Y-98342000D03*
D24*
X133052000Y-96929500D03*
X132552000Y-96929500D03*
X132052000Y-96929500D03*
X131552000Y-96929500D03*
X131052000Y-96929500D03*
X130552000Y-96929500D03*
X130052000Y-96929500D03*
X129552000Y-96929500D03*
X129052000Y-96929500D03*
X128552000Y-96929500D03*
X128052000Y-96929500D03*
X127552000Y-96929500D03*
D25*
X126139500Y-98342000D03*
X126139500Y-98842000D03*
X126139500Y-99342000D03*
X126139500Y-99842000D03*
X126139500Y-100342000D03*
X126139500Y-100842000D03*
X126139500Y-101342000D03*
X126139500Y-101842000D03*
X126139500Y-102342000D03*
X126139500Y-102842000D03*
X126139500Y-103342000D03*
X126139500Y-103842000D03*
%TD*%
D13*
%TO.C,C37*%
X143925000Y-138797500D03*
X143925000Y-140872500D03*
%TD*%
D26*
%TO.C,U3*%
X154205000Y-136955000D03*
X154205000Y-135685000D03*
X154205000Y-134415000D03*
X154205000Y-133145000D03*
X148955000Y-133145000D03*
X148955000Y-134415000D03*
X148955000Y-135685000D03*
X148955000Y-136955000D03*
%TD*%
D27*
%TO.C,U4*%
X79680000Y-61020000D03*
X77380000Y-61020000D03*
D28*
X77380000Y-67320000D03*
D27*
X75080000Y-61020000D03*
%TD*%
D12*
%TO.C,C14*%
X172162500Y-64800000D03*
X174237500Y-64800000D03*
%TD*%
D11*
%TO.C,C42*%
X83460000Y-79963500D03*
X83460000Y-77888500D03*
%TD*%
D29*
%TO.C,R1*%
X117300000Y-116710000D03*
X119300000Y-116710000D03*
%TD*%
D30*
%TO.C,R2*%
X111590000Y-81000000D03*
X111590000Y-79000000D03*
%TD*%
%TO.C,R3*%
X102700000Y-99230000D03*
X102700000Y-97230000D03*
%TD*%
D29*
%TO.C,R4*%
X106240000Y-126870000D03*
X108240000Y-126870000D03*
%TD*%
D31*
%TO.C,R6*%
X89975000Y-116750000D03*
X87975000Y-116750000D03*
%TD*%
%TO.C,R7*%
X121396000Y-70104000D03*
X119396000Y-70104000D03*
%TD*%
D29*
%TO.C,R8*%
X172200000Y-62500000D03*
X174200000Y-62500000D03*
%TD*%
D30*
%TO.C,R9*%
X114554000Y-71866000D03*
X114554000Y-69866000D03*
%TD*%
D29*
%TO.C,R11*%
X139840000Y-133270000D03*
X141840000Y-133270000D03*
%TD*%
D30*
%TO.C,R12*%
X85620000Y-118230000D03*
X85620000Y-116230000D03*
%TD*%
D29*
%TO.C,R13*%
X105630000Y-117620000D03*
X107630000Y-117620000D03*
%TD*%
D32*
%TO.C,R14*%
X154178000Y-68850000D03*
X154178000Y-70850000D03*
%TD*%
%TO.C,R15*%
X111760000Y-69866000D03*
X111760000Y-71866000D03*
%TD*%
%TO.C,R16*%
X151770000Y-102920000D03*
X151770000Y-104920000D03*
%TD*%
D30*
%TO.C,R17*%
X158910000Y-102900000D03*
X158910000Y-100900000D03*
%TD*%
%TO.C,R18*%
X137750000Y-85025000D03*
X137750000Y-83025000D03*
%TD*%
%TO.C,R19*%
X151560000Y-129520000D03*
X151560000Y-127520000D03*
%TD*%
D31*
%TO.C,R20*%
X157667200Y-89128600D03*
X155667200Y-89128600D03*
%TD*%
%TO.C,R21*%
X140740000Y-127620000D03*
X138740000Y-127620000D03*
%TD*%
D32*
%TO.C,R23*%
X153790000Y-114790000D03*
X153790000Y-116790000D03*
%TD*%
D30*
%TO.C,R29*%
X99970000Y-99230000D03*
X99970000Y-97230000D03*
%TD*%
%TO.C,R30*%
X141560000Y-106460000D03*
X141560000Y-104460000D03*
%TD*%
D29*
%TO.C,R31*%
X161125000Y-137860000D03*
X163125000Y-137860000D03*
%TD*%
D30*
%TO.C,R32*%
X158700000Y-132950000D03*
X158700000Y-130950000D03*
%TD*%
%TO.C,R33*%
X87970000Y-134760000D03*
X87970000Y-132760000D03*
%TD*%
D29*
%TO.C,R34*%
X161125000Y-135560000D03*
X163125000Y-135560000D03*
%TD*%
D30*
%TO.C,R46*%
X108352000Y-99230000D03*
X108352000Y-97230000D03*
%TD*%
%TO.C,R47*%
X105558000Y-99230000D03*
X105558000Y-97230000D03*
%TD*%
D32*
%TO.C,R24*%
X153660000Y-127510000D03*
X153660000Y-129510000D03*
%TD*%
D10*
%TO.C,C44*%
X68267500Y-70000000D03*
X66192500Y-70000000D03*
%TD*%
D13*
%TO.C,C47*%
X143030000Y-73892500D03*
X143030000Y-75967500D03*
%TD*%
D30*
%TO.C,R35*%
X135075000Y-85050000D03*
X135075000Y-83050000D03*
%TD*%
%TO.C,R48*%
X153810000Y-104930000D03*
X153810000Y-102930000D03*
%TD*%
D29*
%TO.C,R49*%
X150892000Y-77550000D03*
X152892000Y-77550000D03*
%TD*%
%TO.C,R50*%
X150892000Y-80975000D03*
X152892000Y-80975000D03*
%TD*%
D33*
%TO.C,U6*%
X143290000Y-78670000D03*
X143290000Y-79170000D03*
X143290000Y-79670000D03*
X143290000Y-80170000D03*
X143290000Y-80670000D03*
X147690000Y-80670000D03*
X147690000Y-80170000D03*
X147690000Y-79670000D03*
X147690000Y-79170000D03*
X147690000Y-78670000D03*
%TD*%
D34*
%TO.C,Y3*%
X136218000Y-79248000D03*
X139118000Y-79248000D03*
X139118000Y-76948000D03*
X136218000Y-76948000D03*
%TD*%
D10*
%TO.C,C30*%
X160477500Y-117040000D03*
X158402500Y-117040000D03*
%TD*%
D35*
%TO.C,D9*%
X176270000Y-104640000D03*
X176270000Y-107940000D03*
%TD*%
D29*
%TO.C,R5*%
X139800000Y-95850000D03*
X141800000Y-95850000D03*
%TD*%
D31*
%TO.C,R22*%
X138220000Y-124970000D03*
X136220000Y-124970000D03*
%TD*%
D32*
%TO.C,R25*%
X150950000Y-123750000D03*
X150950000Y-125750000D03*
%TD*%
D29*
%TO.C,R38*%
X169790000Y-59950000D03*
X171790000Y-59950000D03*
%TD*%
D31*
%TO.C,R39*%
X180000000Y-64900000D03*
X178000000Y-64900000D03*
%TD*%
D10*
%TO.C,C39*%
X153807500Y-112720000D03*
X151732500Y-112720000D03*
%TD*%
D36*
%TO.C,D16*%
X178850000Y-131360000D03*
X178850000Y-133410000D03*
%TD*%
D31*
%TO.C,R28*%
X174660000Y-133250000D03*
X172660000Y-133250000D03*
%TD*%
D35*
%TO.C,D17*%
X157000000Y-82675000D03*
X157000000Y-85975000D03*
%TD*%
D12*
%TO.C,C46*%
X148012500Y-63810000D03*
X150087500Y-63810000D03*
%TD*%
D31*
%TO.C,R51*%
X167525000Y-90800000D03*
X165525000Y-90800000D03*
%TD*%
D32*
%TO.C,R52*%
X159766000Y-87138000D03*
X159766000Y-89138000D03*
%TD*%
D13*
%TO.C,C24*%
X166830000Y-64032500D03*
X166830000Y-66107500D03*
%TD*%
D31*
%TO.C,R53*%
X160050000Y-79875000D03*
X158050000Y-79875000D03*
%TD*%
D11*
%TO.C,C56*%
X153430000Y-85197500D03*
X153430000Y-83122500D03*
%TD*%
D37*
%TO.C,Q12*%
X150180000Y-70787500D03*
X152080000Y-70787500D03*
X151130000Y-68912500D03*
%TD*%
D19*
%TO.C,Q13*%
X182312500Y-65050000D03*
X182312500Y-66950000D03*
X184187500Y-66000000D03*
%TD*%
D29*
%TO.C,R65*%
X143670000Y-68760000D03*
X145670000Y-68760000D03*
%TD*%
D32*
%TO.C,R66*%
X162470000Y-98680000D03*
X162470000Y-100680000D03*
%TD*%
D30*
%TO.C,R67*%
X159550000Y-85100000D03*
X159550000Y-83100000D03*
%TD*%
%TO.C,R64*%
X82330000Y-67990000D03*
X82330000Y-65990000D03*
%TD*%
D31*
%TO.C,R70*%
X104110000Y-70580000D03*
X102110000Y-70580000D03*
%TD*%
D18*
%TO.C,D19*%
X160880000Y-60207000D03*
X160880000Y-58157000D03*
%TD*%
D31*
%TO.C,R71*%
X167810000Y-59930000D03*
X165810000Y-59930000D03*
%TD*%
D12*
%TO.C,C32*%
X174542500Y-94520000D03*
X176617500Y-94520000D03*
%TD*%
D37*
%TO.C,Q14*%
X117875000Y-86887500D03*
X119775000Y-86887500D03*
X118825000Y-85012500D03*
%TD*%
D29*
%TO.C,R72*%
X120375000Y-94500000D03*
X122375000Y-94500000D03*
%TD*%
D13*
%TO.C,C38*%
X147075000Y-72037500D03*
X147075000Y-74112500D03*
%TD*%
D32*
%TO.C,R73*%
X155975000Y-78750000D03*
X155975000Y-80750000D03*
%TD*%
%TO.C,R74*%
X167225000Y-85675000D03*
X167225000Y-87675000D03*
%TD*%
D18*
%TO.C,L11*%
X147900000Y-68675000D03*
X147900000Y-66625000D03*
%TD*%
D13*
%TO.C,C41*%
X127225000Y-135247500D03*
X127225000Y-137322500D03*
%TD*%
D12*
%TO.C,C58*%
X54500000Y-67000000D03*
X56575000Y-67000000D03*
%TD*%
D10*
%TO.C,C27*%
X153787500Y-110600000D03*
X151712500Y-110600000D03*
%TD*%
D31*
%TO.C,R76*%
X83510000Y-97310000D03*
X81510000Y-97310000D03*
%TD*%
D12*
%TO.C,C7*%
X131502500Y-116570000D03*
X133577500Y-116570000D03*
%TD*%
%TO.C,C18*%
X161162500Y-133110000D03*
X163237500Y-133110000D03*
%TD*%
%TO.C,C60*%
X155662500Y-139020000D03*
X157737500Y-139020000D03*
%TD*%
D29*
%TO.C,R10*%
X121410000Y-116430000D03*
X123410000Y-116430000D03*
%TD*%
D38*
%TO.C,D15*%
X173530000Y-59990000D03*
X176830000Y-59990000D03*
%TD*%
%TO.C,D18*%
X149988000Y-73406000D03*
X153288000Y-73406000D03*
%TD*%
D17*
%TO.C,D8*%
X187250000Y-66500000D03*
X187250000Y-71500000D03*
%TD*%
D12*
%TO.C,C61*%
X106932500Y-130770000D03*
X109007500Y-130770000D03*
%TD*%
D30*
%TO.C,R40*%
X97390000Y-99230000D03*
X97390000Y-97230000D03*
%TD*%
D29*
%TO.C,R75*%
X101290000Y-130760000D03*
X103290000Y-130760000D03*
%TD*%
D10*
%TO.C,C26*%
X172587500Y-121230000D03*
X170512500Y-121230000D03*
%TD*%
D11*
%TO.C,C23*%
X162250000Y-91525000D03*
X162250000Y-89450000D03*
%TD*%
%TO.C,C36*%
X61550000Y-118207500D03*
X61550000Y-116132500D03*
%TD*%
D35*
%TO.C,D10*%
X173690000Y-112900000D03*
X173690000Y-109600000D03*
%TD*%
D31*
%TO.C,R80*%
X83375000Y-126425000D03*
X81375000Y-126425000D03*
%TD*%
D39*
%TO.C,U5*%
X84212500Y-101753000D03*
X82942500Y-101753000D03*
X81672500Y-101753000D03*
X80402500Y-101753000D03*
X80402500Y-107003000D03*
X81672500Y-107003000D03*
X82942500Y-107003000D03*
X84212500Y-107003000D03*
%TD*%
D12*
%TO.C,C69*%
X81340000Y-109838000D03*
X83415000Y-109838000D03*
%TD*%
D38*
%TO.C,D14*%
X139950000Y-114780000D03*
X136650000Y-114780000D03*
%TD*%
D12*
%TO.C,C67*%
X68812500Y-128750000D03*
X70887500Y-128750000D03*
%TD*%
D14*
%TO.C,L12*%
X83425000Y-128900000D03*
X81375000Y-128900000D03*
%TD*%
D31*
%TO.C,R56*%
X121440000Y-107660000D03*
X119440000Y-107660000D03*
%TD*%
D12*
%TO.C,C49*%
X156892500Y-128580000D03*
X158967500Y-128580000D03*
%TD*%
D29*
%TO.C,R36*%
X150310000Y-121880000D03*
X152310000Y-121880000D03*
%TD*%
D40*
%TO.C,U8*%
X162250000Y-113617500D03*
X162250000Y-112982500D03*
X162250000Y-112347500D03*
X162250000Y-111712500D03*
X162250000Y-111077500D03*
X162250000Y-110442500D03*
X162250000Y-109807500D03*
X162250000Y-109172500D03*
X162250000Y-108537500D03*
X162250000Y-107902500D03*
X162250000Y-107267500D03*
X162250000Y-106632500D03*
X157050000Y-106632500D03*
X157050000Y-107267500D03*
X157050000Y-107902500D03*
X157050000Y-108537500D03*
X157050000Y-109172500D03*
X157050000Y-109807500D03*
X157050000Y-110442500D03*
X157050000Y-111077500D03*
X157050000Y-111712500D03*
X157050000Y-112347500D03*
X157050000Y-112982500D03*
X157050000Y-113617500D03*
%TD*%
D32*
%TO.C,R42*%
X59080000Y-116210000D03*
X59080000Y-118210000D03*
%TD*%
D29*
%TO.C,R77*%
X87286000Y-103056000D03*
X89286000Y-103056000D03*
%TD*%
D38*
%TO.C,D12*%
X123870000Y-120760000D03*
X127170000Y-120760000D03*
%TD*%
D31*
%TO.C,R69*%
X74136000Y-105410000D03*
X72136000Y-105410000D03*
%TD*%
D38*
%TO.C,D13*%
X140840000Y-112130000D03*
X137540000Y-112130000D03*
%TD*%
D30*
%TO.C,R43*%
X68580000Y-107426000D03*
X68580000Y-105426000D03*
%TD*%
%TO.C,R44*%
X92350000Y-104310000D03*
X92350000Y-102310000D03*
%TD*%
D10*
%TO.C,C48*%
X152110000Y-140050000D03*
X150035000Y-140050000D03*
%TD*%
D11*
%TO.C,C63*%
X68580000Y-111781500D03*
X68580000Y-109706500D03*
%TD*%
D16*
%TO.C,D20*%
X94325000Y-90960000D03*
X89325000Y-90960000D03*
%TD*%
D30*
%TO.C,R37*%
X143630000Y-122610000D03*
X143630000Y-120610000D03*
%TD*%
%TO.C,R55*%
X141400000Y-122600000D03*
X141400000Y-120600000D03*
%TD*%
D36*
%TO.C,L7*%
X59080000Y-120945000D03*
X59080000Y-122995000D03*
%TD*%
D13*
%TO.C,C50*%
X162710000Y-116902500D03*
X162710000Y-118977500D03*
%TD*%
D23*
%TO.C,Y4*%
X164660000Y-117270000D03*
X167160000Y-117270000D03*
%TD*%
D10*
%TO.C,C65*%
X88955000Y-107230000D03*
X86880000Y-107230000D03*
%TD*%
D32*
%TO.C,R81*%
X129540000Y-121200000D03*
X129540000Y-123200000D03*
%TD*%
%TO.C,R84*%
X131790000Y-121190000D03*
X131790000Y-123190000D03*
%TD*%
D10*
%TO.C,C45*%
X108327500Y-120320000D03*
X106252500Y-120320000D03*
%TD*%
D11*
%TO.C,C68*%
X61310000Y-124197500D03*
X61310000Y-122122500D03*
%TD*%
D31*
%TO.C,R83*%
X83430000Y-113220000D03*
X81430000Y-113220000D03*
%TD*%
D11*
%TO.C,C52*%
X99875000Y-79622500D03*
X99875000Y-77547500D03*
%TD*%
%TO.C,C62*%
X59020000Y-127797500D03*
X59020000Y-125722500D03*
%TD*%
D30*
%TO.C,R26*%
X151660000Y-116780000D03*
X151660000Y-114780000D03*
%TD*%
D29*
%TO.C,R85*%
X85747500Y-109768000D03*
X87747500Y-109768000D03*
%TD*%
D10*
%TO.C,C70*%
X73000000Y-70000000D03*
X70925000Y-70000000D03*
%TD*%
D31*
%TO.C,R79*%
X79486000Y-109728000D03*
X77486000Y-109728000D03*
%TD*%
%TO.C,R27*%
X138250000Y-121690000D03*
X136250000Y-121690000D03*
%TD*%
D12*
%TO.C,C51*%
X164432500Y-113790000D03*
X166507500Y-113790000D03*
%TD*%
D11*
%TO.C,C29*%
X169720000Y-66107500D03*
X169720000Y-64032500D03*
%TD*%
D41*
%TO.C,U9*%
X142900000Y-124380000D03*
X142900000Y-125650000D03*
X142900000Y-126920000D03*
X142900000Y-128190000D03*
X148150000Y-128190000D03*
X148150000Y-126920000D03*
X148150000Y-125650000D03*
X148150000Y-124380000D03*
%TD*%
D31*
%TO.C,R54*%
X152340000Y-118690000D03*
X150340000Y-118690000D03*
%TD*%
D21*
%TO.C,U7*%
X138730000Y-58830000D03*
D42*
X124130000Y-68330000D03*
D43*
X128730000Y-68930000D03*
X129830000Y-68930000D03*
X130930000Y-68930000D03*
X132030000Y-68930000D03*
X133130000Y-68930000D03*
X134230000Y-68930000D03*
X135330000Y-68930000D03*
X136430000Y-68930000D03*
X137530000Y-68930000D03*
D44*
X138730000Y-68330000D03*
D21*
X123230000Y-58730000D03*
%TD*%
D10*
%TO.C,C40*%
X148217500Y-122460000D03*
X146142500Y-122460000D03*
%TD*%
D35*
%TO.C,D7*%
X173650000Y-107930000D03*
X173650000Y-104630000D03*
%TD*%
D13*
%TO.C,C43*%
X121980000Y-63902500D03*
X121980000Y-65977500D03*
%TD*%
D12*
%TO.C,C66*%
X81472500Y-99450000D03*
X83547500Y-99450000D03*
%TD*%
D11*
%TO.C,C54*%
X97850000Y-93317500D03*
X97850000Y-91242500D03*
%TD*%
D30*
%TO.C,R45*%
X92350000Y-108374000D03*
X92350000Y-106374000D03*
%TD*%
D11*
%TO.C,C31*%
X180090000Y-70787500D03*
X180090000Y-68712500D03*
%TD*%
D35*
%TO.C,D11*%
X176250000Y-109590000D03*
X176250000Y-112890000D03*
%TD*%
D36*
%TO.C,L8*%
X74975000Y-126075000D03*
X74975000Y-128125000D03*
%TD*%
D31*
%TO.C,R82*%
X124250000Y-84275000D03*
X122250000Y-84275000D03*
%TD*%
D13*
%TO.C,C28*%
X156360000Y-118052500D03*
X156360000Y-120127500D03*
%TD*%
D32*
%TO.C,R78*%
X76730000Y-104430000D03*
X76730000Y-106430000D03*
%TD*%
D16*
%TO.C,D21*%
X89325000Y-94560000D03*
X94325000Y-94560000D03*
%TD*%
D10*
%TO.C,C64*%
X92477500Y-100262000D03*
X90402500Y-100262000D03*
%TD*%
M02*
