M48
; DRILL file {KiCad (6.0.11)} date Thu Jul  6 21:07:41 2023
; FORMAT={-:-/ absolute / inch / decimal}
; #@! TF.CreationDate,2023-07-06T21:07:41-05:00
; #@! TF.GenerationSoftware,Kicad,Pcbnew,(6.0.11)
; #@! TF.FileFunction,Plated,1,2,PTH
FMAT,2
INCH
; #@! TA.AperFunction,Plated,PTH,ViaDrill
T1C0.0157
; #@! TA.AperFunction,Plated,PTH,ComponentDrill
T2C0.0295
; #@! TA.AperFunction,Plated,PTH,ComponentDrill
T3C0.0300
; #@! TA.AperFunction,Plated,PTH,ComponentDrill
T4C0.0315
; #@! TA.AperFunction,Plated,PTH,ComponentDrill
T5C0.0354
; #@! TA.AperFunction,Plated,PTH,ComponentDrill
T6C0.0362
; #@! TA.AperFunction,Plated,PTH,ComponentDrill
T7C0.0394
; #@! TA.AperFunction,Plated,PTH,ComponentDrill
T8C0.0433
; #@! TA.AperFunction,Plated,PTH,ComponentDrill
T9C0.0472
; #@! TA.AperFunction,Plated,PTH,ComponentDrill
T10C0.0598
; #@! TA.AperFunction,Plated,PTH,ComponentDrill
T11C0.0917
; #@! TA.AperFunction,Plated,PTH,ComponentDrill
T12C0.0984
; #@! TA.AperFunction,Plated,PTH,ComponentDrill
T13C0.1200
%
G90
G05
T1
X2.3283Y-5.0886
X2.376Y-4.7083
X2.4539Y-4.924
X2.5394Y-2.4016
X2.6563Y-5.0638
X2.6765Y-2.5908
X2.7362Y-2.7953
X2.8543Y-2.4016
X2.8543Y-2.815
X2.9713Y-2.8146
X3.1654Y-4.0669
X3.1949Y-2.4449
X3.2094Y-2.4087
X3.2323Y-4.6801
X3.3652Y-5.0217
X3.3954Y-5.2238
X3.4323Y-2.3693
X3.5039Y-4.3307
X3.5165Y-2.3492
X3.5272Y-4.0602
X3.536Y-5.34
X3.5433Y-4.252
X3.5467Y-4.8789
X3.5817Y-4.6496
X3.5945Y-3.9701
X3.6004Y-4.8061
X3.6874Y-3.8748
X3.724Y-2.3602
X3.7913Y-4.5531
X3.8193Y-2.3622
X3.8297Y-4.6585
X3.8337Y-4.6064
X3.8661Y-4.5561
X4.2Y-4.46
X4.2488Y-5.1126
X4.2677Y-3.5059
X4.2748Y-4.6843
X4.2874Y-3.5591
X4.3297Y-3.6093
X4.3307Y-3.5384
X4.374Y-3.6014
X4.4764Y-4.2461
X4.4921Y-3.6939
X4.5108Y-3.626
X4.5226Y-3.6703
X4.5232Y-5.1882
X4.5561Y-4.2421
X4.6437Y-3.7224
X4.6579Y-4.1657
X4.7244Y-3.3669
X4.7431Y-3.8819
X4.75Y-2.5394
X4.7549Y-4.0158
X4.7697Y-4.3382
X4.7726Y-4.435
X4.7736Y-3.9409
X4.7872Y-4.0404
X4.8041Y-3.9656
X4.81Y-3.8474
X4.813Y-3.6545
X4.8228Y-3.9134
X4.8356Y-3.9941
X4.87Y-4.11
X4.8931Y-3.6259
X4.9646Y-3.5508
X4.9882Y-3.2791
X4.9965Y-4.5528
X5.0055Y-3.7555
X5.0207Y-3.8927
X5.0404Y-4.5463
X5.0443Y-4.0746
X5.0768Y-3.8878
X5.1025Y-4.0618
X5.1031Y-2.6437
X5.1102Y-3.8937
X5.1192Y-2.9508
X5.1309Y-3.9488
X5.1437Y-4.0039
X5.1736Y-4.2201
X5.1738Y-4.0489
X5.1854Y-2.6028
X5.1909Y-3.9144
X5.1984Y-4.6579
X5.2189Y-4.5386
X5.2272Y-4.4244
X5.2634Y-2.6445
X5.2677Y-4.1555
X5.2815Y-4.3283
X5.3159Y-2.9469
X5.3553Y-4.0866
X5.3685Y-3.4906
X5.3711Y-4.0433
X5.372Y-3.5528
X5.3736Y-3.6244
X5.3795Y-4.3154
X5.3817Y-3.728
X5.3835Y-3.9197
X5.3992Y-3.8516
X5.4165Y-3.8862
X5.4232Y-4.0295
X5.4394Y-4.1134
X5.4602Y-3.5118
X5.461Y-3.5815
X5.4911Y-3.7244
X5.4992Y-5.0856
X5.5555Y-4.0602
X5.578Y-5.1429
X5.6831Y-2.9484
X5.6984Y-5.0457
X5.7016Y-4.8925
X5.7067Y-4.8224
X5.7077Y-5.5063
X5.7082Y-4.7306
X5.7551Y-3.1169
X5.8248Y-2.4528
X5.8481Y-2.98
X5.8543Y-4.7453
X5.8612Y-5.5801
X5.8874Y-3.148
X5.9043Y-4.3957
X5.9071Y-4.2528
X5.9941Y-2.728
X6.0114Y-4.8484
X6.0128Y-5.2441
X6.0128Y-5.2904
X6.0541Y-3.9656
X6.0679Y-5.5102
X6.0992Y-4.7303
X6.1262Y-4.221
X6.1276Y-4.1854
X6.1614Y-2.9331
X6.1713Y-2.7953
X6.1713Y-2.8543
X6.1713Y-3.0118
X6.1772Y-3.3417
X6.2106Y-2.9528
X6.2146Y-5.0209
X6.2205Y-2.7953
X6.2299Y-3.3244
X6.2303Y-3.0217
X6.2346Y-4.2673
X6.2591Y-4.2173
X6.2598Y-2.7953
X6.2795Y-2.9626
X6.2894Y-3.0217
X6.2992Y-2.8346
X6.3091Y-2.7953
X6.31Y-5.1165
X6.313Y-4.3339
X6.3189Y-2.9035
X6.335Y-4.3953
X6.3583Y-2.8051
X6.3583Y-2.8642
X6.3583Y-2.9134
X6.3583Y-3.0118
X6.4579Y-4.6886
X6.4606Y-4.2717
X6.4614Y-3.7583
X6.4823Y-5.2051
X6.5957Y-4.5067
X6.6252Y-2.5579
X6.6909Y-3.3906
X6.6925Y-3.1437
X6.6945Y-3.2138
X6.6961Y-3.289
X6.7378Y-3.0799
X6.74Y-3.18
X6.74Y-3.26
X6.74Y-3.36
X6.7429Y-3.4488
X6.7543Y-5.2768
X6.7768Y-3.137
X6.7811Y-3.2197
X6.7913Y-3.0799
X6.8165Y-3.3287
X6.8181Y-3.2728
X6.82Y-3.42
X6.8382Y-4.389
X6.8445Y-3.1949
X6.8579Y-3.0795
X6.8811Y-3.3898
X6.8925Y-3.4378
X6.939Y-4.3917
X6.9571Y-3.0776
X6.9815Y-3.137
X6.9831Y-3.3961
X7.0098Y-3.7205
X7.0323Y-3.4437
X7.0677Y-3.0783
X7.0744Y-3.1697
X7.0854Y-3.3862
X7.12Y-3.44
X7.1209Y-3.1268
X7.1268Y-3.0768
X7.14Y-3.32
X7.1429Y-3.4075
X7.1583Y-3.2543
X7.16Y-3.2
X7.1799Y-3.3776
X7.1894Y-3.0854
X7.2071Y-3.1594
X7.2114Y-3.4083
X7.2122Y-3.3193
X7.2413Y-3.1811
X7.2469Y-3.4469
X7.2689Y-3.0819
X7.2697Y-3.2374
X7.2697Y-3.2941
X7.3008Y-2.8406
X7.4106Y-2.9161
T3
X5.99Y-2.285
X5.99Y-2.435
X6.3738Y-3.2628
X6.5238Y-3.2628
X6.825Y-5.55
X6.9775Y-5.44
X6.9775Y-5.66
X7.125Y-5.55
T4
X2.3622Y-2.35
X2.3622Y-2.65
X2.4622Y-2.35
X2.4622Y-2.65
X2.5787Y-2.9921
X2.7165Y-2.9921
X2.9528Y-2.9134
X2.9528Y-3.0118
X3.2283Y-2.9121
X3.2283Y-2.9909
X3.4854Y-2.5957
X3.4854Y-2.7059
X3.5681Y-2.5957
X3.6705Y-2.5957
X3.7531Y-2.5957
X3.7531Y-2.7059
X4.7244Y-4.9709
X4.8622Y-4.9709
X5.102Y-5.3803
X5.1311Y-5.0736
X5.1311Y-5.172
X5.502Y-5.3803
X5.6217Y-2.3598
X5.6217Y-2.4598
X5.6217Y-2.5598
X6.4862Y-3.9693
X6.5193Y-3.7705
X6.52Y-2.81
X6.52Y-2.91
X6.52Y-3.01
X6.6193Y-3.7705
X6.7067Y-2.9776
X6.7118Y-3.5701
X6.7193Y-3.7705
X6.8067Y-2.9776
X6.8118Y-3.5701
X6.9067Y-2.9776
X6.9118Y-3.5701
X6.9862Y-3.9693
X7.085Y-2.9732
X7.0969Y-3.576
X7.185Y-2.9732
X7.1969Y-3.576
X7.285Y-2.9732
X7.2969Y-3.576
T5
X7.1632Y-4.9955
X7.1632Y-5.0955
T6
X4.3862Y-2.5496
X4.3862Y-2.6283
X4.4846Y-2.5496
X4.4846Y-2.6283
T7
X2.64Y-4.84
X2.74Y-4.84
X2.97Y-4.84
X3.07Y-4.84
X4.3071Y-4.0935
X4.3071Y-4.1935
X4.3071Y-4.2935
X4.4071Y-4.0935
X4.4071Y-4.1935
X4.4071Y-4.2935
X4.422Y-4.7555
X4.522Y-4.7555
X4.5429Y-4.9717
X4.5429Y-5.0717
X4.5817Y-4.1467
X4.6378Y-3.15
X4.64Y-2.94
X4.7378Y-3.15
X4.74Y-2.94
X4.8378Y-3.15
X4.84Y-2.94
X4.9378Y-3.15
X4.94Y-2.94
X5.1535Y-5.6614
X5.2244Y-3.6008
X5.252Y-5.6614
X5.3504Y-5.6614
X5.528Y-3.9697
X5.6878Y-3.9705
X6.15Y-4.85
X6.1504Y-5.65
X6.2291Y-5.3437
X6.25Y-4.85
X6.2504Y-5.65
X6.35Y-4.85
X6.3504Y-5.65
X6.45Y-4.85
X6.4504Y-5.65
X6.6604Y-5.5506
X6.6654Y-4.1827
X6.6654Y-4.2827
X6.6654Y-4.3827
X6.6795Y-4.9996
X6.6795Y-5.0996
X6.7512Y-4.5976
X6.828Y-4.9965
X6.828Y-5.0965
X6.8512Y-4.5976
X6.8516Y-2.7559
X6.9512Y-4.5976
X6.9516Y-2.7559
X7.0827Y-2.3189
X7.3705Y-3.1799
X7.3705Y-3.2799
X7.3705Y-3.3799
T8
X2.5098Y-3.3024
X2.5098Y-3.6024
X3.4222Y-4.7648
X3.4222Y-4.9419
X3.627Y-5.4183
X3.627Y-5.5955
X3.628Y-5.0915
X3.628Y-5.2687
X3.6781Y-4.7648
X3.6781Y-4.9419
X3.8278Y-4.7628
X3.8278Y-4.94
X3.8829Y-5.4183
X3.8829Y-5.5955
X3.8839Y-5.0915
X3.8839Y-5.2687
X4.0167Y-5.253
X4.0167Y-5.4301
X4.0837Y-4.7628
X4.0837Y-4.94
X4.2726Y-5.253
X4.2726Y-5.4301
X5.7791Y-3.5665
X5.7791Y-3.8224
X5.9563Y-3.5665
X5.9563Y-3.8224
X7.0898Y-3.7543
X7.0935Y-3.8915
X7.0935Y-4.1915
X7.0935Y-4.3915
X7.0935Y-4.5915
X7.3898Y-3.7543
X7.3927Y-3.8915
X7.3927Y-4.1915
X7.3927Y-4.3915
X7.3927Y-4.5915
T9
X2.9264Y-3.3555
X3.0264Y-3.3555
X3.1264Y-3.3555
X3.2264Y-3.3555
X3.3264Y-3.3555
X3.4264Y-3.3555
X3.4843Y-2.9528
X3.5264Y-3.3555
X3.5827Y-3.1512
X3.6264Y-3.3555
X3.6811Y-2.9528
X3.7264Y-3.3555
X3.8264Y-3.3555
X3.9264Y-3.3555
X4.0264Y-3.3555
X4.1264Y-3.3555
X4.2264Y-3.3555
X4.3264Y-3.3555
X4.4264Y-3.3555
X5.0551Y-5.5433
X5.252Y-5.5433
X5.4488Y-5.5433
T10
X2.2047Y-3.3465
X2.2047Y-3.5465
X7.2706Y-4.9855
X7.2706Y-5.1855
T11
X4.1984Y-2.4429
X4.6724Y-2.4429
T12
X2.7099Y-3.3555
X2.7099Y-4.576
X5.6626Y-4.576
X5.6626Y-3.3555
T13
X2.126Y-2.4016
X2.126Y-5.5315
X7.3031Y-2.3819
X7.3031Y-5.5512
T2
G00X2.3465Y-5.3281
M15
G01X2.3465Y-5.2986
M16
G05
G00X2.5659Y-5.6244
M15
G01X2.5364Y-5.6244
M16
G05
G00X2.7402Y-5.4659
M15
G01X2.7402Y-5.4364
M16
G05
G00X2.8661Y-5.3222
M15
G01X2.8661Y-5.2927
M16
G05
G00X3.0856Y-5.6185
M15
G01X3.0561Y-5.6185
M16
G05
G00X3.2598Y-5.46
M15
G01X3.2598Y-5.4305
M16
G05
G00X4.5128Y-5.3449
M15
G01X4.5128Y-5.3154
M16
G05
G00X4.7323Y-5.6411
M15
G01X4.7028Y-5.6411
M16
G05
G00X4.9065Y-5.4827
M15
G01X4.9065Y-5.4531
M16
G05
T7
G00X2.1457Y-2.9134
M15
G01X2.1457Y-2.9921
M16
G05
G00X2.2244Y-3.1378
M15
G01X2.3031Y-3.1378
M16
G05
G00X2.3819Y-2.9134
M15
G01X2.3819Y-2.9921
M16
G05
G00X2.4488Y-5.3626
M15
G01X2.4488Y-5.3429
M16
G05
G00X2.7303Y-5.1795
M15
G01X2.7106Y-5.1795
M16
G05
G00X2.9685Y-5.3567
M15
G01X2.9685Y-5.337
M16
G05
G00X3.25Y-5.1736
M15
G01X3.2303Y-5.1736
M16
G05
G00X3.3496Y-2.513
M15
G01X3.3496Y-2.4539
M16
G05
G00X3.6587Y-2.452
M15
G01X3.5799Y-2.452
M16
G05
G00X3.889Y-2.513
M15
G01X3.889Y-2.4539
M16
G05
G00X4.6152Y-5.3793
M15
G01X4.6152Y-5.3596
M16
G05
G00X4.8967Y-5.1963
M15
G01X4.877Y-5.1963
M16
G05
T0
M30
