M48
; DRILL file {KiCad (6.0.11)} date Thu Jun 15 21:51:14 2023
; FORMAT={-:-/ absolute / inch / decimal}
; #@! TF.CreationDate,2023-06-15T21:51:14-05:00
; #@! TF.GenerationSoftware,Kicad,Pcbnew,(6.0.11)
; #@! TF.FileFunction,Plated,1,2,PTH
FMAT,2
INCH
; #@! TA.AperFunction,Plated,PTH,ViaDrill
T1C0.0157
; #@! TA.AperFunction,Plated,PTH,ComponentDrill
T2C0.0295
; #@! TA.AperFunction,Plated,PTH,ComponentDrill
T3C0.0300
; #@! TA.AperFunction,Plated,PTH,ComponentDrill
T4C0.0315
; #@! TA.AperFunction,Plated,PTH,ComponentDrill
T5C0.0354
; #@! TA.AperFunction,Plated,PTH,ComponentDrill
T6C0.0362
; #@! TA.AperFunction,Plated,PTH,ComponentDrill
T7C0.0394
; #@! TA.AperFunction,Plated,PTH,ComponentDrill
T8C0.0433
; #@! TA.AperFunction,Plated,PTH,ComponentDrill
T9C0.0472
; #@! TA.AperFunction,Plated,PTH,ComponentDrill
T10C0.0598
; #@! TA.AperFunction,Plated,PTH,ComponentDrill
T11C0.0917
; #@! TA.AperFunction,Plated,PTH,ComponentDrill
T12C0.0984
; #@! TA.AperFunction,Plated,PTH,ComponentDrill
T13C0.1200
%
G90
G05
T1
X2.3283Y-5.5319
X2.3823Y-5.0834
X2.4476Y-5.2854
X2.5394Y-2.4016
X2.6563Y-5.0638
X2.6969Y-2.5402
X2.7362Y-2.7953
X2.8543Y-2.4016
X2.8543Y-2.815
X2.9713Y-2.8146
X3.1803Y-3.9354
X3.2191Y-2.4309
X3.2209Y-2.3909
X3.3382Y-2.3571
X3.4118Y-4.7772
X3.5035Y-3.9563
X3.5039Y-4.3307
X3.5071Y-2.3291
X3.5433Y-4.252
X3.5945Y-3.9701
X3.6299Y-5.0492
X3.6301Y-5.323
X3.6874Y-3.8748
X3.7598Y-4.7096
X3.7667Y-4.8809
X3.7904Y-5.1407
X3.7913Y-5.0512
X3.824Y-2.3276
X3.8287Y-4.7333
X3.8543Y-4.8681
X3.9409Y-5.0581
X3.9449Y-5.187
X4.0039Y-4.8071
X4.0049Y-4.9183
X4.0327Y-2.3772
X4.2677Y-3.5059
X4.2874Y-3.5591
X4.3297Y-3.6093
X4.3307Y-3.5384
X4.374Y-3.6014
X4.3819Y-5.0622
X4.4764Y-4.2461
X4.4886Y-5.0039
X4.4921Y-3.6939
X4.5108Y-3.626
X4.5226Y-3.6703
X4.5366Y-4.8106
X4.5561Y-4.2421
X4.6437Y-3.7224
X4.6772Y-4.1476
X4.6988Y-4.3382
X4.724Y-4.474
X4.7244Y-3.3669
X4.726Y-2.5366
X4.7461Y-3.8474
X4.7549Y-4.0158
X4.7736Y-3.9409
X4.7815Y-4.0404
X4.8041Y-3.9656
X4.81Y-3.8474
X4.813Y-3.6545
X4.8228Y-3.9134
X4.8356Y-3.9941
X4.887Y-4.1291
X4.9232Y-3.6083
X4.94Y-3.3071
X4.9965Y-4.5528
X5.0122Y-3.574
X5.0207Y-3.8927
X5.028Y-3.7539
X5.0404Y-4.5463
X5.0443Y-4.0746
X5.0768Y-3.8878
X5.1025Y-4.0618
X5.1031Y-2.6437
X5.1102Y-3.8937
X5.1299Y-2.9508
X5.1309Y-3.9488
X5.1417Y-4.5402
X5.1437Y-4.0039
X5.1713Y-4.0514
X5.1736Y-4.2201
X5.1854Y-2.6028
X5.1909Y-3.9144
X5.2063Y-4.3937
X5.2634Y-2.6445
X5.2677Y-4.1555
X5.2772Y-4.4053
X5.3054Y-4.4657
X5.3159Y-2.9469
X5.3553Y-4.0866
X5.3626Y-3.8976
X5.3671Y-3.5906
X5.3673Y-3.6642
X5.3683Y-3.7626
X5.3691Y-3.5325
X5.3711Y-4.0433
X5.3848Y-3.8189
X5.3858Y-3.8602
X5.4067Y-4.9
X5.4232Y-4.0295
X5.435Y-4.3465
X5.4478Y-3.5325
X5.4567Y-3.5994
X5.4911Y-3.7244
X5.5677Y-4.8343
X5.5758Y-4.2116
X5.6368Y-4.1358
X5.648Y-2.8575
X5.7551Y-3.1169
X5.7685Y-5.0165
X5.8075Y-5.0996
X5.8248Y-2.4528
X5.8433Y-4.5591
X5.8481Y-2.98
X5.8772Y-3.1441
X5.8902Y-4.9362
X5.9055Y-4.5858
X5.9878Y-4.3016
X5.9878Y-4.6227
X5.9886Y-4.7228
X5.9941Y-2.728
X6.0087Y-5.2567
X6.03Y-4.73
X6.0823Y-4.5118
X6.1252Y-5.2071
X6.1303Y-4.215
X6.1331Y-4.928
X6.1339Y-4.1776
X6.152Y-5.4193
X6.1614Y-2.9331
X6.1713Y-2.7953
X6.1713Y-2.8543
X6.1713Y-3.0118
X6.1772Y-3.3417
X6.2106Y-2.9528
X6.2205Y-2.7953
X6.2284Y-4.2813
X6.2299Y-3.3244
X6.2303Y-3.0217
X6.2598Y-2.7953
X6.2795Y-2.9626
X6.2815Y-4.2756
X6.287Y-3.8319
X6.2894Y-3.0217
X6.2992Y-2.8346
X6.3091Y-2.7953
X6.3189Y-2.9035
X6.3583Y-2.8051
X6.3583Y-2.8642
X6.3583Y-2.9134
X6.3583Y-3.0118
X6.4071Y-4.028
X6.4374Y-4.2571
X6.448Y-4.9744
X6.4933Y-4.6693
X6.4992Y-2.5343
X6.6185Y-4.6783
X6.6909Y-3.3906
X6.6925Y-3.1437
X6.6945Y-3.2138
X6.6961Y-3.289
X6.7378Y-3.0799
X6.74Y-3.18
X6.74Y-3.26
X6.74Y-3.36
X6.7429Y-3.4488
X6.7543Y-5.2768
X6.7768Y-3.137
X6.7811Y-3.2197
X6.7913Y-3.0799
X6.8031Y-4.3965
X6.8165Y-3.3287
X6.8181Y-3.2728
X6.82Y-3.42
X6.8445Y-3.1949
X6.8579Y-3.0795
X6.8811Y-3.3898
X6.8925Y-3.4378
X6.9295Y-4.3929
X6.9571Y-3.0776
X6.9815Y-3.137
X6.9831Y-3.3961
X7.0323Y-3.4437
X7.0677Y-3.0783
X7.0744Y-3.1697
X7.0854Y-3.3862
X7.12Y-3.44
X7.1209Y-3.1268
X7.1268Y-3.0768
X7.14Y-3.32
X7.1429Y-3.4075
X7.1583Y-3.2543
X7.16Y-3.2
X7.1799Y-3.3776
X7.1894Y-3.0854
X7.2071Y-3.1594
X7.2114Y-3.4083
X7.2122Y-3.3193
X7.2413Y-3.1811
X7.2469Y-3.4469
X7.2689Y-3.0819
X7.2697Y-3.2374
X7.2697Y-3.2941
X7.3008Y-2.8406
X7.4106Y-2.9161
T3
X5.99Y-2.285
X5.99Y-2.435
X6.3738Y-3.2628
X6.5238Y-3.2628
X6.775Y-5.55
X6.9275Y-5.44
X6.9275Y-5.66
X7.075Y-5.55
T4
X2.3622Y-2.35
X2.3622Y-2.65
X2.4622Y-2.35
X2.4622Y-2.65
X2.5787Y-2.9921
X2.7165Y-2.9921
X2.9528Y-2.9134
X2.9528Y-3.0118
X3.2283Y-2.9121
X3.2283Y-2.9909
X3.5413Y-2.574
X3.5413Y-2.6843
X3.624Y-2.574
X3.7264Y-2.574
X3.8091Y-2.574
X3.8091Y-2.6843
X4.9596Y-4.9567
X5.0974Y-4.9567
X5.3681Y-5.0453
X5.3681Y-5.1437
X5.3697Y-5.3504
X5.6217Y-2.3598
X5.6217Y-2.4598
X5.6217Y-2.5598
X5.7697Y-5.3504
X6.3974Y-3.75
X6.4715Y-3.9803
X6.4974Y-3.75
X6.52Y-2.81
X6.52Y-2.91
X6.52Y-3.01
X6.5974Y-3.75
X6.7067Y-2.9776
X6.7118Y-3.5701
X6.8067Y-2.9776
X6.8118Y-3.5701
X6.9067Y-2.9776
X6.9118Y-3.5701
X6.9715Y-3.9803
X7.085Y-2.9732
X7.0969Y-3.576
X7.185Y-2.9732
X7.1969Y-3.576
X7.285Y-2.9732
X7.2969Y-3.576
T5
X7.1632Y-4.9955
X7.1632Y-5.0955
T6
X4.3453Y-2.5513
X4.3453Y-2.63
X4.4437Y-2.5513
X4.4437Y-2.63
T7
X2.64Y-4.84
X2.74Y-4.84
X2.97Y-4.84
X3.07Y-4.84
X4.3071Y-4.0935
X4.3071Y-4.1935
X4.3071Y-4.2935
X4.4071Y-4.0935
X4.4071Y-4.1935
X4.4071Y-4.2935
X4.5817Y-4.1467
X4.6378Y-3.15
X4.64Y-2.94
X4.7378Y-3.15
X4.74Y-2.94
X4.7805Y-4.9612
X4.7805Y-5.0612
X4.8378Y-3.15
X4.84Y-2.94
X4.9378Y-3.15
X4.94Y-2.94
X5.3415Y-5.6299
X5.44Y-5.6299
X5.528Y-3.9697
X5.5384Y-5.6299
X5.6878Y-3.9705
X5.93Y-5.61
X6.2Y-4.75
X6.2Y-5.55
X6.2264Y-5.2343
X6.3Y-4.75
X6.3Y-5.55
X6.4Y-4.75
X6.4Y-5.55
X6.5Y-4.75
X6.5Y-5.55
X6.6461Y-4.1799
X6.6461Y-4.2799
X6.6461Y-4.3799
X6.6795Y-4.9996
X6.6795Y-5.0996
X6.7512Y-4.5976
X6.828Y-4.9965
X6.828Y-5.0965
X6.8512Y-4.5976
X6.8516Y-2.7559
X6.9512Y-4.5976
X6.9516Y-2.7559
X7.0827Y-2.3189
X7.3705Y-3.1799
X7.3705Y-3.2799
X7.3705Y-3.3799
T8
X2.5098Y-3.3024
X2.5098Y-3.6024
X3.682Y-4.7714
X3.682Y-4.9486
X3.8691Y-5.0994
X3.8691Y-5.2766
X3.87Y-5.4214
X3.87Y-5.5986
X3.938Y-4.7714
X3.938Y-4.9486
X4.072Y-4.77
X4.072Y-4.9472
X4.125Y-5.0994
X4.125Y-5.2766
X4.1259Y-5.4214
X4.1259Y-5.5986
X4.29Y-5.24
X4.29Y-5.4172
X4.328Y-4.77
X4.328Y-4.9472
X4.5459Y-5.24
X4.5459Y-5.4172
X5.8914Y-3.762
X5.8914Y-4.018
X6.0686Y-3.762
X6.0686Y-4.018
X7.0575Y-3.7531
X7.0935Y-3.8915
X7.0935Y-4.1915
X7.0935Y-4.3915
X7.0935Y-4.5915
X7.3575Y-3.7531
X7.3927Y-3.8915
X7.3927Y-4.1915
X7.3927Y-4.3915
X7.3927Y-4.5915
T9
X2.9291Y-3.3698
X3.0291Y-3.3698
X3.1291Y-3.3698
X3.2291Y-3.3698
X3.3291Y-3.3698
X3.4291Y-3.3698
X3.4843Y-2.9528
X3.5291Y-3.3698
X3.5827Y-3.1512
X3.6291Y-3.3698
X3.6811Y-2.9528
X3.7291Y-3.3698
X3.8291Y-3.3698
X3.9291Y-3.3698
X4.0291Y-3.3698
X4.1291Y-3.3698
X4.2291Y-3.3698
X4.3291Y-3.3698
X4.4291Y-3.3698
X5.2431Y-5.5118
X5.44Y-5.5118
X5.6368Y-5.5118
T10
X2.2047Y-3.3465
X2.2047Y-3.5465
X7.2706Y-4.9855
X7.2706Y-5.1855
T11
X4.1575Y-2.4446
X4.6315Y-2.4446
T12
X2.7126Y-3.3698
X2.7126Y-4.5903
X5.6653Y-4.5903
X5.6654Y-3.3698
T13
X2.126Y-2.4016
X2.126Y-5.5315
X7.3031Y-2.3819
X7.3031Y-5.5512
T2
G00X2.5433Y-5.3297
M15
G01X2.5433Y-5.3002
M16
G05
G00X2.7628Y-5.626
M15
G01X2.7333Y-5.626
M16
G05
G00X2.937Y-5.4675
M15
G01X2.937Y-5.438
M16
G05
G00X3.0778Y-5.3297
M15
G01X3.0778Y-5.3002
M16
G05
G00X3.2972Y-5.626
M15
G01X3.2677Y-5.626
M16
G05
G00X3.4715Y-5.4675
M15
G01X3.4715Y-5.438
M16
G05
G00X4.7353Y-5.3355
M15
G01X4.7353Y-5.3059
M16
G05
G00X4.9548Y-5.6317
M15
G01X4.9252Y-5.6317
M16
G05
G00X5.129Y-5.4733
M15
G01X5.129Y-5.4437
M16
G05
T7
G00X2.1457Y-2.9134
M15
G01X2.1457Y-2.9921
M16
G05
G00X2.2244Y-3.1378
M15
G01X2.3031Y-3.1378
M16
G05
G00X2.3819Y-2.9134
M15
G01X2.3819Y-2.9921
M16
G05
G00X2.6457Y-5.3642
M15
G01X2.6457Y-5.3445
M16
G05
G00X2.9272Y-5.1811
M15
G01X2.9075Y-5.1811
M16
G05
G00X3.1801Y-5.3642
M15
G01X3.1801Y-5.3445
M16
G05
G00X3.4055Y-2.4913
M15
G01X3.4055Y-2.4323
M16
G05
G00X3.4616Y-5.1811
M15
G01X3.4419Y-5.1811
M16
G05
G00X3.7146Y-2.4303
M15
G01X3.6358Y-2.4303
M16
G05
G00X3.9449Y-2.4913
M15
G01X3.9449Y-2.4323
M16
G05
G00X4.8376Y-5.3699
M15
G01X4.8376Y-5.3502
M16
G05
G00X5.1191Y-5.1869
M15
G01X5.0994Y-5.1869
M16
G05
T0
M30
