%TF.GenerationSoftware,KiCad,Pcbnew,(6.0.11)*%
%TF.CreationDate,2023-06-15T21:51:14-05:00*%
%TF.ProjectId,LittleDX,4c697474-6c65-4445-982e-6b696361645f,rev?*%
%TF.SameCoordinates,Original*%
%TF.FileFunction,Soldermask,Top*%
%TF.FilePolarity,Negative*%
%FSLAX46Y46*%
G04 Gerber Fmt 4.6, Leading zero omitted, Abs format (unit mm)*
G04 Created by KiCad (PCBNEW (6.0.11)) date 2023-06-15 21:51:14*
%MOMM*%
%LPD*%
G01*
G04 APERTURE LIST*
G04 Aperture macros list*
%AMRoundRect*
0 Rectangle with rounded corners*
0 $1 Rounding radius*
0 $2 $3 $4 $5 $6 $7 $8 $9 X,Y pos of 4 corners*
0 Add a 4 corners polygon primitive as box body*
4,1,4,$2,$3,$4,$5,$6,$7,$8,$9,$2,$3,0*
0 Add four circle primitives for the rounded corners*
1,1,$1+$1,$2,$3*
1,1,$1+$1,$4,$5*
1,1,$1+$1,$6,$7*
1,1,$1+$1,$8,$9*
0 Add four rect primitives between the rounded corners*
20,1,$1+$1,$2,$3,$4,$5,0*
20,1,$1+$1,$4,$5,$6,$7,0*
20,1,$1+$1,$6,$7,$8,$9,0*
20,1,$1+$1,$8,$9,$2,$3,0*%
G04 Aperture macros list end*
%ADD10RoundRect,0.450000X0.337500X0.475000X-0.337500X0.475000X-0.337500X-0.475000X0.337500X-0.475000X0*%
%ADD11RoundRect,0.450000X0.475000X-0.337500X0.475000X0.337500X-0.475000X0.337500X-0.475000X-0.337500X0*%
%ADD12RoundRect,0.450000X-0.337500X-0.475000X0.337500X-0.475000X0.337500X0.475000X-0.337500X0.475000X0*%
%ADD13RoundRect,0.200000X-0.800000X0.800000X-0.800000X-0.800000X0.800000X-0.800000X0.800000X0.800000X0*%
%ADD14C,2.000000*%
%ADD15RoundRect,0.450000X-0.475000X0.337500X-0.475000X-0.337500X0.475000X-0.337500X0.475000X0.337500X0*%
%ADD16RoundRect,0.200000X-1.100000X1.100000X-1.100000X-1.100000X1.100000X-1.100000X1.100000X1.100000X0*%
%ADD17O,2.600000X2.600000*%
%ADD18RoundRect,0.450000X-0.450000X0.325000X-0.450000X-0.325000X0.450000X-0.325000X0.450000X0.325000X0*%
%ADD19RoundRect,0.450000X0.450000X-0.325000X0.450000X0.325000X-0.450000X0.325000X-0.450000X-0.325000X0*%
%ADD20RoundRect,0.200000X-1.750000X-0.900000X1.750000X-0.900000X1.750000X0.900000X-1.750000X0.900000X0*%
%ADD21RoundRect,0.200000X0.900000X-1.750000X0.900000X1.750000X-0.900000X1.750000X-0.900000X-1.750000X0*%
%ADD22RoundRect,0.200000X-1.500000X1.500000X-1.500000X-1.500000X1.500000X-1.500000X1.500000X1.500000X0*%
%ADD23C,3.400000*%
%ADD24RoundRect,0.200000X-1.750000X-1.750000X1.750000X-1.750000X1.750000X1.750000X-1.750000X1.750000X0*%
%ADD25RoundRect,0.200000X-1.750000X-1.000000X1.750000X-1.000000X1.750000X1.000000X-1.750000X1.000000X0*%
%ADD26RoundRect,0.200000X-0.850000X-0.850000X0.850000X-0.850000X0.850000X0.850000X-0.850000X0.850000X0*%
%ADD27O,2.100000X2.100000*%
%ADD28RoundRect,0.450000X-0.325000X-0.450000X0.325000X-0.450000X0.325000X0.450000X-0.325000X0.450000X0*%
%ADD29RoundRect,0.200000X0.760000X-0.760000X0.760000X0.760000X-0.760000X0.760000X-0.760000X-0.760000X0*%
%ADD30C,1.920000*%
%ADD31RoundRect,0.350000X-0.587500X-0.150000X0.587500X-0.150000X0.587500X0.150000X-0.587500X0.150000X0*%
%ADD32C,2.400000*%
%ADD33RoundRect,0.200000X0.600000X-1.100000X0.600000X1.100000X-0.600000X1.100000X-0.600000X-1.100000X0*%
%ADD34RoundRect,0.200000X2.900000X-3.200000X2.900000X3.200000X-2.900000X3.200000X-2.900000X-3.200000X0*%
%ADD35RoundRect,0.200000X1.000000X1.200000X-1.000000X1.200000X-1.000000X-1.200000X1.000000X-1.200000X0*%
%ADD36RoundRect,0.200000X-0.500000X-0.900000X0.500000X-0.900000X0.500000X0.900000X-0.500000X0.900000X0*%
%ADD37RoundRect,0.275000X0.075000X-0.662500X0.075000X0.662500X-0.075000X0.662500X-0.075000X-0.662500X0*%
%ADD38RoundRect,0.275000X0.662500X-0.075000X0.662500X0.075000X-0.662500X0.075000X-0.662500X-0.075000X0*%
%ADD39RoundRect,0.350000X0.675000X0.150000X-0.675000X0.150000X-0.675000X-0.150000X0.675000X-0.150000X0*%
%ADD40RoundRect,0.200000X-0.750000X1.000000X-0.750000X-1.000000X0.750000X-1.000000X0.750000X1.000000X0*%
%ADD41RoundRect,0.200000X-1.900000X1.000000X-1.900000X-1.000000X1.900000X-1.000000X1.900000X1.000000X0*%
%ADD42RoundRect,0.200000X-0.760000X0.760000X-0.760000X-0.760000X0.760000X-0.760000X0.760000X0.760000X0*%
%ADD43C,2.900000*%
%ADD44RoundRect,0.200000X0.850000X0.850000X-0.850000X0.850000X-0.850000X-0.850000X0.850000X-0.850000X0*%
%ADD45RoundRect,0.450000X-0.450000X0.350000X-0.450000X-0.350000X0.450000X-0.350000X0.450000X0.350000X0*%
%ADD46RoundRect,0.450000X0.450000X-0.350000X0.450000X0.350000X-0.450000X0.350000X-0.450000X-0.350000X0*%
%ADD47RoundRect,0.450000X0.350000X0.450000X-0.350000X0.450000X-0.350000X-0.450000X0.350000X-0.450000X0*%
%ADD48RoundRect,0.450000X-0.350000X-0.450000X0.350000X-0.450000X0.350000X0.450000X-0.350000X0.450000X0*%
%ADD49RoundRect,0.200000X-0.700000X-0.150000X0.700000X-0.150000X0.700000X0.150000X-0.700000X0.150000X0*%
%ADD50RoundRect,0.200000X-1.050000X-0.900000X1.050000X-0.900000X1.050000X0.900000X-1.050000X0.900000X0*%
%ADD51C,2.500000*%
%ADD52C,1.900000*%
%ADD53RoundRect,0.200000X1.500000X-1.500000X1.500000X1.500000X-1.500000X1.500000X-1.500000X-1.500000X0*%
%ADD54C,2.200000*%
%ADD55RoundRect,0.200000X-0.600000X0.450000X-0.600000X-0.450000X0.600000X-0.450000X0.600000X0.450000X0*%
%ADD56RoundRect,0.200000X-0.750000X0.750000X-0.750000X-0.750000X0.750000X-0.750000X0.750000X0.750000X0*%
%ADD57RoundRect,0.200000X0.850000X-0.850000X0.850000X0.850000X-0.850000X0.850000X-0.850000X-0.850000X0*%
%ADD58C,1.924000*%
%ADD59RoundRect,0.200000X-0.850000X0.850000X-0.850000X-0.850000X0.850000X-0.850000X0.850000X0.850000X0*%
%ADD60RoundRect,0.350000X0.150000X-0.587500X0.150000X0.587500X-0.150000X0.587500X-0.150000X-0.587500X0*%
%ADD61RoundRect,0.200000X0.800000X0.800000X-0.800000X0.800000X-0.800000X-0.800000X0.800000X-0.800000X0*%
%ADD62O,2.400000X3.900000*%
%ADD63O,4.400000X2.400000*%
%ADD64C,3.448000*%
%ADD65C,1.840000*%
%ADD66C,5.400000*%
%ADD67RoundRect,0.200000X1.100000X1.100000X-1.100000X1.100000X-1.100000X-1.100000X1.100000X-1.100000X0*%
%ADD68O,2.000000X2.000000*%
%ADD69RoundRect,0.200000X-0.800000X-0.800000X0.800000X-0.800000X0.800000X0.800000X-0.800000X0.800000X0*%
%ADD70RoundRect,0.200000X-0.900000X0.900000X-0.900000X-0.900000X0.900000X-0.900000X0.900000X0.900000X0*%
%ADD71O,2.200000X2.200000*%
%ADD72RoundRect,0.200000X-0.450000X-0.600000X0.450000X-0.600000X0.450000X0.600000X-0.450000X0.600000X0*%
%ADD73RoundRect,0.200000X-0.900000X1.750000X-0.900000X-1.750000X0.900000X-1.750000X0.900000X1.750000X0*%
%ADD74O,2.400000X1.400000*%
%ADD75O,1.400000X2.400000*%
%ADD76O,1.900000X2.400000*%
%ADD77O,2.400000X1.900000*%
%ADD78RoundRect,0.200000X0.600000X-0.450000X0.600000X0.450000X-0.600000X0.450000X-0.600000X-0.450000X0*%
%ADD79RoundRect,0.350000X-0.150000X0.675000X-0.150000X-0.675000X0.150000X-0.675000X0.150000X0.675000X0*%
%ADD80RoundRect,0.450000X0.325000X0.450000X-0.325000X0.450000X-0.325000X-0.450000X0.325000X-0.450000X0*%
%ADD81RoundRect,0.200000X0.600000X0.200000X-0.600000X0.200000X-0.600000X-0.200000X0.600000X-0.200000X0*%
%ADD82RoundRect,0.200000X-0.750000X-1.300000X0.750000X-1.300000X0.750000X1.300000X-0.750000X1.300000X0*%
%ADD83O,1.900000X3.000000*%
%ADD84O,2.200000X3.000000*%
%ADD85C,3.600000*%
%ADD86C,2.100000*%
%ADD87C,3.900000*%
%ADD88C,1.400000*%
%ADD89RoundRect,0.200000X0.600000X1.100000X-0.600000X1.100000X-0.600000X-1.100000X0.600000X-1.100000X0*%
%ADD90RoundRect,0.200000X-0.800000X-0.700000X0.800000X-0.700000X0.800000X0.700000X-0.800000X0.700000X0*%
%ADD91RoundRect,0.200000X-0.350000X-0.800000X0.350000X-0.800000X0.350000X0.800000X-0.350000X0.800000X0*%
%ADD92RoundRect,0.200000X-0.600000X-0.700000X0.600000X-0.700000X0.600000X0.700000X-0.600000X0.700000X0*%
G04 APERTURE END LIST*
D10*
%TO.C,C1*%
X133625500Y-114046000D03*
X131550500Y-114046000D03*
%TD*%
D11*
%TO.C,C2*%
X125476000Y-116727500D03*
X125476000Y-114652500D03*
%TD*%
%TO.C,C4*%
X129300000Y-116747500D03*
X129300000Y-114672500D03*
%TD*%
D12*
%TO.C,C5*%
X120187500Y-111100000D03*
X122262500Y-111100000D03*
%TD*%
D13*
%TO.C,C6*%
X75000000Y-74000000D03*
D14*
X75000000Y-76500000D03*
%TD*%
D12*
%TO.C,C8*%
X121062500Y-113250000D03*
X123137500Y-113250000D03*
%TD*%
D15*
%TO.C,C9*%
X132550000Y-108587500D03*
X132550000Y-110662500D03*
%TD*%
D12*
%TO.C,C10*%
X87862500Y-120904000D03*
X89937500Y-120904000D03*
%TD*%
%TO.C,C11*%
X93212500Y-136600000D03*
X95287500Y-136600000D03*
%TD*%
%TO.C,C12*%
X119887500Y-105575000D03*
X121962500Y-105575000D03*
%TD*%
D15*
%TO.C,C13*%
X127110000Y-91832500D03*
X127110000Y-93907500D03*
%TD*%
D10*
%TO.C,C15*%
X150562500Y-129725000D03*
X148487500Y-129725000D03*
%TD*%
D12*
%TO.C,C16*%
X92434500Y-129540000D03*
X94509500Y-129540000D03*
%TD*%
D10*
%TO.C,C17*%
X114808000Y-120904000D03*
X112733000Y-120904000D03*
%TD*%
D13*
%TO.C,C19*%
X136350000Y-128150000D03*
D14*
X136350000Y-130650000D03*
%TD*%
D11*
%TO.C,C20*%
X159500000Y-96037500D03*
X159500000Y-93962500D03*
%TD*%
D15*
%TO.C,C21*%
X135575000Y-94312500D03*
X135575000Y-96387500D03*
%TD*%
D13*
%TO.C,C22*%
X82000000Y-73968208D03*
D14*
X82000000Y-75968208D03*
%TD*%
D10*
%TO.C,C25*%
X153362500Y-110275000D03*
X151287500Y-110275000D03*
%TD*%
D11*
%TO.C,C33*%
X165450000Y-107587500D03*
X165450000Y-105512500D03*
%TD*%
D10*
%TO.C,C34*%
X163135000Y-135440000D03*
X161060000Y-135440000D03*
%TD*%
D15*
%TO.C,C35*%
X165450000Y-110337500D03*
X165450000Y-112412500D03*
%TD*%
D16*
%TO.C,D1*%
X63750000Y-83880000D03*
D17*
X63750000Y-91500000D03*
%TD*%
D18*
%TO.C,D2*%
X121500000Y-120100000D03*
X121500000Y-122150000D03*
%TD*%
D19*
%TO.C,D3*%
X112575000Y-126900000D03*
X112575000Y-124850000D03*
%TD*%
D20*
%TO.C,D4*%
X74000000Y-80000000D03*
X79000000Y-80000000D03*
%TD*%
D21*
%TO.C,D5*%
X108458000Y-77684000D03*
X108458000Y-72684000D03*
%TD*%
D22*
%TO.C,J1*%
X56000000Y-85000000D03*
D23*
X56000000Y-90080000D03*
%TD*%
D24*
%TO.C,J2*%
X60500000Y-75000000D03*
X54500000Y-75000000D03*
D25*
X57500000Y-79700000D03*
%TD*%
D26*
%TO.C,J5*%
X109400000Y-103975000D03*
D27*
X111940000Y-103975000D03*
X109400000Y-106515000D03*
X111940000Y-106515000D03*
X109400000Y-109055000D03*
X111940000Y-109055000D03*
%TD*%
D28*
%TO.C,L1*%
X119975000Y-107500000D03*
X122025000Y-107500000D03*
%TD*%
D19*
%TO.C,L2*%
X150780000Y-114885000D03*
X150780000Y-112835000D03*
%TD*%
D18*
%TO.C,L3*%
X167700000Y-115575000D03*
X167700000Y-117625000D03*
%TD*%
D19*
%TO.C,L9*%
X141320000Y-71175000D03*
X141320000Y-69125000D03*
%TD*%
D29*
%TO.C,Q3*%
X170350000Y-75630000D03*
D30*
X172890000Y-75630000D03*
X175430000Y-75630000D03*
%TD*%
D31*
%TO.C,Q4*%
X156792500Y-123990000D03*
X156792500Y-125890000D03*
X158667500Y-124940000D03*
%TD*%
D32*
%TO.C,SW1*%
X154142000Y-102056000D03*
X154142000Y-95556000D03*
X149642000Y-102056000D03*
X149642000Y-95556000D03*
%TD*%
%TO.C,SW2*%
X100024000Y-121194000D03*
X93524000Y-121194000D03*
X100024000Y-125694000D03*
X93524000Y-125694000D03*
%TD*%
%TO.C,SW3*%
X104775000Y-129525000D03*
X98275000Y-129525000D03*
X98275000Y-134025000D03*
X104775000Y-134025000D03*
%TD*%
%TO.C,SW4*%
X103430000Y-121158000D03*
X109930000Y-121158000D03*
X109930000Y-125658000D03*
X103430000Y-125658000D03*
%TD*%
%TO.C,SW5*%
X104798000Y-137704000D03*
X98298000Y-137704000D03*
X104798000Y-142204000D03*
X98298000Y-142204000D03*
%TD*%
D33*
%TO.C,U2*%
X66245000Y-66975000D03*
D34*
X68525000Y-60675000D03*
D33*
X70805000Y-66975000D03*
%TD*%
D35*
%TO.C,Y1*%
X129340000Y-111560000D03*
X125640000Y-111560000D03*
%TD*%
D36*
%TO.C,Y2*%
X126860000Y-108440000D03*
X124360000Y-108440000D03*
%TD*%
D37*
%TO.C,U1*%
X127552000Y-105254500D03*
X128052000Y-105254500D03*
X128552000Y-105254500D03*
X129052000Y-105254500D03*
X129552000Y-105254500D03*
X130052000Y-105254500D03*
X130552000Y-105254500D03*
X131052000Y-105254500D03*
X131552000Y-105254500D03*
X132052000Y-105254500D03*
X132552000Y-105254500D03*
X133052000Y-105254500D03*
D38*
X134464500Y-103842000D03*
X134464500Y-103342000D03*
X134464500Y-102842000D03*
X134464500Y-102342000D03*
X134464500Y-101842000D03*
X134464500Y-101342000D03*
X134464500Y-100842000D03*
X134464500Y-100342000D03*
X134464500Y-99842000D03*
X134464500Y-99342000D03*
X134464500Y-98842000D03*
X134464500Y-98342000D03*
D37*
X133052000Y-96929500D03*
X132552000Y-96929500D03*
X132052000Y-96929500D03*
X131552000Y-96929500D03*
X131052000Y-96929500D03*
X130552000Y-96929500D03*
X130052000Y-96929500D03*
X129552000Y-96929500D03*
X129052000Y-96929500D03*
X128552000Y-96929500D03*
X128052000Y-96929500D03*
X127552000Y-96929500D03*
D38*
X126139500Y-98342000D03*
X126139500Y-98842000D03*
X126139500Y-99342000D03*
X126139500Y-99842000D03*
X126139500Y-100342000D03*
X126139500Y-100842000D03*
X126139500Y-101342000D03*
X126139500Y-101842000D03*
X126139500Y-102342000D03*
X126139500Y-102842000D03*
X126139500Y-103342000D03*
X126139500Y-103842000D03*
%TD*%
D26*
%TO.C,J9*%
X116375000Y-105325000D03*
%TD*%
D11*
%TO.C,C37*%
X145075000Y-129337500D03*
X145075000Y-127262500D03*
%TD*%
D39*
%TO.C,U3*%
X154205000Y-136415000D03*
X154205000Y-135145000D03*
X154205000Y-133875000D03*
X154205000Y-132605000D03*
X148955000Y-132605000D03*
X148955000Y-133875000D03*
X148955000Y-135145000D03*
X148955000Y-136415000D03*
%TD*%
D40*
%TO.C,U4*%
X79680000Y-61020000D03*
X77380000Y-61020000D03*
D41*
X77380000Y-67320000D03*
D40*
X75080000Y-61020000D03*
%TD*%
D42*
%TO.C,Q5*%
X185340000Y-90830000D03*
D30*
X182800000Y-90830000D03*
X180260000Y-90830000D03*
%TD*%
D42*
%TO.C,Q6*%
X175560000Y-90680000D03*
D30*
X173020000Y-90680000D03*
X170480000Y-90680000D03*
%TD*%
D29*
%TO.C,Q7*%
X179960000Y-75520000D03*
D30*
X182500000Y-75520000D03*
X185040000Y-75520000D03*
%TD*%
D12*
%TO.C,C14*%
X172162500Y-64800000D03*
X174237500Y-64800000D03*
%TD*%
D43*
%TO.C,RV3*%
X93500000Y-75000000D03*
X91000000Y-80040000D03*
X88500000Y-75000000D03*
%TD*%
D10*
%TO.C,C42*%
X78727500Y-71140000D03*
X76652500Y-71140000D03*
%TD*%
D44*
%TO.C,JP3*%
X168810000Y-111250000D03*
D27*
X168810000Y-108710000D03*
X168810000Y-106170000D03*
%TD*%
D45*
%TO.C,R1*%
X118025000Y-108950000D03*
X118025000Y-110950000D03*
%TD*%
D46*
%TO.C,R2*%
X111590000Y-81000000D03*
X111590000Y-79000000D03*
%TD*%
%TO.C,R3*%
X102700000Y-97550000D03*
X102700000Y-95550000D03*
%TD*%
D45*
%TO.C,R4*%
X115975000Y-124850000D03*
X115975000Y-126850000D03*
%TD*%
D47*
%TO.C,R6*%
X84820000Y-120904000D03*
X82820000Y-120904000D03*
%TD*%
%TO.C,R7*%
X121396000Y-70104000D03*
X119396000Y-70104000D03*
%TD*%
D48*
%TO.C,R8*%
X172200000Y-62500000D03*
X174200000Y-62500000D03*
%TD*%
D46*
%TO.C,R9*%
X114554000Y-71866000D03*
X114554000Y-69866000D03*
%TD*%
D48*
%TO.C,R11*%
X143780000Y-132588000D03*
X145780000Y-132588000D03*
%TD*%
D46*
%TO.C,R12*%
X90424000Y-127492000D03*
X90424000Y-125492000D03*
%TD*%
D48*
%TO.C,R13*%
X116700000Y-120925000D03*
X118700000Y-120925000D03*
%TD*%
D45*
%TO.C,R14*%
X154178000Y-68850000D03*
X154178000Y-70850000D03*
%TD*%
%TO.C,R15*%
X111760000Y-69866000D03*
X111760000Y-71866000D03*
%TD*%
D46*
%TO.C,R16*%
X149075000Y-110650000D03*
X149075000Y-108650000D03*
%TD*%
%TO.C,R17*%
X158242000Y-101076000D03*
X158242000Y-99076000D03*
%TD*%
%TO.C,R18*%
X137750000Y-85025000D03*
X137750000Y-83025000D03*
%TD*%
D45*
%TO.C,R19*%
X140350000Y-117200000D03*
X140350000Y-119200000D03*
%TD*%
D47*
%TO.C,R20*%
X157667200Y-89128600D03*
X155667200Y-89128600D03*
%TD*%
D45*
%TO.C,R21*%
X140300000Y-121325000D03*
X140300000Y-123325000D03*
%TD*%
%TO.C,R23*%
X136850000Y-121325000D03*
X136850000Y-123325000D03*
%TD*%
D46*
%TO.C,R29*%
X99940000Y-97540000D03*
X99940000Y-95540000D03*
%TD*%
%TO.C,R30*%
X144600000Y-108270000D03*
X144600000Y-106270000D03*
%TD*%
D48*
%TO.C,R31*%
X161130000Y-132630000D03*
X163130000Y-132630000D03*
%TD*%
D46*
%TO.C,R32*%
X158730000Y-130130000D03*
X158730000Y-128130000D03*
%TD*%
%TO.C,R33*%
X94996000Y-134620000D03*
X94996000Y-132620000D03*
%TD*%
D48*
%TO.C,R34*%
X161280000Y-130430000D03*
X163280000Y-130430000D03*
%TD*%
D46*
%TO.C,R46*%
X108360000Y-97530000D03*
X108360000Y-95530000D03*
%TD*%
%TO.C,R47*%
X105610000Y-97560000D03*
X105610000Y-95560000D03*
%TD*%
%TO.C,R24*%
X150775000Y-121450000D03*
X150775000Y-119450000D03*
%TD*%
D10*
%TO.C,C44*%
X68267500Y-70000000D03*
X66192500Y-70000000D03*
%TD*%
D26*
%TO.C,JP4*%
X169660000Y-126990000D03*
D27*
X169660000Y-129530000D03*
%TD*%
D15*
%TO.C,C47*%
X143030000Y-73892500D03*
X143030000Y-75967500D03*
%TD*%
D46*
%TO.C,R35*%
X135075000Y-85050000D03*
X135075000Y-83050000D03*
%TD*%
D45*
%TO.C,R48*%
X148520000Y-112930000D03*
X148520000Y-114930000D03*
%TD*%
D48*
%TO.C,R49*%
X150892000Y-77550000D03*
X152892000Y-77550000D03*
%TD*%
%TO.C,R50*%
X150892000Y-80975000D03*
X152892000Y-80975000D03*
%TD*%
D49*
%TO.C,U6*%
X143290000Y-78670000D03*
X143290000Y-79170000D03*
X143290000Y-79670000D03*
X143290000Y-80170000D03*
X143290000Y-80670000D03*
X147690000Y-80670000D03*
X147690000Y-80170000D03*
X147690000Y-79670000D03*
X147690000Y-79170000D03*
X147690000Y-78670000D03*
%TD*%
D50*
%TO.C,Y3*%
X136218000Y-79248000D03*
X139118000Y-79248000D03*
X139118000Y-76948000D03*
X136218000Y-76948000D03*
%TD*%
D51*
%TO.C,J12*%
X187025000Y-134505000D03*
X187025000Y-124345000D03*
D52*
X181945000Y-129425000D03*
D53*
X184673000Y-131711000D03*
D52*
X181945000Y-126885000D03*
D23*
X184673000Y-126631000D03*
%TD*%
D54*
%TO.C,RLY1*%
X187775000Y-98845000D03*
X187775000Y-106465000D03*
X187775000Y-111545000D03*
X187775000Y-116625000D03*
X180175000Y-98845000D03*
X180175000Y-106465000D03*
X180175000Y-111545000D03*
X180175000Y-116625000D03*
%TD*%
D15*
%TO.C,C30*%
X165325000Y-115650000D03*
X165325000Y-117725000D03*
%TD*%
D55*
%TO.C,D9*%
X175975000Y-104650000D03*
X175975000Y-107950000D03*
%TD*%
D48*
%TO.C,R5*%
X139800000Y-95850000D03*
X141800000Y-95850000D03*
%TD*%
D45*
%TO.C,R22*%
X138176000Y-117175000D03*
X138176000Y-119175000D03*
%TD*%
D46*
%TO.C,R25*%
X147550000Y-121375000D03*
X147550000Y-119375000D03*
%TD*%
D56*
%TO.C,Q8*%
X165608000Y-71374000D03*
D52*
X165608000Y-73914000D03*
X165608000Y-76454000D03*
%TD*%
D48*
%TO.C,R38*%
X169790000Y-59950000D03*
X171790000Y-59950000D03*
%TD*%
D47*
%TO.C,R39*%
X180000000Y-64900000D03*
X178000000Y-64900000D03*
%TD*%
D57*
%TO.C,JP1*%
X174030000Y-70000000D03*
D27*
X176570000Y-70000000D03*
%TD*%
D10*
%TO.C,C39*%
X144547500Y-120650000D03*
X142472500Y-120650000D03*
%TD*%
D26*
%TO.C,JP2*%
X173430000Y-126910000D03*
D27*
X173430000Y-129450000D03*
%TD*%
D58*
%TO.C,T3*%
X172085000Y-140970000D03*
X179705000Y-140970000D03*
X175958500Y-143764000D03*
X175958500Y-138176000D03*
%TD*%
D18*
%TO.C,D16*%
X178850000Y-131360000D03*
X178850000Y-133410000D03*
%TD*%
D47*
%TO.C,R28*%
X174660000Y-133250000D03*
X172660000Y-133250000D03*
%TD*%
D55*
%TO.C,D17*%
X157000000Y-82675000D03*
X157000000Y-85975000D03*
%TD*%
D42*
%TO.C,Q9*%
X167575000Y-95250000D03*
D30*
X165035000Y-95250000D03*
X162495000Y-95250000D03*
%TD*%
D12*
%TO.C,C46*%
X148012500Y-63810000D03*
X150087500Y-63810000D03*
%TD*%
D47*
%TO.C,R51*%
X167525000Y-90800000D03*
X165525000Y-90800000D03*
%TD*%
D45*
%TO.C,R52*%
X159766000Y-87138000D03*
X159766000Y-89138000D03*
%TD*%
D15*
%TO.C,C24*%
X166830000Y-64032500D03*
X166830000Y-66107500D03*
%TD*%
D47*
%TO.C,R53*%
X160050000Y-79875000D03*
X158050000Y-79875000D03*
%TD*%
D11*
%TO.C,C56*%
X152100000Y-86537500D03*
X152100000Y-84462500D03*
%TD*%
D59*
%TO.C,JP7*%
X176560000Y-116780000D03*
D27*
X174020000Y-116780000D03*
X171480000Y-116780000D03*
%TD*%
D60*
%TO.C,Q12*%
X150180000Y-70787500D03*
X152080000Y-70787500D03*
X151130000Y-68912500D03*
%TD*%
D31*
%TO.C,Q13*%
X182312500Y-65050000D03*
X182312500Y-66950000D03*
X184187500Y-66000000D03*
%TD*%
D48*
%TO.C,R65*%
X143670000Y-68760000D03*
X145670000Y-68760000D03*
%TD*%
D45*
%TO.C,R66*%
X161525000Y-99425000D03*
X161525000Y-101425000D03*
%TD*%
D46*
%TO.C,R67*%
X159550000Y-85100000D03*
X159550000Y-83100000D03*
%TD*%
D61*
%TO.C,P1*%
X92050000Y-65380000D03*
D14*
X94650000Y-65380000D03*
X89950000Y-65380000D03*
X96750000Y-65380000D03*
X89950000Y-68180000D03*
X96750000Y-68180000D03*
D62*
X86500000Y-62530000D03*
X100200000Y-62530000D03*
D63*
X93350000Y-61730000D03*
%TD*%
D46*
%TO.C,R64*%
X83312000Y-68056000D03*
X83312000Y-66056000D03*
%TD*%
D47*
%TO.C,R70*%
X105150000Y-70440000D03*
X103150000Y-70440000D03*
%TD*%
D64*
%TO.C,J13*%
X177600000Y-83200000D03*
%TD*%
D19*
%TO.C,D19*%
X160880000Y-60207000D03*
X160880000Y-58157000D03*
%TD*%
D47*
%TO.C,R71*%
X167810000Y-59930000D03*
X165810000Y-59930000D03*
%TD*%
D12*
%TO.C,C32*%
X169587500Y-98350000D03*
X171662500Y-98350000D03*
%TD*%
D60*
%TO.C,Q14*%
X117875000Y-86887500D03*
X119775000Y-86887500D03*
X118825000Y-85012500D03*
%TD*%
D48*
%TO.C,R72*%
X120375000Y-94500000D03*
X122375000Y-94500000D03*
%TD*%
D15*
%TO.C,C38*%
X147075000Y-72037500D03*
X147075000Y-74112500D03*
%TD*%
D45*
%TO.C,R73*%
X155975000Y-78750000D03*
X155975000Y-80750000D03*
%TD*%
D65*
%TO.C,RV4*%
X142790000Y-59940000D03*
X142790000Y-62480000D03*
X142790000Y-65020000D03*
%TD*%
D45*
%TO.C,R74*%
X167225000Y-85675000D03*
X167225000Y-87675000D03*
%TD*%
D19*
%TO.C,L11*%
X147900000Y-68675000D03*
X147900000Y-66625000D03*
%TD*%
D66*
%TO.C,J3*%
X54000000Y-61000000D03*
%TD*%
%TO.C,J4*%
X185500000Y-60500000D03*
%TD*%
%TO.C,J6*%
X185500000Y-141000000D03*
%TD*%
%TO.C,J7*%
X54000000Y-140500000D03*
%TD*%
D15*
%TO.C,C41*%
X133925000Y-134825000D03*
X133925000Y-136900000D03*
%TD*%
D12*
%TO.C,C58*%
X54500000Y-67000000D03*
X56575000Y-67000000D03*
%TD*%
D52*
%TO.C,T4*%
X60000000Y-67310000D03*
X60000000Y-59690000D03*
X62540000Y-67310000D03*
X62540000Y-59690000D03*
%TD*%
D15*
%TO.C,C27*%
X153300000Y-112837500D03*
X153300000Y-114912500D03*
%TD*%
D67*
%TO.C,D6*%
X186880000Y-95330000D03*
D17*
X179260000Y-95330000D03*
%TD*%
D47*
%TO.C,R76*%
X84566000Y-95758000D03*
X82566000Y-95758000D03*
%TD*%
D14*
%TO.C,R41*%
X177075000Y-101100000D03*
D68*
X164375000Y-101100000D03*
%TD*%
D12*
%TO.C,C7*%
X131550500Y-116078000D03*
X133625500Y-116078000D03*
%TD*%
D14*
%TO.C,L10*%
X146550000Y-135900000D03*
D68*
X136390000Y-135900000D03*
%TD*%
D26*
%TO.C,J14*%
X158150000Y-132950000D03*
%TD*%
%TO.C,J15*%
X150622000Y-142494000D03*
%TD*%
%TO.C,J16*%
X179900000Y-58900000D03*
%TD*%
D69*
%TO.C,C3*%
X65500000Y-76000000D03*
D14*
X69000000Y-76000000D03*
%TD*%
D58*
%TO.C,L4*%
X152146000Y-58039000D03*
X152146000Y-61849000D03*
%TD*%
%TO.C,L6*%
X161895000Y-82875000D03*
X165705000Y-82875000D03*
%TD*%
D70*
%TO.C,Q15*%
X187210000Y-80770000D03*
D71*
X187210000Y-83310000D03*
X187210000Y-85850000D03*
%TD*%
D12*
%TO.C,C18*%
X161305000Y-128130000D03*
X163380000Y-128130000D03*
%TD*%
%TO.C,C60*%
X156612500Y-135930000D03*
X158687500Y-135930000D03*
%TD*%
D48*
%TO.C,R10*%
X121450000Y-116650000D03*
X123450000Y-116650000D03*
%TD*%
D72*
%TO.C,D15*%
X173530000Y-59990000D03*
X176830000Y-59990000D03*
%TD*%
%TO.C,D18*%
X149988000Y-73406000D03*
X153288000Y-73406000D03*
%TD*%
D54*
%TO.C,RV1*%
X140675000Y-143000000D03*
D43*
X143175000Y-140000000D03*
D54*
X138175000Y-143000000D03*
D43*
X138175000Y-140000000D03*
D54*
X135675000Y-143000000D03*
D43*
X133175000Y-140000000D03*
%TD*%
D73*
%TO.C,D8*%
X187250000Y-66500000D03*
X187250000Y-71500000D03*
%TD*%
D26*
%TO.C,J10*%
X140410000Y-100830000D03*
%TD*%
D12*
%TO.C,C61*%
X112712500Y-130125000D03*
X114787500Y-130125000D03*
%TD*%
D46*
%TO.C,R40*%
X97390000Y-97500000D03*
X97390000Y-95500000D03*
%TD*%
D47*
%TO.C,R75*%
X110220000Y-130302000D03*
X108220000Y-130302000D03*
%TD*%
D32*
%TO.C,SW6*%
X108966000Y-133096000D03*
X115466000Y-133096000D03*
X115466000Y-137596000D03*
X108966000Y-137596000D03*
%TD*%
D61*
%TO.C,C53*%
X129475000Y-125900000D03*
D14*
X125975000Y-125900000D03*
%TD*%
D57*
%TO.C,J17*%
X157480000Y-120650000D03*
D27*
X160020000Y-120650000D03*
X162560000Y-120650000D03*
X165100000Y-120650000D03*
%TD*%
D57*
%TO.C,J18*%
X157480000Y-140970000D03*
D27*
X160020000Y-140970000D03*
X162560000Y-140970000D03*
X165100000Y-140970000D03*
%TD*%
D10*
%TO.C,C26*%
X172657500Y-121240000D03*
X170582500Y-121240000D03*
%TD*%
D11*
%TO.C,C23*%
X162250000Y-91525000D03*
X162250000Y-89450000D03*
%TD*%
D74*
%TO.C,J19*%
X69800000Y-142900000D03*
D75*
X64600000Y-135000000D03*
D76*
X67200000Y-136000000D03*
D75*
X74600000Y-138500000D03*
D77*
X74100000Y-131600000D03*
%TD*%
D11*
%TO.C,C36*%
X61630000Y-128097500D03*
X61630000Y-126022500D03*
%TD*%
D78*
%TO.C,D10*%
X172950000Y-112900000D03*
X172950000Y-109600000D03*
%TD*%
D47*
%TO.C,R80*%
X83375000Y-126425000D03*
X81375000Y-126425000D03*
%TD*%
D79*
%TO.C,U5*%
X84212500Y-101753000D03*
X82942500Y-101753000D03*
X81672500Y-101753000D03*
X80402500Y-101753000D03*
X80402500Y-107003000D03*
X81672500Y-107003000D03*
X82942500Y-107003000D03*
X84212500Y-107003000D03*
%TD*%
D12*
%TO.C,C69*%
X81340000Y-109838000D03*
X83415000Y-109838000D03*
%TD*%
%TO.C,C67*%
X68812500Y-128750000D03*
X70887500Y-128750000D03*
%TD*%
D80*
%TO.C,L12*%
X83425000Y-128900000D03*
X81375000Y-128900000D03*
%TD*%
D81*
%TO.C,U8*%
X162250000Y-113617500D03*
X162250000Y-112982500D03*
X162250000Y-112347500D03*
X162250000Y-111712500D03*
X162250000Y-111077500D03*
X162250000Y-110442500D03*
X162250000Y-109807500D03*
X162250000Y-109172500D03*
X162250000Y-108537500D03*
X162250000Y-107902500D03*
X162250000Y-107267500D03*
X162250000Y-106632500D03*
X157050000Y-106632500D03*
X157050000Y-107267500D03*
X157050000Y-107902500D03*
X157050000Y-108537500D03*
X157050000Y-109172500D03*
X157050000Y-109807500D03*
X157050000Y-110442500D03*
X157050000Y-111077500D03*
X157050000Y-111712500D03*
X157050000Y-112347500D03*
X157050000Y-112982500D03*
X157050000Y-113617500D03*
%TD*%
D45*
%TO.C,R42*%
X59240000Y-125990000D03*
X59240000Y-127990000D03*
%TD*%
D48*
%TO.C,R77*%
X87070000Y-101760000D03*
X89070000Y-101760000D03*
%TD*%
D47*
%TO.C,R69*%
X74136000Y-105410000D03*
X72136000Y-105410000D03*
%TD*%
D23*
%TO.C,DS1*%
X68900900Y-85592500D03*
X68900900Y-116593200D03*
X143900000Y-85592500D03*
X143899480Y-116593200D03*
D82*
X74400000Y-85592500D03*
D83*
X76940000Y-85592500D03*
D84*
X79480000Y-85592500D03*
X82020000Y-85592500D03*
X84560000Y-85592500D03*
X87100000Y-85592500D03*
X89640000Y-85592500D03*
D83*
X92180000Y-85592500D03*
X94720000Y-85592500D03*
X97260000Y-85592500D03*
X99800000Y-85592500D03*
X102340000Y-85592500D03*
X104880000Y-85592500D03*
X107420000Y-85592500D03*
X109960000Y-85592500D03*
D84*
X112500000Y-85592500D03*
%TD*%
D46*
%TO.C,R43*%
X68580000Y-107426000D03*
X68580000Y-105426000D03*
%TD*%
%TO.C,R44*%
X92456000Y-103346000D03*
X92456000Y-101346000D03*
%TD*%
D26*
%TO.C,J24*%
X144470000Y-100850000D03*
%TD*%
D85*
%TO.C,J23*%
X159512000Y-67564000D03*
%TD*%
D11*
%TO.C,C63*%
X68580000Y-111781500D03*
X68580000Y-109706500D03*
%TD*%
D44*
%TO.C,J22*%
X121425000Y-128555000D03*
D27*
X121425000Y-126015000D03*
%TD*%
D59*
%TO.C,JP9*%
X77978000Y-122936000D03*
D27*
X75438000Y-122936000D03*
%TD*%
D18*
%TO.C,L7*%
X58770000Y-131315000D03*
X58770000Y-133365000D03*
%TD*%
D59*
%TO.C,J25*%
X125420000Y-80010000D03*
D27*
X122880000Y-80010000D03*
X120340000Y-80010000D03*
X117800000Y-80010000D03*
%TD*%
D10*
%TO.C,C65*%
X88955000Y-107230000D03*
X86880000Y-107230000D03*
%TD*%
D45*
%TO.C,R81*%
X130200000Y-118540000D03*
X130200000Y-120540000D03*
%TD*%
%TO.C,R84*%
X132310000Y-118540000D03*
X132310000Y-120540000D03*
%TD*%
D74*
%TO.C,J8*%
X125476000Y-143046000D03*
D75*
X120276000Y-135146000D03*
D76*
X122876000Y-136146000D03*
D75*
X130276000Y-138646000D03*
D77*
X129776000Y-131746000D03*
%TD*%
D11*
%TO.C,C68*%
X61280000Y-133307500D03*
X61280000Y-131232500D03*
%TD*%
D47*
%TO.C,R83*%
X83430000Y-113220000D03*
X81430000Y-113220000D03*
%TD*%
D59*
%TO.C,J27*%
X125476000Y-74676000D03*
D27*
X122936000Y-74676000D03*
X120396000Y-74676000D03*
X117856000Y-74676000D03*
%TD*%
D11*
%TO.C,C62*%
X59160000Y-139117500D03*
X59160000Y-137042500D03*
%TD*%
D45*
%TO.C,R26*%
X155430000Y-128205000D03*
X155430000Y-130205000D03*
%TD*%
D48*
%TO.C,R85*%
X85747500Y-109768000D03*
X87747500Y-109768000D03*
%TD*%
D10*
%TO.C,C70*%
X73000000Y-70000000D03*
X70925000Y-70000000D03*
%TD*%
D47*
%TO.C,R79*%
X79486000Y-109728000D03*
X77486000Y-109728000D03*
%TD*%
%TO.C,R27*%
X152025000Y-126775000D03*
X150025000Y-126775000D03*
%TD*%
D57*
%TO.C,J26*%
X110370000Y-66802000D03*
D86*
X112870000Y-66802000D03*
X112870000Y-64802000D03*
X110370000Y-64802000D03*
D87*
X117640000Y-62092000D03*
X105600000Y-62092000D03*
%TD*%
D11*
%TO.C,C29*%
X169720000Y-66107500D03*
X169720000Y-64032500D03*
%TD*%
D88*
%TO.C,U7*%
X135230000Y-58370000D03*
X127230000Y-58370000D03*
D89*
X138030000Y-58770000D03*
D90*
X123430000Y-68270000D03*
D91*
X128030000Y-68870000D03*
X129130000Y-68870000D03*
X130230000Y-68870000D03*
X131330000Y-68870000D03*
X132430000Y-68870000D03*
X133530000Y-68870000D03*
X134630000Y-68870000D03*
X135730000Y-68870000D03*
X136830000Y-68870000D03*
D92*
X138030000Y-68270000D03*
D89*
X122530000Y-58670000D03*
%TD*%
D12*
%TO.C,C40*%
X149987500Y-123775000D03*
X152062500Y-123775000D03*
%TD*%
D78*
%TO.C,D7*%
X172925000Y-107950000D03*
X172925000Y-104650000D03*
%TD*%
D59*
%TO.C,JP6*%
X69596000Y-122936000D03*
D27*
X67056000Y-122936000D03*
%TD*%
D15*
%TO.C,C43*%
X121270000Y-63986500D03*
X121270000Y-66061500D03*
%TD*%
D74*
%TO.C,J11*%
X83375000Y-142900000D03*
D75*
X78175000Y-135000000D03*
D76*
X80775000Y-136000000D03*
D75*
X88175000Y-138500000D03*
D77*
X87675000Y-131600000D03*
%TD*%
D12*
%TO.C,C66*%
X82492500Y-99230000D03*
X84567500Y-99230000D03*
%TD*%
D46*
%TO.C,R45*%
X92456000Y-107442000D03*
X92456000Y-105442000D03*
%TD*%
D11*
%TO.C,C31*%
X180090000Y-70787500D03*
X180090000Y-68712500D03*
%TD*%
D55*
%TO.C,D11*%
X175975000Y-109600000D03*
X175975000Y-112900000D03*
%TD*%
D18*
%TO.C,L8*%
X74975000Y-126075000D03*
X74975000Y-128125000D03*
%TD*%
D47*
%TO.C,R82*%
X124250000Y-84275000D03*
X122250000Y-84275000D03*
%TD*%
D10*
%TO.C,C28*%
X144587500Y-123950000D03*
X142512500Y-123950000D03*
%TD*%
D45*
%TO.C,R78*%
X76730000Y-104430000D03*
X76730000Y-106430000D03*
%TD*%
D10*
%TO.C,C64*%
X92477500Y-99060000D03*
X90402500Y-99060000D03*
%TD*%
G36*
X185539896Y-77620002D02*
G01*
X185586389Y-77673658D01*
X185597756Y-77728205D01*
X185422167Y-87760205D01*
X185400976Y-87827965D01*
X185346515Y-87873512D01*
X185296186Y-87884000D01*
X169526000Y-87884000D01*
X169457879Y-87863998D01*
X169411386Y-87810342D01*
X169400000Y-87758000D01*
X169400000Y-77726000D01*
X169420002Y-77657879D01*
X169473658Y-77611386D01*
X169526000Y-77600000D01*
X185471775Y-77600000D01*
X185539896Y-77620002D01*
G37*
G36*
X162442121Y-70520002D02*
G01*
X162488614Y-70573658D01*
X162500000Y-70626000D01*
X162500000Y-77374000D01*
X162479998Y-77442121D01*
X162426342Y-77488614D01*
X162374000Y-77500000D01*
X155876000Y-77500000D01*
X155807879Y-77479998D01*
X155761386Y-77426342D01*
X155750000Y-77374000D01*
X155750000Y-70626000D01*
X155770002Y-70557879D01*
X155823658Y-70511386D01*
X155876000Y-70500000D01*
X162374000Y-70500000D01*
X162442121Y-70520002D01*
G37*
M02*
