%TF.GenerationSoftware,KiCad,Pcbnew,(6.0.11)*%
%TF.CreationDate,2023-06-17T11:37:52-05:00*%
%TF.ProjectId,LittleDX,4c697474-6c65-4445-982e-6b696361645f,rev?*%
%TF.SameCoordinates,Original*%
%TF.FileFunction,Copper,L1,Top*%
%TF.FilePolarity,Positive*%
%FSLAX46Y46*%
G04 Gerber Fmt 4.6, Leading zero omitted, Abs format (unit mm)*
G04 Created by KiCad (PCBNEW (6.0.11)) date 2023-06-17 11:37:52*
%MOMM*%
%LPD*%
G01*
G04 APERTURE LIST*
G04 Aperture macros list*
%AMRoundRect*
0 Rectangle with rounded corners*
0 $1 Rounding radius*
0 $2 $3 $4 $5 $6 $7 $8 $9 X,Y pos of 4 corners*
0 Add a 4 corners polygon primitive as box body*
4,1,4,$2,$3,$4,$5,$6,$7,$8,$9,$2,$3,0*
0 Add four circle primitives for the rounded corners*
1,1,$1+$1,$2,$3*
1,1,$1+$1,$4,$5*
1,1,$1+$1,$6,$7*
1,1,$1+$1,$8,$9*
0 Add four rect primitives between the rounded corners*
20,1,$1+$1,$2,$3,$4,$5,0*
20,1,$1+$1,$4,$5,$6,$7,0*
20,1,$1+$1,$6,$7,$8,$9,0*
20,1,$1+$1,$8,$9,$2,$3,0*%
G04 Aperture macros list end*
%TA.AperFunction,ComponentPad*%
%ADD10R,1.600000X1.600000*%
%TD*%
%TA.AperFunction,ComponentPad*%
%ADD11C,1.600000*%
%TD*%
%TA.AperFunction,ComponentPad*%
%ADD12R,1.700000X1.700000*%
%TD*%
%TA.AperFunction,ComponentPad*%
%ADD13O,1.700000X1.700000*%
%TD*%
%TA.AperFunction,ComponentPad*%
%ADD14O,1.600000X1.600000*%
%TD*%
%TA.AperFunction,ComponentPad*%
%ADD15C,2.000000*%
%TD*%
%TA.AperFunction,ComponentPad*%
%ADD16O,1.800000X2.600000*%
%TD*%
%TA.AperFunction,ComponentPad*%
%ADD17O,1.500000X2.600000*%
%TD*%
%TA.AperFunction,ComponentPad*%
%ADD18R,1.500000X2.600000*%
%TD*%
%TA.AperFunction,ComponentPad*%
%ADD19C,3.000000*%
%TD*%
%TA.AperFunction,SMDPad,CuDef*%
%ADD20RoundRect,0.250000X0.337500X0.475000X-0.337500X0.475000X-0.337500X-0.475000X0.337500X-0.475000X0*%
%TD*%
%TA.AperFunction,SMDPad,CuDef*%
%ADD21RoundRect,0.250000X0.475000X-0.337500X0.475000X0.337500X-0.475000X0.337500X-0.475000X-0.337500X0*%
%TD*%
%TA.AperFunction,SMDPad,CuDef*%
%ADD22RoundRect,0.250000X-0.337500X-0.475000X0.337500X-0.475000X0.337500X0.475000X-0.337500X0.475000X0*%
%TD*%
%TA.AperFunction,SMDPad,CuDef*%
%ADD23RoundRect,0.250000X-0.475000X0.337500X-0.475000X-0.337500X0.475000X-0.337500X0.475000X0.337500X0*%
%TD*%
%TA.AperFunction,ComponentPad*%
%ADD24R,2.200000X2.200000*%
%TD*%
%TA.AperFunction,ComponentPad*%
%ADD25O,2.200000X2.200000*%
%TD*%
%TA.AperFunction,SMDPad,CuDef*%
%ADD26RoundRect,0.250000X0.325000X0.450000X-0.325000X0.450000X-0.325000X-0.450000X0.325000X-0.450000X0*%
%TD*%
%TA.AperFunction,SMDPad,CuDef*%
%ADD27RoundRect,0.250000X-0.325000X-0.450000X0.325000X-0.450000X0.325000X0.450000X-0.325000X0.450000X0*%
%TD*%
%TA.AperFunction,SMDPad,CuDef*%
%ADD28R,3.500000X1.800000*%
%TD*%
%TA.AperFunction,SMDPad,CuDef*%
%ADD29R,1.800000X3.500000*%
%TD*%
%TA.AperFunction,ComponentPad*%
%ADD30R,3.000000X3.000000*%
%TD*%
%TA.AperFunction,ComponentPad*%
%ADD31R,3.500000X3.500000*%
%TD*%
%TA.AperFunction,ComponentPad*%
%ADD32R,3.500000X2.000000*%
%TD*%
%TA.AperFunction,SMDPad,CuDef*%
%ADD33RoundRect,0.250000X0.450000X-0.325000X0.450000X0.325000X-0.450000X0.325000X-0.450000X-0.325000X0*%
%TD*%
%TA.AperFunction,SMDPad,CuDef*%
%ADD34RoundRect,0.250000X-0.450000X0.325000X-0.450000X-0.325000X0.450000X-0.325000X0.450000X0.325000X0*%
%TD*%
%TA.AperFunction,ComponentPad*%
%ADD35R,1.520000X1.520000*%
%TD*%
%TA.AperFunction,ComponentPad*%
%ADD36C,1.520000*%
%TD*%
%TA.AperFunction,SMDPad,CuDef*%
%ADD37RoundRect,0.150000X-0.587500X-0.150000X0.587500X-0.150000X0.587500X0.150000X-0.587500X0.150000X0*%
%TD*%
%TA.AperFunction,SMDPad,CuDef*%
%ADD38R,1.200000X2.200000*%
%TD*%
%TA.AperFunction,SMDPad,CuDef*%
%ADD39R,5.800000X6.400000*%
%TD*%
%TA.AperFunction,SMDPad,CuDef*%
%ADD40R,2.000000X2.400000*%
%TD*%
%TA.AperFunction,SMDPad,CuDef*%
%ADD41R,1.000000X1.800000*%
%TD*%
%TA.AperFunction,SMDPad,CuDef*%
%ADD42RoundRect,0.075000X0.075000X-0.662500X0.075000X0.662500X-0.075000X0.662500X-0.075000X-0.662500X0*%
%TD*%
%TA.AperFunction,SMDPad,CuDef*%
%ADD43RoundRect,0.075000X0.662500X-0.075000X0.662500X0.075000X-0.662500X0.075000X-0.662500X-0.075000X0*%
%TD*%
%TA.AperFunction,SMDPad,CuDef*%
%ADD44RoundRect,0.150000X0.675000X0.150000X-0.675000X0.150000X-0.675000X-0.150000X0.675000X-0.150000X0*%
%TD*%
%TA.AperFunction,SMDPad,CuDef*%
%ADD45R,1.500000X2.000000*%
%TD*%
%TA.AperFunction,SMDPad,CuDef*%
%ADD46R,3.800000X2.000000*%
%TD*%
%TA.AperFunction,ComponentPad*%
%ADD47C,2.500000*%
%TD*%
%TA.AperFunction,SMDPad,CuDef*%
%ADD48RoundRect,0.250000X-0.350000X-0.450000X0.350000X-0.450000X0.350000X0.450000X-0.350000X0.450000X0*%
%TD*%
%TA.AperFunction,SMDPad,CuDef*%
%ADD49RoundRect,0.250000X0.450000X-0.350000X0.450000X0.350000X-0.450000X0.350000X-0.450000X-0.350000X0*%
%TD*%
%TA.AperFunction,SMDPad,CuDef*%
%ADD50RoundRect,0.250000X0.350000X0.450000X-0.350000X0.450000X-0.350000X-0.450000X0.350000X-0.450000X0*%
%TD*%
%TA.AperFunction,SMDPad,CuDef*%
%ADD51RoundRect,0.250000X-0.450000X0.350000X-0.450000X-0.350000X0.450000X-0.350000X0.450000X0.350000X0*%
%TD*%
%TA.AperFunction,SMDPad,CuDef*%
%ADD52R,1.400000X0.300000*%
%TD*%
%TA.AperFunction,SMDPad,CuDef*%
%ADD53R,2.100000X1.800000*%
%TD*%
%TA.AperFunction,ComponentPad*%
%ADD54C,1.500000*%
%TD*%
%TA.AperFunction,ComponentPad*%
%ADD55C,1.800000*%
%TD*%
%TA.AperFunction,SMDPad,CuDef*%
%ADD56R,1.200000X0.900000*%
%TD*%
%TA.AperFunction,ComponentPad*%
%ADD57R,1.500000X1.500000*%
%TD*%
%TA.AperFunction,ComponentPad*%
%ADD58C,1.524000*%
%TD*%
%TA.AperFunction,SMDPad,CuDef*%
%ADD59RoundRect,0.150000X0.150000X-0.587500X0.150000X0.587500X-0.150000X0.587500X-0.150000X-0.587500X0*%
%TD*%
%TA.AperFunction,ComponentPad*%
%ADD60O,2.000000X3.500000*%
%TD*%
%TA.AperFunction,ComponentPad*%
%ADD61O,4.000000X2.000000*%
%TD*%
%TA.AperFunction,ComponentPad*%
%ADD62C,1.440000*%
%TD*%
%TA.AperFunction,ComponentPad*%
%ADD63C,5.000000*%
%TD*%
%TA.AperFunction,ComponentPad*%
%ADD64R,1.800000X1.800000*%
%TD*%
%TA.AperFunction,ComponentPad*%
%ADD65O,1.800000X1.800000*%
%TD*%
%TA.AperFunction,SMDPad,CuDef*%
%ADD66R,0.900000X1.200000*%
%TD*%
%TA.AperFunction,ComponentPad*%
%ADD67O,2.000000X1.000000*%
%TD*%
%TA.AperFunction,ComponentPad*%
%ADD68O,1.000000X2.000000*%
%TD*%
%TA.AperFunction,ComponentPad*%
%ADD69O,1.500000X2.000000*%
%TD*%
%TA.AperFunction,ComponentPad*%
%ADD70O,2.000000X1.500000*%
%TD*%
%TA.AperFunction,SMDPad,CuDef*%
%ADD71RoundRect,0.150000X-0.150000X0.675000X-0.150000X-0.675000X0.150000X-0.675000X0.150000X0.675000X0*%
%TD*%
%TA.AperFunction,SMDPad,CuDef*%
%ADD72R,1.200000X0.400000*%
%TD*%
%TA.AperFunction,ComponentPad*%
%ADD73C,1.700000*%
%TD*%
%TA.AperFunction,ComponentPad*%
%ADD74C,3.500000*%
%TD*%
%TA.AperFunction,SMDPad,CuDef*%
%ADD75R,1.600000X1.400000*%
%TD*%
%TA.AperFunction,SMDPad,CuDef*%
%ADD76R,0.700000X1.600000*%
%TD*%
%TA.AperFunction,SMDPad,CuDef*%
%ADD77R,1.200000X1.400000*%
%TD*%
%TA.AperFunction,ViaPad*%
%ADD78C,0.600000*%
%TD*%
%TA.AperFunction,Conductor*%
%ADD79C,0.350000*%
%TD*%
%TA.AperFunction,Conductor*%
%ADD80C,0.250000*%
%TD*%
%TA.AperFunction,Conductor*%
%ADD81C,0.500000*%
%TD*%
G04 APERTURE END LIST*
D10*
%TO.P,C19,1*%
%TO.N,Net-(C19-Pad1)*%
X134625000Y-127775000D03*
D11*
%TO.P,C19,2*%
%TO.N,SPKR*%
X134625000Y-130275000D03*
%TD*%
D12*
%TO.P,J20,1,Pin_1*%
%TO.N,Net-(U1-Pad1)*%
X115475000Y-120800000D03*
D13*
%TO.P,J20,2,Pin_2*%
%TO.N,GND*%
X118015000Y-120800000D03*
%TD*%
D11*
%TO.P,R41,1*%
%TO.N,GND*%
X177075000Y-101100000D03*
D14*
%TO.P,R41,2*%
%TO.N,Net-(Q9-Pad1)*%
X164375000Y-101100000D03*
%TD*%
D15*
%TO.P,SW2,2,2*%
%TO.N,GND*%
X86925000Y-125525000D03*
X93425000Y-125525000D03*
%TO.P,SW2,1,1*%
%TO.N,Net-(C10-Pad2)*%
X86925000Y-121025000D03*
X93425000Y-121025000D03*
%TD*%
D16*
%TO.P,DS1,16,LED(-)*%
%TO.N,Net-(DS1-Pad16)*%
X112430000Y-85230000D03*
D17*
%TO.P,DS1,15,LED(+)*%
%TO.N,Net-(DS1-Pad15)*%
X109890000Y-85230000D03*
%TO.P,DS1,14,D7*%
%TO.N,DB7*%
X107350000Y-85230000D03*
%TO.P,DS1,13,D6*%
%TO.N,DB6*%
X104810000Y-85230000D03*
%TO.P,DS1,12,D5*%
%TO.N,DB5*%
X102270000Y-85230000D03*
%TO.P,DS1,11,D4*%
%TO.N,DB4*%
X99730000Y-85230000D03*
%TO.P,DS1,10,D3*%
%TO.N,unconnected-(DS1-Pad10)*%
X97190000Y-85230000D03*
%TO.P,DS1,9,D2*%
%TO.N,unconnected-(DS1-Pad9)*%
X94650000Y-85230000D03*
%TO.P,DS1,8,D1*%
%TO.N,unconnected-(DS1-Pad8)*%
X92110000Y-85230000D03*
D16*
%TO.P,DS1,7,D0*%
%TO.N,unconnected-(DS1-Pad7)*%
X89570000Y-85230000D03*
%TO.P,DS1,6,E*%
%TO.N,E*%
X87030000Y-85230000D03*
%TO.P,DS1,5,R/W*%
%TO.N,GND*%
X84490000Y-85230000D03*
%TO.P,DS1,4,RS*%
%TO.N,RS*%
X81950000Y-85230000D03*
%TO.P,DS1,3,VO*%
%TO.N,Net-(DS1-Pad3)*%
X79410000Y-85230000D03*
D17*
%TO.P,DS1,2,VDD*%
%TO.N,+3.3V*%
X76870000Y-85230000D03*
D18*
%TO.P,DS1,1,VSS*%
%TO.N,GND*%
X74330000Y-85230000D03*
D19*
%TO.P,DS1,*%
%TO.N,*%
X143829480Y-116230700D03*
X143830000Y-85230000D03*
X68830900Y-116230700D03*
X68830900Y-85230000D03*
%TD*%
D20*
%TO.P,C1,1*%
%TO.N,GND*%
X133625500Y-114046000D03*
%TO.P,C1,2*%
%TO.N,Net-(C1-Pad2)*%
X131550500Y-114046000D03*
%TD*%
D21*
%TO.P,C2,1*%
%TO.N,GND*%
X125476000Y-116727500D03*
%TO.P,C2,2*%
%TO.N,Net-(C2-Pad2)*%
X125476000Y-114652500D03*
%TD*%
%TO.P,C4,1*%
%TO.N,GND*%
X129300000Y-116747500D03*
%TO.P,C4,2*%
%TO.N,Net-(C4-Pad2)*%
X129300000Y-114672500D03*
%TD*%
D22*
%TO.P,C5,1*%
%TO.N,GND*%
X120162500Y-111370000D03*
%TO.P,C5,2*%
%TO.N,Net-(C5-Pad2)*%
X122237500Y-111370000D03*
%TD*%
D10*
%TO.P,C6,1*%
%TO.N,+5V*%
X75000000Y-74000000D03*
D11*
%TO.P,C6,2*%
%TO.N,GND*%
X75000000Y-76500000D03*
%TD*%
D22*
%TO.P,C8,1*%
%TO.N,GND*%
X121390500Y-114046000D03*
%TO.P,C8,2*%
%TO.N,Net-(C8-Pad2)*%
X123465500Y-114046000D03*
%TD*%
D23*
%TO.P,C9,1*%
%TO.N,Net-(C9-Pad1)*%
X132550000Y-108587500D03*
%TO.P,C9,2*%
%TO.N,GND*%
X132550000Y-110662500D03*
%TD*%
D22*
%TO.P,C10,1*%
%TO.N,GND*%
X92187500Y-116725000D03*
%TO.P,C10,2*%
%TO.N,Net-(C10-Pad2)*%
X94262500Y-116725000D03*
%TD*%
D23*
%TO.P,C11,1*%
%TO.N,GND*%
X87150000Y-128462500D03*
%TO.P,C11,2*%
%TO.N,Net-(C11-Pad2)*%
X87150000Y-130537500D03*
%TD*%
D22*
%TO.P,C12,1*%
%TO.N,GND*%
X119432500Y-105530000D03*
%TO.P,C12,2*%
%TO.N,+3.3V*%
X121507500Y-105530000D03*
%TD*%
D23*
%TO.P,C13,1*%
%TO.N,GND*%
X127110000Y-91832500D03*
%TO.P,C13,2*%
%TO.N,+3.3V*%
X127110000Y-93907500D03*
%TD*%
D20*
%TO.P,C15,2*%
%TO.N,GND*%
X148487500Y-129725000D03*
%TO.P,C15,1*%
%TO.N,Net-(C15-Pad1)*%
X150562500Y-129725000D03*
%TD*%
D22*
%TO.P,C16,2*%
%TO.N,Net-(C16-Pad2)*%
X84362500Y-120425000D03*
%TO.P,C16,1*%
%TO.N,GND*%
X82287500Y-120425000D03*
%TD*%
D20*
%TO.P,C17,1*%
%TO.N,GND*%
X107717500Y-115300000D03*
%TO.P,C17,2*%
%TO.N,Net-(C17-Pad2)*%
X105642500Y-115300000D03*
%TD*%
D21*
%TO.P,C20,1*%
%TO.N,GND*%
X159500000Y-96037500D03*
%TO.P,C20,2*%
%TO.N,Net-(C14-Pad1)*%
X159500000Y-93962500D03*
%TD*%
D23*
%TO.P,C21,1*%
%TO.N,GND*%
X135575000Y-94312500D03*
%TO.P,C21,2*%
%TO.N,+3.3V*%
X135575000Y-96387500D03*
%TD*%
D10*
%TO.P,C22,1*%
%TO.N,+3.3V*%
X82000000Y-73968208D03*
D11*
%TO.P,C22,2*%
%TO.N,GND*%
X82000000Y-75968208D03*
%TD*%
D20*
%TO.P,C25,1*%
%TO.N,+3.3V*%
X153697500Y-110530000D03*
%TO.P,C25,2*%
%TO.N,GND*%
X151622500Y-110530000D03*
%TD*%
D21*
%TO.P,C33,1*%
%TO.N,Net-(C33-Pad1)*%
X165450000Y-107587500D03*
%TO.P,C33,2*%
%TO.N,Net-(C33-Pad2)*%
X165450000Y-105512500D03*
%TD*%
D20*
%TO.P,C34,2*%
%TO.N,Net-(C34-Pad2)*%
X161268500Y-139192000D03*
%TO.P,C34,1*%
%TO.N,Net-(C34-Pad1)*%
X163343500Y-139192000D03*
%TD*%
D23*
%TO.P,C35,1*%
%TO.N,Net-(C35-Pad1)*%
X165450000Y-110337500D03*
%TO.P,C35,2*%
%TO.N,Net-(C35-Pad2)*%
X165450000Y-112412500D03*
%TD*%
D24*
%TO.P,D1,1,K*%
%TO.N,+12V*%
X63750000Y-83880000D03*
D25*
%TO.P,D1,2,A*%
%TO.N,GND*%
X63750000Y-91500000D03*
%TD*%
D26*
%TO.P,D2,1,K*%
%TO.N,Net-(D2-Pad1)*%
X110550000Y-121350000D03*
%TO.P,D2,2,A*%
%TO.N,+3.3V*%
X108500000Y-121350000D03*
%TD*%
D27*
%TO.P,D3,2,A*%
%TO.N,Net-(D3-Pad2)*%
X110550000Y-123700000D03*
%TO.P,D3,1,K*%
%TO.N,GND*%
X108500000Y-123700000D03*
%TD*%
D28*
%TO.P,D4,1,K*%
%TO.N,+12V*%
X74000000Y-80000000D03*
%TO.P,D4,2,A*%
%TO.N,+5V*%
X79000000Y-80000000D03*
%TD*%
D29*
%TO.P,D5,1,K*%
%TO.N,+5V*%
X108458000Y-77684000D03*
%TO.P,D5,2,A*%
%TO.N,Net-(D5-Pad2)*%
X108458000Y-72684000D03*
%TD*%
D30*
%TO.P,J1,1,Pin_1*%
%TO.N,Net-(C58-Pad1)*%
X56000000Y-85000000D03*
D19*
%TO.P,J1,2,Pin_2*%
%TO.N,Net-(C58-Pad2)*%
X56000000Y-90080000D03*
%TD*%
D31*
%TO.P,J2,1*%
%TO.N,Net-(C58-Pad2)*%
X60500000Y-75000000D03*
%TO.P,J2,2*%
%TO.N,Net-(C58-Pad1)*%
X54500000Y-75000000D03*
D32*
%TO.P,J2,3*%
%TO.N,unconnected-(J2-Pad3)*%
X57500000Y-79700000D03*
%TD*%
D12*
%TO.P,J5,1,Pin_1*%
%TO.N,+3.3V*%
X109400000Y-103975000D03*
D13*
%TO.P,J5,2,Pin_2*%
X111940000Y-103975000D03*
%TO.P,J5,3,Pin_3*%
%TO.N,Net-(J5-Pad3)*%
X109400000Y-106515000D03*
%TO.P,J5,4,Pin_4*%
%TO.N,Net-(J5-Pad4)*%
X111940000Y-106515000D03*
%TO.P,J5,5,Pin_5*%
%TO.N,GND*%
X109400000Y-109055000D03*
%TO.P,J5,6,Pin_6*%
X111940000Y-109055000D03*
%TD*%
D27*
%TO.P,L1,1,1*%
%TO.N,+3.3V*%
X119145000Y-107630000D03*
%TO.P,L1,2,2*%
%TO.N,Net-(C9-Pad1)*%
X121195000Y-107630000D03*
%TD*%
D33*
%TO.P,L2,1,1*%
%TO.N,Net-(C27-Pad1)*%
X151120000Y-114825000D03*
%TO.P,L2,2,2*%
%TO.N,+3.3V*%
X151120000Y-112775000D03*
%TD*%
D34*
%TO.P,L3,1,1*%
%TO.N,Net-(C35-Pad2)*%
X167700000Y-115575000D03*
%TO.P,L3,2,2*%
%TO.N,GND*%
X167700000Y-117625000D03*
%TD*%
D33*
%TO.P,L9,1,1*%
%TO.N,TRANSMIT*%
X141320000Y-71175000D03*
%TO.P,L9,2,2*%
%TO.N,Net-(L9-Pad2)*%
X141320000Y-69125000D03*
%TD*%
D35*
%TO.P,Q3,1,S*%
%TO.N,GND*%
X170350000Y-75630000D03*
D36*
%TO.P,Q3,2,G*%
%TO.N,Net-(C23-Pad2)*%
X172890000Y-75630000D03*
%TO.P,Q3,3,D*%
%TO.N,AMPOUT*%
X175430000Y-75630000D03*
%TD*%
D37*
%TO.P,Q4,3,C*%
%TO.N,Net-(C18-Pad1)*%
X162481500Y-128016000D03*
%TO.P,Q4,2,E*%
%TO.N,GND*%
X160606500Y-128966000D03*
%TO.P,Q4,1,B*%
%TO.N,Net-(Q4-Pad1)*%
X160606500Y-127066000D03*
%TD*%
D15*
%TO.P,SW1,1,1*%
%TO.N,GND*%
X154142000Y-102056000D03*
X154142000Y-95556000D03*
%TO.P,SW1,2,2*%
%TO.N,Net-(C1-Pad2)*%
X149642000Y-102056000D03*
X149642000Y-95556000D03*
%TD*%
%TO.P,SW3,2,2*%
%TO.N,GND*%
X98650000Y-133825000D03*
X92150000Y-133825000D03*
%TO.P,SW3,1,1*%
%TO.N,Net-(C16-Pad2)*%
X92150000Y-129325000D03*
X98650000Y-129325000D03*
%TD*%
%TO.P,SW4,2,2*%
%TO.N,GND*%
X97225000Y-125475000D03*
X103725000Y-125475000D03*
%TO.P,SW4,1,1*%
%TO.N,Net-(C17-Pad2)*%
X103725000Y-120975000D03*
X97225000Y-120975000D03*
%TD*%
%TO.P,SW5,2,2*%
%TO.N,GND*%
X92125000Y-142125000D03*
X98625000Y-142125000D03*
%TO.P,SW5,1,1*%
%TO.N,Net-(C11-Pad2)*%
X92125000Y-137625000D03*
X98625000Y-137625000D03*
%TD*%
D38*
%TO.P,U2,1,VI*%
%TO.N,+12V*%
X66245000Y-66975000D03*
D39*
%TO.P,U2,2,GND*%
%TO.N,GND*%
X68525000Y-60675000D03*
D38*
%TO.P,U2,3,VO*%
%TO.N,+5V*%
X70805000Y-66975000D03*
%TD*%
D40*
%TO.P,Y1,1,1*%
%TO.N,Net-(C4-Pad2)*%
X129200000Y-111730000D03*
%TO.P,Y1,2,2*%
%TO.N,Net-(C2-Pad2)*%
X125500000Y-111730000D03*
%TD*%
D41*
%TO.P,Y2,1,1*%
%TO.N,Net-(C8-Pad2)*%
X127210000Y-108530000D03*
%TO.P,Y2,2,2*%
%TO.N,Net-(C5-Pad2)*%
X124710000Y-108530000D03*
%TD*%
D42*
%TO.P,U1,1,VBAT*%
%TO.N,Net-(U1-Pad1)*%
X127552000Y-105254500D03*
%TO.P,U1,2,PC13*%
%TO.N,Net-(R1-Pad1)*%
X128052000Y-105254500D03*
%TO.P,U1,3,PC14*%
%TO.N,Net-(C5-Pad2)*%
X128552000Y-105254500D03*
%TO.P,U1,4,PC15*%
%TO.N,Net-(C8-Pad2)*%
X129052000Y-105254500D03*
%TO.P,U1,5,PD0*%
%TO.N,Net-(C2-Pad2)*%
X129552000Y-105254500D03*
%TO.P,U1,6,PD1*%
%TO.N,Net-(C4-Pad2)*%
X130052000Y-105254500D03*
%TO.P,U1,7,NRST*%
%TO.N,Net-(C1-Pad2)*%
X130552000Y-105254500D03*
%TO.P,U1,8,VSSA*%
%TO.N,GND*%
X131052000Y-105254500D03*
%TO.P,U1,9,VDDA*%
%TO.N,Net-(C9-Pad1)*%
X131552000Y-105254500D03*
%TO.P,U1,10,PA0*%
%TO.N,LCH*%
X132052000Y-105254500D03*
%TO.P,U1,11,PA1*%
%TO.N,MICPADDLE*%
X132552000Y-105254500D03*
%TO.P,U1,12,PA2*%
%TO.N,DB4*%
X133052000Y-105254500D03*
D43*
%TO.P,U1,13,PA3*%
%TO.N,DB5*%
X134464500Y-103842000D03*
%TO.P,U1,14,PA4*%
%TO.N,DB6*%
X134464500Y-103342000D03*
%TO.P,U1,15,PA5*%
%TO.N,DB7*%
X134464500Y-102842000D03*
%TO.P,U1,16,PA6*%
%TO.N,TRANSMIT*%
X134464500Y-102342000D03*
%TO.P,U1,17,PA7*%
%TO.N,E*%
X134464500Y-101842000D03*
%TO.P,U1,18,PB0*%
%TO.N,RCH*%
X134464500Y-101342000D03*
%TO.P,U1,19,PB1*%
%TO.N,MUTE*%
X134464500Y-100842000D03*
%TO.P,U1,20,PB2*%
%TO.N,Net-(J5-Pad3)*%
X134464500Y-100342000D03*
%TO.P,U1,21,PB10*%
%TO.N,CS*%
X134464500Y-99842000D03*
%TO.P,U1,22,PB11*%
%TO.N,RS*%
X134464500Y-99342000D03*
%TO.P,U1,23,VSS*%
%TO.N,GND*%
X134464500Y-98842000D03*
%TO.P,U1,24,VDD*%
%TO.N,+3.3V*%
X134464500Y-98342000D03*
D42*
%TO.P,U1,25,PB12*%
%TO.N,unconnected-(U1-Pad25)*%
X133052000Y-96929500D03*
%TO.P,U1,26,PB13*%
%TO.N,SCK*%
X132552000Y-96929500D03*
%TO.P,U1,27,PB14*%
%TO.N,MISO*%
X132052000Y-96929500D03*
%TO.P,U1,28,PB15*%
%TO.N,MOSI*%
X131552000Y-96929500D03*
%TO.P,U1,29,PA8*%
%TO.N,RADIORESET*%
X131052000Y-96929500D03*
%TO.P,U1,30,PA9*%
%TO.N,TXD*%
X130552000Y-96929500D03*
%TO.P,U1,31,PA10*%
%TO.N,RXD*%
X130052000Y-96929500D03*
%TO.P,U1,32,PA11*%
%TO.N,Net-(R9-Pad1)*%
X129552000Y-96929500D03*
%TO.P,U1,33,PA12*%
%TO.N,Net-(R15-Pad2)*%
X129052000Y-96929500D03*
%TO.P,U1,34,PA13*%
%TO.N,Net-(J25-Pad2)*%
X128552000Y-96929500D03*
%TO.P,U1,35,VSS*%
%TO.N,GND*%
X128052000Y-96929500D03*
%TO.P,U1,36,VDD*%
%TO.N,+3.3V*%
X127552000Y-96929500D03*
D43*
%TO.P,U1,37,PA14*%
%TO.N,Net-(J25-Pad3)*%
X126139500Y-98342000D03*
%TO.P,U1,38,PA15*%
%TO.N,PTT*%
X126139500Y-98842000D03*
%TO.P,U1,39,PB3*%
%TO.N,BACKL*%
X126139500Y-99342000D03*
%TO.P,U1,40,PB4*%
%TO.N,PS2CLK*%
X126139500Y-99842000D03*
%TO.P,U1,41,PB5*%
%TO.N,PS2DATA*%
X126139500Y-100342000D03*
%TO.P,U1,42,PB6*%
%TO.N,SCL*%
X126139500Y-100842000D03*
%TO.P,U1,43,PB7*%
%TO.N,SDA*%
X126139500Y-101342000D03*
%TO.P,U1,44,BOOT0*%
%TO.N,Net-(J5-Pad4)*%
X126139500Y-101842000D03*
%TO.P,U1,45,PB8*%
%TO.N,BEEPOUT*%
X126139500Y-102342000D03*
%TO.P,U1,46,PB9*%
%TO.N,Net-(J9-Pad1)*%
X126139500Y-102842000D03*
%TO.P,U1,47,VSS*%
%TO.N,GND*%
X126139500Y-103342000D03*
%TO.P,U1,48,VDD*%
%TO.N,+3.3V*%
X126139500Y-103842000D03*
%TD*%
D12*
%TO.P,J9,1,Pin_1*%
%TO.N,Net-(J9-Pad1)*%
X116375000Y-105325000D03*
%TD*%
D21*
%TO.P,C37,2*%
%TO.N,GND*%
X145075000Y-127262500D03*
%TO.P,C37,1*%
%TO.N,+12V*%
X145075000Y-129337500D03*
%TD*%
D44*
%TO.P,U3,8*%
%TO.N,unconnected-(U3-Pad8)*%
X148955000Y-136955000D03*
%TO.P,U3,7*%
%TO.N,Net-(C15-Pad1)*%
X148955000Y-135685000D03*
%TO.P,U3,6,V+*%
%TO.N,+12V*%
X148955000Y-134415000D03*
%TO.P,U3,5*%
%TO.N,Net-(L10-Pad1)*%
X148955000Y-133145000D03*
%TO.P,U3,4,Gnd*%
%TO.N,GND*%
X154205000Y-133145000D03*
%TO.P,U3,3,+*%
X154205000Y-134415000D03*
%TO.P,U3,2,-*%
%TO.N,Net-(RV1-Pad2)*%
X154205000Y-135685000D03*
%TO.P,U3,1*%
%TO.N,unconnected-(U3-Pad1)*%
X154205000Y-136955000D03*
%TD*%
D45*
%TO.P,U4,1,GND*%
%TO.N,GND*%
X79680000Y-61020000D03*
%TO.P,U4,2,VO*%
%TO.N,+3.3V*%
X77380000Y-61020000D03*
D46*
X77380000Y-67320000D03*
D45*
%TO.P,U4,3,VI*%
%TO.N,+5V*%
X75080000Y-61020000D03*
%TD*%
D35*
%TO.P,Q5,1,S*%
%TO.N,GND*%
X185340000Y-90830000D03*
D36*
%TO.P,Q5,2,G*%
%TO.N,Net-(C23-Pad2)*%
X182800000Y-90830000D03*
%TO.P,Q5,3,D*%
%TO.N,AMPOUT*%
X180260000Y-90830000D03*
%TD*%
D35*
%TO.P,Q6,1,S*%
%TO.N,GND*%
X175560000Y-90680000D03*
D36*
%TO.P,Q6,2,G*%
%TO.N,Net-(C23-Pad2)*%
X173020000Y-90680000D03*
%TO.P,Q6,3,D*%
%TO.N,AMPOUT*%
X170480000Y-90680000D03*
%TD*%
D35*
%TO.P,Q7,1,S*%
%TO.N,GND*%
X179960000Y-75520000D03*
D36*
%TO.P,Q7,2,G*%
%TO.N,Net-(C23-Pad2)*%
X182500000Y-75520000D03*
%TO.P,Q7,3,D*%
%TO.N,AMPOUT*%
X185040000Y-75520000D03*
%TD*%
D22*
%TO.P,C14,1*%
%TO.N,Net-(C14-Pad1)*%
X172162500Y-64800000D03*
%TO.P,C14,2*%
%TO.N,Net-(C14-Pad2)*%
X174237500Y-64800000D03*
%TD*%
D47*
%TO.P,RV3,1,1*%
%TO.N,GND*%
X93500000Y-75000000D03*
%TO.P,RV3,2,2*%
%TO.N,Net-(DS1-Pad3)*%
X91000000Y-80040000D03*
%TO.P,RV3,3,3*%
%TO.N,+5V*%
X88500000Y-75000000D03*
%TD*%
D20*
%TO.P,C42,1*%
%TO.N,+3.3V*%
X78727500Y-71140000D03*
%TO.P,C42,2*%
%TO.N,GND*%
X76652500Y-71140000D03*
%TD*%
D12*
%TO.P,JP3,1,A*%
%TO.N,Net-(C35-Pad2)*%
X168810000Y-111250000D03*
D13*
%TO.P,JP3,2,C*%
%TO.N,RF*%
X168810000Y-108710000D03*
%TO.P,JP3,3,B*%
%TO.N,Net-(C33-Pad2)*%
X168810000Y-106170000D03*
%TD*%
D48*
%TO.P,R1,2*%
%TO.N,Net-(D2-Pad1)*%
X119300000Y-116710000D03*
%TO.P,R1,1*%
%TO.N,Net-(R1-Pad1)*%
X117300000Y-116710000D03*
%TD*%
D49*
%TO.P,R2,1*%
%TO.N,Net-(DS1-Pad15)*%
X111590000Y-81000000D03*
%TO.P,R2,2*%
%TO.N,+5V*%
X111590000Y-79000000D03*
%TD*%
%TO.P,R3,1*%
%TO.N,Net-(C11-Pad2)*%
X102700000Y-97550000D03*
%TO.P,R3,2*%
%TO.N,DB5*%
X102700000Y-95550000D03*
%TD*%
D48*
%TO.P,R4,2*%
%TO.N,Net-(D3-Pad2)*%
X110728000Y-126238000D03*
%TO.P,R4,1*%
%TO.N,+3.3V*%
X108728000Y-126238000D03*
%TD*%
D50*
%TO.P,R6,1*%
%TO.N,Net-(C10-Pad2)*%
X89975000Y-116750000D03*
%TO.P,R6,2*%
%TO.N,+3.3V*%
X87975000Y-116750000D03*
%TD*%
%TO.P,R7,1*%
%TO.N,+3.3V*%
X121396000Y-70104000D03*
%TO.P,R7,2*%
%TO.N,Net-(R15-Pad2)*%
X119396000Y-70104000D03*
%TD*%
D48*
%TO.P,R8,1*%
%TO.N,Net-(C14-Pad2)*%
X172200000Y-62500000D03*
%TO.P,R8,2*%
%TO.N,Net-(C31-Pad2)*%
X174200000Y-62500000D03*
%TD*%
D49*
%TO.P,R9,1*%
%TO.N,Net-(R9-Pad1)*%
X114554000Y-71866000D03*
%TO.P,R9,2*%
%TO.N,Net-(J26-Pad2)*%
X114554000Y-69866000D03*
%TD*%
D48*
%TO.P,R11,2*%
%TO.N,Net-(L10-Pad1)*%
X145780000Y-132588000D03*
%TO.P,R11,1*%
%TO.N,Net-(C19-Pad1)*%
X143780000Y-132588000D03*
%TD*%
D49*
%TO.P,R12,2*%
%TO.N,+3.3V*%
X85620000Y-116230000D03*
%TO.P,R12,1*%
%TO.N,Net-(C16-Pad2)*%
X85620000Y-118230000D03*
%TD*%
D48*
%TO.P,R13,1*%
%TO.N,Net-(C17-Pad2)*%
X105630000Y-117620000D03*
%TO.P,R13,2*%
%TO.N,+3.3V*%
X107630000Y-117620000D03*
%TD*%
D51*
%TO.P,R14,1*%
%TO.N,Net-(C14-Pad2)*%
X154178000Y-68850000D03*
%TO.P,R14,2*%
%TO.N,Net-(D18-Pad2)*%
X154178000Y-70850000D03*
%TD*%
%TO.P,R15,1*%
%TO.N,Net-(J26-Pad3)*%
X111760000Y-69866000D03*
%TO.P,R15,2*%
%TO.N,Net-(R15-Pad2)*%
X111760000Y-71866000D03*
%TD*%
D49*
%TO.P,R16,1*%
%TO.N,+3.3V*%
X149660000Y-110690000D03*
%TO.P,R16,2*%
%TO.N,Net-(R16-Pad2)*%
X149660000Y-108690000D03*
%TD*%
%TO.P,R17,1*%
%TO.N,Net-(R17-Pad1)*%
X158242000Y-101076000D03*
%TO.P,R17,2*%
%TO.N,CLK2*%
X158242000Y-99076000D03*
%TD*%
%TO.P,R18,1*%
%TO.N,SDA*%
X137750000Y-85025000D03*
%TO.P,R18,2*%
%TO.N,+3.3V*%
X137750000Y-83025000D03*
%TD*%
D51*
%TO.P,R19,1*%
%TO.N,Net-(C27-Pad1)*%
X139740000Y-117180000D03*
%TO.P,R19,2*%
%TO.N,RCH*%
X139740000Y-119180000D03*
%TD*%
D50*
%TO.P,R20,1*%
%TO.N,Net-(Q9-Pad2)*%
X157667200Y-89128600D03*
%TO.P,R20,2*%
%TO.N,Net-(C56-Pad1)*%
X155667200Y-89128600D03*
%TD*%
D51*
%TO.P,R21,1*%
%TO.N,RCH*%
X140300000Y-121325000D03*
%TO.P,R21,2*%
%TO.N,GND*%
X140300000Y-123325000D03*
%TD*%
%TO.P,R23,1*%
%TO.N,LCH*%
X136850000Y-121325000D03*
%TO.P,R23,2*%
%TO.N,GND*%
X136850000Y-123325000D03*
%TD*%
D49*
%TO.P,R29,1*%
%TO.N,Net-(C10-Pad2)*%
X99940000Y-97540000D03*
%TO.P,R29,2*%
%TO.N,DB4*%
X99940000Y-95540000D03*
%TD*%
%TO.P,R30,1*%
%TO.N,Net-(Q4-Pad1)*%
X144600000Y-108270000D03*
%TO.P,R30,2*%
%TO.N,MUTE*%
X144600000Y-106270000D03*
%TD*%
D48*
%TO.P,R31,2*%
%TO.N,Net-(C34-Pad1)*%
X163306000Y-136780000D03*
%TO.P,R31,1*%
%TO.N,Net-(C60-Pad2)*%
X161306000Y-136780000D03*
%TD*%
D49*
%TO.P,R32,2*%
%TO.N,Net-(C18-Pad1)*%
X158700000Y-130950000D03*
%TO.P,R32,1*%
%TO.N,AUDIO*%
X158700000Y-132950000D03*
%TD*%
%TO.P,R33,2*%
%TO.N,+3.3V*%
X87970000Y-132760000D03*
%TO.P,R33,1*%
%TO.N,Net-(C11-Pad2)*%
X87970000Y-134760000D03*
%TD*%
D48*
%TO.P,R34,2*%
%TO.N,Net-(C34-Pad1)*%
X163306000Y-134460000D03*
%TO.P,R34,1*%
%TO.N,Net-(C18-Pad1)*%
X161306000Y-134460000D03*
%TD*%
D49*
%TO.P,R46,1*%
%TO.N,Net-(C17-Pad2)*%
X108360000Y-97530000D03*
%TO.P,R46,2*%
%TO.N,DB7*%
X108360000Y-95530000D03*
%TD*%
%TO.P,R47,1*%
%TO.N,Net-(C16-Pad2)*%
X105610000Y-97560000D03*
%TO.P,R47,2*%
%TO.N,DB6*%
X105610000Y-95560000D03*
%TD*%
%TO.P,R24,1*%
%TO.N,Net-(C40-Pad1)*%
X150775000Y-121450000D03*
%TO.P,R24,2*%
%TO.N,Net-(C28-Pad1)*%
X150775000Y-119450000D03*
%TD*%
D20*
%TO.P,C44,1*%
%TO.N,GND*%
X68267500Y-70000000D03*
%TO.P,C44,2*%
%TO.N,+12V*%
X66192500Y-70000000D03*
%TD*%
D12*
%TO.P,JP4,1,1*%
%TO.N,Net-(C26-Pad2)*%
X169660000Y-126990000D03*
D13*
%TO.P,JP4,2,2*%
%TO.N,Net-(J18-Pad3)*%
X169660000Y-129530000D03*
%TD*%
D23*
%TO.P,C47,1*%
%TO.N,GND*%
X143030000Y-73892500D03*
%TO.P,C47,2*%
%TO.N,+3.3V*%
X143030000Y-75967500D03*
%TD*%
D49*
%TO.P,R35,1*%
%TO.N,SCL*%
X135075000Y-85050000D03*
%TO.P,R35,2*%
%TO.N,+3.3V*%
X135075000Y-83050000D03*
%TD*%
D51*
%TO.P,R48,1*%
%TO.N,Net-(R16-Pad2)*%
X149020000Y-112800000D03*
%TO.P,R48,2*%
%TO.N,GND*%
X149020000Y-114800000D03*
%TD*%
D48*
%TO.P,R49,1*%
%TO.N,Net-(R49-Pad1)*%
X150892000Y-77550000D03*
%TO.P,R49,2*%
%TO.N,Net-(C56-Pad2)*%
X152892000Y-77550000D03*
%TD*%
%TO.P,R50,1*%
%TO.N,Net-(R50-Pad1)*%
X150892000Y-80975000D03*
%TO.P,R50,2*%
%TO.N,Net-(C56-Pad2)*%
X152892000Y-80975000D03*
%TD*%
D52*
%TO.P,U6,1,Vdd*%
%TO.N,+3.3V*%
X143290000Y-78670000D03*
%TO.P,U6,2,XA*%
%TO.N,Net-(U6-Pad2)*%
X143290000Y-79170000D03*
%TO.P,U6,3,XB*%
%TO.N,Net-(U6-Pad3)*%
X143290000Y-79670000D03*
%TO.P,U6,4,SCL*%
%TO.N,SCL*%
X143290000Y-80170000D03*
%TO.P,U6,5,SDA*%
%TO.N,SDA*%
X143290000Y-80670000D03*
%TO.P,U6,6,CLK2*%
%TO.N,CLK2*%
X147690000Y-80670000D03*
%TO.P,U6,7,VDDO*%
%TO.N,+3.3V*%
X147690000Y-80170000D03*
%TO.P,U6,8,GND*%
%TO.N,GND*%
X147690000Y-79670000D03*
%TO.P,U6,9,CLK1*%
%TO.N,Net-(R50-Pad1)*%
X147690000Y-79170000D03*
%TO.P,U6,10,CLK0*%
%TO.N,Net-(R49-Pad1)*%
X147690000Y-78670000D03*
%TD*%
D53*
%TO.P,Y3,1,1*%
%TO.N,Net-(U6-Pad3)*%
X136218000Y-79248000D03*
%TO.P,Y3,2,2*%
%TO.N,unconnected-(Y3-Pad2)*%
X139118000Y-79248000D03*
%TO.P,Y3,3,3*%
%TO.N,Net-(U6-Pad2)*%
X139118000Y-76948000D03*
%TO.P,Y3,4,4*%
%TO.N,unconnected-(Y3-Pad4)*%
X136218000Y-76948000D03*
%TD*%
D54*
%TO.P,J12,1,In*%
%TO.N,Net-(J12-Pad1)*%
X181945000Y-129425000D03*
D30*
X184673000Y-131711000D03*
D54*
%TO.P,J12,2,Ext*%
%TO.N,GND*%
X181945000Y-126885000D03*
D19*
X184673000Y-126631000D03*
%TD*%
D55*
%TO.P,RLY1,1,Coil*%
%TO.N,TXRELAY*%
X187775000Y-98845000D03*
%TO.P,RLY1,2,Pole*%
%TO.N,AMPOUT*%
X187775000Y-106465000D03*
%TO.P,RLY1,3,NC*%
%TO.N,Net-(RLY1-Pad3)*%
X187775000Y-111545000D03*
%TO.P,RLY1,4,NO*%
%TO.N,Net-(C26-Pad1)*%
X187775000Y-116625000D03*
%TO.P,RLY1,5,Coil*%
%TO.N,GND*%
X180175000Y-98845000D03*
%TO.P,RLY1,6,Pole*%
%TO.N,RF*%
X180175000Y-106465000D03*
%TO.P,RLY1,7,NC*%
%TO.N,Net-(JP7-Pad2)*%
X180175000Y-111545000D03*
%TO.P,RLY1,8,NO*%
%TO.N,unconnected-(RLY1-Pad8)*%
X180175000Y-116625000D03*
%TD*%
D23*
%TO.P,C30,1*%
%TO.N,Net-(C30-Pad1)*%
X165325000Y-115650000D03*
%TO.P,C30,2*%
%TO.N,GND*%
X165325000Y-117725000D03*
%TD*%
D56*
%TO.P,D9,1,K*%
%TO.N,RF*%
X175975000Y-104650000D03*
%TO.P,D9,2,A*%
%TO.N,Net-(D11-Pad1)*%
X175975000Y-107950000D03*
%TD*%
D48*
%TO.P,R5,1*%
%TO.N,+3.3V*%
X139800000Y-95850000D03*
%TO.P,R5,2*%
%TO.N,Net-(C1-Pad2)*%
X141800000Y-95850000D03*
%TD*%
D51*
%TO.P,R22,2*%
%TO.N,LCH*%
X137550000Y-119160000D03*
%TO.P,R22,1*%
%TO.N,Net-(C27-Pad1)*%
X137550000Y-117160000D03*
%TD*%
D49*
%TO.P,R25,1*%
%TO.N,Net-(C40-Pad1)*%
X147550000Y-121375000D03*
%TO.P,R25,2*%
%TO.N,Net-(C39-Pad1)*%
X147550000Y-119375000D03*
%TD*%
D57*
%TO.P,Q8,1,E*%
%TO.N,Net-(C31-Pad2)*%
X165608000Y-71374000D03*
D54*
%TO.P,Q8,2,B*%
%TO.N,Net-(C14-Pad2)*%
X165608000Y-73914000D03*
%TO.P,Q8,3,C*%
%TO.N,Net-(C14-Pad1)*%
X165608000Y-76454000D03*
%TD*%
D48*
%TO.P,R38,1*%
%TO.N,Net-(D18-Pad1)*%
X169790000Y-59950000D03*
%TO.P,R38,2*%
%TO.N,Net-(D15-Pad1)*%
X171790000Y-59950000D03*
%TD*%
D50*
%TO.P,R39,1*%
%TO.N,Net-(Q13-Pad1)*%
X180000000Y-64900000D03*
%TO.P,R39,2*%
%TO.N,Net-(D15-Pad2)*%
X178000000Y-64900000D03*
%TD*%
D12*
%TO.P,JP1,1,1*%
%TO.N,Net-(D15-Pad2)*%
X174030000Y-70000000D03*
D13*
%TO.P,JP1,2,2*%
%TO.N,Net-(C31-Pad1)*%
X176570000Y-70000000D03*
%TD*%
D20*
%TO.P,C39,1*%
%TO.N,Net-(C39-Pad1)*%
X144547500Y-120650000D03*
%TO.P,C39,2*%
%TO.N,RCH*%
X142472500Y-120650000D03*
%TD*%
D12*
%TO.P,JP2,1,1*%
%TO.N,Net-(J12-Pad1)*%
X173430000Y-126910000D03*
D13*
%TO.P,JP2,2,2*%
%TO.N,Net-(J18-Pad3)*%
X173430000Y-129450000D03*
%TD*%
D58*
%TO.P,T3,1,RF*%
%TO.N,Net-(J18-Pad3)*%
X173355000Y-140970000D03*
%TO.P,T3,2,RF*%
%TO.N,Net-(J12-Pad1)*%
X180975000Y-140970000D03*
%TO.P,T3,3,SAMPLE*%
%TO.N,GND*%
X177228500Y-143764000D03*
%TO.P,T3,4,SAMPLE*%
%TO.N,Net-(D16-Pad2)*%
X177228500Y-138176000D03*
%TD*%
D34*
%TO.P,D16,1,K*%
%TO.N,Net-(D16-Pad1)*%
X178850000Y-131360000D03*
%TO.P,D16,2,A*%
%TO.N,Net-(D16-Pad2)*%
X178850000Y-133410000D03*
%TD*%
D50*
%TO.P,R28,1*%
%TO.N,Net-(D16-Pad1)*%
X174660000Y-133250000D03*
%TO.P,R28,2*%
%TO.N,GND*%
X172660000Y-133250000D03*
%TD*%
D56*
%TO.P,D17,1,K*%
%TO.N,Net-(C23-Pad2)*%
X157000000Y-82675000D03*
%TO.P,D17,2,A*%
%TO.N,GND*%
X157000000Y-85975000D03*
%TD*%
D35*
%TO.P,Q9,1,S*%
%TO.N,Net-(Q9-Pad1)*%
X167575000Y-95250000D03*
D36*
%TO.P,Q9,2,G*%
%TO.N,Net-(Q9-Pad2)*%
X165035000Y-95250000D03*
%TO.P,Q9,3,D*%
%TO.N,Net-(C14-Pad1)*%
X162495000Y-95250000D03*
%TD*%
D22*
%TO.P,C46,1*%
%TO.N,GND*%
X148012500Y-63810000D03*
%TO.P,C46,2*%
%TO.N,Net-(C31-Pad2)*%
X150087500Y-63810000D03*
%TD*%
D50*
%TO.P,R51,1*%
%TO.N,Net-(Q9-Pad1)*%
X167525000Y-90800000D03*
%TO.P,R51,2*%
%TO.N,Net-(C23-Pad1)*%
X165525000Y-90800000D03*
%TD*%
D51*
%TO.P,R52,1*%
%TO.N,Net-(C14-Pad1)*%
X159766000Y-87138000D03*
%TO.P,R52,2*%
%TO.N,Net-(Q9-Pad2)*%
X159766000Y-89138000D03*
%TD*%
D23*
%TO.P,C24,1*%
%TO.N,GND*%
X166830000Y-64032500D03*
%TO.P,C24,2*%
%TO.N,Net-(C14-Pad1)*%
X166830000Y-66107500D03*
%TD*%
D50*
%TO.P,R53,1*%
%TO.N,Net-(C23-Pad2)*%
X160050000Y-79875000D03*
%TO.P,R53,2*%
%TO.N,Net-(C14-Pad1)*%
X158050000Y-79875000D03*
%TD*%
D21*
%TO.P,C56,1*%
%TO.N,Net-(C56-Pad1)*%
X152100000Y-86537500D03*
%TO.P,C56,2*%
%TO.N,Net-(C56-Pad2)*%
X152100000Y-84462500D03*
%TD*%
D12*
%TO.P,JP7,1,1*%
%TO.N,Net-(J17-Pad4)*%
X176560000Y-116780000D03*
D13*
%TO.P,JP7,2,2*%
%TO.N,Net-(JP7-Pad2)*%
X174020000Y-116780000D03*
%TO.P,JP7,3,3*%
%TO.N,Net-(J18-Pad3)*%
X171480000Y-116780000D03*
%TD*%
D59*
%TO.P,Q12,1,B*%
%TO.N,Net-(Q12-Pad1)*%
X150180000Y-70787500D03*
%TO.P,Q12,2,E*%
%TO.N,GND*%
X152080000Y-70787500D03*
%TO.P,Q12,3,C*%
%TO.N,Net-(D18-Pad1)*%
X151130000Y-68912500D03*
%TD*%
D37*
%TO.P,Q13,1,B*%
%TO.N,Net-(Q13-Pad1)*%
X182312500Y-65050000D03*
%TO.P,Q13,2,E*%
%TO.N,Net-(C31-Pad2)*%
X182312500Y-66950000D03*
%TO.P,Q13,3,C*%
%TO.N,TXRELAY*%
X184187500Y-66000000D03*
%TD*%
D48*
%TO.P,R65,1*%
%TO.N,Net-(L9-Pad2)*%
X143670000Y-68760000D03*
%TO.P,R65,2*%
%TO.N,Net-(Q12-Pad1)*%
X145670000Y-68760000D03*
%TD*%
D51*
%TO.P,R66,1*%
%TO.N,Net-(Q9-Pad2)*%
X161525000Y-99425000D03*
%TO.P,R66,2*%
%TO.N,GND*%
X161525000Y-101425000D03*
%TD*%
D49*
%TO.P,R67,1*%
%TO.N,GND*%
X159550000Y-85100000D03*
%TO.P,R67,2*%
%TO.N,Net-(C23-Pad2)*%
X159550000Y-83100000D03*
%TD*%
D10*
%TO.P,P1,1,1*%
%TO.N,PS2DATA*%
X90630000Y-65930000D03*
D11*
%TO.P,P1,2,2*%
%TO.N,unconnected-(P1-Pad2)*%
X93230000Y-65930000D03*
%TO.P,P1,3,3*%
%TO.N,GND*%
X88530000Y-65930000D03*
%TO.P,P1,4,4*%
%TO.N,+5V*%
X95330000Y-65930000D03*
%TO.P,P1,5,5*%
%TO.N,PS2CLK*%
X88530000Y-68730000D03*
%TO.P,P1,6*%
%TO.N,unconnected-(P1-Pad6)*%
X95330000Y-68730000D03*
D60*
%TO.P,P1,7,Shell*%
%TO.N,GND*%
X85080000Y-63080000D03*
X98780000Y-63080000D03*
D61*
X91930000Y-62280000D03*
%TD*%
D49*
%TO.P,R64,1*%
%TO.N,PS2CLK*%
X82330000Y-67990000D03*
%TO.P,R64,2*%
%TO.N,+5V*%
X82330000Y-65990000D03*
%TD*%
D50*
%TO.P,R70,1*%
%TO.N,+5V*%
X105150000Y-70440000D03*
%TO.P,R70,2*%
%TO.N,PS2DATA*%
X103150000Y-70440000D03*
%TD*%
D33*
%TO.P,D19,1,K*%
%TO.N,Net-(D19-Pad1)*%
X160880000Y-60207000D03*
%TO.P,D19,2,A*%
%TO.N,Net-(C31-Pad2)*%
X160880000Y-58157000D03*
%TD*%
D50*
%TO.P,R71,1*%
%TO.N,Net-(D18-Pad1)*%
X167810000Y-59930000D03*
%TO.P,R71,2*%
%TO.N,Net-(D19-Pad1)*%
X165810000Y-59930000D03*
%TD*%
D22*
%TO.P,C32,1*%
%TO.N,AMPOUT*%
X171936500Y-94996000D03*
%TO.P,C32,2*%
%TO.N,GND*%
X174011500Y-94996000D03*
%TD*%
D59*
%TO.P,Q14,1,B*%
%TO.N,Net-(Q14-Pad1)*%
X117875000Y-86887500D03*
%TO.P,Q14,2,E*%
%TO.N,GND*%
X119775000Y-86887500D03*
%TO.P,Q14,3,C*%
%TO.N,Net-(DS1-Pad16)*%
X118825000Y-85012500D03*
%TD*%
D48*
%TO.P,R72,1*%
%TO.N,Net-(Q14-Pad1)*%
X120375000Y-94500000D03*
%TO.P,R72,2*%
%TO.N,BACKL*%
X122375000Y-94500000D03*
%TD*%
D23*
%TO.P,C38,1*%
%TO.N,Net-(C38-Pad1)*%
X147075000Y-72037500D03*
%TO.P,C38,2*%
%TO.N,GND*%
X147075000Y-74112500D03*
%TD*%
D51*
%TO.P,R73,1*%
%TO.N,Net-(C38-Pad1)*%
X155975000Y-78750000D03*
%TO.P,R73,2*%
%TO.N,Net-(C23-Pad2)*%
X155975000Y-80750000D03*
%TD*%
D62*
%TO.P,RV4,1,1*%
%TO.N,+5V*%
X142790000Y-59940000D03*
%TO.P,RV4,2,2*%
%TO.N,Net-(L11-Pad2)*%
X142790000Y-62480000D03*
%TO.P,RV4,3,3*%
%TO.N,GND*%
X142790000Y-65020000D03*
%TD*%
D51*
%TO.P,R74,1*%
%TO.N,AMPOUT*%
X167225000Y-85675000D03*
%TO.P,R74,2*%
X167225000Y-87675000D03*
%TD*%
D33*
%TO.P,L11,1,1*%
%TO.N,Net-(C38-Pad1)*%
X147900000Y-68675000D03*
%TO.P,L11,2,2*%
%TO.N,Net-(L11-Pad2)*%
X147900000Y-66625000D03*
%TD*%
D63*
%TO.P,J3,1,Pin_1*%
%TO.N,GND*%
X54000000Y-61000000D03*
%TD*%
%TO.P,J4,1,Pin_1*%
%TO.N,GND*%
X185500000Y-60500000D03*
%TD*%
%TO.P,J6,1,Pin_1*%
%TO.N,GND*%
X185500000Y-141000000D03*
%TD*%
%TO.P,J7,1,Pin_1*%
%TO.N,GND*%
X54000000Y-140500000D03*
%TD*%
D23*
%TO.P,C41,1*%
%TO.N,Net-(C19-Pad1)*%
X128675000Y-134712500D03*
%TO.P,C41,2*%
%TO.N,GND*%
X128675000Y-136787500D03*
%TD*%
D22*
%TO.P,C58,1*%
%TO.N,Net-(C58-Pad1)*%
X54500000Y-67000000D03*
%TO.P,C58,2*%
%TO.N,Net-(C58-Pad2)*%
X56575000Y-67000000D03*
%TD*%
D54*
%TO.P,T4,1*%
%TO.N,Net-(C58-Pad1)*%
X60000000Y-67310000D03*
%TO.P,T4,2*%
%TO.N,GND*%
X60000000Y-59690000D03*
%TO.P,T4,3*%
%TO.N,Net-(C58-Pad2)*%
X62540000Y-67310000D03*
%TO.P,T4,4*%
%TO.N,+12V*%
X62540000Y-59690000D03*
%TD*%
D23*
%TO.P,C27,1*%
%TO.N,Net-(C27-Pad1)*%
X153300000Y-112837500D03*
%TO.P,C27,2*%
%TO.N,GND*%
X153300000Y-114912500D03*
%TD*%
D24*
%TO.P,D6,1,K*%
%TO.N,AMPOUT*%
X186880000Y-95330000D03*
D25*
%TO.P,D6,2,A*%
%TO.N,GND*%
X179260000Y-95330000D03*
%TD*%
D50*
%TO.P,R76,1*%
%TO.N,Net-(C66-Pad2)*%
X84566000Y-95758000D03*
%TO.P,R76,2*%
%TO.N,Net-(C66-Pad1)*%
X82566000Y-95758000D03*
%TD*%
D22*
%TO.P,C7,1*%
%TO.N,GND*%
X131550500Y-116078000D03*
%TO.P,C7,2*%
%TO.N,MICPADDLE*%
X133625500Y-116078000D03*
%TD*%
D11*
%TO.P,L10,1,1*%
%TO.N,Net-(L10-Pad1)*%
X141732000Y-135382000D03*
D14*
%TO.P,L10,2,2*%
%TO.N,Net-(C19-Pad1)*%
X131572000Y-135382000D03*
%TD*%
D12*
%TO.P,J14,1,Pin_1*%
%TO.N,AUDIO*%
X158220000Y-135730000D03*
%TD*%
%TO.P,J15,1,Pin_1*%
%TO.N,GND*%
X150622000Y-142494000D03*
%TD*%
%TO.P,J16,1,Pin_1*%
%TO.N,GND*%
X179900000Y-58900000D03*
%TD*%
D10*
%TO.P,C3,1*%
%TO.N,+12V*%
X65500000Y-76000000D03*
D11*
%TO.P,C3,2*%
%TO.N,GND*%
X69000000Y-76000000D03*
%TD*%
D58*
%TO.P,L4,1,1*%
%TO.N,+12V*%
X152146000Y-58039000D03*
%TO.P,L4,2,2*%
%TO.N,Net-(C31-Pad2)*%
X152146000Y-61849000D03*
%TD*%
%TO.P,L6,1,1*%
%TO.N,Net-(C14-Pad1)*%
X161895000Y-82875000D03*
%TO.P,L6,2,2*%
%TO.N,AMPOUT*%
X165705000Y-82875000D03*
%TD*%
D64*
%TO.P,Q15,1,G*%
%TO.N,Net-(C23-Pad2)*%
X187210000Y-80770000D03*
D65*
%TO.P,Q15,2,D*%
%TO.N,AMPOUT*%
X187210000Y-83310000D03*
%TO.P,Q15,3,S*%
%TO.N,GND*%
X187210000Y-85850000D03*
%TD*%
D22*
%TO.P,C18,2*%
%TO.N,GND*%
X163027500Y-131220000D03*
%TO.P,C18,1*%
%TO.N,Net-(C18-Pad1)*%
X160952500Y-131220000D03*
%TD*%
%TO.P,C60,2*%
%TO.N,Net-(C60-Pad2)*%
X158009500Y-139040000D03*
%TO.P,C60,1*%
%TO.N,GND*%
X155934500Y-139040000D03*
%TD*%
D48*
%TO.P,R10,1*%
%TO.N,BEEPOUT*%
X121450000Y-116650000D03*
%TO.P,R10,2*%
%TO.N,Net-(C60-Pad2)*%
X123450000Y-116650000D03*
%TD*%
D66*
%TO.P,D15,1,K*%
%TO.N,Net-(D15-Pad1)*%
X173530000Y-59990000D03*
%TO.P,D15,2,A*%
%TO.N,Net-(D15-Pad2)*%
X176830000Y-59990000D03*
%TD*%
%TO.P,D18,1,K*%
%TO.N,Net-(D18-Pad1)*%
X149988000Y-73406000D03*
%TO.P,D18,2,A*%
%TO.N,Net-(D18-Pad2)*%
X153288000Y-73406000D03*
%TD*%
D55*
%TO.P,RV1,1,1*%
%TO.N,Net-(C34-Pad2)*%
X135900000Y-143800000D03*
D47*
X138400000Y-140800000D03*
D55*
%TO.P,RV1,2,2*%
%TO.N,Net-(RV1-Pad2)*%
X133400000Y-143800000D03*
D47*
X133400000Y-140800000D03*
D55*
%TO.P,RV1,3,3*%
%TO.N,GND*%
X130900000Y-143800000D03*
D47*
X128400000Y-140800000D03*
%TD*%
D29*
%TO.P,D8,1,K*%
%TO.N,TXRELAY*%
X187250000Y-66500000D03*
%TO.P,D8,2,A*%
%TO.N,GND*%
X187250000Y-71500000D03*
%TD*%
D12*
%TO.P,J10,1,Pin_1*%
%TO.N,TRANSMIT*%
X140410000Y-100830000D03*
%TD*%
D22*
%TO.P,C61,2*%
%TO.N,Net-(C61-Pad2)*%
X108970000Y-130280000D03*
%TO.P,C61,1*%
%TO.N,GND*%
X106895000Y-130280000D03*
%TD*%
D49*
%TO.P,R40,1*%
%TO.N,Net-(C61-Pad2)*%
X97390000Y-97500000D03*
%TO.P,R40,2*%
%TO.N,RS*%
X97390000Y-95500000D03*
%TD*%
D48*
%TO.P,R75,2*%
%TO.N,+3.3V*%
X104378000Y-129794000D03*
%TO.P,R75,1*%
%TO.N,Net-(C61-Pad2)*%
X102378000Y-129794000D03*
%TD*%
D15*
%TO.P,SW6,2,2*%
%TO.N,GND*%
X102475000Y-137950000D03*
X108975000Y-137950000D03*
%TO.P,SW6,1,1*%
%TO.N,Net-(C61-Pad2)*%
X108975000Y-133450000D03*
X102475000Y-133450000D03*
%TD*%
D10*
%TO.P,C53,1*%
%TO.N,+12V*%
X126480000Y-125930000D03*
D11*
%TO.P,C53,2*%
%TO.N,GND*%
X122980000Y-125930000D03*
%TD*%
D13*
%TO.P,J17,4,Pin_4*%
%TO.N,Net-(J17-Pad4)*%
X163830000Y-123190000D03*
%TO.P,J17,3,Pin_3*%
%TO.N,Net-(C26-Pad2)*%
X161290000Y-123190000D03*
%TO.P,J17,2,Pin_2*%
%TO.N,GND*%
X158750000Y-123190000D03*
D12*
%TO.P,J17,1,Pin_1*%
X156210000Y-123190000D03*
%TD*%
%TO.P,J18,1,Pin_1*%
%TO.N,GND*%
X156220000Y-143510000D03*
D13*
%TO.P,J18,2,Pin_2*%
X158760000Y-143510000D03*
%TO.P,J18,3,Pin_3*%
%TO.N,Net-(J18-Pad3)*%
X161300000Y-143510000D03*
%TO.P,J18,4,Pin_4*%
X163840000Y-143510000D03*
%TD*%
D20*
%TO.P,C26,1*%
%TO.N,Net-(C26-Pad1)*%
X172587500Y-121230000D03*
%TO.P,C26,2*%
%TO.N,Net-(C26-Pad2)*%
X170512500Y-121230000D03*
%TD*%
D21*
%TO.P,C23,1*%
%TO.N,Net-(C23-Pad1)*%
X162250000Y-91525000D03*
%TO.P,C23,2*%
%TO.N,Net-(C23-Pad2)*%
X162250000Y-89450000D03*
%TD*%
D67*
%TO.P,J19,G*%
%TO.N,GND*%
X64770000Y-143080000D03*
D68*
%TO.P,J19,S1*%
%TO.N,Net-(C68-Pad2)*%
X59570000Y-135180000D03*
D69*
%TO.P,J19,SN1*%
%TO.N,unconnected-(J19-PadSN1)*%
X62170000Y-136180000D03*
D68*
%TO.P,J19,T1*%
%TO.N,Net-(C67-Pad2)*%
X69570000Y-138680000D03*
D70*
%TO.P,J19,TN1*%
%TO.N,unconnected-(J19-PadTN1)*%
X69070000Y-131780000D03*
%TD*%
D21*
%TO.P,C36,1*%
%TO.N,GND*%
X61550000Y-118207500D03*
%TO.P,C36,2*%
%TO.N,+5V*%
X61550000Y-116132500D03*
%TD*%
D56*
%TO.P,D10,1,K*%
%TO.N,GND*%
X172950000Y-112900000D03*
%TO.P,D10,2,A*%
%TO.N,Net-(D10-Pad2)*%
X172950000Y-109600000D03*
%TD*%
D50*
%TO.P,R80,2*%
%TO.N,Net-(L8-Pad1)*%
X81375000Y-126425000D03*
%TO.P,R80,1*%
%TO.N,PTT*%
X83375000Y-126425000D03*
%TD*%
D71*
%TO.P,U5,1*%
%TO.N,Net-(C66-Pad2)*%
X84212500Y-101753000D03*
%TO.P,U5,2,-*%
%TO.N,Net-(C66-Pad1)*%
X82942500Y-101753000D03*
%TO.P,U5,3,+*%
%TO.N,Net-(C64-Pad2)*%
X81672500Y-101753000D03*
%TO.P,U5,4,V-*%
%TO.N,GND*%
X80402500Y-101753000D03*
%TO.P,U5,5,+*%
%TO.N,Net-(C64-Pad2)*%
X80402500Y-107003000D03*
%TO.P,U5,6,-*%
%TO.N,Net-(C69-Pad1)*%
X81672500Y-107003000D03*
%TO.P,U5,7*%
%TO.N,Net-(C69-Pad2)*%
X82942500Y-107003000D03*
%TO.P,U5,8,V+*%
%TO.N,+5V*%
X84212500Y-107003000D03*
%TD*%
D22*
%TO.P,C69,1*%
%TO.N,Net-(C69-Pad1)*%
X81340000Y-109838000D03*
%TO.P,C69,2*%
%TO.N,Net-(C69-Pad2)*%
X83415000Y-109838000D03*
%TD*%
%TO.P,C67,1*%
%TO.N,GND*%
X68812500Y-128750000D03*
%TO.P,C67,2*%
%TO.N,Net-(C67-Pad2)*%
X70887500Y-128750000D03*
%TD*%
D26*
%TO.P,L12,1,1*%
%TO.N,Net-(L12-Pad1)*%
X83425000Y-128900000D03*
%TO.P,L12,2,2*%
%TO.N,Net-(C68-Pad2)*%
X81375000Y-128900000D03*
%TD*%
D72*
%TO.P,U8,1,DOUT*%
%TO.N,unconnected-(U8-Pad1)*%
X162250000Y-113617500D03*
%TO.P,U8,2,DFS*%
%TO.N,unconnected-(U8-Pad2)*%
X162250000Y-112982500D03*
%TO.P,U8,3,GPO3/[DCLK]*%
%TO.N,unconnected-(U8-Pad3)*%
X162250000Y-112347500D03*
%TO.P,U8,4,GPO2/[~{INT}]*%
%TO.N,unconnected-(U8-Pad4)*%
X162250000Y-111712500D03*
%TO.P,U8,5,GPO1*%
%TO.N,unconnected-(U8-Pad5)*%
X162250000Y-111077500D03*
%TO.P,U8,6,NC*%
%TO.N,unconnected-(U8-Pad6)*%
X162250000Y-110442500D03*
%TO.P,U8,7,NC*%
%TO.N,unconnected-(U8-Pad7)*%
X162250000Y-109807500D03*
%TO.P,U8,8,FMI*%
%TO.N,Net-(C33-Pad1)*%
X162250000Y-109172500D03*
%TO.P,U8,9,RFGND*%
%TO.N,GND*%
X162250000Y-108537500D03*
%TO.P,U8,10,NC*%
%TO.N,unconnected-(U8-Pad10)*%
X162250000Y-107902500D03*
%TO.P,U8,11,NC*%
%TO.N,unconnected-(U8-Pad11)*%
X162250000Y-107267500D03*
%TO.P,U8,12,AMI*%
%TO.N,Net-(C35-Pad1)*%
X162250000Y-106632500D03*
%TO.P,U8,13,GND*%
%TO.N,GND*%
X157050000Y-106632500D03*
%TO.P,U8,14,GND*%
X157050000Y-107267500D03*
%TO.P,U8,15,~{RST}*%
%TO.N,RADIORESET*%
X157050000Y-107902500D03*
%TO.P,U8,16,~{SEN}*%
%TO.N,Net-(R16-Pad2)*%
X157050000Y-108537500D03*
%TO.P,U8,17,SCLK*%
%TO.N,SCL*%
X157050000Y-109172500D03*
%TO.P,U8,18,SDIO*%
%TO.N,SDA*%
X157050000Y-109807500D03*
%TO.P,U8,19,RCLK*%
%TO.N,Net-(R17-Pad1)*%
X157050000Y-110442500D03*
%TO.P,U8,20,VD*%
%TO.N,+3.3V*%
X157050000Y-111077500D03*
%TO.P,U8,21,VA*%
%TO.N,Net-(C27-Pad1)*%
X157050000Y-111712500D03*
%TO.P,U8,22,DBYP*%
%TO.N,Net-(C30-Pad1)*%
X157050000Y-112347500D03*
%TO.P,U8,23,ROUT/[DOUT]*%
%TO.N,Net-(C39-Pad1)*%
X157050000Y-112982500D03*
%TO.P,U8,24,LOUT/[DFS]*%
%TO.N,Net-(C28-Pad1)*%
X157050000Y-113617500D03*
%TD*%
D51*
%TO.P,R42,1*%
%TO.N,+5V*%
X59080000Y-116210000D03*
%TO.P,R42,2*%
%TO.N,Net-(C62-Pad2)*%
X59080000Y-118210000D03*
%TD*%
D48*
%TO.P,R77,1*%
%TO.N,Net-(C66-Pad2)*%
X87070000Y-101760000D03*
%TO.P,R77,2*%
%TO.N,GND*%
X89070000Y-101760000D03*
%TD*%
D50*
%TO.P,R69,1*%
%TO.N,Net-(C66-Pad1)*%
X74136000Y-105410000D03*
%TO.P,R69,2*%
%TO.N,Net-(JP6-Pad2)*%
X72136000Y-105410000D03*
%TD*%
D49*
%TO.P,R43,1*%
%TO.N,Net-(C63-Pad2)*%
X68580000Y-107426000D03*
%TO.P,R43,2*%
%TO.N,Net-(JP6-Pad2)*%
X68580000Y-105426000D03*
%TD*%
%TO.P,R44,1*%
%TO.N,Net-(C64-Pad2)*%
X92456000Y-103346000D03*
%TO.P,R44,2*%
%TO.N,GND*%
X92456000Y-101346000D03*
%TD*%
D12*
%TO.P,J24,1,Pin_1*%
%TO.N,TRANSMIT*%
X144470000Y-100850000D03*
%TD*%
D21*
%TO.P,C63,1*%
%TO.N,Net-(C63-Pad1)*%
X68580000Y-111781500D03*
%TO.P,C63,2*%
%TO.N,Net-(C63-Pad2)*%
X68580000Y-109706500D03*
%TD*%
D13*
%TO.P,J22,2,Pin_2*%
%TO.N,GND*%
X118390000Y-125870000D03*
D12*
%TO.P,J22,1,Pin_1*%
%TO.N,SPKR*%
X118390000Y-128410000D03*
%TD*%
%TO.P,JP9,1,1*%
%TO.N,Net-(C69-Pad1)*%
X77978000Y-122936000D03*
D13*
%TO.P,JP9,2,2*%
%TO.N,Net-(JP9-Pad2)*%
X75438000Y-122936000D03*
%TD*%
D34*
%TO.P,L7,1,1*%
%TO.N,Net-(C63-Pad1)*%
X59080000Y-120945000D03*
%TO.P,L7,2,2*%
%TO.N,Net-(C62-Pad2)*%
X59080000Y-122995000D03*
%TD*%
D12*
%TO.P,J25,1,Pin_1*%
%TO.N,+3.3V*%
X125420000Y-80010000D03*
D13*
%TO.P,J25,2,Pin_2*%
%TO.N,Net-(J25-Pad2)*%
X122880000Y-80010000D03*
%TO.P,J25,3,Pin_3*%
%TO.N,Net-(J25-Pad3)*%
X120340000Y-80010000D03*
%TO.P,J25,4,Pin_4*%
%TO.N,GND*%
X117800000Y-80010000D03*
%TD*%
D20*
%TO.P,C65,1*%
%TO.N,GND*%
X88955000Y-107230000D03*
%TO.P,C65,2*%
%TO.N,+5V*%
X86880000Y-107230000D03*
%TD*%
D51*
%TO.P,R81,1*%
%TO.N,MICPADDLE*%
X130200000Y-118540000D03*
%TO.P,R81,2*%
%TO.N,Net-(L12-Pad1)*%
X130200000Y-120540000D03*
%TD*%
%TO.P,R84,1*%
%TO.N,MICPADDLE*%
X132310000Y-118540000D03*
%TO.P,R84,2*%
%TO.N,Net-(C69-Pad2)*%
X132310000Y-120540000D03*
%TD*%
D70*
%TO.P,J8,TN1*%
%TO.N,unconnected-(J8-PadTN1)*%
X124025000Y-132150000D03*
D68*
%TO.P,J8,T1*%
%TO.N,SPKR*%
X124525000Y-139050000D03*
D69*
%TO.P,J8,SN1*%
%TO.N,unconnected-(J8-PadSN1)*%
X117125000Y-136550000D03*
D68*
%TO.P,J8,S1*%
%TO.N,SPKR*%
X114525000Y-135550000D03*
D67*
%TO.P,J8,G*%
%TO.N,GND*%
X119725000Y-143450000D03*
%TD*%
D21*
%TO.P,C68,2*%
%TO.N,Net-(C68-Pad2)*%
X61310000Y-122122500D03*
%TO.P,C68,1*%
%TO.N,GND*%
X61310000Y-124197500D03*
%TD*%
D50*
%TO.P,R83,1*%
%TO.N,Net-(C69-Pad2)*%
X83430000Y-113220000D03*
%TO.P,R83,2*%
%TO.N,Net-(C69-Pad1)*%
X81430000Y-113220000D03*
%TD*%
D12*
%TO.P,J27,1,Pin_1*%
%TO.N,+3.3V*%
X125476000Y-74676000D03*
D13*
%TO.P,J27,2,Pin_2*%
%TO.N,TXD*%
X122936000Y-74676000D03*
%TO.P,J27,3,Pin_3*%
%TO.N,RXD*%
X120396000Y-74676000D03*
%TO.P,J27,4,Pin_4*%
%TO.N,GND*%
X117856000Y-74676000D03*
%TD*%
D21*
%TO.P,C62,1*%
%TO.N,GND*%
X59020000Y-127797500D03*
%TO.P,C62,2*%
%TO.N,Net-(C62-Pad2)*%
X59020000Y-125722500D03*
%TD*%
D51*
%TO.P,R26,2*%
%TO.N,AUDIO*%
X155430000Y-130205000D03*
%TO.P,R26,1*%
%TO.N,Net-(C27-Pad1)*%
X155430000Y-128205000D03*
%TD*%
D48*
%TO.P,R85,1*%
%TO.N,Net-(C69-Pad2)*%
X85747500Y-109768000D03*
%TO.P,R85,2*%
%TO.N,GND*%
X87747500Y-109768000D03*
%TD*%
D20*
%TO.P,C70,1*%
%TO.N,GND*%
X73000000Y-70000000D03*
%TO.P,C70,2*%
%TO.N,+5V*%
X70925000Y-70000000D03*
%TD*%
D50*
%TO.P,R79,1*%
%TO.N,Net-(C69-Pad1)*%
X79486000Y-109728000D03*
%TO.P,R79,2*%
%TO.N,Net-(JP9-Pad2)*%
X77486000Y-109728000D03*
%TD*%
%TO.P,R27,2*%
%TO.N,GND*%
X150025000Y-126775000D03*
%TO.P,R27,1*%
%TO.N,AUDIO*%
X152025000Y-126775000D03*
%TD*%
D12*
%TO.P,J26,1,VBUS*%
%TO.N,Net-(D5-Pad2)*%
X111410000Y-66760000D03*
D73*
%TO.P,J26,2,D-*%
%TO.N,Net-(J26-Pad2)*%
X113910000Y-66760000D03*
%TO.P,J26,3,D+*%
%TO.N,Net-(J26-Pad3)*%
X113910000Y-64760000D03*
%TO.P,J26,4,GND*%
%TO.N,GND*%
X111410000Y-64760000D03*
D74*
%TO.P,J26,5,Shield*%
X118680000Y-62050000D03*
X106640000Y-62050000D03*
%TD*%
D21*
%TO.P,C29,1*%
%TO.N,Net-(C14-Pad1)*%
X169720000Y-66107500D03*
%TO.P,C29,2*%
%TO.N,Net-(C14-Pad2)*%
X169720000Y-64032500D03*
%TD*%
D38*
%TO.P,U7,*%
%TO.N,*%
X138730000Y-58830000D03*
D75*
X124130000Y-68330000D03*
D76*
%TO.P,U7,1*%
%TO.N,N/C*%
X128730000Y-68930000D03*
%TO.P,U7,2,~{CS}*%
%TO.N,CS*%
X129830000Y-68930000D03*
%TO.P,U7,3,DI*%
%TO.N,MOSI*%
X130930000Y-68930000D03*
%TO.P,U7,4,VDD*%
%TO.N,+3.3V*%
X132030000Y-68930000D03*
%TO.P,U7,5,SCLK*%
%TO.N,SCK*%
X133130000Y-68930000D03*
%TO.P,U7,6,GND*%
%TO.N,GND*%
X134230000Y-68930000D03*
%TO.P,U7,7,DO*%
%TO.N,MISO*%
X135330000Y-68930000D03*
%TO.P,U7,8*%
%TO.N,N/C*%
X136430000Y-68930000D03*
%TO.P,U7,9,CD*%
%TO.N,unconnected-(U7-Pad9)*%
X137530000Y-68930000D03*
D77*
%TO.P,U7,10*%
%TO.N,N/C*%
X138730000Y-68330000D03*
D38*
%TO.P,U7,~*%
X123230000Y-58730000D03*
%TD*%
D22*
%TO.P,C40,2*%
%TO.N,AUDIO*%
X152062500Y-123775000D03*
%TO.P,C40,1*%
%TO.N,Net-(C40-Pad1)*%
X149987500Y-123775000D03*
%TD*%
D56*
%TO.P,D7,1,K*%
%TO.N,Net-(D10-Pad2)*%
X172925000Y-107950000D03*
%TO.P,D7,2,A*%
%TO.N,RF*%
X172925000Y-104650000D03*
%TD*%
D12*
%TO.P,JP6,1,1*%
%TO.N,Net-(C66-Pad1)*%
X69596000Y-122936000D03*
D13*
%TO.P,JP6,2,2*%
%TO.N,Net-(JP6-Pad2)*%
X67056000Y-122936000D03*
%TD*%
D23*
%TO.P,C43,1*%
%TO.N,GND*%
X121980000Y-63902500D03*
%TO.P,C43,2*%
%TO.N,+3.3V*%
X121980000Y-65977500D03*
%TD*%
D67*
%TO.P,J11,G*%
%TO.N,GND*%
X77978000Y-142900000D03*
D68*
%TO.P,J11,S1*%
%TO.N,unconnected-(J11-PadS1)*%
X72778000Y-135000000D03*
D69*
%TO.P,J11,SN1*%
%TO.N,unconnected-(J11-PadSN1)*%
X75378000Y-136000000D03*
D68*
%TO.P,J11,T1*%
%TO.N,Net-(C62-Pad2)*%
X82778000Y-138500000D03*
D70*
%TO.P,J11,TN1*%
%TO.N,unconnected-(J11-PadTN1)*%
X82278000Y-131600000D03*
%TD*%
D22*
%TO.P,C66,1*%
%TO.N,Net-(C66-Pad1)*%
X82492500Y-99230000D03*
%TO.P,C66,2*%
%TO.N,Net-(C66-Pad2)*%
X84567500Y-99230000D03*
%TD*%
D49*
%TO.P,R45,1*%
%TO.N,+5V*%
X92456000Y-107442000D03*
%TO.P,R45,2*%
%TO.N,Net-(C64-Pad2)*%
X92456000Y-105442000D03*
%TD*%
D21*
%TO.P,C31,1*%
%TO.N,Net-(C31-Pad1)*%
X180090000Y-70787500D03*
%TO.P,C31,2*%
%TO.N,Net-(C31-Pad2)*%
X180090000Y-68712500D03*
%TD*%
D56*
%TO.P,D11,1,K*%
%TO.N,Net-(D11-Pad1)*%
X175975000Y-109600000D03*
%TO.P,D11,2,A*%
%TO.N,GND*%
X175975000Y-112900000D03*
%TD*%
D34*
%TO.P,L8,1,1*%
%TO.N,Net-(L8-Pad1)*%
X74975000Y-126075000D03*
%TO.P,L8,2,2*%
%TO.N,Net-(C67-Pad2)*%
X74975000Y-128125000D03*
%TD*%
D50*
%TO.P,R82,1*%
%TO.N,+3.3V*%
X124250000Y-84275000D03*
%TO.P,R82,2*%
%TO.N,PTT*%
X122250000Y-84275000D03*
%TD*%
D20*
%TO.P,C28,2*%
%TO.N,LCH*%
X142512500Y-123950000D03*
%TO.P,C28,1*%
%TO.N,Net-(C28-Pad1)*%
X144587500Y-123950000D03*
%TD*%
D51*
%TO.P,R78,1*%
%TO.N,Net-(C66-Pad2)*%
X76730000Y-104430000D03*
%TO.P,R78,2*%
%TO.N,Net-(JP9-Pad2)*%
X76730000Y-106430000D03*
%TD*%
D20*
%TO.P,C64,1*%
%TO.N,GND*%
X92477500Y-99060000D03*
%TO.P,C64,2*%
%TO.N,Net-(C64-Pad2)*%
X90402500Y-99060000D03*
%TD*%
D78*
%TO.N,SPKR*%
X118225000Y-131650000D03*
%TO.N,Net-(C16-Pad2)*%
X97275000Y-118325000D03*
X91450000Y-122075000D03*
%TO.N,Net-(C11-Pad2)*%
X97376944Y-117001944D03*
%TO.N,GND*%
X162306000Y-129286000D03*
X175260000Y-93980000D03*
X106680000Y-113284000D03*
%TO.N,+3.3V*%
X86106000Y-134620000D03*
X89052000Y-136398000D03*
%TO.N,GND*%
X109600000Y-122750000D03*
X105810000Y-128760000D03*
X85475000Y-127550000D03*
%TO.N,Net-(C11-Pad2)*%
X90525000Y-123925000D03*
%TO.N,Net-(C10-Pad2)*%
X98200000Y-115725000D03*
X96300000Y-115650000D03*
%TO.N,GND*%
X82100000Y-118875000D03*
X90975000Y-118100000D03*
X172240000Y-81780000D03*
X175070000Y-87320000D03*
X60350000Y-119590000D03*
X178620000Y-87470000D03*
X131410000Y-107190000D03*
X91300000Y-100840000D03*
X171270000Y-87600000D03*
X179690000Y-80510000D03*
X120000000Y-85520000D03*
X173180000Y-83130000D03*
X152090000Y-109260000D03*
X146520000Y-127420000D03*
X176010000Y-111580000D03*
X188230000Y-74070000D03*
X127310000Y-90780000D03*
X136330000Y-93070000D03*
X155800000Y-106110000D03*
X149610000Y-125380000D03*
X169990000Y-79850000D03*
X69500000Y-71000000D03*
X164480000Y-129870000D03*
X168110000Y-118830000D03*
X146180000Y-79170000D03*
X118364000Y-105156000D03*
X180848000Y-87376000D03*
X158240000Y-84440000D03*
X181430000Y-86550000D03*
X174190000Y-78220000D03*
X163510000Y-108130000D03*
X185440000Y-72150000D03*
X88990000Y-100490000D03*
X158250000Y-76750000D03*
X64500000Y-61000000D03*
X123698000Y-104394000D03*
X184650000Y-83670000D03*
X156900000Y-84880000D03*
X143460000Y-72580000D03*
X164930000Y-118600000D03*
X90000000Y-108000000D03*
X184070000Y-87550000D03*
X181020000Y-78150000D03*
X183170000Y-86570000D03*
X159500000Y-75250000D03*
X165080000Y-64370000D03*
X184630000Y-78280000D03*
X59140000Y-129250000D03*
X134150000Y-109940000D03*
X148890000Y-115805500D03*
X120650000Y-64500000D03*
X172500000Y-78230000D03*
X182610000Y-78370000D03*
X183930000Y-80800000D03*
X159000000Y-71000000D03*
X154475000Y-139750000D03*
X67982523Y-65807523D03*
X161500000Y-72750000D03*
X183060000Y-80250000D03*
X179970000Y-86010000D03*
X181864000Y-81280000D03*
X171196000Y-82804000D03*
X141420000Y-122790000D03*
X172130000Y-79680000D03*
X152250000Y-69290000D03*
X67470000Y-128620000D03*
X126910000Y-115640000D03*
X177330000Y-79680000D03*
X179520000Y-78190000D03*
X93660000Y-98420000D03*
X184650000Y-82230000D03*
X149280000Y-79860000D03*
X121225000Y-112650000D03*
X161500000Y-74000000D03*
X176710000Y-78170000D03*
X160250000Y-71000000D03*
X133690000Y-67170000D03*
X174780000Y-86100000D03*
X183190000Y-84310000D03*
X180870000Y-79420000D03*
X169950000Y-86120000D03*
X80780000Y-99960000D03*
X89000000Y-110000000D03*
X81150000Y-62100000D03*
X155710000Y-107060000D03*
X152725000Y-134375000D03*
X161500000Y-76500000D03*
X158000000Y-71000000D03*
X162740000Y-102310000D03*
X160000000Y-72000000D03*
X72500000Y-71500000D03*
X170080000Y-83540000D03*
X121150000Y-110190000D03*
X173140000Y-84550000D03*
X181820000Y-82660000D03*
X177370000Y-86260000D03*
X72500000Y-61000000D03*
X137330000Y-124460000D03*
X156750000Y-76500000D03*
X147950000Y-62300000D03*
X156750000Y-72500000D03*
X81520000Y-61180000D03*
X161500000Y-71250000D03*
X152725000Y-133200000D03*
X147510000Y-129530000D03*
X128025000Y-115475000D03*
X160500000Y-73750000D03*
X172800000Y-111670000D03*
X148542000Y-75692000D03*
X159690000Y-97330000D03*
X62330000Y-125070000D03*
X156500000Y-74500000D03*
X157750000Y-75000000D03*
X173228000Y-86868000D03*
X182370000Y-85790000D03*
X136210000Y-99000000D03*
X171196000Y-80772000D03*
X171140000Y-78230000D03*
X130600000Y-115320000D03*
X154490000Y-114600000D03*
X127710000Y-95350000D03*
X75470000Y-71490000D03*
X159750000Y-76750000D03*
X173850000Y-81150000D03*
X170040000Y-81630000D03*
X171560000Y-134030000D03*
X132560000Y-115060000D03*
X181356000Y-84328000D03*
X171196000Y-85344000D03*
X156750000Y-71000000D03*
%TO.N,Net-(C1-Pad2)*%
X141625000Y-106975000D03*
X143175000Y-105050000D03*
X137195000Y-111255000D03*
X132770000Y-112380000D03*
%TO.N,TRANSMIT*%
X138374500Y-89725000D03*
X136425000Y-102700000D03*
X136375000Y-89725000D03*
%TO.N,DB5*%
X122825000Y-101450000D03*
X129604089Y-103170911D03*
X110000000Y-89875500D03*
%TO.N,DB4*%
X133800000Y-105550000D03*
X108900000Y-90400000D03*
X120775000Y-102000500D03*
%TO.N,DB7*%
X121250000Y-100100000D03*
X131413500Y-102842000D03*
%TO.N,DB6*%
X122025000Y-100725000D03*
X108400000Y-89050000D03*
X136025000Y-103800000D03*
%TO.N,RS*%
X114575000Y-92100000D03*
X125050000Y-91650000D03*
X130325000Y-100300000D03*
X111100000Y-91475000D03*
X127525000Y-98875000D03*
%TO.N,E*%
X117950000Y-94550000D03*
X122500000Y-99400000D03*
X109975000Y-91675000D03*
X114100000Y-93825000D03*
X130650000Y-101699500D03*
%TO.N,SDA*%
X136800000Y-98050000D03*
X129800000Y-98900000D03*
%TO.N,SCL*%
X159825250Y-108325250D03*
X128950000Y-98749500D03*
X158493206Y-108453206D03*
X136775000Y-97000000D03*
%TO.N,+3.3V*%
X115725000Y-107750000D03*
X139475000Y-94600000D03*
X96300000Y-59950000D03*
X113700000Y-107850000D03*
X90225000Y-59950000D03*
X84790000Y-59870000D03*
X126600000Y-82625000D03*
X102430000Y-60380000D03*
X136354401Y-95570599D03*
X135025000Y-74850000D03*
X130300000Y-74950000D03*
%TO.N,Net-(C27-Pad1)*%
X152090000Y-117415500D03*
X152110000Y-119960000D03*
%TO.N,PS2CLK*%
X122175000Y-97725000D03*
X120475000Y-98600000D03*
%TO.N,Net-(Q4-Pad1)*%
X153162000Y-120142000D03*
X150000000Y-116480000D03*
%TO.N,Net-(J5-Pad3)*%
X128125000Y-103495500D03*
X121450000Y-102625500D03*
%TO.N,CS*%
X138600000Y-91425000D03*
X131710000Y-66110000D03*
X129620000Y-67150000D03*
X136325000Y-91200000D03*
%TO.N,RADIORESET*%
X137750000Y-102350000D03*
X131849500Y-99425000D03*
%TO.N,PTT*%
X122250000Y-92825000D03*
X114875000Y-93225000D03*
%TD*%
D79*
%TO.N,+3.3V*%
X125125000Y-84275000D02*
X124250000Y-84275000D01*
X126600000Y-82800000D02*
X125125000Y-84275000D01*
X126600000Y-82625000D02*
X126600000Y-82800000D01*
D80*
%TO.N,Net-(J25-Pad2)*%
X124545000Y-81675000D02*
X122880000Y-80010000D01*
X127425000Y-81675000D02*
X124545000Y-81675000D01*
X128552000Y-82802000D02*
X127425000Y-81675000D01*
X128552000Y-96929500D02*
X128552000Y-82802000D01*
D81*
%TO.N,SPKR*%
X118225000Y-131850000D02*
X118225000Y-131650000D01*
X114525000Y-135550000D02*
X118225000Y-131850000D01*
D79*
%TO.N,GND*%
X121225000Y-113880500D02*
X121390500Y-114046000D01*
X121225000Y-112650000D02*
X121225000Y-113880500D01*
D80*
%TO.N,Net-(D2-Pad1)*%
X122440000Y-116026827D02*
X121729173Y-115316000D01*
X121729173Y-115316000D02*
X120624000Y-115316000D01*
X122440000Y-121985000D02*
X122440000Y-116026827D01*
X120624000Y-115316000D02*
X119130000Y-116810000D01*
X112150000Y-122950000D02*
X121475000Y-122950000D01*
X121475000Y-122950000D02*
X122440000Y-121985000D01*
X110550000Y-121350000D02*
X112150000Y-122950000D01*
D81*
%TO.N,GND*%
X128600000Y-140600000D02*
X128400000Y-140800000D01*
X128600000Y-136862500D02*
X128600000Y-140600000D01*
X128675000Y-136787500D02*
X128600000Y-136862500D01*
%TO.N,Net-(C19-Pad1)*%
X130810000Y-134620000D02*
X131572000Y-135382000D01*
X128767500Y-134620000D02*
X130810000Y-134620000D01*
X128675000Y-134712500D02*
X128767500Y-134620000D01*
D79*
%TO.N,Net-(RV1-Pad2)*%
X153665000Y-135685000D02*
X154205000Y-135685000D01*
X151225000Y-138125000D02*
X153665000Y-135685000D01*
X133400000Y-140800000D02*
X133400000Y-140425000D01*
X133400000Y-140425000D02*
X135700000Y-138125000D01*
X135700000Y-138125000D02*
X151225000Y-138125000D01*
%TO.N,Net-(C34-Pad2)*%
X138738000Y-140462000D02*
X159998500Y-140462000D01*
X159998500Y-140462000D02*
X161268500Y-139192000D01*
X138400000Y-140800000D02*
X135900000Y-143300000D01*
%TO.N,Net-(RV1-Pad2)*%
X133400000Y-140800000D02*
X133400000Y-143800000D01*
%TO.N,Net-(C34-Pad2)*%
X138400000Y-140800000D02*
X138738000Y-140462000D01*
X135900000Y-143300000D02*
X135900000Y-143800000D01*
D81*
%TO.N,SPKR*%
X126080000Y-137495000D02*
X124525000Y-139050000D01*
X126080000Y-133570000D02*
X126080000Y-137495000D01*
X129280000Y-130370000D02*
X126080000Y-133570000D01*
X134470000Y-130370000D02*
X129280000Y-130370000D01*
X115099000Y-138196000D02*
X115953000Y-139050000D01*
X115953000Y-139050000D02*
X124525000Y-139050000D01*
X114525000Y-135550000D02*
X114525000Y-137555000D01*
X115099000Y-138129000D02*
X115099000Y-138196000D01*
X114525000Y-137555000D02*
X115099000Y-138129000D01*
%TO.N,+12V*%
X126480000Y-129410000D02*
X126480000Y-125930000D01*
X125700000Y-130190000D02*
X126480000Y-129410000D01*
X112925000Y-131325000D02*
X114060000Y-130190000D01*
X112925000Y-140615000D02*
X112925000Y-131325000D01*
X109520000Y-144020000D02*
X112925000Y-140615000D01*
X81920000Y-144020000D02*
X109520000Y-144020000D01*
X56375000Y-102145000D02*
X56375000Y-136131000D01*
X62000000Y-96520000D02*
X56375000Y-102145000D01*
X114060000Y-130190000D02*
X125700000Y-130190000D01*
X79120000Y-141220000D02*
X81920000Y-144020000D01*
X62000000Y-86540000D02*
X62000000Y-96520000D01*
X56375000Y-136131000D02*
X61464000Y-141220000D01*
X61464000Y-141220000D02*
X79120000Y-141220000D01*
X63750000Y-83880000D02*
X63750000Y-84790000D01*
X63750000Y-84790000D02*
X62000000Y-86540000D01*
D79*
%TO.N,Net-(C69-Pad2)*%
X83430000Y-113960000D02*
X83430000Y-113220000D01*
X80350000Y-117040000D02*
X83430000Y-113960000D01*
X80350000Y-123550000D02*
X80350000Y-117040000D01*
X82360000Y-125560000D02*
X80350000Y-123550000D01*
X82360000Y-129493883D02*
X82360000Y-125560000D01*
X82976117Y-130110000D02*
X82360000Y-129493883D01*
X83310000Y-130110000D02*
X82976117Y-130110000D01*
X84290000Y-136680000D02*
X84290000Y-131090000D01*
X112125000Y-128775000D02*
X112125000Y-139750000D01*
X112125000Y-139750000D02*
X111355000Y-140520000D01*
X111355000Y-140520000D02*
X88130000Y-140520000D01*
X116775000Y-124125000D02*
X112125000Y-128775000D01*
X128815000Y-124125000D02*
X116775000Y-124125000D01*
X132310000Y-120630000D02*
X128815000Y-124125000D01*
X132310000Y-120540000D02*
X132310000Y-120630000D01*
X88130000Y-140520000D02*
X84290000Y-136680000D01*
X84290000Y-131090000D02*
X83310000Y-130110000D01*
%TO.N,Net-(L12-Pad1)*%
X85000000Y-130270000D02*
X83630000Y-128900000D01*
X88805000Y-139725000D02*
X85000000Y-135920000D01*
X85000000Y-135920000D02*
X85000000Y-130270000D01*
X110975000Y-139725000D02*
X88805000Y-139725000D01*
X111375000Y-139325000D02*
X110975000Y-139725000D01*
X116145000Y-123575000D02*
X111375000Y-128345000D01*
X111375000Y-128345000D02*
X111375000Y-139325000D01*
X83630000Y-128900000D02*
X83425000Y-128900000D01*
X127165000Y-123575000D02*
X116145000Y-123575000D01*
X130200000Y-120540000D02*
X127165000Y-123575000D01*
%TO.N,+3.3V*%
X110675000Y-128455000D02*
X108728000Y-126508000D01*
X109964000Y-135636000D02*
X110675000Y-134925000D01*
X110675000Y-134925000D02*
X110675000Y-128455000D01*
X89814000Y-135636000D02*
X109964000Y-135636000D01*
X89052000Y-136398000D02*
X89814000Y-135636000D01*
X108728000Y-126508000D02*
X108728000Y-126238000D01*
%TO.N,Net-(C61-Pad2)*%
X102378000Y-133353000D02*
X102475000Y-133450000D01*
X108970000Y-130280000D02*
X108970000Y-133445000D01*
X108970000Y-133445000D02*
X108975000Y-133450000D01*
X108975000Y-133450000D02*
X102475000Y-133450000D01*
X102378000Y-129794000D02*
X102378000Y-133353000D01*
%TO.N,Net-(C17-Pad2)*%
X103880000Y-120820000D02*
X103880000Y-117862000D01*
X103590000Y-121110000D02*
X103880000Y-120820000D01*
X103010000Y-121110000D02*
X103590000Y-121110000D01*
X97225000Y-120975000D02*
X97360000Y-121110000D01*
X97360000Y-121110000D02*
X103010000Y-121110000D01*
X103590000Y-121110000D02*
X103725000Y-120975000D01*
%TO.N,Net-(C61-Pad2)*%
X101825000Y-127550000D02*
X96250000Y-127550000D01*
X96250000Y-127550000D02*
X95125000Y-126425000D01*
X102362000Y-128087000D02*
X101825000Y-127550000D01*
X102362000Y-129778000D02*
X102362000Y-128087000D01*
X95125000Y-118000000D02*
X97425000Y-115700000D01*
X102378000Y-129794000D02*
X102362000Y-129778000D01*
X97425000Y-97535000D02*
X97390000Y-97500000D01*
X95125000Y-126425000D02*
X95125000Y-118000000D01*
X97425000Y-115700000D02*
X97425000Y-97535000D01*
%TO.N,Net-(C16-Pad2)*%
X102800000Y-100370000D02*
X105610000Y-97560000D01*
X99775000Y-118325000D02*
X102800000Y-115300000D01*
X102800000Y-115300000D02*
X102800000Y-100370000D01*
X97275000Y-118325000D02*
X99775000Y-118325000D01*
X91600000Y-123055000D02*
X91185000Y-122640000D01*
X91185000Y-122640000D02*
X90785000Y-122640000D01*
X91600000Y-128775000D02*
X91600000Y-123055000D01*
X90885000Y-122640000D02*
X91450000Y-122075000D01*
X90785000Y-122640000D02*
X85465000Y-122640000D01*
X90785000Y-122640000D02*
X90885000Y-122640000D01*
%TO.N,GND*%
X92187500Y-116887500D02*
X92187500Y-116725000D01*
X90975000Y-118100000D02*
X92187500Y-116887500D01*
%TO.N,Net-(C10-Pad2)*%
X94262500Y-117357271D02*
X94262500Y-116725000D01*
X93375000Y-118244771D02*
X94262500Y-117357271D01*
X93425000Y-121025000D02*
X93375000Y-120975000D01*
X93375000Y-120975000D02*
X93375000Y-118244771D01*
%TO.N,Net-(C11-Pad2)*%
X101540000Y-98710000D02*
X102700000Y-97550000D01*
X101540000Y-115376000D02*
X101540000Y-98710000D01*
X99914056Y-117001944D02*
X101540000Y-115376000D01*
X97376944Y-117001944D02*
X99914056Y-117001944D01*
%TO.N,Net-(C10-Pad2)*%
X99275000Y-115725000D02*
X99940000Y-115060000D01*
X98200000Y-115725000D02*
X99275000Y-115725000D01*
X99940000Y-115060000D02*
X99940000Y-97540000D01*
X95225000Y-116725000D02*
X94262500Y-116725000D01*
X96300000Y-115650000D02*
X95225000Y-116725000D01*
%TO.N,+3.3V*%
X86140000Y-116750000D02*
X85620000Y-116230000D01*
%TO.N,Net-(C10-Pad2)*%
X94262500Y-116162500D02*
X94262500Y-116725000D01*
X90350000Y-115375000D02*
X93475000Y-115375000D01*
X93475000Y-115375000D02*
X94262500Y-116162500D01*
%TO.N,+3.3V*%
X87975000Y-116750000D02*
X86140000Y-116750000D01*
%TO.N,Net-(C10-Pad2)*%
X89975000Y-115750000D02*
X90350000Y-115375000D01*
X89975000Y-116750000D02*
X89975000Y-115750000D01*
%TO.N,Net-(C11-Pad2)*%
X87970000Y-136670000D02*
X87970000Y-134760000D01*
X88900000Y-137600000D02*
X87970000Y-136670000D01*
X92100000Y-137600000D02*
X88900000Y-137600000D01*
X92125000Y-137625000D02*
X92100000Y-137600000D01*
X92125000Y-137625000D02*
X98625000Y-137625000D01*
%TO.N,Net-(C16-Pad2)*%
X91600000Y-128775000D02*
X92150000Y-129325000D01*
%TO.N,Net-(C11-Pad2)*%
X87887500Y-130537500D02*
X87150000Y-130537500D01*
X88825000Y-125185000D02*
X88825000Y-129600000D01*
X90085000Y-123925000D02*
X88825000Y-125185000D01*
X88825000Y-129600000D02*
X87887500Y-130537500D01*
X90525000Y-123925000D02*
X90085000Y-123925000D01*
%TO.N,Net-(C16-Pad2)*%
X84362500Y-121537500D02*
X84362500Y-120425000D01*
X85465000Y-122640000D02*
X84362500Y-121537500D01*
X98650000Y-129325000D02*
X92150000Y-129325000D01*
%TO.N,Net-(C10-Pad2)*%
X93425000Y-121025000D02*
X86925000Y-121025000D01*
%TO.N,Net-(C11-Pad2)*%
X88710000Y-134760000D02*
X87970000Y-134760000D01*
X89320000Y-134150000D02*
X88710000Y-134760000D01*
X89320000Y-133850000D02*
X89320000Y-134150000D01*
X89340000Y-133830000D02*
X89320000Y-133850000D01*
X89340000Y-131400000D02*
X89340000Y-133830000D01*
X87150000Y-130537500D02*
X88477500Y-130537500D01*
X88477500Y-130537500D02*
X89340000Y-131400000D01*
%TO.N,GND*%
X86237500Y-127550000D02*
X87150000Y-128462500D01*
X85475000Y-127550000D02*
X86237500Y-127550000D01*
%TO.N,+3.3V*%
X83300000Y-123150000D02*
X83300000Y-118670000D01*
X84675000Y-128375000D02*
X84675000Y-124525000D01*
X85620000Y-116350000D02*
X85620000Y-116230000D01*
X85675000Y-129375000D02*
X84675000Y-128375000D01*
X83300000Y-118670000D02*
X85620000Y-116350000D01*
X85675000Y-132349000D02*
X85675000Y-129375000D01*
X84675000Y-124525000D02*
X83300000Y-123150000D01*
X86010000Y-132684000D02*
X85675000Y-132349000D01*
%TO.N,GND*%
X82287500Y-119062500D02*
X82287500Y-120425000D01*
X82100000Y-118875000D02*
X82287500Y-119062500D01*
%TO.N,Net-(C16-Pad2)*%
X85210000Y-119577500D02*
X84362500Y-120425000D01*
X85210000Y-118640000D02*
X85210000Y-119577500D01*
X85620000Y-118230000D02*
X85210000Y-118640000D01*
%TO.N,PTT*%
X83375000Y-124825000D02*
X83375000Y-126425000D01*
X81175000Y-122625000D02*
X83375000Y-124825000D01*
X81175000Y-117935000D02*
X81175000Y-122625000D01*
X86140000Y-112970000D02*
X81175000Y-117935000D01*
X95490000Y-107450000D02*
X89970000Y-112970000D01*
X89970000Y-112970000D02*
X86140000Y-112970000D01*
X95770000Y-96940000D02*
X95490000Y-97220000D01*
X95490000Y-97220000D02*
X95490000Y-107450000D01*
X95770000Y-96890000D02*
X95770000Y-96940000D01*
D81*
%TO.N,Net-(L10-Pad1)*%
X148925000Y-133175000D02*
X146367000Y-133175000D01*
X146367000Y-133175000D02*
X145780000Y-132588000D01*
X148955000Y-133145000D02*
X148925000Y-133175000D01*
D79*
%TO.N,Net-(C60-Pad2)*%
X155800000Y-136650000D02*
X158009500Y-138859500D01*
X155800000Y-131760000D02*
X155800000Y-136650000D01*
X155460000Y-131420000D02*
X155800000Y-131760000D01*
X154530000Y-131420000D02*
X155460000Y-131420000D01*
X151460000Y-128350000D02*
X154530000Y-131420000D01*
X148340000Y-128350000D02*
X151460000Y-128350000D01*
X147920000Y-127930000D02*
X148340000Y-128350000D01*
X147920000Y-127800000D02*
X147920000Y-127930000D01*
X145495000Y-125375000D02*
X147920000Y-127800000D01*
X158009500Y-138859500D02*
X158009500Y-139040000D01*
X135975000Y-125375000D02*
X145495000Y-125375000D01*
X133350000Y-119560000D02*
X134325000Y-120535000D01*
X125402000Y-119560000D02*
X133350000Y-119560000D01*
X123490000Y-117648000D02*
X125402000Y-119560000D01*
X134325000Y-123725000D02*
X135975000Y-125375000D01*
X123490000Y-116690000D02*
X123490000Y-117648000D01*
X123450000Y-116650000D02*
X123490000Y-116690000D01*
X134325000Y-120535000D02*
X134325000Y-123725000D01*
D81*
%TO.N,GND*%
X155185000Y-139040000D02*
X155934500Y-139040000D01*
X154475000Y-139750000D02*
X155185000Y-139040000D01*
X68500000Y-60900000D02*
X68500000Y-65290046D01*
X68500000Y-65290046D02*
X67982523Y-65807523D01*
D79*
%TO.N,PS2CLK*%
X91100000Y-68730000D02*
X88530000Y-68730000D01*
X103230000Y-80860000D02*
X91100000Y-68730000D01*
X107870000Y-80860000D02*
X103230000Y-80860000D01*
X108610000Y-81600000D02*
X107870000Y-80860000D01*
X109550000Y-87725000D02*
X108610000Y-86785000D01*
X108610000Y-86785000D02*
X108610000Y-81600000D01*
X118800000Y-89725000D02*
X116800000Y-87725000D01*
X119275000Y-98600000D02*
X118800000Y-98125000D01*
X118800000Y-98125000D02*
X118800000Y-89725000D01*
X120475000Y-98600000D02*
X119275000Y-98600000D01*
X116800000Y-87725000D02*
X109550000Y-87725000D01*
D80*
%TO.N,PS2DATA*%
X126139500Y-100342000D02*
X124605604Y-100342000D01*
X122938604Y-98675000D02*
X121700000Y-98675000D01*
X124605604Y-100342000D02*
X122938604Y-98675000D01*
X121700000Y-98675000D02*
X121325000Y-98300000D01*
X121325000Y-96088173D02*
X121375000Y-96038173D01*
X121325000Y-98300000D02*
X121325000Y-96088173D01*
X121375000Y-96038173D02*
X121375000Y-93575000D01*
X121375000Y-93575000D02*
X120900000Y-93100000D01*
X120900000Y-93100000D02*
X120900000Y-84525000D01*
X120900000Y-84525000D02*
X119445000Y-83070000D01*
X119445000Y-83070000D02*
X116070000Y-83070000D01*
X116070000Y-83070000D02*
X112975000Y-79975000D01*
X112975000Y-79975000D02*
X106350000Y-79975000D01*
X106350000Y-79975000D02*
X103140000Y-76765000D01*
X103140000Y-76765000D02*
X103140000Y-70450000D01*
X103140000Y-70450000D02*
X103150000Y-70440000D01*
%TO.N,E*%
X117950000Y-98925000D02*
X117950000Y-94550000D01*
X118425000Y-99400000D02*
X117950000Y-98925000D01*
X122500000Y-99400000D02*
X118425000Y-99400000D01*
%TO.N,DB7*%
X107350000Y-86500000D02*
X107350000Y-85230000D01*
X115400000Y-88450000D02*
X109300000Y-88450000D01*
X109300000Y-88450000D02*
X107350000Y-86500000D01*
X121250000Y-100100000D02*
X118150000Y-100100000D01*
X118150000Y-100100000D02*
X117200000Y-99150000D01*
X117200000Y-99150000D02*
X117200000Y-90250000D01*
X117200000Y-90250000D02*
X115400000Y-88450000D01*
%TO.N,DB6*%
X115225000Y-89125000D02*
X108475000Y-89125000D01*
X116600000Y-90500000D02*
X115225000Y-89125000D01*
X116600000Y-99325000D02*
X116600000Y-90500000D01*
X118000000Y-100725000D02*
X116600000Y-99325000D01*
X108475000Y-89125000D02*
X108400000Y-89050000D01*
X122025000Y-100725000D02*
X118000000Y-100725000D01*
%TO.N,DB5*%
X114775000Y-89825000D02*
X110050500Y-89825000D01*
X116050000Y-91100000D02*
X114775000Y-89825000D01*
X116050000Y-99625000D02*
X116050000Y-91100000D01*
X117800500Y-101375500D02*
X116050000Y-99625000D01*
X110050500Y-89825000D02*
X110000000Y-89875500D01*
X122750500Y-101375500D02*
X117800500Y-101375500D01*
X122825000Y-101450000D02*
X122750500Y-101375500D01*
%TO.N,DB4*%
X117525500Y-102000500D02*
X120775000Y-102000500D01*
X115550000Y-100025000D02*
X117525500Y-102000500D01*
X114400000Y-90500000D02*
X115550000Y-91650000D01*
X115550000Y-91650000D02*
X115550000Y-100025000D01*
X109000000Y-90500000D02*
X114400000Y-90500000D01*
X108900000Y-90400000D02*
X109000000Y-90500000D01*
%TO.N,BEEPOUT*%
X123833000Y-102342000D02*
X126139500Y-102342000D01*
X122425000Y-103750000D02*
X123833000Y-102342000D01*
X114875000Y-103750000D02*
X122425000Y-103750000D01*
X113150000Y-119425000D02*
X114540000Y-118035000D01*
X114540000Y-118035000D02*
X114540000Y-104085000D01*
X113150000Y-121725000D02*
X113150000Y-119425000D01*
X113800000Y-122375000D02*
X113150000Y-121725000D01*
X120675000Y-122375000D02*
X113800000Y-122375000D01*
X121450000Y-121600000D02*
X120675000Y-122375000D01*
X114540000Y-104085000D02*
X114875000Y-103750000D01*
X121450000Y-116650000D02*
X121450000Y-121600000D01*
D81*
%TO.N,+3.3V*%
X96300000Y-59950000D02*
X90225000Y-59950000D01*
%TO.N,+12V*%
X67875000Y-66975000D02*
X66245000Y-66975000D01*
X69790000Y-65060000D02*
X67875000Y-66975000D01*
X71810000Y-65060000D02*
X69790000Y-65060000D01*
X73430000Y-63440000D02*
X71810000Y-65060000D01*
X74620000Y-57980000D02*
X73430000Y-59170000D01*
X122570000Y-61030000D02*
X119520000Y-57980000D01*
X139510000Y-61030000D02*
X122570000Y-61030000D01*
X142501000Y-58039000D02*
X139510000Y-61030000D01*
X152146000Y-58039000D02*
X142501000Y-58039000D01*
X73430000Y-59170000D02*
X73430000Y-63440000D01*
X119520000Y-57980000D02*
X74620000Y-57980000D01*
X66275000Y-75225000D02*
X65500000Y-76000000D01*
X66275000Y-70082500D02*
X66275000Y-75225000D01*
X66192500Y-70000000D02*
X66275000Y-70082500D01*
D79*
%TO.N,GND*%
X152725000Y-133200000D02*
X152780000Y-133145000D01*
X152780000Y-133145000D02*
X154205000Y-133145000D01*
X152725000Y-134375000D02*
X152765000Y-134415000D01*
X152765000Y-134415000D02*
X154205000Y-134415000D01*
D81*
%TO.N,+12V*%
X147437500Y-131700000D02*
X145075000Y-129337500D01*
X150375000Y-131700000D02*
X147437500Y-131700000D01*
X150700000Y-132025000D02*
X150375000Y-131700000D01*
X150210000Y-134415000D02*
X150700000Y-133925000D01*
X150700000Y-133925000D02*
X150700000Y-132025000D01*
X148955000Y-134415000D02*
X150210000Y-134415000D01*
D79*
%TO.N,Net-(C15-Pad1)*%
X150515000Y-135685000D02*
X148955000Y-135685000D01*
X151550000Y-134650000D02*
X150515000Y-135685000D01*
X150562500Y-129725000D02*
X151550000Y-130712500D01*
X151550000Y-130712500D02*
X151550000Y-134650000D01*
%TO.N,GND*%
X154205000Y-134415000D02*
X154205000Y-133145000D01*
D81*
%TO.N,Net-(C14-Pad1)*%
X167785000Y-69140000D02*
X169720000Y-67205000D01*
X164620000Y-69140000D02*
X167785000Y-69140000D01*
X169720000Y-67205000D02*
X169720000Y-66107500D01*
%TO.N,Net-(C31-Pad2)*%
X174850000Y-60510000D02*
X174850000Y-58842000D01*
X175700000Y-61360000D02*
X174850000Y-60510000D01*
X175700000Y-62370000D02*
X175700000Y-61360000D01*
X174850000Y-58842000D02*
X174174000Y-58166000D01*
%TO.N,Net-(D15-Pad2)*%
X176825000Y-63725000D02*
X178000000Y-64900000D01*
X176830000Y-59990000D02*
X176825000Y-59995000D01*
X176825000Y-59995000D02*
X176825000Y-63725000D01*
D80*
%TO.N,Net-(C8-Pad2)*%
X123460000Y-114040500D02*
X123465500Y-114046000D01*
X123460000Y-110680000D02*
X123460000Y-114040500D01*
X127210000Y-108560000D02*
X125820000Y-109950000D01*
X125820000Y-109950000D02*
X124190000Y-109950000D01*
X127210000Y-108530000D02*
X127210000Y-108560000D01*
X124190000Y-109950000D02*
X123460000Y-110680000D01*
%TO.N,Net-(J5-Pad4)*%
X122000000Y-103250000D02*
X123408000Y-101842000D01*
X114090000Y-103610000D02*
X114450000Y-103250000D01*
X114090000Y-104860000D02*
X114090000Y-103610000D01*
X112435000Y-106515000D02*
X114090000Y-104860000D01*
X123408000Y-101842000D02*
X126139500Y-101842000D01*
X111940000Y-106515000D02*
X112435000Y-106515000D01*
X114450000Y-103250000D02*
X122000000Y-103250000D01*
%TO.N,Net-(U1-Pad1)*%
X115500000Y-120775000D02*
X115475000Y-120800000D01*
X115500000Y-110650000D02*
X115500000Y-120775000D01*
X122200000Y-108980000D02*
X117170000Y-108980000D01*
X117170000Y-108980000D02*
X115500000Y-110650000D01*
X122830000Y-108350000D02*
X122200000Y-108980000D01*
X122830000Y-107060000D02*
X122830000Y-108350000D01*
X126500000Y-106070000D02*
X123820000Y-106070000D01*
X123820000Y-106070000D02*
X122830000Y-107060000D01*
X127552000Y-105254500D02*
X127315500Y-105254500D01*
X127315500Y-105254500D02*
X126500000Y-106070000D01*
D79*
%TO.N,+3.3V*%
X109202000Y-118346000D02*
X109202000Y-117620000D01*
X108500000Y-119048000D02*
X109202000Y-118346000D01*
X108500000Y-121350000D02*
X108500000Y-119048000D01*
%TO.N,Net-(D3-Pad2)*%
X110744000Y-126222000D02*
X110728000Y-126238000D01*
%TO.N,GND*%
X109600000Y-122750000D02*
X108650000Y-123700000D01*
%TO.N,Net-(D3-Pad2)*%
X110550000Y-123700000D02*
X110744000Y-123894000D01*
X110744000Y-123894000D02*
X110744000Y-126222000D01*
%TO.N,GND*%
X108650000Y-123700000D02*
X108500000Y-123700000D01*
%TO.N,+3.3V*%
X107630000Y-118540000D02*
X107375000Y-118795000D01*
X107375000Y-118795000D02*
X107375000Y-124885000D01*
X107375000Y-124885000D02*
X108728000Y-126238000D01*
X107630000Y-117620000D02*
X107630000Y-118540000D01*
X109202000Y-117620000D02*
X107630000Y-117620000D01*
X107900000Y-107250000D02*
X107900000Y-112218000D01*
X107900000Y-112218000D02*
X109202000Y-113520000D01*
X109202000Y-113520000D02*
X109202000Y-117620000D01*
%TO.N,GND*%
X106680000Y-114262500D02*
X107717500Y-115300000D01*
X106680000Y-113284000D02*
X106680000Y-114262500D01*
%TO.N,Net-(C17-Pad2)*%
X105630000Y-117620000D02*
X104122000Y-117620000D01*
X104122000Y-117620000D02*
X103880000Y-117862000D01*
X103880000Y-103595000D02*
X103880000Y-117862000D01*
X105642500Y-117607500D02*
X105642500Y-115300000D01*
X105630000Y-117620000D02*
X105642500Y-117607500D01*
X108360000Y-97530000D02*
X108360000Y-99115000D01*
X108360000Y-99115000D02*
X103880000Y-103595000D01*
D80*
%TO.N,SCL*%
X158493206Y-108631794D02*
X157952500Y-109172500D01*
X158493206Y-108453206D02*
X158493206Y-108631794D01*
X157952500Y-109172500D02*
X157050000Y-109172500D01*
%TO.N,SDA*%
X144678000Y-80670000D02*
X143290000Y-80670000D01*
X148336000Y-84328000D02*
X144678000Y-80670000D01*
X156210000Y-101854000D02*
X156210000Y-95310000D01*
X148336000Y-87436000D02*
X148336000Y-84328000D01*
X159170000Y-104814000D02*
X156210000Y-101854000D01*
X156210000Y-95310000D02*
X148336000Y-87436000D01*
X159170000Y-108805000D02*
X159170000Y-104814000D01*
X158167500Y-109807500D02*
X159170000Y-108805000D01*
X157050000Y-109807500D02*
X158167500Y-109807500D01*
%TO.N,SCL*%
X145194000Y-80170000D02*
X143290000Y-80170000D01*
X148844000Y-87019000D02*
X148844000Y-83820000D01*
X148844000Y-83820000D02*
X145194000Y-80170000D01*
X156850000Y-95025000D02*
X148844000Y-87019000D01*
X160100000Y-104575000D02*
X156850000Y-101325000D01*
X160100000Y-108050500D02*
X160100000Y-104575000D01*
X159825250Y-108325250D02*
X160100000Y-108050500D01*
X156850000Y-101325000D02*
X156850000Y-95025000D01*
%TO.N,Net-(R17-Pad1)*%
X158242000Y-101076000D02*
X158242000Y-101667000D01*
X158242000Y-101667000D02*
X160650000Y-104075000D01*
X160650000Y-104075000D02*
X160650000Y-108700000D01*
X160650000Y-108700000D02*
X158907500Y-110442500D01*
X158907500Y-110442500D02*
X157050000Y-110442500D01*
%TO.N,+3.3V*%
X148670000Y-80170000D02*
X147690000Y-80170000D01*
X148875000Y-80375000D02*
X148670000Y-80170000D01*
X148875000Y-82025000D02*
X148875000Y-80375000D01*
X150025000Y-83175000D02*
X148875000Y-82025000D01*
X150025000Y-86425000D02*
X150025000Y-83175000D01*
X158150000Y-94550000D02*
X150025000Y-86425000D01*
X158150000Y-96775000D02*
X158150000Y-94550000D01*
X159825000Y-98450000D02*
X158150000Y-96775000D01*
X159825000Y-102050000D02*
X159825000Y-98450000D01*
X160300000Y-102525000D02*
X159825000Y-102050000D01*
X161140000Y-103315000D02*
X160350000Y-102525000D01*
X160350000Y-102525000D02*
X160300000Y-102525000D01*
X160252500Y-111077500D02*
X161140000Y-110190000D01*
X161140000Y-110190000D02*
X161140000Y-103315000D01*
X157050000Y-111077500D02*
X160252500Y-111077500D01*
D81*
%TO.N,Net-(C26-Pad2)*%
X169660000Y-126990000D02*
X169660000Y-122082500D01*
%TO.N,Net-(C26-Pad1)*%
X172627500Y-121190000D02*
X183210000Y-121190000D01*
%TO.N,Net-(C26-Pad2)*%
X169660000Y-122082500D02*
X170512500Y-121230000D01*
%TO.N,Net-(C26-Pad1)*%
X172587500Y-121230000D02*
X172627500Y-121190000D01*
X183210000Y-121190000D02*
X187775000Y-116625000D01*
%TO.N,Net-(JP7-Pad2)*%
X182660000Y-114030000D02*
X180175000Y-111545000D01*
X181180000Y-119720000D02*
X182660000Y-118240000D01*
X182660000Y-118240000D02*
X182660000Y-114030000D01*
X175460000Y-119720000D02*
X181180000Y-119720000D01*
X174020000Y-118280000D02*
X175460000Y-119720000D01*
X174020000Y-116780000D02*
X174020000Y-118280000D01*
D79*
%TO.N,Net-(C27-Pad1)*%
X148370000Y-117420000D02*
X152085500Y-117420000D01*
X147040000Y-114930000D02*
X147040000Y-116090000D01*
X152085500Y-117420000D02*
X152090000Y-117415500D01*
X145410000Y-113300000D02*
X147040000Y-114930000D01*
X147040000Y-116090000D02*
X148370000Y-117420000D01*
X141380000Y-113300000D02*
X145410000Y-113300000D01*
X139740000Y-114940000D02*
X141380000Y-113300000D01*
X139740000Y-117180000D02*
X139740000Y-114940000D01*
%TO.N,Net-(Q4-Pad1)*%
X145170000Y-108270000D02*
X144600000Y-108270000D01*
X147690000Y-110790000D02*
X145170000Y-108270000D01*
X147690000Y-115760000D02*
X147690000Y-110790000D01*
X148410000Y-116480000D02*
X147690000Y-115760000D01*
X150000000Y-116480000D02*
X148410000Y-116480000D01*
%TO.N,Net-(R16-Pad2)*%
X148460000Y-109890000D02*
X149660000Y-108690000D01*
X148460000Y-112240000D02*
X148460000Y-109890000D01*
X149020000Y-112800000D02*
X148460000Y-112240000D01*
%TO.N,GND*%
X151622500Y-109727500D02*
X152090000Y-109260000D01*
X151622500Y-110530000D02*
X151622500Y-109727500D01*
%TO.N,+3.3V*%
X152400000Y-111625000D02*
X152270000Y-111625000D01*
X152270000Y-111625000D02*
X151120000Y-112775000D01*
X153495000Y-110530000D02*
X152400000Y-111625000D01*
X153697500Y-110530000D02*
X153495000Y-110530000D01*
D80*
X154245000Y-111077500D02*
X153697500Y-110530000D01*
X157050000Y-111077500D02*
X154245000Y-111077500D01*
D79*
%TO.N,Net-(R16-Pad2)*%
X149812500Y-108537500D02*
X149660000Y-108690000D01*
X157050000Y-108537500D02*
X149812500Y-108537500D01*
%TO.N,+3.3V*%
X149660000Y-111315000D02*
X151120000Y-112775000D01*
X149660000Y-110690000D02*
X149660000Y-111315000D01*
%TO.N,GND*%
X148890000Y-115805500D02*
X149020000Y-115675500D01*
X149020000Y-115675500D02*
X149020000Y-114800000D01*
%TO.N,Net-(C27-Pad1)*%
X151955500Y-117415500D02*
X152090000Y-117415500D01*
X151120000Y-114825000D02*
X150770000Y-115175000D01*
X150770000Y-115175000D02*
X150770000Y-116230000D01*
X150770000Y-116230000D02*
X151955500Y-117415500D01*
X153300000Y-112837500D02*
X153107500Y-112837500D01*
X153107500Y-112837500D02*
X151120000Y-114825000D01*
%TO.N,GND*%
X133272500Y-109940000D02*
X132550000Y-110662500D01*
X134150000Y-109940000D02*
X133272500Y-109940000D01*
X133574000Y-114046000D02*
X133625500Y-114046000D01*
X132560000Y-115060000D02*
X133574000Y-114046000D01*
%TO.N,Net-(C1-Pad2)*%
X141475000Y-106975000D02*
X141625000Y-106975000D01*
X137195000Y-111255000D02*
X141475000Y-106975000D01*
%TO.N,RCH*%
X139740000Y-119180000D02*
X140300000Y-119740000D01*
X140300000Y-119740000D02*
X140300000Y-121325000D01*
X142472500Y-120650000D02*
X141210000Y-120650000D01*
D80*
X138720000Y-118160000D02*
X139740000Y-119180000D01*
X136690000Y-118160000D02*
X138720000Y-118160000D01*
X136340000Y-117810000D02*
X136690000Y-118160000D01*
X136340000Y-104368884D02*
X136340000Y-117810000D01*
X136650000Y-104058884D02*
X136340000Y-104368884D01*
X136558884Y-103450000D02*
X136650000Y-103541116D01*
X137050000Y-102958884D02*
X136558884Y-103450000D01*
X135962000Y-101342000D02*
X137050000Y-102430000D01*
X134464500Y-101342000D02*
X135962000Y-101342000D01*
D79*
X141210000Y-120650000D02*
X139740000Y-119180000D01*
D80*
X137050000Y-102430000D02*
X137050000Y-102958884D01*
X136650000Y-103541116D02*
X136650000Y-104058884D01*
D79*
%TO.N,Net-(C27-Pad1)*%
X139740000Y-117180000D02*
X137570000Y-117180000D01*
X137570000Y-117180000D02*
X137550000Y-117160000D01*
%TO.N,LCH*%
X136850000Y-119860000D02*
X136850000Y-121325000D01*
D80*
X136630000Y-119160000D02*
X137550000Y-119160000D01*
X135770000Y-118300000D02*
X136630000Y-119160000D01*
X135770000Y-106470000D02*
X135770000Y-118300000D01*
X133425884Y-104292000D02*
X133592000Y-104292000D01*
X133592000Y-104292000D02*
X135770000Y-106470000D01*
X132130000Y-103980000D02*
X133113884Y-103980000D01*
D79*
X137550000Y-119160000D02*
X136850000Y-119860000D01*
D80*
X133113884Y-103980000D02*
X133425884Y-104292000D01*
X132052000Y-104058000D02*
X132130000Y-103980000D01*
X132052000Y-105254500D02*
X132052000Y-104058000D01*
%TO.N,MICPADDLE*%
X134301000Y-118175000D02*
X130565000Y-118175000D01*
X135220000Y-117256000D02*
X134301000Y-118175000D01*
X135220000Y-108845000D02*
X135220000Y-117256000D01*
X130565000Y-118175000D02*
X130200000Y-118540000D01*
X132552000Y-105254500D02*
X132552000Y-106177000D01*
X132552000Y-106177000D02*
X135220000Y-108845000D01*
D79*
%TO.N,Net-(C1-Pad2)*%
X131550500Y-113574500D02*
X131550500Y-114046000D01*
X132745000Y-112380000D02*
X131550500Y-113574500D01*
X132770000Y-112380000D02*
X132745000Y-112380000D01*
D80*
%TO.N,DB7*%
X131413500Y-102842000D02*
X134464500Y-102842000D01*
%TO.N,Net-(R1-Pad1)*%
X118840000Y-115170000D02*
X117300000Y-116710000D01*
X118840000Y-110210000D02*
X118840000Y-115170000D01*
X123444000Y-107188000D02*
X123444000Y-108712000D01*
X123444000Y-108712000D02*
X122606000Y-109550000D01*
X127573604Y-106590000D02*
X124042000Y-106590000D01*
X124042000Y-106590000D02*
X123444000Y-107188000D01*
X119500000Y-109550000D02*
X118840000Y-110210000D01*
X128052000Y-106111604D02*
X127573604Y-106590000D01*
X128052000Y-105254500D02*
X128052000Y-106111604D01*
X122606000Y-109550000D02*
X119500000Y-109550000D01*
%TO.N,Net-(C5-Pad2)*%
X124710000Y-108530000D02*
X124670000Y-108530000D01*
X124670000Y-108530000D02*
X122237500Y-110962500D01*
D79*
%TO.N,GND*%
X120162500Y-111177500D02*
X120162500Y-111370000D01*
D80*
%TO.N,Net-(C5-Pad2)*%
X122237500Y-110962500D02*
X122237500Y-111370000D01*
D79*
%TO.N,GND*%
X121150000Y-110190000D02*
X120162500Y-111177500D01*
D80*
%TO.N,Net-(C9-Pad1)*%
X127301081Y-104120000D02*
X131552000Y-104120000D01*
X121460000Y-107630000D02*
X123484000Y-105606000D01*
X123484000Y-105606000D02*
X125815081Y-105606000D01*
X131552000Y-104120000D02*
X131552000Y-105254500D01*
X121195000Y-107630000D02*
X121460000Y-107630000D01*
X125815081Y-105606000D02*
X127301081Y-104120000D01*
%TO.N,+3.3V*%
X121881500Y-105156000D02*
X121507500Y-105530000D01*
X124825500Y-105156000D02*
X121881500Y-105156000D01*
X126139500Y-103842000D02*
X124825500Y-105156000D01*
%TO.N,GND*%
X125336315Y-103342000D02*
X126139500Y-103342000D01*
X124284315Y-104394000D02*
X125336315Y-103342000D01*
X123698000Y-104394000D02*
X124284315Y-104394000D01*
%TO.N,Net-(C5-Pad2)*%
X124710000Y-108010000D02*
X124710000Y-108530000D01*
X125650000Y-107070000D02*
X124710000Y-108010000D01*
X128090000Y-107070000D02*
X125650000Y-107070000D01*
X128552000Y-106608000D02*
X128090000Y-107070000D01*
X128552000Y-105254500D02*
X128552000Y-106608000D01*
%TO.N,Net-(C8-Pad2)*%
X127530000Y-108210000D02*
X127210000Y-108530000D01*
X128040000Y-108210000D02*
X127530000Y-108210000D01*
X129052000Y-107198000D02*
X128040000Y-108210000D01*
X129052000Y-105254500D02*
X129052000Y-107198000D01*
%TO.N,Net-(C2-Pad2)*%
X126145000Y-111730000D02*
X125500000Y-111730000D01*
X129552000Y-105254500D02*
X129552000Y-108323000D01*
X125500000Y-114628500D02*
X125476000Y-114652500D01*
%TO.N,Net-(C4-Pad2)*%
X130052000Y-105254500D02*
X130052000Y-110878000D01*
X129340000Y-114632500D02*
X129300000Y-114672500D01*
X129340000Y-111870000D02*
X129340000Y-114632500D01*
X130052000Y-110878000D02*
X129200000Y-111730000D01*
X129200000Y-111730000D02*
X129340000Y-111870000D01*
%TO.N,Net-(C2-Pad2)*%
X125500000Y-111730000D02*
X125500000Y-114628500D01*
X129552000Y-108323000D02*
X126145000Y-111730000D01*
D79*
%TO.N,+3.3V*%
X119407500Y-107630000D02*
X119145000Y-107630000D01*
X121507500Y-105530000D02*
X119407500Y-107630000D01*
X115725000Y-107750000D02*
X116025000Y-107450000D01*
X118965000Y-107450000D02*
X119145000Y-107630000D01*
X116025000Y-107450000D02*
X118965000Y-107450000D01*
%TO.N,GND*%
X118738000Y-105530000D02*
X119432500Y-105530000D01*
X118364000Y-105156000D02*
X118738000Y-105530000D01*
D81*
%TO.N,Net-(J17-Pad4)*%
X166530000Y-123190000D02*
X163830000Y-123190000D01*
X170545000Y-114380000D02*
X169175000Y-115750000D01*
X174160000Y-114380000D02*
X170545000Y-114380000D01*
X169175000Y-115750000D02*
X169175000Y-120545000D01*
X176560000Y-116780000D02*
X174160000Y-114380000D01*
X169175000Y-120545000D02*
X166530000Y-123190000D01*
%TO.N,Net-(C26-Pad2)*%
X163150000Y-125050000D02*
X161290000Y-123190000D01*
X167720000Y-125050000D02*
X163150000Y-125050000D01*
X169660000Y-126990000D02*
X167720000Y-125050000D01*
%TO.N,Net-(J18-Pad3)*%
X163840000Y-143510000D02*
X161300000Y-143510000D01*
X170815000Y-143510000D02*
X163840000Y-143510000D01*
D79*
%TO.N,Net-(Q4-Pad1)*%
X160286500Y-126746000D02*
X160606500Y-127066000D01*
X154178000Y-125730000D02*
X155194000Y-126746000D01*
X155194000Y-126746000D02*
X160286500Y-126746000D01*
X154178000Y-122308000D02*
X154178000Y-125730000D01*
X153162000Y-121292000D02*
X154178000Y-122308000D01*
X153162000Y-120142000D02*
X153162000Y-121292000D01*
%TO.N,Net-(C27-Pad1)*%
X153416000Y-122591000D02*
X153416000Y-126191000D01*
X152110000Y-121285000D02*
X153416000Y-122591000D01*
X153416000Y-126191000D02*
X155430000Y-128205000D01*
X152110000Y-119960000D02*
X152110000Y-121285000D01*
%TO.N,Net-(C60-Pad2)*%
X161306000Y-136780000D02*
X160800000Y-136780000D01*
X160800000Y-136780000D02*
X158540000Y-139040000D01*
X158540000Y-139040000D02*
X158009500Y-139040000D01*
%TO.N,Net-(C34-Pad1)*%
X163130000Y-138978500D02*
X163130000Y-136956000D01*
X163130000Y-136956000D02*
X163306000Y-136780000D01*
X163343500Y-139192000D02*
X163130000Y-138978500D01*
X163280000Y-136754000D02*
X163306000Y-136780000D01*
X163280000Y-134486000D02*
X163280000Y-136754000D01*
X163306000Y-134460000D02*
X163280000Y-134486000D01*
%TO.N,Net-(C18-Pad1)*%
X161305000Y-131572500D02*
X161305000Y-134459000D01*
X161305000Y-134459000D02*
X161306000Y-134460000D01*
X160952500Y-131220000D02*
X161305000Y-131572500D01*
D81*
%TO.N,Net-(J18-Pad3)*%
X173355000Y-140843000D02*
X173355000Y-140970000D01*
X169660000Y-137148000D02*
X173355000Y-140843000D01*
X169660000Y-129530000D02*
X169660000Y-137148000D01*
X173355000Y-140970000D02*
X170815000Y-143510000D01*
%TO.N,Net-(J12-Pad1)*%
X180848000Y-135536000D02*
X184673000Y-131711000D01*
X180848000Y-140462000D02*
X180848000Y-135536000D01*
X180975000Y-140589000D02*
X180848000Y-140462000D01*
X180975000Y-140970000D02*
X180975000Y-140589000D01*
%TO.N,Net-(D16-Pad2)*%
X178800000Y-136668000D02*
X178800000Y-133220000D01*
X177292000Y-138176000D02*
X178800000Y-136668000D01*
X177228500Y-138176000D02*
X177292000Y-138176000D01*
D79*
%TO.N,Net-(C18-Pad1)*%
X158700000Y-128828000D02*
X158700000Y-130950000D01*
X159512000Y-128016000D02*
X158700000Y-128828000D01*
X162481500Y-128016000D02*
X159512000Y-128016000D01*
D81*
%TO.N,GND*%
X161986000Y-128966000D02*
X162306000Y-129286000D01*
X160606500Y-128966000D02*
X161986000Y-128966000D01*
D79*
X163130000Y-131220000D02*
X163027500Y-131220000D01*
X164480000Y-129870000D02*
X163130000Y-131220000D01*
%TO.N,Net-(C18-Pad1)*%
X160682500Y-130950000D02*
X160952500Y-131220000D01*
X158700000Y-130950000D02*
X160682500Y-130950000D01*
D81*
%TO.N,AUDIO*%
X155880000Y-130130000D02*
X155505000Y-130130000D01*
X158700000Y-132950000D02*
X155880000Y-130130000D01*
X158730000Y-135220000D02*
X158220000Y-135730000D01*
X158730000Y-132980000D02*
X158730000Y-135220000D01*
X158700000Y-132950000D02*
X158730000Y-132980000D01*
%TO.N,+5V*%
X72390000Y-86532500D02*
X77747500Y-91890000D01*
X72390000Y-83310000D02*
X72390000Y-86532500D01*
X77330000Y-82030000D02*
X73670000Y-82030000D01*
X79000000Y-80360000D02*
X77330000Y-82030000D01*
X77747500Y-91890000D02*
X77960000Y-91890000D01*
X79000000Y-80000000D02*
X79000000Y-80360000D01*
X73670000Y-82030000D02*
X72390000Y-83310000D01*
D79*
%TO.N,Net-(DS1-Pad15)*%
X110600000Y-81000000D02*
X111590000Y-81000000D01*
X109890000Y-81710000D02*
X110600000Y-81000000D01*
X109890000Y-85230000D02*
X109890000Y-81710000D01*
D81*
%TO.N,+3.3V*%
X80460000Y-81960000D02*
X78990000Y-81960000D01*
X84110000Y-78310000D02*
X80460000Y-81960000D01*
X84110000Y-75790000D02*
X84110000Y-78310000D01*
X76870000Y-84080000D02*
X76870000Y-85230000D01*
X82288208Y-73968208D02*
X84110000Y-75790000D01*
X82000000Y-73968208D02*
X82288208Y-73968208D01*
X78990000Y-81960000D02*
X76870000Y-84080000D01*
D79*
%TO.N,Net-(DS1-Pad16)*%
X112660000Y-85000000D02*
X112430000Y-85230000D01*
X118812500Y-85000000D02*
X112660000Y-85000000D01*
X118825000Y-85012500D02*
X118812500Y-85000000D01*
%TO.N,DB7*%
X107420000Y-85300000D02*
X107350000Y-85230000D01*
X107420000Y-94195000D02*
X107420000Y-85300000D01*
X108360000Y-95135000D02*
X107420000Y-94195000D01*
%TO.N,DB6*%
X104880000Y-94830000D02*
X104880000Y-85300000D01*
X105610000Y-95560000D02*
X104880000Y-94830000D01*
%TO.N,DB7*%
X108360000Y-95530000D02*
X108360000Y-95135000D01*
%TO.N,DB4*%
X99800000Y-85300000D02*
X99730000Y-85230000D01*
X99800000Y-95400000D02*
X99800000Y-85300000D01*
%TO.N,DB6*%
X104880000Y-85300000D02*
X104810000Y-85230000D01*
%TO.N,RS*%
X81950000Y-85522500D02*
X81950000Y-85230000D01*
X91927500Y-95500000D02*
X81950000Y-85522500D01*
%TO.N,Net-(DS1-Pad3)*%
X79410000Y-84720000D02*
X79410000Y-85230000D01*
X83380000Y-80750000D02*
X79410000Y-84720000D01*
X90290000Y-80750000D02*
X83380000Y-80750000D01*
X91000000Y-80040000D02*
X90290000Y-80750000D01*
%TO.N,DB4*%
X99940000Y-95540000D02*
X99800000Y-95400000D01*
%TO.N,DB5*%
X102340000Y-95190000D02*
X102340000Y-85300000D01*
%TO.N,RS*%
X97390000Y-95500000D02*
X91927500Y-95500000D01*
%TO.N,DB5*%
X102340000Y-85300000D02*
X102270000Y-85230000D01*
X102700000Y-95550000D02*
X102340000Y-95190000D01*
%TO.N,PS2DATA*%
X103090000Y-70500000D02*
X103150000Y-70440000D01*
X90630000Y-67020000D02*
X94110000Y-70500000D01*
X94110000Y-70500000D02*
X103090000Y-70500000D01*
X90630000Y-65930000D02*
X90630000Y-67020000D01*
D81*
%TO.N,+5V*%
X93680000Y-64280000D02*
X95330000Y-65930000D01*
X90280000Y-64280000D02*
X93680000Y-64280000D01*
X89500000Y-63500000D02*
X90280000Y-64280000D01*
D79*
%TO.N,PS2CLK*%
X88530000Y-68730000D02*
X87980000Y-68180000D01*
D81*
%TO.N,+5V*%
X122146000Y-61976000D02*
X140754000Y-61976000D01*
X118990000Y-58820000D02*
X122146000Y-61976000D01*
X99300000Y-58820000D02*
X118990000Y-58820000D01*
X96750000Y-61370000D02*
X99300000Y-58820000D01*
X96750000Y-64510000D02*
X96750000Y-61370000D01*
X102560000Y-66050000D02*
X105150000Y-68640000D01*
X95450000Y-66050000D02*
X102560000Y-66050000D01*
D79*
%TO.N,PS2CLK*%
X87980000Y-68180000D02*
X82520000Y-68180000D01*
D81*
%TO.N,+5V*%
X95330000Y-65930000D02*
X95450000Y-66050000D01*
X140754000Y-61976000D02*
X142790000Y-59940000D01*
X95330000Y-65930000D02*
X96750000Y-64510000D01*
X105150000Y-68640000D02*
X105150000Y-70440000D01*
D79*
%TO.N,PS2CLK*%
X82520000Y-68180000D02*
X82330000Y-67990000D01*
D81*
%TO.N,+5V*%
X88450000Y-62450000D02*
X89500000Y-63500000D01*
X86780000Y-58780000D02*
X88450000Y-60450000D01*
X76230000Y-58780000D02*
X86780000Y-58780000D01*
X88450000Y-60450000D02*
X88450000Y-62450000D01*
X75080000Y-59930000D02*
X76230000Y-58780000D01*
X75080000Y-61020000D02*
X75080000Y-59930000D01*
X88040000Y-63500000D02*
X89500000Y-63500000D01*
X85484000Y-66056000D02*
X88040000Y-63500000D01*
X82396000Y-66056000D02*
X85484000Y-66056000D01*
X82330000Y-65990000D02*
X82396000Y-66056000D01*
%TO.N,GND*%
X80140000Y-61180000D02*
X79980000Y-61020000D01*
X81520000Y-61180000D02*
X80140000Y-61180000D01*
X79980000Y-61020000D02*
X79680000Y-61020000D01*
X80070000Y-61020000D02*
X79680000Y-61020000D01*
X81150000Y-62100000D02*
X80070000Y-61020000D01*
%TO.N,+3.3V*%
X84790000Y-59880000D02*
X84790000Y-59870000D01*
X80190000Y-64480000D02*
X84790000Y-59880000D01*
X77380000Y-64480000D02*
X80190000Y-64480000D01*
D79*
%TO.N,+5V*%
X82330000Y-66090000D02*
X82330000Y-65990000D01*
X81070000Y-69290000D02*
X81070000Y-67350000D01*
X86780000Y-75000000D02*
X81070000Y-69290000D01*
X81070000Y-67350000D02*
X82330000Y-66090000D01*
X88500000Y-75000000D02*
X86780000Y-75000000D01*
%TO.N,Net-(J26-Pad3)*%
X112670000Y-68956000D02*
X111760000Y-69866000D01*
X112670000Y-66000000D02*
X112670000Y-68956000D01*
X113910000Y-64760000D02*
X112670000Y-66000000D01*
%TO.N,Net-(J26-Pad2)*%
X114554000Y-67451500D02*
X114554000Y-69866000D01*
X113910000Y-66807500D02*
X114554000Y-67451500D01*
X113910000Y-66760000D02*
X113910000Y-66807500D01*
D81*
%TO.N,Net-(D5-Pad2)*%
X108458000Y-68072000D02*
X108458000Y-72684000D01*
X109770000Y-66760000D02*
X108458000Y-68072000D01*
X111410000Y-66760000D02*
X109770000Y-66760000D01*
%TO.N,+3.3V*%
X114140000Y-62560000D02*
X117641500Y-66061500D01*
X110070000Y-62560000D02*
X114140000Y-62560000D01*
X103990000Y-65010000D02*
X107620000Y-65010000D01*
X107620000Y-65010000D02*
X110070000Y-62560000D01*
X102430000Y-63450000D02*
X103990000Y-65010000D01*
X117641500Y-66061500D02*
X121896000Y-66061500D01*
X121896000Y-66061500D02*
X121980000Y-65977500D01*
X102430000Y-60380000D02*
X102430000Y-63450000D01*
X122180000Y-66177500D02*
X121980000Y-65977500D01*
X122180000Y-69320000D02*
X122180000Y-66177500D01*
X121396000Y-70104000D02*
X122180000Y-69320000D01*
D79*
%TO.N,GND*%
X120650000Y-64500000D02*
X121247500Y-63902500D01*
X121247500Y-63902500D02*
X121980000Y-63902500D01*
%TO.N,+3.3V*%
X121987500Y-65970000D02*
X121980000Y-65977500D01*
X125900000Y-65970000D02*
X121987500Y-65970000D01*
D80*
%TO.N,MISO*%
X132052000Y-97732685D02*
X132052000Y-96929500D01*
X133720000Y-97646919D02*
X133256919Y-98110000D01*
X133720000Y-95820000D02*
X133720000Y-97646919D01*
X132340000Y-72900000D02*
X132340000Y-94440000D01*
X135330000Y-69910000D02*
X132340000Y-72900000D01*
X135330000Y-68930000D02*
X135330000Y-69910000D01*
D79*
%TO.N,GND*%
X133900000Y-67380000D02*
X133690000Y-67170000D01*
X134230000Y-68930000D02*
X133900000Y-68600000D01*
D80*
%TO.N,SCK*%
X131730000Y-71216000D02*
X133130000Y-69816000D01*
X131730000Y-94940000D02*
X131730000Y-71216000D01*
X132552000Y-96929500D02*
X132552000Y-95762000D01*
D79*
%TO.N,+3.3V*%
X132030000Y-68020000D02*
X129980000Y-65970000D01*
D80*
%TO.N,MOSI*%
X130930000Y-71240000D02*
X130930000Y-68930000D01*
X131110000Y-71420000D02*
X130930000Y-71240000D01*
X131552000Y-95642000D02*
X131110000Y-95200000D01*
X131552000Y-96929500D02*
X131552000Y-95642000D01*
%TO.N,CS*%
X129620000Y-68720000D02*
X129830000Y-68930000D01*
X129620000Y-67150000D02*
X129620000Y-68720000D01*
%TO.N,MISO*%
X132340000Y-94440000D02*
X133720000Y-95820000D01*
%TO.N,SCK*%
X133130000Y-69816000D02*
X133130000Y-68930000D01*
%TO.N,MISO*%
X133256919Y-98110000D02*
X132429315Y-98110000D01*
D79*
%TO.N,+3.3V*%
X129980000Y-65970000D02*
X125900000Y-65970000D01*
D80*
%TO.N,MOSI*%
X131110000Y-95200000D02*
X131110000Y-71420000D01*
%TO.N,SCK*%
X132552000Y-95762000D02*
X131730000Y-94940000D01*
D79*
%TO.N,+3.3V*%
X132030000Y-68930000D02*
X132030000Y-68020000D01*
D80*
%TO.N,MISO*%
X132429315Y-98110000D02*
X132052000Y-97732685D01*
D79*
%TO.N,GND*%
X133900000Y-68600000D02*
X133900000Y-67380000D01*
D80*
%TO.N,CS*%
X131780000Y-66040000D02*
X131710000Y-66110000D01*
X138750000Y-66040000D02*
X131780000Y-66040000D01*
X139954000Y-67244000D02*
X138750000Y-66040000D01*
X139400000Y-70430000D02*
X139954000Y-69876000D01*
X135850000Y-70430000D02*
X139400000Y-70430000D01*
X139954000Y-69876000D02*
X139954000Y-67244000D01*
X132900000Y-73380000D02*
X135850000Y-70430000D01*
X132900000Y-88700000D02*
X132900000Y-73380000D01*
X135400000Y-91200000D02*
X132900000Y-88700000D01*
X136325000Y-91200000D02*
X135400000Y-91200000D01*
D81*
%TO.N,GND*%
X174244000Y-94996000D02*
X175260000Y-93980000D01*
X174011500Y-94996000D02*
X174244000Y-94996000D01*
%TO.N,AMPOUT*%
X172212000Y-92412000D02*
X172107000Y-92307000D01*
X172212000Y-94720500D02*
X172212000Y-92412000D01*
X171936500Y-94996000D02*
X172212000Y-94720500D01*
%TO.N,Net-(C19-Pad1)*%
X141224000Y-132588000D02*
X143780000Y-132588000D01*
X137882000Y-135930000D02*
X141224000Y-132588000D01*
X132120000Y-135930000D02*
X137882000Y-135930000D01*
X131572000Y-135382000D02*
X132120000Y-135930000D01*
%TO.N,Net-(L10-Pad1)*%
X145780000Y-133874000D02*
X144272000Y-135382000D01*
X144272000Y-135382000D02*
X141732000Y-135382000D01*
X145780000Y-132588000D02*
X145780000Y-133874000D01*
%TO.N,Net-(C19-Pad1)*%
X140475000Y-127650000D02*
X143780000Y-130955000D01*
X143780000Y-130955000D02*
X143780000Y-132588000D01*
X134850000Y-127650000D02*
X140475000Y-127650000D01*
X134550000Y-127950000D02*
X134850000Y-127650000D01*
%TO.N,+12V*%
X126725000Y-126175000D02*
X126480000Y-125930000D01*
X140750000Y-126175000D02*
X126725000Y-126175000D01*
X145075000Y-129337500D02*
X143912500Y-129337500D01*
X143912500Y-129337500D02*
X140750000Y-126175000D01*
D79*
%TO.N,+3.3V*%
X87894000Y-132684000D02*
X87970000Y-132760000D01*
X86010000Y-132684000D02*
X87894000Y-132684000D01*
X86010000Y-134524000D02*
X86010000Y-132684000D01*
X86106000Y-134620000D02*
X86010000Y-134524000D01*
X104378000Y-128512000D02*
X104378000Y-129794000D01*
X105636000Y-127254000D02*
X104378000Y-128512000D01*
X107246000Y-127254000D02*
X105636000Y-127254000D01*
X108262000Y-126238000D02*
X107246000Y-127254000D01*
X108728000Y-126238000D02*
X108262000Y-126238000D01*
%TO.N,GND*%
X106895000Y-129845000D02*
X105810000Y-128760000D01*
X106895000Y-130280000D02*
X106895000Y-129845000D01*
%TO.N,Net-(C62-Pad2)*%
X58427500Y-125722500D02*
X59020000Y-125722500D01*
X57404000Y-126746000D02*
X58427500Y-125722500D01*
X57404000Y-135890000D02*
X57404000Y-126746000D01*
X61744000Y-140230000D02*
X57404000Y-135890000D01*
X82778000Y-138500000D02*
X81048000Y-140230000D01*
X81048000Y-140230000D02*
X61744000Y-140230000D01*
%TO.N,Net-(C67-Pad2)*%
X71120000Y-128982500D02*
X70887500Y-128750000D01*
X71120000Y-128982500D02*
X71120000Y-135382000D01*
X69570000Y-136932000D02*
X69570000Y-138680000D01*
X71120000Y-135382000D02*
X69570000Y-136932000D01*
%TO.N,Net-(C68-Pad2)*%
X64600000Y-130340000D02*
X64410000Y-130340000D01*
X64410000Y-130340000D02*
X59570000Y-135180000D01*
%TO.N,GND*%
X59140000Y-127917500D02*
X59020000Y-127797500D01*
X59140000Y-129250000D02*
X59140000Y-127917500D01*
%TO.N,Net-(C62-Pad2)*%
X59220000Y-123135000D02*
X59220000Y-125522500D01*
X59080000Y-122995000D02*
X59220000Y-123135000D01*
X59220000Y-125522500D02*
X59020000Y-125722500D01*
X59110000Y-123025000D02*
X59080000Y-122995000D01*
%TO.N,Net-(C63-Pad1)*%
X59325000Y-120700000D02*
X59080000Y-120945000D01*
X61620000Y-120700000D02*
X59325000Y-120700000D01*
X68050500Y-111781500D02*
X64008000Y-115824000D01*
X64008000Y-115824000D02*
X64008000Y-118312000D01*
X64008000Y-118312000D02*
X61620000Y-120700000D01*
X68580000Y-111781500D02*
X68050500Y-111781500D01*
%TO.N,GND*%
X62330000Y-125070000D02*
X62182500Y-125070000D01*
X62182500Y-125070000D02*
X61310000Y-124197500D01*
%TO.N,Net-(C68-Pad2)*%
X64600000Y-124460000D02*
X64600000Y-130340000D01*
X61310000Y-122122500D02*
X62262500Y-122122500D01*
X62262500Y-122122500D02*
X64600000Y-124460000D01*
%TO.N,Net-(C62-Pad2)*%
X57690000Y-119450000D02*
X57690000Y-121605000D01*
X58930000Y-118210000D02*
X57690000Y-119450000D01*
X59080000Y-118210000D02*
X58930000Y-118210000D01*
X57690000Y-121605000D02*
X59080000Y-122995000D01*
%TO.N,GND*%
X61550000Y-118390000D02*
X61550000Y-118207500D01*
X60350000Y-119590000D02*
X61550000Y-118390000D01*
%TO.N,+5V*%
X61530000Y-116132500D02*
X61452500Y-116210000D01*
X61550000Y-116132500D02*
X61530000Y-116132500D01*
X61452500Y-116210000D02*
X59080000Y-116210000D01*
X77280000Y-92570000D02*
X77960000Y-91890000D01*
X77280000Y-100590000D02*
X77280000Y-92570000D01*
X75770000Y-102100000D02*
X77280000Y-100590000D01*
X67900000Y-102100000D02*
X75770000Y-102100000D01*
X66450000Y-103550000D02*
X67900000Y-102100000D01*
X66450000Y-109850000D02*
X66450000Y-103550000D01*
X61630000Y-114670000D02*
X66450000Y-109850000D01*
X61630000Y-116052500D02*
X61630000Y-114670000D01*
X61550000Y-116132500D02*
X61630000Y-116052500D01*
%TO.N,Net-(C35-Pad1)*%
X167150000Y-108637500D02*
X165450000Y-110337500D01*
X167150000Y-107350000D02*
X167150000Y-108637500D01*
X163920000Y-106530000D02*
X166330000Y-106530000D01*
X163817500Y-106632500D02*
X163920000Y-106530000D01*
X166330000Y-106530000D02*
X167150000Y-107350000D01*
X162250000Y-106632500D02*
X163817500Y-106632500D01*
D81*
%TO.N,+5V*%
X72000000Y-74000000D02*
X75000000Y-74000000D01*
D79*
X86880000Y-107230000D02*
X84439500Y-107230000D01*
X90932000Y-105918000D02*
X92456000Y-107442000D01*
D81*
X70780000Y-67200000D02*
X70780000Y-69855000D01*
X105140000Y-74914000D02*
X105140000Y-70450000D01*
X70780000Y-69855000D02*
X70925000Y-70000000D01*
X108458000Y-77684000D02*
X107910000Y-77684000D01*
D79*
X86880000Y-107230000D02*
X86880000Y-106414000D01*
X84439500Y-107230000D02*
X84212500Y-107003000D01*
D81*
X107910000Y-77684000D02*
X105140000Y-74914000D01*
X89820000Y-96670000D02*
X94200000Y-96670000D01*
X85040000Y-91890000D02*
X89820000Y-96670000D01*
D79*
X110274000Y-77684000D02*
X108458000Y-77684000D01*
D81*
X77960000Y-91890000D02*
X85040000Y-91890000D01*
X94200000Y-96670000D02*
X94600000Y-97070000D01*
X79000000Y-80000000D02*
X79000000Y-78000000D01*
X105140000Y-70450000D02*
X105150000Y-70440000D01*
X70805000Y-66975000D02*
X72545000Y-66975000D01*
X79000000Y-78000000D02*
X75000000Y-74000000D01*
X93488000Y-107442000D02*
X92456000Y-107442000D01*
X70925000Y-70000000D02*
X70925000Y-72925000D01*
X75080000Y-64440000D02*
X75080000Y-61020000D01*
D79*
X87376000Y-105918000D02*
X90932000Y-105918000D01*
X111590000Y-79000000D02*
X110274000Y-77684000D01*
D81*
X72545000Y-66975000D02*
X75080000Y-64440000D01*
X70925000Y-72925000D02*
X72000000Y-74000000D01*
D79*
X86880000Y-106414000D02*
X87376000Y-105918000D01*
D81*
X94600000Y-106330000D02*
X93488000Y-107442000D01*
X94600000Y-97070000D02*
X94600000Y-106330000D01*
%TO.N,GND*%
X169990000Y-79380000D02*
X171140000Y-78230000D01*
D79*
X147705000Y-129725000D02*
X147510000Y-129530000D01*
D81*
X75470000Y-71490000D02*
X76302500Y-71490000D01*
X172550000Y-78280000D02*
X172500000Y-78230000D01*
D79*
X159500000Y-72000000D02*
X160000000Y-72000000D01*
D81*
X184670000Y-78320000D02*
X184670000Y-82210000D01*
D79*
X154177500Y-114912500D02*
X154490000Y-114600000D01*
D81*
X181560000Y-79420000D02*
X182610000Y-78370000D01*
D80*
X131052000Y-106832000D02*
X131410000Y-107190000D01*
D79*
X119775000Y-85745000D02*
X120000000Y-85520000D01*
X172950000Y-111820000D02*
X172800000Y-111670000D01*
X150025000Y-126775000D02*
X150025000Y-125795000D01*
X166830000Y-64032500D02*
X165417500Y-64032500D01*
X119775000Y-86887500D02*
X119775000Y-85745000D01*
D81*
X181864000Y-81280000D02*
X181864000Y-82616000D01*
D79*
X167700000Y-117625000D02*
X167700000Y-118420000D01*
D81*
X170350000Y-77440000D02*
X170350000Y-75630000D01*
X172496000Y-87600000D02*
X173228000Y-86868000D01*
X92456000Y-101346000D02*
X91806000Y-101346000D01*
X181864000Y-82616000D02*
X181820000Y-82660000D01*
X183170000Y-84290000D02*
X183190000Y-84310000D01*
D79*
X167700000Y-118420000D02*
X168110000Y-118830000D01*
X148012500Y-62362500D02*
X147950000Y-62300000D01*
X143030000Y-73892500D02*
X143030000Y-73010000D01*
D81*
X175244000Y-79756000D02*
X173850000Y-81150000D01*
X174780000Y-86100000D02*
X177210000Y-86100000D01*
X68500000Y-60900000D02*
X64600000Y-60900000D01*
D79*
X143030000Y-73010000D02*
X143460000Y-72580000D01*
D81*
X171196000Y-85344000D02*
X170726000Y-85344000D01*
D79*
X157050000Y-106632500D02*
X156322500Y-106632500D01*
X148542000Y-75579500D02*
X147075000Y-74112500D01*
D81*
X91806000Y-101346000D02*
X91300000Y-100840000D01*
X176784000Y-87376000D02*
X175126000Y-87376000D01*
D80*
X136052000Y-98842000D02*
X136210000Y-99000000D01*
D81*
X73000000Y-70000000D02*
X73000000Y-71000000D01*
X171196000Y-82804000D02*
X171216000Y-82804000D01*
D79*
X156750000Y-71000000D02*
X156750000Y-72500000D01*
X155917500Y-107267500D02*
X155710000Y-107060000D01*
X187250000Y-71500000D02*
X186090000Y-71500000D01*
D81*
X171196000Y-82804000D02*
X171196000Y-80772000D01*
D79*
X157000000Y-84980000D02*
X156900000Y-84880000D01*
D81*
X169990000Y-79850000D02*
X169990000Y-79380000D01*
D79*
X165325000Y-118205000D02*
X164930000Y-118600000D01*
X136850000Y-123980000D02*
X137330000Y-124460000D01*
D81*
X184630000Y-78280000D02*
X182700000Y-78280000D01*
X174780000Y-86100000D02*
X176056000Y-87376000D01*
X178526000Y-87376000D02*
X178620000Y-87470000D01*
D79*
X186090000Y-71500000D02*
X185440000Y-72150000D01*
D81*
X175260000Y-79756000D02*
X175244000Y-79756000D01*
X183170000Y-86570000D02*
X183150000Y-86570000D01*
X172130000Y-79680000D02*
X175184000Y-79680000D01*
D79*
X161250000Y-71000000D02*
X161500000Y-71250000D01*
D81*
X93020000Y-99060000D02*
X93660000Y-98420000D01*
D79*
X128025000Y-115475000D02*
X129297500Y-116747500D01*
D81*
X181864000Y-81280000D02*
X182030000Y-81280000D01*
D79*
X131550500Y-116078000D02*
X131358000Y-116078000D01*
D81*
X172720000Y-86868000D02*
X171196000Y-85344000D01*
X181356000Y-84328000D02*
X181356000Y-84776000D01*
D79*
X159500000Y-97140000D02*
X159690000Y-97330000D01*
X152080000Y-69460000D02*
X152250000Y-69290000D01*
D81*
X176056000Y-87376000D02*
X176784000Y-87376000D01*
X184630000Y-83690000D02*
X184630000Y-86990000D01*
D79*
X127110000Y-91832500D02*
X127110000Y-90980000D01*
X145075000Y-127262500D02*
X146362500Y-127262500D01*
X146362500Y-127262500D02*
X146520000Y-127420000D01*
D81*
X184630000Y-78280000D02*
X184670000Y-78320000D01*
X182700000Y-78280000D02*
X182610000Y-78370000D01*
X173180000Y-84510000D02*
X173140000Y-84550000D01*
D79*
X153300000Y-114912500D02*
X154177500Y-114912500D01*
D81*
X175126000Y-87376000D02*
X175070000Y-87320000D01*
X68500000Y-60900000D02*
X72400000Y-60900000D01*
D79*
X68812500Y-128750000D02*
X67600000Y-128750000D01*
X160000000Y-76500000D02*
X161500000Y-76500000D01*
D81*
X184650000Y-81520000D02*
X183930000Y-80800000D01*
X182030000Y-81280000D02*
X183060000Y-80250000D01*
X183150000Y-86570000D02*
X182370000Y-85790000D01*
D79*
X157000000Y-85975000D02*
X157000000Y-84980000D01*
X160500000Y-73750000D02*
X159500000Y-74750000D01*
X159550000Y-85100000D02*
X158900000Y-85100000D01*
D81*
X183060000Y-80250000D02*
X183060000Y-82620000D01*
D79*
X158000000Y-73500000D02*
X159500000Y-72000000D01*
D80*
X149090000Y-79670000D02*
X149280000Y-79860000D01*
D81*
X88768000Y-109768000D02*
X89000000Y-110000000D01*
X92477500Y-99060000D02*
X93020000Y-99060000D01*
D79*
X127110000Y-90980000D02*
X127310000Y-90780000D01*
X156322500Y-106632500D02*
X155800000Y-106110000D01*
D81*
X184650000Y-83670000D02*
X184630000Y-83690000D01*
X184650000Y-82230000D02*
X184650000Y-81520000D01*
D79*
X159500000Y-96037500D02*
X159500000Y-97140000D01*
D81*
X171216000Y-82804000D02*
X172240000Y-81780000D01*
X88955000Y-107230000D02*
X89230000Y-107230000D01*
D79*
X163102500Y-108537500D02*
X163510000Y-108130000D01*
D81*
X72400000Y-60900000D02*
X72500000Y-61000000D01*
D79*
X162250000Y-108537500D02*
X163102500Y-108537500D01*
X157050000Y-107267500D02*
X155917500Y-107267500D01*
X140885000Y-123325000D02*
X141420000Y-122790000D01*
D81*
X170080000Y-83540000D02*
X170080000Y-81670000D01*
D80*
X128052000Y-95692000D02*
X127710000Y-95350000D01*
D79*
X187250000Y-71500000D02*
X187250000Y-73090000D01*
D81*
X175184000Y-79680000D02*
X175260000Y-79756000D01*
D79*
X175975000Y-112900000D02*
X175975000Y-111615000D01*
D81*
X64600000Y-60900000D02*
X64500000Y-61000000D01*
X176784000Y-87376000D02*
X178526000Y-87376000D01*
D79*
X67600000Y-128750000D02*
X67470000Y-128620000D01*
X129297500Y-116747500D02*
X129300000Y-116747500D01*
X126910000Y-115640000D02*
X126563500Y-115640000D01*
D81*
X178620000Y-87470000D02*
X178620000Y-87360000D01*
D79*
X80402500Y-100337500D02*
X80780000Y-99960000D01*
X187250000Y-73090000D02*
X188230000Y-74070000D01*
D81*
X89230000Y-107230000D02*
X90000000Y-108000000D01*
X181356000Y-84776000D02*
X182370000Y-85790000D01*
D79*
X161855000Y-101425000D02*
X162740000Y-102310000D01*
D81*
X180848000Y-87376000D02*
X180848000Y-87132000D01*
D79*
X89070000Y-101760000D02*
X88990000Y-101680000D01*
D80*
X147690000Y-79670000D02*
X149090000Y-79670000D01*
D81*
X171270000Y-87600000D02*
X172496000Y-87600000D01*
X183060000Y-82620000D02*
X183170000Y-82730000D01*
D79*
X157750000Y-75000000D02*
X157250000Y-74500000D01*
X158000000Y-76500000D02*
X158250000Y-76750000D01*
X159750000Y-76750000D02*
X160000000Y-76500000D01*
D81*
X184630000Y-86990000D02*
X184070000Y-87550000D01*
D79*
X88990000Y-101680000D02*
X88990000Y-100490000D01*
D81*
X171140000Y-78230000D02*
X170350000Y-77440000D01*
X176710000Y-78170000D02*
X179500000Y-78170000D01*
X179500000Y-78170000D02*
X179520000Y-78190000D01*
X87747500Y-109768000D02*
X88768000Y-109768000D01*
X184670000Y-82210000D02*
X184650000Y-82230000D01*
X68500000Y-70000000D02*
X69500000Y-71000000D01*
D79*
X158000000Y-71000000D02*
X159000000Y-71000000D01*
X165417500Y-64032500D02*
X165080000Y-64370000D01*
X172340000Y-133250000D02*
X171560000Y-134030000D01*
D81*
X180870000Y-79420000D02*
X181560000Y-79420000D01*
X179520000Y-78190000D02*
X179430000Y-78280000D01*
D80*
X146680000Y-79670000D02*
X146180000Y-79170000D01*
D81*
X183170000Y-82730000D02*
X183170000Y-84290000D01*
D79*
X161525000Y-101425000D02*
X161855000Y-101425000D01*
X165325000Y-117725000D02*
X165325000Y-118205000D01*
D81*
X172500000Y-78230000D02*
X174180000Y-78230000D01*
X175260000Y-79756000D02*
X177254000Y-79756000D01*
D79*
X80402500Y-101753000D02*
X80402500Y-100337500D01*
X140300000Y-123325000D02*
X140885000Y-123325000D01*
X156750000Y-76500000D02*
X158000000Y-76500000D01*
X150025000Y-125795000D02*
X149610000Y-125380000D01*
X135575000Y-93825000D02*
X136330000Y-93070000D01*
X131358000Y-116078000D02*
X130600000Y-115320000D01*
D80*
X134464500Y-98842000D02*
X136052000Y-98842000D01*
D79*
X161500000Y-74000000D02*
X161500000Y-72750000D01*
X175975000Y-111615000D02*
X176010000Y-111580000D01*
D81*
X174180000Y-78230000D02*
X174190000Y-78220000D01*
D79*
X148012500Y-63810000D02*
X148012500Y-62362500D01*
X172660000Y-133250000D02*
X172340000Y-133250000D01*
X135575000Y-94312500D02*
X135575000Y-93825000D01*
X126563500Y-115640000D02*
X125476000Y-116727500D01*
D81*
X170080000Y-81670000D02*
X170040000Y-81630000D01*
X173180000Y-83130000D02*
X173180000Y-84510000D01*
D79*
X152080000Y-70787500D02*
X152080000Y-69460000D01*
D81*
X76302500Y-71490000D02*
X76652500Y-71140000D01*
X170726000Y-85344000D02*
X169950000Y-86120000D01*
X177210000Y-86100000D02*
X177370000Y-86260000D01*
X73000000Y-71000000D02*
X72500000Y-71500000D01*
D79*
X157250000Y-74500000D02*
X156500000Y-74500000D01*
D81*
X173228000Y-86868000D02*
X172720000Y-86868000D01*
D79*
X158900000Y-85100000D02*
X158240000Y-84440000D01*
D81*
X177254000Y-79756000D02*
X177330000Y-79680000D01*
X180848000Y-87132000D02*
X181430000Y-86550000D01*
D79*
X148542000Y-75692000D02*
X148542000Y-75579500D01*
D81*
X68267500Y-70000000D02*
X68500000Y-70000000D01*
D80*
X131052000Y-105254500D02*
X131052000Y-106832000D01*
D79*
X160250000Y-71000000D02*
X161250000Y-71000000D01*
D81*
X178620000Y-87360000D02*
X179970000Y-86010000D01*
D79*
X148487500Y-129725000D02*
X147705000Y-129725000D01*
D80*
X128052000Y-96929500D02*
X128052000Y-95692000D01*
D79*
X159500000Y-74750000D02*
X159500000Y-75250000D01*
D80*
X147690000Y-79670000D02*
X146680000Y-79670000D01*
D79*
X172950000Y-112900000D02*
X172950000Y-111820000D01*
X136850000Y-123325000D02*
X136850000Y-123980000D01*
D81*
%TO.N,+12V*%
X65500000Y-77500000D02*
X65500000Y-76000000D01*
X66192500Y-70000000D02*
X66192500Y-67227500D01*
X64620000Y-83880000D02*
X68500000Y-80000000D01*
X62540000Y-63520000D02*
X66220000Y-67200000D01*
X68500000Y-80000000D02*
X68000000Y-80000000D01*
X74000000Y-80000000D02*
X68500000Y-80000000D01*
X66192500Y-67227500D02*
X66220000Y-67200000D01*
X68000000Y-80000000D02*
X65500000Y-77500000D01*
X62540000Y-59690000D02*
X62540000Y-63520000D01*
X63750000Y-83880000D02*
X64620000Y-83880000D01*
D79*
%TO.N,Net-(C23-Pad2)*%
X168650000Y-74630000D02*
X169270000Y-74010000D01*
D81*
X159125000Y-82675000D02*
X159550000Y-83100000D01*
D79*
X165900000Y-87150000D02*
X165900000Y-88925000D01*
D81*
X182800000Y-90830000D02*
X182800000Y-90758000D01*
X161200000Y-85650000D02*
X160950000Y-85400000D01*
X159975000Y-79950000D02*
X160050000Y-79875000D01*
X181058000Y-76962000D02*
X182500000Y-75520000D01*
D79*
X168650000Y-86275000D02*
X168650000Y-74630000D01*
X165900000Y-88925000D02*
X165375000Y-89450000D01*
D81*
X186000000Y-76920000D02*
X187210000Y-78130000D01*
X182500000Y-76090000D02*
X183330000Y-76920000D01*
X182500000Y-75520000D02*
X182500000Y-76090000D01*
D79*
X168525000Y-86675000D02*
X166375000Y-86675000D01*
D81*
X182800000Y-90758000D02*
X185674000Y-87884000D01*
X173020000Y-89616000D02*
X173020000Y-90680000D01*
X173736000Y-88900000D02*
X173020000Y-89616000D01*
D79*
X165375000Y-89450000D02*
X162250000Y-89450000D01*
X168650000Y-87975000D02*
X168650000Y-86275000D01*
D81*
X157000000Y-82675000D02*
X159125000Y-82675000D01*
X185674000Y-82306000D02*
X187210000Y-80770000D01*
X160950000Y-84500000D02*
X159550000Y-83100000D01*
X172890000Y-75630000D02*
X174222000Y-76962000D01*
X160950000Y-85400000D02*
X160950000Y-84500000D01*
X161500000Y-89450000D02*
X161200000Y-89150000D01*
X187210000Y-78130000D02*
X187210000Y-80770000D01*
X174222000Y-76962000D02*
X181058000Y-76962000D01*
X159975000Y-82675000D02*
X159975000Y-79950000D01*
D79*
X169270000Y-74010000D02*
X171390000Y-74010000D01*
X166375000Y-86675000D02*
X165900000Y-87150000D01*
X171390000Y-74010000D02*
X172890000Y-75510000D01*
D81*
X161200000Y-89150000D02*
X161200000Y-85650000D01*
X185674000Y-87884000D02*
X185674000Y-82306000D01*
X173736000Y-88900000D02*
X173746000Y-88910000D01*
D79*
X168650000Y-86275000D02*
X168650000Y-86550000D01*
D81*
X155975000Y-81650000D02*
X157000000Y-82675000D01*
X155975000Y-80750000D02*
X155975000Y-81650000D01*
D79*
X172890000Y-75510000D02*
X172890000Y-75630000D01*
D81*
X162250000Y-89450000D02*
X161500000Y-89450000D01*
D79*
X168650000Y-86550000D02*
X168525000Y-86675000D01*
D81*
X183330000Y-76920000D02*
X186000000Y-76920000D01*
X180880000Y-88910000D02*
X182800000Y-90830000D01*
X173746000Y-88910000D02*
X180880000Y-88910000D01*
D79*
X169575000Y-88900000D02*
X168650000Y-87975000D01*
D81*
X159550000Y-83100000D02*
X159975000Y-82675000D01*
D79*
X173736000Y-88900000D02*
X169575000Y-88900000D01*
D80*
%TO.N,TXD*%
X122936000Y-74676000D02*
X122936000Y-75076000D01*
X130552000Y-78402000D02*
X130552000Y-96929500D01*
X122936000Y-75076000D02*
X124568000Y-76708000D01*
X124568000Y-76708000D02*
X128858000Y-76708000D01*
X128858000Y-76708000D02*
X130552000Y-78402000D01*
%TO.N,RXD*%
X120396000Y-74676000D02*
X120396000Y-75706000D01*
X120396000Y-75706000D02*
X121906000Y-77216000D01*
X128146000Y-77216000D02*
X130052000Y-79122000D01*
X130052000Y-79122000D02*
X130052000Y-96929500D01*
X121906000Y-77216000D02*
X128146000Y-77216000D01*
D79*
%TO.N,Net-(C1-Pad2)*%
X149642000Y-102056000D02*
X149642000Y-95556000D01*
X149642000Y-95556000D02*
X142094000Y-95556000D01*
D80*
X130552000Y-105254500D02*
X130552000Y-108708000D01*
D79*
X142094000Y-95556000D02*
X141800000Y-95850000D01*
X148668000Y-103030000D02*
X149642000Y-102056000D01*
X143175000Y-105050000D02*
X145195000Y-103030000D01*
D80*
X131318000Y-113813500D02*
X131550500Y-114046000D01*
D79*
X145195000Y-103030000D02*
X148668000Y-103030000D01*
D80*
X131318000Y-109474000D02*
X131318000Y-113813500D01*
X130552000Y-108708000D02*
X131318000Y-109474000D01*
%TO.N,TRANSMIT*%
X136067000Y-102342000D02*
X134464500Y-102342000D01*
D79*
X144470000Y-98395000D02*
X144470000Y-100850000D01*
X136375000Y-89725000D02*
X135800000Y-89725000D01*
X144470000Y-100850000D02*
X140430000Y-100850000D01*
X140800000Y-94425000D02*
X140800000Y-97100000D01*
X141325000Y-97625000D02*
X143700000Y-97625000D01*
X139900000Y-91550000D02*
X139900000Y-93525000D01*
X133580000Y-73840000D02*
X136245000Y-71175000D01*
X136245000Y-71175000D02*
X141320000Y-71175000D01*
X140430000Y-100850000D02*
X140410000Y-100830000D01*
D80*
X136425000Y-102700000D02*
X136067000Y-102342000D01*
D79*
X143700000Y-97625000D02*
X144470000Y-98395000D01*
X140800000Y-97100000D02*
X141325000Y-97625000D01*
X135800000Y-89725000D02*
X133580000Y-87505000D01*
X139900000Y-93525000D02*
X140800000Y-94425000D01*
X133580000Y-87505000D02*
X133580000Y-73840000D01*
X138374500Y-89725000D02*
X138374500Y-90024500D01*
X138374500Y-90024500D02*
X139900000Y-91550000D01*
%TO.N,AUDIO*%
X152062500Y-123775000D02*
X152062500Y-126737500D01*
X152062500Y-126737500D02*
X152025000Y-126775000D01*
X155430000Y-130180000D02*
X155430000Y-130205000D01*
X152025000Y-126775000D02*
X155430000Y-130180000D01*
%TO.N,Net-(C64-Pad2)*%
X92456000Y-103346000D02*
X91472000Y-103346000D01*
X82099000Y-104394000D02*
X81672500Y-103967500D01*
X90424000Y-104394000D02*
X82099000Y-104394000D01*
X90402500Y-99060000D02*
X90402500Y-102594500D01*
X91472000Y-103346000D02*
X91313000Y-103505000D01*
X92456000Y-105442000D02*
X92456000Y-103346000D01*
X90402500Y-102594500D02*
X91313000Y-103505000D01*
X80402500Y-105237500D02*
X81672500Y-103967500D01*
X80402500Y-107003000D02*
X80402500Y-105237500D01*
X91313000Y-103505000D02*
X90424000Y-104394000D01*
X81672500Y-103967500D02*
X81672500Y-101753000D01*
D80*
%TO.N,DB5*%
X133612280Y-103842000D02*
X133300280Y-103530000D01*
X134464500Y-103842000D02*
X133612280Y-103842000D01*
X133300280Y-103530000D02*
X129963178Y-103530000D01*
X129963178Y-103530000D02*
X129604089Y-103170911D01*
%TO.N,DB4*%
X133504500Y-105254500D02*
X133800000Y-105550000D01*
X133052000Y-105254500D02*
X133504500Y-105254500D01*
%TO.N,DB6*%
X134464500Y-103342000D02*
X135567000Y-103342000D01*
X135567000Y-103342000D02*
X136025000Y-103800000D01*
%TO.N,RS*%
X132925000Y-100236396D02*
X132925000Y-99975000D01*
X125050000Y-91650000D02*
X125050000Y-93250000D01*
X125850000Y-96750000D02*
X127525000Y-98425000D01*
X132536396Y-100625000D02*
X132925000Y-100236396D01*
X132925000Y-99975000D02*
X133558000Y-99342000D01*
X114575000Y-92100000D02*
X114550000Y-92075000D01*
X130325000Y-100300000D02*
X130650000Y-100625000D01*
X127525000Y-98425000D02*
X127525000Y-98875000D01*
X114550000Y-92075000D02*
X111700000Y-92075000D01*
X111700000Y-92075000D02*
X111100000Y-91475000D01*
X130650000Y-100625000D02*
X132536396Y-100625000D01*
X133558000Y-99342000D02*
X134464500Y-99342000D01*
X125850000Y-94050000D02*
X125850000Y-96750000D01*
X125050000Y-93250000D02*
X125850000Y-94050000D01*
%TO.N,E*%
X109975000Y-91737500D02*
X109975000Y-91675000D01*
X114100000Y-93825000D02*
X113000000Y-92725000D01*
X130792500Y-101842000D02*
X130650000Y-101699500D01*
X113000000Y-92725000D02*
X110962500Y-92725000D01*
X110962500Y-92725000D02*
X109975000Y-91737500D01*
X134464500Y-101842000D02*
X130792500Y-101842000D01*
%TO.N,Net-(C9-Pad1)*%
X132334000Y-108371500D02*
X132334000Y-107188000D01*
X132334000Y-107188000D02*
X131552000Y-106406000D01*
X132550000Y-108587500D02*
X132334000Y-108371500D01*
X131552000Y-106406000D02*
X131552000Y-105254500D01*
%TO.N,SDA*%
X129725000Y-98900000D02*
X127283000Y-101342000D01*
X129800000Y-98900000D02*
X129725000Y-98900000D01*
X139525000Y-82975000D02*
X139525000Y-83675000D01*
X136800000Y-98050000D02*
X137750000Y-97100000D01*
X142430000Y-80670000D02*
X140975000Y-82125000D01*
X139525000Y-83675000D02*
X138175000Y-85025000D01*
X140375000Y-82125000D02*
X139525000Y-82975000D01*
X127283000Y-101342000D02*
X126139500Y-101342000D01*
X138175000Y-85025000D02*
X137750000Y-85025000D01*
X137750000Y-97100000D02*
X137750000Y-85025000D01*
X140975000Y-82125000D02*
X140375000Y-82125000D01*
X143290000Y-80670000D02*
X142430000Y-80670000D01*
%TO.N,SCL*%
X128950000Y-98749500D02*
X128950000Y-98800000D01*
X135075000Y-86100000D02*
X135075000Y-85050000D01*
X136775000Y-96950000D02*
X137125000Y-96600000D01*
X136150000Y-83975000D02*
X135075000Y-85050000D01*
X140725000Y-81450000D02*
X140075000Y-81450000D01*
X142005000Y-80170000D02*
X140725000Y-81450000D01*
X126942685Y-100842000D02*
X126139500Y-100842000D01*
X137125000Y-88150000D02*
X135075000Y-86100000D01*
X138450000Y-83975000D02*
X136150000Y-83975000D01*
X143290000Y-80170000D02*
X142005000Y-80170000D01*
X137125000Y-96600000D02*
X137125000Y-88150000D01*
X128950000Y-98800000D02*
X127202000Y-100548000D01*
X138975000Y-82550000D02*
X138975000Y-83450000D01*
X140075000Y-81450000D02*
X138975000Y-82550000D01*
X127202000Y-100582685D02*
X126942685Y-100842000D01*
X127202000Y-100548000D02*
X127202000Y-100582685D01*
X138975000Y-83450000D02*
X138450000Y-83975000D01*
X136775000Y-97000000D02*
X136775000Y-96950000D01*
D81*
%TO.N,Net-(C23-Pad1)*%
X165525000Y-90800000D02*
X162975000Y-90800000D01*
X162975000Y-90800000D02*
X162250000Y-91525000D01*
D80*
%TO.N,+3.3V*%
X129575000Y-99875000D02*
X129575000Y-99800000D01*
X131350000Y-100100000D02*
X132425000Y-100100000D01*
D79*
X113650000Y-107800000D02*
X108450000Y-107800000D01*
D80*
X130250000Y-98125000D02*
X131225000Y-99100000D01*
D79*
X135100000Y-83025000D02*
X135075000Y-83050000D01*
D81*
X77380000Y-64480000D02*
X77380000Y-67320000D01*
D80*
X127552000Y-96582000D02*
X127552000Y-96929500D01*
X131225000Y-99975000D02*
X131350000Y-100100000D01*
X127552000Y-101898000D02*
X129575000Y-99875000D01*
X143030000Y-75967500D02*
X143030000Y-78410000D01*
X136354401Y-95608099D02*
X135575000Y-96387500D01*
X131225000Y-99100000D02*
X131225000Y-99975000D01*
X127905000Y-98125000D02*
X130250000Y-98125000D01*
X144456000Y-78670000D02*
X145956000Y-80170000D01*
D79*
X107900000Y-107250000D02*
X107900000Y-104850000D01*
D80*
X126942685Y-103842000D02*
X127552000Y-103232685D01*
X129725000Y-99650000D02*
X131225000Y-99650000D01*
X127552000Y-97772000D02*
X127905000Y-98125000D01*
X124250000Y-84650000D02*
X124250000Y-84275000D01*
D79*
X107900000Y-104850000D02*
X108775000Y-103975000D01*
X113700000Y-107850000D02*
X113650000Y-107800000D01*
D80*
X132425000Y-100100000D02*
X132475000Y-100050000D01*
X135575000Y-97231500D02*
X135575000Y-96387500D01*
X134464500Y-98342000D02*
X135575000Y-97231500D01*
D79*
X137750000Y-83025000D02*
X135100000Y-83025000D01*
D80*
X126139500Y-103842000D02*
X126942685Y-103842000D01*
D79*
X135025000Y-74850000D02*
X141912500Y-74850000D01*
D81*
X77380000Y-61020000D02*
X77380000Y-64480000D01*
X79171792Y-71140000D02*
X82000000Y-73968208D01*
D79*
X111940000Y-103975000D02*
X109400000Y-103975000D01*
D80*
X143290000Y-78670000D02*
X144456000Y-78670000D01*
X132475000Y-99528315D02*
X133661315Y-98342000D01*
X127552000Y-96929500D02*
X127552000Y-97772000D01*
D81*
X78727500Y-71140000D02*
X78727500Y-68667500D01*
D80*
X125750000Y-86150000D02*
X124250000Y-84650000D01*
X143030000Y-78410000D02*
X143290000Y-78670000D01*
D79*
X134175000Y-82150000D02*
X134175000Y-75700000D01*
D80*
X127552000Y-103232685D02*
X127552000Y-101898000D01*
D79*
X134175000Y-75700000D02*
X135025000Y-74850000D01*
D80*
X139800000Y-94925000D02*
X139475000Y-94600000D01*
D79*
X108450000Y-107800000D02*
X107900000Y-107250000D01*
D80*
X126982500Y-93907500D02*
X125750000Y-92675000D01*
D81*
X78727500Y-71140000D02*
X79171792Y-71140000D01*
D80*
X127110000Y-94200000D02*
X126750000Y-94560000D01*
X133661315Y-98342000D02*
X134464500Y-98342000D01*
X136354401Y-95570599D02*
X136354401Y-95608099D01*
X126750000Y-94560000D02*
X126750000Y-95780000D01*
D79*
X108775000Y-103975000D02*
X109400000Y-103975000D01*
X125750000Y-74950000D02*
X130300000Y-74950000D01*
D80*
X139800000Y-95850000D02*
X139800000Y-94925000D01*
D79*
X125476000Y-74676000D02*
X125476000Y-65970000D01*
D80*
X129575000Y-99800000D02*
X129725000Y-99650000D01*
X145956000Y-80170000D02*
X147690000Y-80170000D01*
X127110000Y-93907500D02*
X127110000Y-94200000D01*
D79*
X141912500Y-74850000D02*
X143030000Y-75967500D01*
D80*
X125750000Y-92675000D02*
X125750000Y-86150000D01*
X132475000Y-100050000D02*
X132475000Y-99528315D01*
X126750000Y-95780000D02*
X127552000Y-96582000D01*
D79*
X125476000Y-65970000D02*
X125900000Y-65970000D01*
D81*
X78727500Y-68667500D02*
X77380000Y-67320000D01*
D79*
X125476000Y-74676000D02*
X125750000Y-74950000D01*
D80*
X127110000Y-93907500D02*
X126982500Y-93907500D01*
D79*
X135075000Y-83050000D02*
X134175000Y-82150000D01*
D80*
%TO.N,Net-(U6-Pad2)*%
X143290000Y-79170000D02*
X142290000Y-79170000D01*
X142290000Y-79170000D02*
X141986000Y-78866000D01*
X141210000Y-76948000D02*
X139118000Y-76948000D01*
X141986000Y-77724000D02*
X141210000Y-76948000D01*
X141986000Y-78866000D02*
X141986000Y-77724000D01*
D79*
%TO.N,Net-(C27-Pad1)*%
X157050000Y-111712500D02*
X154425000Y-111712500D01*
X154425000Y-111712500D02*
X153300000Y-112837500D01*
%TO.N,Net-(C33-Pad1)*%
X162250000Y-109172500D02*
X163865000Y-109172500D01*
X163865000Y-109172500D02*
X165450000Y-107587500D01*
D81*
%TO.N,Net-(C33-Pad2)*%
X168152500Y-105512500D02*
X168810000Y-106170000D01*
X165450000Y-105512500D02*
X168152500Y-105512500D01*
%TO.N,Net-(C35-Pad2)*%
X168810000Y-114165000D02*
X167700000Y-115275000D01*
X168810000Y-111250000D02*
X168810000Y-114165000D01*
X167700000Y-115275000D02*
X167700000Y-115575000D01*
X165450000Y-112412500D02*
X167647500Y-112412500D01*
X167647500Y-112412500D02*
X168810000Y-111250000D01*
D79*
%TO.N,Net-(C30-Pad1)*%
X157050000Y-112347500D02*
X158022500Y-112347500D01*
X161325000Y-115650000D02*
X165325000Y-115650000D01*
X158022500Y-112347500D02*
X161325000Y-115650000D01*
%TO.N,Net-(D15-Pad2)*%
X178000000Y-67080000D02*
X178000000Y-64900000D01*
X174030000Y-70000000D02*
X176030000Y-68000000D01*
X177080000Y-68000000D02*
X178000000Y-67080000D01*
X176030000Y-68000000D02*
X177080000Y-68000000D01*
%TO.N,Net-(L9-Pad2)*%
X143305000Y-69125000D02*
X143670000Y-68760000D01*
X141320000Y-69125000D02*
X143305000Y-69125000D01*
D81*
%TO.N,Net-(J12-Pad1)*%
X173430000Y-126910000D02*
X179430000Y-126910000D01*
X184673000Y-131711000D02*
X184231000Y-131711000D01*
X179430000Y-126910000D02*
X181945000Y-129425000D01*
X184231000Y-131711000D02*
X181945000Y-129425000D01*
%TO.N,Net-(D16-Pad1)*%
X176550000Y-131360000D02*
X174660000Y-133250000D01*
X178850000Y-131360000D02*
X176550000Y-131360000D01*
%TO.N,Net-(Q9-Pad2)*%
X162685000Y-92900000D02*
X165035000Y-95250000D01*
X160825000Y-92900000D02*
X162685000Y-92900000D01*
X165100000Y-96075000D02*
X165100000Y-95315000D01*
X161525000Y-99425000D02*
X161750000Y-99425000D01*
X159766000Y-89138000D02*
X159766000Y-91841000D01*
X159766000Y-89138000D02*
X157676600Y-89138000D01*
X157676600Y-89138000D02*
X157667200Y-89128600D01*
X165100000Y-95315000D02*
X165035000Y-95250000D01*
X161750000Y-99425000D02*
X165100000Y-96075000D01*
X159766000Y-91841000D02*
X160825000Y-92900000D01*
%TO.N,Net-(Q9-Pad1)*%
X167600000Y-95225000D02*
X167600000Y-90875000D01*
X167640000Y-98760000D02*
X165300000Y-101100000D01*
X167575000Y-95250000D02*
X167600000Y-95225000D01*
X165300000Y-101100000D02*
X164375000Y-101100000D01*
X167575000Y-95250000D02*
X167640000Y-95315000D01*
X167640000Y-95315000D02*
X167640000Y-98760000D01*
X167600000Y-90875000D02*
X167525000Y-90800000D01*
%TO.N,Net-(C56-Pad2)*%
X152575000Y-81292000D02*
X152575000Y-83987500D01*
X152550000Y-80633000D02*
X152892000Y-80975000D01*
X152892000Y-77550000D02*
X152550000Y-77892000D01*
X152575000Y-83987500D02*
X152100000Y-84462500D01*
X152892000Y-80975000D02*
X152575000Y-81292000D01*
X152550000Y-77892000D02*
X152550000Y-80633000D01*
D80*
%TO.N,Net-(J9-Pad1)*%
X126139500Y-102842000D02*
X124308000Y-102842000D01*
X124308000Y-102842000D02*
X122875000Y-104275000D01*
X122875000Y-104275000D02*
X117425000Y-104275000D01*
X117425000Y-104275000D02*
X116375000Y-105325000D01*
%TO.N,Net-(J25-Pad3)*%
X123225000Y-92150000D02*
X123225000Y-82895000D01*
X125325000Y-94250000D02*
X123225000Y-92150000D01*
X123225000Y-82895000D02*
X120340000Y-80010000D01*
X125325000Y-97527500D02*
X125325000Y-94250000D01*
X126139500Y-98342000D02*
X125325000Y-97527500D01*
%TO.N,Net-(R15-Pad2)*%
X129052000Y-96929500D02*
X129052000Y-80512000D01*
X129052000Y-80512000D02*
X126772000Y-78232000D01*
X126772000Y-78232000D02*
X114552000Y-78232000D01*
D79*
X112746000Y-70880000D02*
X111760000Y-71866000D01*
X119396000Y-70104000D02*
X116966000Y-70104000D01*
D80*
X111820000Y-71926000D02*
X111760000Y-71866000D01*
X111820000Y-75500000D02*
X111820000Y-71926000D01*
X114552000Y-78232000D02*
X111820000Y-75500000D01*
D79*
X116966000Y-70104000D02*
X116190000Y-70880000D01*
X116190000Y-70880000D02*
X112746000Y-70880000D01*
D80*
%TO.N,Net-(R9-Pad1)*%
X127784000Y-77724000D02*
X116078000Y-77724000D01*
X129552000Y-79492000D02*
X127784000Y-77724000D01*
X129552000Y-96929500D02*
X129552000Y-79492000D01*
X114554000Y-76200000D02*
X114554000Y-71866000D01*
X116078000Y-77724000D02*
X114554000Y-76200000D01*
D81*
%TO.N,Net-(C56-Pad1)*%
X153076100Y-86537500D02*
X155667200Y-89128600D01*
X152100000Y-86537500D02*
X153076100Y-86537500D01*
%TO.N,TXRELAY*%
X189620000Y-97000000D02*
X189620000Y-67590000D01*
X187775000Y-98845000D02*
X189620000Y-97000000D01*
X187240000Y-66000000D02*
X184187500Y-66000000D01*
X188530000Y-66500000D02*
X187250000Y-66500000D01*
X187250000Y-66010000D02*
X187240000Y-66000000D01*
X187250000Y-66500000D02*
X187250000Y-66010000D01*
X189620000Y-67590000D02*
X188530000Y-66500000D01*
%TO.N,Net-(D15-Pad1)*%
X171830000Y-59990000D02*
X171790000Y-59950000D01*
X173530000Y-59990000D02*
X171830000Y-59990000D01*
%TO.N,Net-(D18-Pad1)*%
X169542000Y-60198000D02*
X168078000Y-60198000D01*
X166130000Y-61610000D02*
X167810000Y-59930000D01*
X151130000Y-68912500D02*
X151130000Y-72264000D01*
X151130000Y-72264000D02*
X149988000Y-73406000D01*
X155306000Y-61610000D02*
X166130000Y-61610000D01*
X169790000Y-59950000D02*
X169542000Y-60198000D01*
X151130000Y-65786000D02*
X155306000Y-61610000D01*
X151130000Y-68912500D02*
X151130000Y-65786000D01*
X168078000Y-60198000D02*
X167810000Y-59930000D01*
%TO.N,Net-(D18-Pad2)*%
X154178000Y-72516000D02*
X153288000Y-73406000D01*
X154178000Y-70850000D02*
X154178000Y-72516000D01*
%TO.N,AMPOUT*%
X173990000Y-72644000D02*
X183642000Y-72644000D01*
X188290000Y-83310000D02*
X188730000Y-82870000D01*
X167225000Y-85675000D02*
X167420000Y-85480000D01*
X170480000Y-90680000D02*
X172107000Y-92307000D01*
X172510000Y-92710000D02*
X178380000Y-92710000D01*
X185166000Y-97044000D02*
X186880000Y-95330000D01*
X187210000Y-83310000D02*
X188290000Y-83310000D01*
X167850000Y-74100000D02*
X169306000Y-72644000D01*
X167225000Y-87775000D02*
X170130000Y-90680000D01*
X185166000Y-103856000D02*
X185166000Y-97044000D01*
X175430000Y-75630000D02*
X175430000Y-74084000D01*
X188730000Y-77710000D02*
X186540000Y-75520000D01*
X185040000Y-74042000D02*
X185040000Y-75520000D01*
X169306000Y-72644000D02*
X173990000Y-72644000D01*
X167850000Y-80730000D02*
X167850000Y-74100000D01*
X188730000Y-82870000D02*
X188730000Y-77710000D01*
X167420000Y-85480000D02*
X167420000Y-84590000D01*
X175430000Y-74084000D02*
X173990000Y-72644000D01*
X186540000Y-75520000D02*
X185040000Y-75520000D01*
X186880000Y-95330000D02*
X186880000Y-89472000D01*
X187775000Y-106465000D02*
X185166000Y-103856000D01*
X184760000Y-95330000D02*
X186880000Y-95330000D01*
X165705000Y-82875000D02*
X167850000Y-80730000D01*
X178380000Y-92710000D02*
X180260000Y-90830000D01*
X167420000Y-84590000D02*
X165705000Y-82875000D01*
X183642000Y-72644000D02*
X185040000Y-74042000D01*
X170130000Y-90680000D02*
X170480000Y-90680000D01*
X172107000Y-92307000D02*
X172510000Y-92710000D01*
X186880000Y-89472000D02*
X188730000Y-87622000D01*
X180260000Y-90830000D02*
X184760000Y-95330000D01*
X167225000Y-87675000D02*
X167225000Y-87775000D01*
X188730000Y-87622000D02*
X188730000Y-82870000D01*
%TO.N,RF*%
X168810000Y-108710000D02*
X170615000Y-108710000D01*
X175975000Y-104650000D02*
X178360000Y-104650000D01*
X171000000Y-108325000D02*
X171000000Y-106025000D01*
X171000000Y-106025000D02*
X172375000Y-104650000D01*
X172925000Y-104650000D02*
X175975000Y-104650000D01*
X172375000Y-104650000D02*
X172925000Y-104650000D01*
X178360000Y-104650000D02*
X180175000Y-106465000D01*
X170615000Y-108710000D02*
X171000000Y-108325000D01*
D80*
%TO.N,PS2CLK*%
X122625000Y-97725000D02*
X124742000Y-99842000D01*
X122175000Y-97725000D02*
X122625000Y-97725000D01*
X124742000Y-99842000D02*
X126139500Y-99842000D01*
D81*
%TO.N,Net-(D19-Pad1)*%
X165810000Y-59930000D02*
X165533000Y-60207000D01*
X165533000Y-60207000D02*
X160880000Y-60207000D01*
%TO.N,Net-(C38-Pad1)*%
X148675000Y-74507000D02*
X148675000Y-71975000D01*
X148675000Y-71975000D02*
X148675000Y-69675000D01*
X155975000Y-78750000D02*
X155600000Y-78750000D01*
X154150000Y-76250000D02*
X153475000Y-75575000D01*
X148675000Y-71975000D02*
X147137500Y-71975000D01*
X148675000Y-69675000D02*
X147900000Y-68900000D01*
X153475000Y-75575000D02*
X149743000Y-75575000D01*
X149743000Y-75575000D02*
X148675000Y-74507000D01*
X147137500Y-71975000D02*
X147075000Y-72037500D01*
X147900000Y-68900000D02*
X147900000Y-68675000D01*
X155600000Y-78750000D02*
X154150000Y-77300000D01*
X154150000Y-77300000D02*
X154150000Y-76250000D01*
%TO.N,Net-(L11-Pad2)*%
X146935000Y-66625000D02*
X142790000Y-62480000D01*
X147900000Y-66625000D02*
X146935000Y-66625000D01*
%TO.N,Net-(C58-Pad1)*%
X58190000Y-65500000D02*
X55000000Y-65500000D01*
X54500000Y-66000000D02*
X54500000Y-67000000D01*
X54500000Y-67000000D02*
X54500000Y-75000000D01*
X54500000Y-83500000D02*
X56000000Y-85000000D01*
X60000000Y-67310000D02*
X58190000Y-65500000D01*
X54500000Y-75000000D02*
X54500000Y-83500000D01*
X55000000Y-65500000D02*
X54500000Y-66000000D01*
%TO.N,Net-(C58-Pad2)*%
X61000000Y-68850000D02*
X62540000Y-67310000D01*
X61000000Y-69000000D02*
X60500000Y-69500000D01*
X56575000Y-67575000D02*
X58000000Y-69000000D01*
X60500000Y-69500000D02*
X60500000Y-75000000D01*
X60500000Y-85580000D02*
X56000000Y-90080000D01*
X56575000Y-67000000D02*
X56575000Y-67575000D01*
X60500000Y-75000000D02*
X60500000Y-85580000D01*
X58000000Y-69000000D02*
X61000000Y-69000000D01*
X61000000Y-69000000D02*
X61000000Y-68850000D01*
D79*
%TO.N,MICPADDLE*%
X133625500Y-116078000D02*
X133625500Y-117224500D01*
X133625500Y-117224500D02*
X132310000Y-118540000D01*
D81*
%TO.N,Net-(J18-Pad3)*%
X171760000Y-129450000D02*
X169740000Y-129450000D01*
X173430000Y-129450000D02*
X171760000Y-129450000D01*
D79*
X171480000Y-116780000D02*
X171545000Y-116845000D01*
X171545000Y-129235000D02*
X171760000Y-129450000D01*
X171545000Y-116845000D02*
X171545000Y-129235000D01*
D81*
X169740000Y-129450000D02*
X169660000Y-129530000D01*
D79*
%TO.N,Net-(C14-Pad1)*%
X159500000Y-93962500D02*
X159500000Y-93086116D01*
X155050000Y-79750000D02*
X157925000Y-79750000D01*
D81*
X162475000Y-95250000D02*
X161187500Y-93962500D01*
D79*
X154675000Y-80125000D02*
X155050000Y-79750000D01*
D81*
X164680000Y-72680000D02*
X164000000Y-72000000D01*
D79*
X154675000Y-85950000D02*
X154675000Y-80125000D01*
D81*
X159045000Y-78430000D02*
X158050000Y-79425000D01*
D79*
X156632800Y-87172800D02*
X155897800Y-87172800D01*
X159500000Y-93086116D02*
X156660000Y-90246116D01*
D81*
X163700000Y-81070000D02*
X163700000Y-78390000D01*
X164000000Y-69760000D02*
X164620000Y-69140000D01*
X161895000Y-79770000D02*
X160555000Y-78430000D01*
X166540000Y-72680000D02*
X164680000Y-72680000D01*
X166980000Y-73120000D02*
X166540000Y-72680000D01*
D79*
X155897800Y-87172800D02*
X154675000Y-85950000D01*
X166830000Y-66107500D02*
X169720000Y-66107500D01*
X159766000Y-87138000D02*
X159731200Y-87172800D01*
X159731200Y-87172800D02*
X156632800Y-87172800D01*
X169720000Y-66107500D02*
X170855000Y-66107500D01*
D81*
X161895000Y-82875000D02*
X163700000Y-81070000D01*
X164000000Y-72000000D02*
X164000000Y-69760000D01*
X163700000Y-78390000D02*
X166980000Y-75110000D01*
D79*
X156660000Y-87200000D02*
X156632800Y-87172800D01*
D81*
X162495000Y-95250000D02*
X162475000Y-95250000D01*
X166980000Y-75110000D02*
X166980000Y-73120000D01*
D79*
X157925000Y-79750000D02*
X158050000Y-79875000D01*
D81*
X158050000Y-79425000D02*
X158050000Y-79875000D01*
D79*
X156660000Y-90246116D02*
X156660000Y-87200000D01*
D81*
X160555000Y-78430000D02*
X159045000Y-78430000D01*
D79*
X170855000Y-66107500D02*
X172162500Y-64800000D01*
D81*
X161895000Y-82875000D02*
X161895000Y-79770000D01*
X161187500Y-93962500D02*
X159500000Y-93962500D01*
D79*
%TO.N,Net-(C14-Pad2)*%
X154178000Y-65242000D02*
X154178000Y-68850000D01*
X168930000Y-62520000D02*
X156900000Y-62520000D01*
D81*
X164570000Y-73820000D02*
X165730000Y-73820000D01*
D79*
X169720000Y-64032500D02*
X169720000Y-63310000D01*
D81*
X162590000Y-71840000D02*
X164570000Y-73820000D01*
D79*
X171252500Y-62500000D02*
X169720000Y-64032500D01*
X174237500Y-64300000D02*
X172437500Y-62500000D01*
X172437500Y-62500000D02*
X172200000Y-62500000D01*
D81*
X154178000Y-68850000D02*
X155328000Y-70000000D01*
D79*
X172200000Y-62500000D02*
X171252500Y-62500000D01*
D81*
X162590000Y-70930000D02*
X162590000Y-71840000D01*
D79*
X156900000Y-62520000D02*
X154178000Y-65242000D01*
D81*
X161660000Y-70000000D02*
X162590000Y-70930000D01*
D79*
X174237500Y-64800000D02*
X174237500Y-64300000D01*
D81*
X155328000Y-70000000D02*
X161660000Y-70000000D01*
D79*
X169720000Y-63310000D02*
X168930000Y-62520000D01*
%TO.N,Net-(C31-Pad1)*%
X179302500Y-70000000D02*
X180090000Y-70787500D01*
X176570000Y-70000000D02*
X179302500Y-70000000D01*
D81*
%TO.N,Net-(C31-Pad2)*%
X160889000Y-58166000D02*
X160880000Y-58157000D01*
X175700000Y-62370000D02*
X174330000Y-62370000D01*
X175700000Y-65960000D02*
X175700000Y-62370000D01*
X173210000Y-66730000D02*
X174930000Y-66730000D01*
X160871000Y-58166000D02*
X155829000Y-58166000D01*
X168670000Y-71280000D02*
X172080000Y-67870000D01*
D79*
X181347500Y-68712500D02*
X180090000Y-68712500D01*
D81*
X172080000Y-67870000D02*
X172080000Y-67860000D01*
D79*
X179000000Y-63300000D02*
X179000000Y-67270000D01*
D81*
X160880000Y-58157000D02*
X160871000Y-58166000D01*
D79*
X179000000Y-67270000D02*
X180090000Y-68360000D01*
X182130000Y-67132500D02*
X182130000Y-67930000D01*
D81*
X174330000Y-62370000D02*
X174200000Y-62500000D01*
X155829000Y-58166000D02*
X152146000Y-61849000D01*
X174930000Y-66730000D02*
X175700000Y-65960000D01*
X150185000Y-63810000D02*
X150087500Y-63810000D01*
D79*
X174174000Y-58166000D02*
X177326000Y-58166000D01*
X182130000Y-67930000D02*
X181347500Y-68712500D01*
D81*
X174174000Y-58166000D02*
X160889000Y-58166000D01*
X165730000Y-71280000D02*
X168670000Y-71280000D01*
X152146000Y-61849000D02*
X150185000Y-63810000D01*
D79*
X178110000Y-62410000D02*
X179000000Y-63300000D01*
D81*
X172080000Y-67860000D02*
X173210000Y-66730000D01*
D79*
X177326000Y-58166000D02*
X178110000Y-58950000D01*
X180090000Y-68360000D02*
X180090000Y-68712500D01*
X182312500Y-66950000D02*
X182130000Y-67132500D01*
X178110000Y-58950000D02*
X178110000Y-62410000D01*
%TO.N,Net-(C28-Pad1)*%
X154885000Y-118790000D02*
X151435000Y-118790000D01*
X157050000Y-116625000D02*
X154885000Y-118790000D01*
X145700000Y-121350000D02*
X146650000Y-120400000D01*
X157050000Y-113617500D02*
X157050000Y-116625000D01*
X144587500Y-123950000D02*
X145700000Y-122837500D01*
X145700000Y-122837500D02*
X145700000Y-121350000D01*
X151435000Y-118790000D02*
X150775000Y-119450000D01*
X149825000Y-120400000D02*
X150775000Y-119450000D01*
X146650000Y-120400000D02*
X149825000Y-120400000D01*
D80*
%TO.N,CLK2*%
X147690000Y-81740000D02*
X149352000Y-83402000D01*
X147690000Y-80670000D02*
X147690000Y-81740000D01*
X157550000Y-94812000D02*
X157550000Y-98384000D01*
X157550000Y-98384000D02*
X158242000Y-99076000D01*
X149352000Y-86614000D02*
X157550000Y-94812000D01*
X149352000Y-83402000D02*
X149352000Y-86614000D01*
%TO.N,MUTE*%
X137442000Y-100842000D02*
X142870000Y-106270000D01*
X142870000Y-106270000D02*
X144600000Y-106270000D01*
X134464500Y-100842000D02*
X137442000Y-100842000D01*
%TO.N,Net-(R49-Pad1)*%
X149772000Y-78670000D02*
X150892000Y-77550000D01*
X147690000Y-78670000D02*
X149772000Y-78670000D01*
D79*
%TO.N,Net-(Q12-Pad1)*%
X145670000Y-68570000D02*
X146610000Y-67630000D01*
X146610000Y-67630000D02*
X149520000Y-67630000D01*
X145670000Y-68760000D02*
X145670000Y-68570000D01*
X150010000Y-70617500D02*
X150180000Y-70787500D01*
X149520000Y-67630000D02*
X150010000Y-68120000D01*
X150010000Y-68120000D02*
X150010000Y-70617500D01*
D80*
%TO.N,Net-(Q14-Pad1)*%
X120375000Y-94500000D02*
X120175000Y-94300000D01*
X117887500Y-86887500D02*
X117875000Y-86887500D01*
X120175000Y-94300000D02*
X120175000Y-89175000D01*
X120175000Y-89175000D02*
X117887500Y-86887500D01*
D81*
%TO.N,Net-(Q13-Pad1)*%
X180100000Y-65000000D02*
X180000000Y-64900000D01*
X182312500Y-65050000D02*
X182262500Y-65000000D01*
X182262500Y-65000000D02*
X180100000Y-65000000D01*
D80*
%TO.N,Net-(U6-Pad3)*%
X140528000Y-80772000D02*
X137742000Y-80772000D01*
X141630000Y-79670000D02*
X140528000Y-80772000D01*
X137742000Y-80772000D02*
X136218000Y-79248000D01*
X143290000Y-79670000D02*
X141630000Y-79670000D01*
D79*
%TO.N,Net-(C63-Pad2)*%
X68580000Y-107426000D02*
X68580000Y-109706500D01*
%TO.N,Net-(C66-Pad1)*%
X74136000Y-118396000D02*
X69596000Y-122936000D01*
X74136000Y-105410000D02*
X74136000Y-118396000D01*
X82942500Y-101753000D02*
X82942500Y-99680000D01*
X79248000Y-100330000D02*
X80348000Y-99230000D01*
X82492500Y-99230000D02*
X82492500Y-95831500D01*
X82942500Y-99680000D02*
X82492500Y-99230000D01*
X74136000Y-105410000D02*
X78740000Y-105410000D01*
X78740000Y-105410000D02*
X79248000Y-104902000D01*
X82492500Y-95831500D02*
X82566000Y-95758000D01*
X79248000Y-104902000D02*
X79248000Y-100330000D01*
X80348000Y-99230000D02*
X82492500Y-99230000D01*
%TO.N,Net-(C66-Pad2)*%
X84212500Y-101753000D02*
X87063000Y-101753000D01*
X87063000Y-101753000D02*
X87070000Y-101760000D01*
X84212500Y-101753000D02*
X84212500Y-99585000D01*
X84567500Y-95759500D02*
X84566000Y-95758000D01*
X87122000Y-95504000D02*
X87122000Y-101708000D01*
X78232000Y-95504000D02*
X80518000Y-93218000D01*
X84212500Y-99585000D02*
X84567500Y-99230000D01*
X76730000Y-104430000D02*
X78232000Y-102928000D01*
X84567500Y-99230000D02*
X84567500Y-95759500D01*
X87122000Y-101708000D02*
X87070000Y-101760000D01*
X78232000Y-102928000D02*
X78232000Y-95504000D01*
X84836000Y-93218000D02*
X87122000Y-95504000D01*
X80518000Y-93218000D02*
X84836000Y-93218000D01*
%TO.N,Net-(C67-Pad2)*%
X74350000Y-128750000D02*
X74975000Y-128125000D01*
X70887500Y-128750000D02*
X74350000Y-128750000D01*
%TO.N,Net-(C68-Pad2)*%
X64600000Y-128800000D02*
X64600000Y-130340000D01*
X79600000Y-127125000D02*
X66275000Y-127125000D01*
X81375000Y-128900000D02*
X79600000Y-127125000D01*
X66275000Y-127125000D02*
X64600000Y-128800000D01*
%TO.N,Net-(C69-Pad1)*%
X81340000Y-113130000D02*
X81430000Y-113220000D01*
X79596000Y-109838000D02*
X79486000Y-109728000D01*
X78160000Y-122754000D02*
X77978000Y-122936000D01*
X81430000Y-113690000D02*
X78160000Y-116960000D01*
X81340000Y-109838000D02*
X79596000Y-109838000D01*
X81672500Y-109505500D02*
X81340000Y-109838000D01*
X81340000Y-109838000D02*
X81340000Y-113130000D01*
X78160000Y-116960000D02*
X78160000Y-122754000D01*
X81672500Y-107003000D02*
X81672500Y-109505500D01*
X81430000Y-113220000D02*
X81430000Y-113690000D01*
%TO.N,Net-(C69-Pad2)*%
X83415000Y-109838000D02*
X83415000Y-113205000D01*
X85747500Y-109768000D02*
X83485000Y-109768000D01*
X83415000Y-113205000D02*
X83430000Y-113220000D01*
X83485000Y-109768000D02*
X83415000Y-109838000D01*
X82942500Y-109365500D02*
X83415000Y-109838000D01*
X82942500Y-107003000D02*
X82942500Y-109365500D01*
%TO.N,Net-(L8-Pad1)*%
X74975000Y-126075000D02*
X81025000Y-126075000D01*
X81025000Y-126075000D02*
X81375000Y-126425000D01*
%TO.N,Net-(JP6-Pad2)*%
X67564000Y-120904000D02*
X67056000Y-121412000D01*
X72136000Y-105410000D02*
X72136000Y-118364000D01*
X72136000Y-118364000D02*
X69596000Y-120904000D01*
X69596000Y-120904000D02*
X67564000Y-120904000D01*
X67056000Y-121412000D02*
X67056000Y-122936000D01*
X68596000Y-105410000D02*
X68580000Y-105426000D01*
X72136000Y-105410000D02*
X68596000Y-105410000D01*
%TO.N,Net-(JP9-Pad2)*%
X76520000Y-110694000D02*
X76520000Y-121854000D01*
X76520000Y-121854000D02*
X75438000Y-122936000D01*
X76730000Y-106430000D02*
X77486000Y-107186000D01*
X77486000Y-107186000D02*
X77486000Y-109728000D01*
X77486000Y-109728000D02*
X76520000Y-110694000D01*
D80*
%TO.N,Net-(R50-Pad1)*%
X147690000Y-79170000D02*
X150036000Y-79170000D01*
X150036000Y-79170000D02*
X150892000Y-80026000D01*
X150892000Y-80026000D02*
X150892000Y-80975000D01*
%TO.N,BACKL*%
X125067000Y-99342000D02*
X122375000Y-96650000D01*
X122375000Y-96650000D02*
X122375000Y-94500000D01*
X126139500Y-99342000D02*
X125067000Y-99342000D01*
%TO.N,Net-(J5-Pad3)*%
X113460000Y-103315000D02*
X114150000Y-102625000D01*
X128125000Y-102125000D02*
X129175000Y-101075000D01*
X129175000Y-101075000D02*
X132875000Y-101075000D01*
X113460000Y-104630000D02*
X112860000Y-105230000D01*
X133608000Y-100342000D02*
X134464500Y-100342000D01*
X112860000Y-105230000D02*
X110685000Y-105230000D01*
X121450000Y-102625500D02*
X121449500Y-102625000D01*
X128125000Y-103495500D02*
X128125000Y-102125000D01*
X110685000Y-105230000D02*
X109400000Y-106515000D01*
X132875000Y-101075000D02*
X133608000Y-100342000D01*
X113460000Y-103315000D02*
X113460000Y-104630000D01*
X121449500Y-102625000D02*
X114150000Y-102625000D01*
%TO.N,CS*%
X138525000Y-91500000D02*
X138525000Y-99225000D01*
X138600000Y-91425000D02*
X138525000Y-91500000D01*
X135700685Y-100275000D02*
X135267685Y-99842000D01*
X137475000Y-100275000D02*
X135700685Y-100275000D01*
X138525000Y-99225000D02*
X137475000Y-100275000D01*
X135267685Y-99842000D02*
X134464500Y-99842000D01*
%TO.N,RADIORESET*%
X131849500Y-99425000D02*
X131849500Y-98609500D01*
X142980000Y-107280000D02*
X154380000Y-107280000D01*
X131052000Y-97812000D02*
X131052000Y-96929500D01*
X138050000Y-102350000D02*
X142980000Y-107280000D01*
X155002500Y-107902500D02*
X157050000Y-107902500D01*
X137750000Y-102350000D02*
X138050000Y-102350000D01*
X154380000Y-107280000D02*
X155002500Y-107902500D01*
X131849500Y-98609500D02*
X131052000Y-97812000D01*
D79*
%TO.N,Net-(C39-Pad1)*%
X156117500Y-112982500D02*
X155550000Y-113550000D01*
X155550000Y-113550000D02*
X155550000Y-116025000D01*
X155550000Y-116025000D02*
X153485000Y-118090000D01*
X147550000Y-118600000D02*
X147550000Y-119375000D01*
X145822500Y-119375000D02*
X147550000Y-119375000D01*
X144547500Y-120650000D02*
X145822500Y-119375000D01*
X148060000Y-118090000D02*
X147550000Y-118600000D01*
X153485000Y-118090000D02*
X148060000Y-118090000D01*
X157050000Y-112982500D02*
X156117500Y-112982500D01*
%TO.N,Net-(C40-Pad1)*%
X147625000Y-121450000D02*
X147550000Y-121375000D01*
X150775000Y-122987500D02*
X149987500Y-123775000D01*
X150775000Y-121450000D02*
X150775000Y-122987500D01*
X150775000Y-121450000D02*
X147625000Y-121450000D01*
D81*
%TO.N,Net-(D10-Pad2)*%
X172925000Y-109575000D02*
X172950000Y-109600000D01*
X172925000Y-107950000D02*
X172925000Y-109575000D01*
%TO.N,Net-(D11-Pad1)*%
X175975000Y-107950000D02*
X175975000Y-109600000D01*
D79*
%TO.N,LCH*%
X138625000Y-123100000D02*
X136850000Y-121325000D01*
X142512500Y-123950000D02*
X141737500Y-124725000D01*
X138625000Y-124350000D02*
X138625000Y-123100000D01*
X139000000Y-124725000D02*
X138625000Y-124350000D01*
X141737500Y-124725000D02*
X139000000Y-124725000D01*
D80*
%TO.N,PTT*%
X122250000Y-92825000D02*
X122250000Y-84275000D01*
X114875000Y-94500000D02*
X114875000Y-93225000D01*
X124600000Y-94650000D02*
X124600000Y-98105685D01*
X112875000Y-96500000D02*
X114875000Y-94500000D01*
X125336315Y-98842000D02*
X126139500Y-98842000D01*
X122775000Y-92825000D02*
X124600000Y-94650000D01*
X124600000Y-98105685D02*
X125336315Y-98842000D01*
X122250000Y-92825000D02*
X122775000Y-92825000D01*
X95770000Y-96890000D02*
X96160000Y-96500000D01*
X96160000Y-96500000D02*
X112875000Y-96500000D01*
%TD*%
%TA.AperFunction,Conductor*%
%TO.N,GND*%
G36*
X173579913Y-77742954D02*
G01*
X173642001Y-77780040D01*
X173668403Y-77801573D01*
X173686858Y-77811221D01*
X173714312Y-77827913D01*
X173731379Y-77839863D01*
X173782623Y-77862039D01*
X173799044Y-77869871D01*
X173848530Y-77895741D01*
X173868556Y-77901483D01*
X173898807Y-77912315D01*
X173917919Y-77920586D01*
X173961373Y-77929664D01*
X173972559Y-77932001D01*
X173990262Y-77936382D01*
X174043913Y-77951766D01*
X174064684Y-77953364D01*
X174096488Y-77957891D01*
X174116880Y-77962151D01*
X174123539Y-77962500D01*
X174173846Y-77962500D01*
X174192949Y-77963234D01*
X174246570Y-77967360D01*
X174269502Y-77964463D01*
X174300710Y-77962500D01*
X181040114Y-77962500D01*
X181047067Y-77962597D01*
X181119048Y-77964608D01*
X181119049Y-77964608D01*
X181131653Y-77964960D01*
X181186628Y-77955266D01*
X181204707Y-77952758D01*
X181247667Y-77948395D01*
X181247671Y-77948394D01*
X181260216Y-77947120D01*
X181272246Y-77943350D01*
X181272251Y-77943349D01*
X181280093Y-77940891D01*
X181311310Y-77933281D01*
X181331821Y-77929664D01*
X181343547Y-77925021D01*
X181343552Y-77925020D01*
X181383707Y-77909122D01*
X181400902Y-77903033D01*
X181442135Y-77890111D01*
X181442142Y-77890108D01*
X181454172Y-77886338D01*
X181465201Y-77880224D01*
X181465204Y-77880223D01*
X181472385Y-77876242D01*
X181501447Y-77862504D01*
X181502647Y-77862029D01*
X181520805Y-77854840D01*
X181536040Y-77844871D01*
X181567506Y-77824280D01*
X181583127Y-77814857D01*
X181631944Y-77787797D01*
X181641523Y-77779587D01*
X181651878Y-77772390D01*
X181653313Y-77774455D01*
X181721126Y-77736322D01*
X181798485Y-77724000D01*
X182650066Y-77724000D01*
X182745354Y-77742954D01*
X182775897Y-77759160D01*
X182776403Y-77759573D01*
X182794858Y-77769221D01*
X182822312Y-77785913D01*
X182839379Y-77797863D01*
X182890623Y-77820039D01*
X182907044Y-77827871D01*
X182956530Y-77853741D01*
X182976556Y-77859483D01*
X183006807Y-77870315D01*
X183025919Y-77878586D01*
X183079319Y-77889742D01*
X183080559Y-77890001D01*
X183098262Y-77894382D01*
X183151913Y-77909766D01*
X183172684Y-77911364D01*
X183204488Y-77915891D01*
X183224880Y-77920151D01*
X183231539Y-77920500D01*
X183281846Y-77920500D01*
X183300949Y-77921234D01*
X183354570Y-77925360D01*
X183377502Y-77922463D01*
X183408710Y-77920500D01*
X185171000Y-77920500D01*
X185266288Y-77939454D01*
X185347070Y-77993430D01*
X185401046Y-78074212D01*
X185420000Y-78169500D01*
X185420000Y-81041940D01*
X185401046Y-81137228D01*
X185347070Y-81218010D01*
X184979180Y-81585900D01*
X184974195Y-81590747D01*
X184912720Y-81648881D01*
X184905487Y-81659211D01*
X184880703Y-81694606D01*
X184869696Y-81709159D01*
X184834427Y-81752403D01*
X184828584Y-81763581D01*
X184828582Y-81763583D01*
X184824780Y-81770856D01*
X184808086Y-81798315D01*
X184796137Y-81815379D01*
X184791129Y-81826952D01*
X184773975Y-81866593D01*
X184766117Y-81883067D01*
X184740258Y-81932530D01*
X184734514Y-81952563D01*
X184723683Y-81982810D01*
X184715414Y-82001919D01*
X184712836Y-82014260D01*
X184704002Y-82056546D01*
X184699619Y-82074256D01*
X184695713Y-82087880D01*
X184684234Y-82127913D01*
X184682636Y-82148684D01*
X184678109Y-82180488D01*
X184673849Y-82200880D01*
X184673500Y-82207539D01*
X184673500Y-82257847D01*
X184672766Y-82276950D01*
X184668640Y-82330571D01*
X184671538Y-82353509D01*
X184673500Y-82384704D01*
X184673500Y-87366439D01*
X184654546Y-87461727D01*
X184600570Y-87542509D01*
X183824009Y-88319070D01*
X183743227Y-88373046D01*
X183647939Y-88392000D01*
X181880060Y-88392000D01*
X181784772Y-88373046D01*
X181703990Y-88319070D01*
X181600100Y-88215180D01*
X181595253Y-88210195D01*
X181545784Y-88157883D01*
X181537119Y-88148720D01*
X181491394Y-88116703D01*
X181476841Y-88105696D01*
X181443372Y-88078399D01*
X181443370Y-88078397D01*
X181433597Y-88070427D01*
X181422419Y-88064584D01*
X181422417Y-88064582D01*
X181415144Y-88060780D01*
X181387684Y-88044085D01*
X181370621Y-88032137D01*
X181354736Y-88025263D01*
X181319407Y-88009975D01*
X181302930Y-88002116D01*
X181264648Y-87982102D01*
X181264649Y-87982102D01*
X181253470Y-87976258D01*
X181233437Y-87970514D01*
X181203190Y-87959683D01*
X181200719Y-87958614D01*
X181195655Y-87956422D01*
X181195651Y-87956421D01*
X181184081Y-87951414D01*
X181129451Y-87940001D01*
X181111744Y-87935619D01*
X181070210Y-87923710D01*
X181070209Y-87923710D01*
X181058087Y-87920234D01*
X181037316Y-87918636D01*
X181005512Y-87914109D01*
X180985120Y-87909849D01*
X180978461Y-87909500D01*
X180928153Y-87909500D01*
X180909050Y-87908766D01*
X180868012Y-87905608D01*
X180868010Y-87905608D01*
X180855429Y-87904640D01*
X180832491Y-87907538D01*
X180801296Y-87909500D01*
X173923259Y-87909500D01*
X173890509Y-87905710D01*
X173890313Y-87907220D01*
X173877798Y-87905595D01*
X173865524Y-87902716D01*
X173794449Y-87900731D01*
X173782312Y-87900095D01*
X173711429Y-87894640D01*
X173698915Y-87896221D01*
X173686904Y-87896514D01*
X173674951Y-87897392D01*
X173662347Y-87897040D01*
X173610275Y-87906222D01*
X173592337Y-87909385D01*
X173580305Y-87911205D01*
X173522287Y-87918534D01*
X173522282Y-87918535D01*
X173509776Y-87920115D01*
X173497835Y-87924180D01*
X173486139Y-87926881D01*
X173474603Y-87930145D01*
X173462179Y-87932336D01*
X173413994Y-87951414D01*
X173399850Y-87957014D01*
X173308186Y-87974500D01*
X170061494Y-87974500D01*
X169966206Y-87955546D01*
X169885424Y-87901570D01*
X169744930Y-87761076D01*
X169690954Y-87680294D01*
X169672000Y-87585006D01*
X169672000Y-83247740D01*
X175320909Y-83247740D01*
X175347243Y-83548745D01*
X175413156Y-83843623D01*
X175416005Y-83851366D01*
X175514638Y-84119443D01*
X175514641Y-84119450D01*
X175517490Y-84127193D01*
X175658411Y-84394474D01*
X175833444Y-84640768D01*
X175839074Y-84646805D01*
X176033878Y-84855708D01*
X176033884Y-84855714D01*
X176039513Y-84861750D01*
X176272998Y-85053537D01*
X176529797Y-85212759D01*
X176537322Y-85216141D01*
X176537326Y-85216143D01*
X176624405Y-85255278D01*
X176805398Y-85336620D01*
X176980080Y-85388695D01*
X177087043Y-85420582D01*
X177087045Y-85420582D01*
X177094960Y-85422942D01*
X177393395Y-85470209D01*
X177400342Y-85470524D01*
X177400347Y-85470525D01*
X177485081Y-85474373D01*
X177485103Y-85474374D01*
X177487889Y-85474500D01*
X177676648Y-85474500D01*
X177680738Y-85474228D01*
X177680748Y-85474228D01*
X177803761Y-85466057D01*
X177901490Y-85459566D01*
X178197684Y-85399843D01*
X178483377Y-85301471D01*
X178753550Y-85166178D01*
X178760385Y-85161533D01*
X178760390Y-85161530D01*
X178996631Y-85000980D01*
X179003456Y-84996342D01*
X179160747Y-84855708D01*
X179222545Y-84800454D01*
X179222548Y-84800451D01*
X179228705Y-84794946D01*
X179234079Y-84788676D01*
X179234084Y-84788671D01*
X179419964Y-84571801D01*
X179425340Y-84565529D01*
X179589905Y-84312120D01*
X179719510Y-84039173D01*
X179722034Y-84031311D01*
X179722037Y-84031304D01*
X179809350Y-83759353D01*
X179811877Y-83751483D01*
X179865384Y-83454104D01*
X179879091Y-83152260D01*
X179852757Y-82851255D01*
X179786844Y-82556377D01*
X179766610Y-82501383D01*
X179685362Y-82280557D01*
X179685359Y-82280550D01*
X179682510Y-82272807D01*
X179541589Y-82005526D01*
X179366556Y-81759232D01*
X179255572Y-81640216D01*
X179166122Y-81544292D01*
X179166116Y-81544286D01*
X179160487Y-81538250D01*
X178927002Y-81346463D01*
X178670203Y-81187241D01*
X178662678Y-81183859D01*
X178662674Y-81183857D01*
X178558920Y-81137228D01*
X178394602Y-81063380D01*
X178219920Y-81011305D01*
X178112957Y-80979418D01*
X178112955Y-80979418D01*
X178105040Y-80977058D01*
X177806605Y-80929791D01*
X177799658Y-80929476D01*
X177799653Y-80929475D01*
X177714919Y-80925627D01*
X177714897Y-80925626D01*
X177712111Y-80925500D01*
X177523352Y-80925500D01*
X177519262Y-80925772D01*
X177519252Y-80925772D01*
X177396239Y-80933943D01*
X177298510Y-80940434D01*
X177002316Y-81000157D01*
X176716623Y-81098529D01*
X176446450Y-81233822D01*
X176439615Y-81238467D01*
X176439610Y-81238470D01*
X176314350Y-81323597D01*
X176196544Y-81403658D01*
X176190395Y-81409156D01*
X176190391Y-81409159D01*
X175989982Y-81588346D01*
X175971295Y-81605054D01*
X175965921Y-81611324D01*
X175965916Y-81611329D01*
X175894539Y-81694606D01*
X175774660Y-81834471D01*
X175770164Y-81841395D01*
X175770162Y-81841397D01*
X175718239Y-81921352D01*
X175610095Y-82087880D01*
X175480490Y-82360827D01*
X175477966Y-82368689D01*
X175477963Y-82368696D01*
X175420192Y-82548634D01*
X175388123Y-82648517D01*
X175334616Y-82945896D01*
X175320909Y-83247740D01*
X169672000Y-83247740D01*
X169672000Y-77973000D01*
X169690954Y-77877712D01*
X169744930Y-77796930D01*
X169825712Y-77742954D01*
X169921000Y-77724000D01*
X173484625Y-77724000D01*
X173579913Y-77742954D01*
G37*
%TD.AperFunction*%
%TD*%
%TA.AperFunction,Conductor*%
%TO.N,GND*%
G36*
X161261510Y-71020502D02*
G01*
X161282484Y-71037405D01*
X161552595Y-71307516D01*
X161586621Y-71369828D01*
X161589500Y-71396611D01*
X161589500Y-71823830D01*
X161589451Y-71827349D01*
X161587040Y-71913653D01*
X161588148Y-71919938D01*
X161588149Y-71919948D01*
X161597516Y-71973066D01*
X161598785Y-71982208D01*
X161604880Y-72042216D01*
X161613491Y-72069693D01*
X161617339Y-72085481D01*
X161621227Y-72107535D01*
X161621229Y-72107541D01*
X161622336Y-72113821D01*
X161624686Y-72119756D01*
X161644538Y-72169898D01*
X161647620Y-72178601D01*
X161665662Y-72236172D01*
X161668755Y-72241751D01*
X161679615Y-72261343D01*
X161686567Y-72276049D01*
X161697160Y-72302805D01*
X161700657Y-72308149D01*
X161730186Y-72353274D01*
X161734954Y-72361178D01*
X161764203Y-72413944D01*
X161768355Y-72418788D01*
X161782933Y-72435797D01*
X161792696Y-72448800D01*
X161808455Y-72472882D01*
X161812917Y-72477838D01*
X161851829Y-72516750D01*
X161858402Y-72523848D01*
X161896477Y-72568271D01*
X161901514Y-72572178D01*
X161901516Y-72572180D01*
X161920857Y-72587182D01*
X161932726Y-72597647D01*
X162463095Y-73128016D01*
X162497121Y-73190328D01*
X162500000Y-73217111D01*
X162500000Y-77374000D01*
X162479998Y-77442121D01*
X162426342Y-77488614D01*
X162374000Y-77500000D01*
X160959228Y-77500000D01*
X160924499Y-77495119D01*
X160900796Y-77488323D01*
X160885494Y-77482844D01*
X160859081Y-77471414D01*
X160852837Y-77470110D01*
X160852832Y-77470108D01*
X160810323Y-77461228D01*
X160800033Y-77459078D01*
X160791083Y-77456864D01*
X160733087Y-77440234D01*
X160704388Y-77438026D01*
X160688295Y-77435735D01*
X160660120Y-77429849D01*
X160655281Y-77429595D01*
X160655278Y-77429595D01*
X160655129Y-77429587D01*
X160655113Y-77429587D01*
X160653461Y-77429500D01*
X160598435Y-77429500D01*
X160588768Y-77429129D01*
X160536789Y-77425129D01*
X160536785Y-77425129D01*
X160530429Y-77424640D01*
X160511424Y-77427041D01*
X160499827Y-77428506D01*
X160484035Y-77429500D01*
X159061148Y-77429500D01*
X159057630Y-77429451D01*
X158977729Y-77427219D01*
X158977726Y-77427219D01*
X158971347Y-77427041D01*
X158957679Y-77429451D01*
X158911944Y-77437515D01*
X158902798Y-77438784D01*
X158849130Y-77444235D01*
X158849126Y-77444236D01*
X158842784Y-77444880D01*
X158815317Y-77453488D01*
X158799518Y-77457339D01*
X158771178Y-77462336D01*
X158765245Y-77464685D01*
X158715096Y-77484540D01*
X158706401Y-77487619D01*
X158685293Y-77494234D01*
X158647615Y-77500000D01*
X156893958Y-77500000D01*
X156835582Y-77485661D01*
X156804132Y-77469219D01*
X156798470Y-77466259D01*
X156762428Y-77455924D01*
X156721663Y-77444235D01*
X156603087Y-77410234D01*
X156571455Y-77407411D01*
X156485609Y-77399749D01*
X156485603Y-77399749D01*
X156482816Y-77399500D01*
X155876000Y-77399500D01*
X155807879Y-77379498D01*
X155761386Y-77325842D01*
X155750000Y-77273500D01*
X155750000Y-71126500D01*
X155770002Y-71058379D01*
X155823658Y-71011886D01*
X155876000Y-71000500D01*
X161193389Y-71000500D01*
X161261510Y-71020502D01*
G37*
%TD.AperFunction*%
%TD*%
M02*
