%TF.GenerationSoftware,KiCad,Pcbnew,(6.0.11)*%
%TF.CreationDate,2023-06-17T11:37:52-05:00*%
%TF.ProjectId,LittleDX,4c697474-6c65-4445-982e-6b696361645f,rev?*%
%TF.SameCoordinates,Original*%
%TF.FileFunction,Soldermask,Top*%
%TF.FilePolarity,Negative*%
%FSLAX46Y46*%
G04 Gerber Fmt 4.6, Leading zero omitted, Abs format (unit mm)*
G04 Created by KiCad (PCBNEW (6.0.11)) date 2023-06-17 11:37:52*
%MOMM*%
%LPD*%
G01*
G04 APERTURE LIST*
G04 Aperture macros list*
%AMRoundRect*
0 Rectangle with rounded corners*
0 $1 Rounding radius*
0 $2 $3 $4 $5 $6 $7 $8 $9 X,Y pos of 4 corners*
0 Add a 4 corners polygon primitive as box body*
4,1,4,$2,$3,$4,$5,$6,$7,$8,$9,$2,$3,0*
0 Add four circle primitives for the rounded corners*
1,1,$1+$1,$2,$3*
1,1,$1+$1,$4,$5*
1,1,$1+$1,$6,$7*
1,1,$1+$1,$8,$9*
0 Add four rect primitives between the rounded corners*
20,1,$1+$1,$2,$3,$4,$5,0*
20,1,$1+$1,$4,$5,$6,$7,0*
20,1,$1+$1,$6,$7,$8,$9,0*
20,1,$1+$1,$8,$9,$2,$3,0*%
G04 Aperture macros list end*
%ADD10RoundRect,0.200000X-0.800000X0.800000X-0.800000X-0.800000X0.800000X-0.800000X0.800000X0.800000X0*%
%ADD11C,2.000000*%
%ADD12RoundRect,0.200000X0.850000X-0.850000X0.850000X0.850000X-0.850000X0.850000X-0.850000X-0.850000X0*%
%ADD13O,2.100000X2.100000*%
%ADD14O,2.000000X2.000000*%
%ADD15C,2.400000*%
%ADD16O,2.200000X3.000000*%
%ADD17O,1.900000X3.000000*%
%ADD18RoundRect,0.200000X-0.750000X-1.300000X0.750000X-1.300000X0.750000X1.300000X-0.750000X1.300000X0*%
%ADD19C,3.400000*%
%ADD20RoundRect,0.450000X0.337500X0.475000X-0.337500X0.475000X-0.337500X-0.475000X0.337500X-0.475000X0*%
%ADD21RoundRect,0.450000X0.475000X-0.337500X0.475000X0.337500X-0.475000X0.337500X-0.475000X-0.337500X0*%
%ADD22RoundRect,0.450000X-0.337500X-0.475000X0.337500X-0.475000X0.337500X0.475000X-0.337500X0.475000X0*%
%ADD23RoundRect,0.450000X-0.475000X0.337500X-0.475000X-0.337500X0.475000X-0.337500X0.475000X0.337500X0*%
%ADD24RoundRect,0.200000X-1.100000X1.100000X-1.100000X-1.100000X1.100000X-1.100000X1.100000X1.100000X0*%
%ADD25O,2.600000X2.600000*%
%ADD26RoundRect,0.450000X0.325000X0.450000X-0.325000X0.450000X-0.325000X-0.450000X0.325000X-0.450000X0*%
%ADD27RoundRect,0.450000X-0.325000X-0.450000X0.325000X-0.450000X0.325000X0.450000X-0.325000X0.450000X0*%
%ADD28RoundRect,0.200000X-1.750000X-0.900000X1.750000X-0.900000X1.750000X0.900000X-1.750000X0.900000X0*%
%ADD29RoundRect,0.200000X0.900000X-1.750000X0.900000X1.750000X-0.900000X1.750000X-0.900000X-1.750000X0*%
%ADD30RoundRect,0.200000X-1.500000X1.500000X-1.500000X-1.500000X1.500000X-1.500000X1.500000X1.500000X0*%
%ADD31RoundRect,0.200000X-1.750000X-1.750000X1.750000X-1.750000X1.750000X1.750000X-1.750000X1.750000X0*%
%ADD32RoundRect,0.200000X-1.750000X-1.000000X1.750000X-1.000000X1.750000X1.000000X-1.750000X1.000000X0*%
%ADD33RoundRect,0.200000X-0.850000X-0.850000X0.850000X-0.850000X0.850000X0.850000X-0.850000X0.850000X0*%
%ADD34RoundRect,0.450000X0.450000X-0.325000X0.450000X0.325000X-0.450000X0.325000X-0.450000X-0.325000X0*%
%ADD35RoundRect,0.450000X-0.450000X0.325000X-0.450000X-0.325000X0.450000X-0.325000X0.450000X0.325000X0*%
%ADD36RoundRect,0.200000X0.760000X-0.760000X0.760000X0.760000X-0.760000X0.760000X-0.760000X-0.760000X0*%
%ADD37C,1.920000*%
%ADD38RoundRect,0.350000X-0.587500X-0.150000X0.587500X-0.150000X0.587500X0.150000X-0.587500X0.150000X0*%
%ADD39RoundRect,0.200000X0.600000X-1.100000X0.600000X1.100000X-0.600000X1.100000X-0.600000X-1.100000X0*%
%ADD40RoundRect,0.200000X2.900000X-3.200000X2.900000X3.200000X-2.900000X3.200000X-2.900000X-3.200000X0*%
%ADD41RoundRect,0.200000X1.000000X1.200000X-1.000000X1.200000X-1.000000X-1.200000X1.000000X-1.200000X0*%
%ADD42RoundRect,0.200000X-0.500000X-0.900000X0.500000X-0.900000X0.500000X0.900000X-0.500000X0.900000X0*%
%ADD43RoundRect,0.275000X0.075000X-0.662500X0.075000X0.662500X-0.075000X0.662500X-0.075000X-0.662500X0*%
%ADD44RoundRect,0.275000X0.662500X-0.075000X0.662500X0.075000X-0.662500X0.075000X-0.662500X-0.075000X0*%
%ADD45RoundRect,0.350000X0.675000X0.150000X-0.675000X0.150000X-0.675000X-0.150000X0.675000X-0.150000X0*%
%ADD46RoundRect,0.200000X-0.750000X1.000000X-0.750000X-1.000000X0.750000X-1.000000X0.750000X1.000000X0*%
%ADD47RoundRect,0.200000X-1.900000X1.000000X-1.900000X-1.000000X1.900000X-1.000000X1.900000X1.000000X0*%
%ADD48RoundRect,0.200000X-0.760000X0.760000X-0.760000X-0.760000X0.760000X-0.760000X0.760000X0.760000X0*%
%ADD49C,2.900000*%
%ADD50RoundRect,0.200000X0.850000X0.850000X-0.850000X0.850000X-0.850000X-0.850000X0.850000X-0.850000X0*%
%ADD51RoundRect,0.450000X-0.350000X-0.450000X0.350000X-0.450000X0.350000X0.450000X-0.350000X0.450000X0*%
%ADD52RoundRect,0.450000X0.450000X-0.350000X0.450000X0.350000X-0.450000X0.350000X-0.450000X-0.350000X0*%
%ADD53RoundRect,0.450000X0.350000X0.450000X-0.350000X0.450000X-0.350000X-0.450000X0.350000X-0.450000X0*%
%ADD54RoundRect,0.450000X-0.450000X0.350000X-0.450000X-0.350000X0.450000X-0.350000X0.450000X0.350000X0*%
%ADD55RoundRect,0.200000X-0.700000X-0.150000X0.700000X-0.150000X0.700000X0.150000X-0.700000X0.150000X0*%
%ADD56RoundRect,0.200000X-1.050000X-0.900000X1.050000X-0.900000X1.050000X0.900000X-1.050000X0.900000X0*%
%ADD57C,2.500000*%
%ADD58C,1.900000*%
%ADD59RoundRect,0.200000X1.500000X-1.500000X1.500000X1.500000X-1.500000X1.500000X-1.500000X-1.500000X0*%
%ADD60C,2.200000*%
%ADD61RoundRect,0.200000X-0.600000X0.450000X-0.600000X-0.450000X0.600000X-0.450000X0.600000X0.450000X0*%
%ADD62RoundRect,0.200000X-0.750000X0.750000X-0.750000X-0.750000X0.750000X-0.750000X0.750000X0.750000X0*%
%ADD63C,1.924000*%
%ADD64RoundRect,0.200000X-0.850000X0.850000X-0.850000X-0.850000X0.850000X-0.850000X0.850000X0.850000X0*%
%ADD65RoundRect,0.350000X0.150000X-0.587500X0.150000X0.587500X-0.150000X0.587500X-0.150000X-0.587500X0*%
%ADD66RoundRect,0.200000X0.800000X0.800000X-0.800000X0.800000X-0.800000X-0.800000X0.800000X-0.800000X0*%
%ADD67O,2.400000X3.900000*%
%ADD68O,4.400000X2.400000*%
%ADD69C,3.448000*%
%ADD70C,1.840000*%
%ADD71C,5.400000*%
%ADD72RoundRect,0.200000X1.100000X1.100000X-1.100000X1.100000X-1.100000X-1.100000X1.100000X-1.100000X0*%
%ADD73RoundRect,0.200000X-0.800000X-0.800000X0.800000X-0.800000X0.800000X0.800000X-0.800000X0.800000X0*%
%ADD74RoundRect,0.200000X-0.900000X0.900000X-0.900000X-0.900000X0.900000X-0.900000X0.900000X0.900000X0*%
%ADD75O,2.200000X2.200000*%
%ADD76RoundRect,0.200000X-0.450000X-0.600000X0.450000X-0.600000X0.450000X0.600000X-0.450000X0.600000X0*%
%ADD77RoundRect,0.200000X-0.900000X1.750000X-0.900000X-1.750000X0.900000X-1.750000X0.900000X1.750000X0*%
%ADD78O,2.400000X1.400000*%
%ADD79O,1.400000X2.400000*%
%ADD80O,1.900000X2.400000*%
%ADD81O,2.400000X1.900000*%
%ADD82RoundRect,0.200000X0.600000X-0.450000X0.600000X0.450000X-0.600000X0.450000X-0.600000X-0.450000X0*%
%ADD83RoundRect,0.350000X-0.150000X0.675000X-0.150000X-0.675000X0.150000X-0.675000X0.150000X0.675000X0*%
%ADD84RoundRect,0.200000X0.600000X0.200000X-0.600000X0.200000X-0.600000X-0.200000X0.600000X-0.200000X0*%
%ADD85C,3.600000*%
%ADD86C,2.100000*%
%ADD87C,3.900000*%
%ADD88C,1.400000*%
%ADD89RoundRect,0.200000X0.600000X1.100000X-0.600000X1.100000X-0.600000X-1.100000X0.600000X-1.100000X0*%
%ADD90RoundRect,0.200000X-0.800000X-0.700000X0.800000X-0.700000X0.800000X0.700000X-0.800000X0.700000X0*%
%ADD91RoundRect,0.200000X-0.350000X-0.800000X0.350000X-0.800000X0.350000X0.800000X-0.350000X0.800000X0*%
%ADD92RoundRect,0.200000X-0.600000X-0.700000X0.600000X-0.700000X0.600000X0.700000X-0.600000X0.700000X0*%
G04 APERTURE END LIST*
D10*
%TO.C,C19*%
X134625000Y-127775000D03*
D11*
X134625000Y-130275000D03*
%TD*%
D12*
%TO.C,J20*%
X115475000Y-120800000D03*
D13*
X118015000Y-120800000D03*
%TD*%
D11*
%TO.C,R41*%
X177075000Y-101100000D03*
D14*
X164375000Y-101100000D03*
%TD*%
D15*
%TO.C,SW2*%
X86925000Y-125525000D03*
X93425000Y-125525000D03*
X86925000Y-121025000D03*
X93425000Y-121025000D03*
%TD*%
D16*
%TO.C,DS1*%
X112430000Y-85230000D03*
D17*
X109890000Y-85230000D03*
X107350000Y-85230000D03*
X104810000Y-85230000D03*
X102270000Y-85230000D03*
X99730000Y-85230000D03*
X97190000Y-85230000D03*
X94650000Y-85230000D03*
X92110000Y-85230000D03*
D16*
X89570000Y-85230000D03*
X87030000Y-85230000D03*
X84490000Y-85230000D03*
X81950000Y-85230000D03*
X79410000Y-85230000D03*
D17*
X76870000Y-85230000D03*
D18*
X74330000Y-85230000D03*
D19*
X143829480Y-116230700D03*
X143830000Y-85230000D03*
X68830900Y-116230700D03*
X68830900Y-85230000D03*
%TD*%
D20*
%TO.C,C1*%
X133625500Y-114046000D03*
X131550500Y-114046000D03*
%TD*%
D21*
%TO.C,C2*%
X125476000Y-116727500D03*
X125476000Y-114652500D03*
%TD*%
%TO.C,C4*%
X129300000Y-116747500D03*
X129300000Y-114672500D03*
%TD*%
D22*
%TO.C,C5*%
X120162500Y-111370000D03*
X122237500Y-111370000D03*
%TD*%
D10*
%TO.C,C6*%
X75000000Y-74000000D03*
D11*
X75000000Y-76500000D03*
%TD*%
D22*
%TO.C,C8*%
X121390500Y-114046000D03*
X123465500Y-114046000D03*
%TD*%
D23*
%TO.C,C9*%
X132550000Y-108587500D03*
X132550000Y-110662500D03*
%TD*%
D22*
%TO.C,C10*%
X92187500Y-116725000D03*
X94262500Y-116725000D03*
%TD*%
D23*
%TO.C,C11*%
X87150000Y-128462500D03*
X87150000Y-130537500D03*
%TD*%
D22*
%TO.C,C12*%
X119432500Y-105530000D03*
X121507500Y-105530000D03*
%TD*%
D23*
%TO.C,C13*%
X127110000Y-91832500D03*
X127110000Y-93907500D03*
%TD*%
D20*
%TO.C,C15*%
X148487500Y-129725000D03*
X150562500Y-129725000D03*
%TD*%
D22*
%TO.C,C16*%
X84362500Y-120425000D03*
X82287500Y-120425000D03*
%TD*%
D20*
%TO.C,C17*%
X107717500Y-115300000D03*
X105642500Y-115300000D03*
%TD*%
D21*
%TO.C,C20*%
X159500000Y-96037500D03*
X159500000Y-93962500D03*
%TD*%
D23*
%TO.C,C21*%
X135575000Y-94312500D03*
X135575000Y-96387500D03*
%TD*%
D10*
%TO.C,C22*%
X82000000Y-73968208D03*
D11*
X82000000Y-75968208D03*
%TD*%
D20*
%TO.C,C25*%
X153697500Y-110530000D03*
X151622500Y-110530000D03*
%TD*%
D21*
%TO.C,C33*%
X165450000Y-107587500D03*
X165450000Y-105512500D03*
%TD*%
D20*
%TO.C,C34*%
X161268500Y-139192000D03*
X163343500Y-139192000D03*
%TD*%
D23*
%TO.C,C35*%
X165450000Y-110337500D03*
X165450000Y-112412500D03*
%TD*%
D24*
%TO.C,D1*%
X63750000Y-83880000D03*
D25*
X63750000Y-91500000D03*
%TD*%
D26*
%TO.C,D2*%
X110550000Y-121350000D03*
X108500000Y-121350000D03*
%TD*%
D27*
%TO.C,D3*%
X110550000Y-123700000D03*
X108500000Y-123700000D03*
%TD*%
D28*
%TO.C,D4*%
X74000000Y-80000000D03*
X79000000Y-80000000D03*
%TD*%
D29*
%TO.C,D5*%
X108458000Y-77684000D03*
X108458000Y-72684000D03*
%TD*%
D30*
%TO.C,J1*%
X56000000Y-85000000D03*
D19*
X56000000Y-90080000D03*
%TD*%
D31*
%TO.C,J2*%
X60500000Y-75000000D03*
X54500000Y-75000000D03*
D32*
X57500000Y-79700000D03*
%TD*%
D33*
%TO.C,J5*%
X109400000Y-103975000D03*
D13*
X111940000Y-103975000D03*
X109400000Y-106515000D03*
X111940000Y-106515000D03*
X109400000Y-109055000D03*
X111940000Y-109055000D03*
%TD*%
D27*
%TO.C,L1*%
X119145000Y-107630000D03*
X121195000Y-107630000D03*
%TD*%
D34*
%TO.C,L2*%
X151120000Y-114825000D03*
X151120000Y-112775000D03*
%TD*%
D35*
%TO.C,L3*%
X167700000Y-115575000D03*
X167700000Y-117625000D03*
%TD*%
D34*
%TO.C,L9*%
X141320000Y-71175000D03*
X141320000Y-69125000D03*
%TD*%
D36*
%TO.C,Q3*%
X170350000Y-75630000D03*
D37*
X172890000Y-75630000D03*
X175430000Y-75630000D03*
%TD*%
D38*
%TO.C,Q4*%
X162481500Y-128016000D03*
X160606500Y-128966000D03*
X160606500Y-127066000D03*
%TD*%
D15*
%TO.C,SW1*%
X154142000Y-102056000D03*
X154142000Y-95556000D03*
X149642000Y-102056000D03*
X149642000Y-95556000D03*
%TD*%
%TO.C,SW3*%
X98650000Y-133825000D03*
X92150000Y-133825000D03*
X92150000Y-129325000D03*
X98650000Y-129325000D03*
%TD*%
%TO.C,SW4*%
X97225000Y-125475000D03*
X103725000Y-125475000D03*
X103725000Y-120975000D03*
X97225000Y-120975000D03*
%TD*%
%TO.C,SW5*%
X92125000Y-142125000D03*
X98625000Y-142125000D03*
X92125000Y-137625000D03*
X98625000Y-137625000D03*
%TD*%
D39*
%TO.C,U2*%
X66245000Y-66975000D03*
D40*
X68525000Y-60675000D03*
D39*
X70805000Y-66975000D03*
%TD*%
D41*
%TO.C,Y1*%
X129200000Y-111730000D03*
X125500000Y-111730000D03*
%TD*%
D42*
%TO.C,Y2*%
X127210000Y-108530000D03*
X124710000Y-108530000D03*
%TD*%
D43*
%TO.C,U1*%
X127552000Y-105254500D03*
X128052000Y-105254500D03*
X128552000Y-105254500D03*
X129052000Y-105254500D03*
X129552000Y-105254500D03*
X130052000Y-105254500D03*
X130552000Y-105254500D03*
X131052000Y-105254500D03*
X131552000Y-105254500D03*
X132052000Y-105254500D03*
X132552000Y-105254500D03*
X133052000Y-105254500D03*
D44*
X134464500Y-103842000D03*
X134464500Y-103342000D03*
X134464500Y-102842000D03*
X134464500Y-102342000D03*
X134464500Y-101842000D03*
X134464500Y-101342000D03*
X134464500Y-100842000D03*
X134464500Y-100342000D03*
X134464500Y-99842000D03*
X134464500Y-99342000D03*
X134464500Y-98842000D03*
X134464500Y-98342000D03*
D43*
X133052000Y-96929500D03*
X132552000Y-96929500D03*
X132052000Y-96929500D03*
X131552000Y-96929500D03*
X131052000Y-96929500D03*
X130552000Y-96929500D03*
X130052000Y-96929500D03*
X129552000Y-96929500D03*
X129052000Y-96929500D03*
X128552000Y-96929500D03*
X128052000Y-96929500D03*
X127552000Y-96929500D03*
D44*
X126139500Y-98342000D03*
X126139500Y-98842000D03*
X126139500Y-99342000D03*
X126139500Y-99842000D03*
X126139500Y-100342000D03*
X126139500Y-100842000D03*
X126139500Y-101342000D03*
X126139500Y-101842000D03*
X126139500Y-102342000D03*
X126139500Y-102842000D03*
X126139500Y-103342000D03*
X126139500Y-103842000D03*
%TD*%
D33*
%TO.C,J9*%
X116375000Y-105325000D03*
%TD*%
D21*
%TO.C,C37*%
X145075000Y-127262500D03*
X145075000Y-129337500D03*
%TD*%
D45*
%TO.C,U3*%
X148955000Y-136955000D03*
X148955000Y-135685000D03*
X148955000Y-134415000D03*
X148955000Y-133145000D03*
X154205000Y-133145000D03*
X154205000Y-134415000D03*
X154205000Y-135685000D03*
X154205000Y-136955000D03*
%TD*%
D46*
%TO.C,U4*%
X79680000Y-61020000D03*
X77380000Y-61020000D03*
D47*
X77380000Y-67320000D03*
D46*
X75080000Y-61020000D03*
%TD*%
D48*
%TO.C,Q5*%
X185340000Y-90830000D03*
D37*
X182800000Y-90830000D03*
X180260000Y-90830000D03*
%TD*%
D48*
%TO.C,Q6*%
X175560000Y-90680000D03*
D37*
X173020000Y-90680000D03*
X170480000Y-90680000D03*
%TD*%
D36*
%TO.C,Q7*%
X179960000Y-75520000D03*
D37*
X182500000Y-75520000D03*
X185040000Y-75520000D03*
%TD*%
D22*
%TO.C,C14*%
X172162500Y-64800000D03*
X174237500Y-64800000D03*
%TD*%
D49*
%TO.C,RV3*%
X93500000Y-75000000D03*
X91000000Y-80040000D03*
X88500000Y-75000000D03*
%TD*%
D20*
%TO.C,C42*%
X78727500Y-71140000D03*
X76652500Y-71140000D03*
%TD*%
D50*
%TO.C,JP3*%
X168810000Y-111250000D03*
D13*
X168810000Y-108710000D03*
X168810000Y-106170000D03*
%TD*%
D51*
%TO.C,R1*%
X119300000Y-116710000D03*
X117300000Y-116710000D03*
%TD*%
D52*
%TO.C,R2*%
X111590000Y-81000000D03*
X111590000Y-79000000D03*
%TD*%
%TO.C,R3*%
X102700000Y-97550000D03*
X102700000Y-95550000D03*
%TD*%
D51*
%TO.C,R4*%
X110728000Y-126238000D03*
X108728000Y-126238000D03*
%TD*%
D53*
%TO.C,R6*%
X89975000Y-116750000D03*
X87975000Y-116750000D03*
%TD*%
%TO.C,R7*%
X121396000Y-70104000D03*
X119396000Y-70104000D03*
%TD*%
D51*
%TO.C,R8*%
X172200000Y-62500000D03*
X174200000Y-62500000D03*
%TD*%
D52*
%TO.C,R9*%
X114554000Y-71866000D03*
X114554000Y-69866000D03*
%TD*%
D51*
%TO.C,R11*%
X145780000Y-132588000D03*
X143780000Y-132588000D03*
%TD*%
D52*
%TO.C,R12*%
X85620000Y-116230000D03*
X85620000Y-118230000D03*
%TD*%
D51*
%TO.C,R13*%
X105630000Y-117620000D03*
X107630000Y-117620000D03*
%TD*%
D54*
%TO.C,R14*%
X154178000Y-68850000D03*
X154178000Y-70850000D03*
%TD*%
%TO.C,R15*%
X111760000Y-69866000D03*
X111760000Y-71866000D03*
%TD*%
D52*
%TO.C,R16*%
X149660000Y-110690000D03*
X149660000Y-108690000D03*
%TD*%
%TO.C,R17*%
X158242000Y-101076000D03*
X158242000Y-99076000D03*
%TD*%
%TO.C,R18*%
X137750000Y-85025000D03*
X137750000Y-83025000D03*
%TD*%
D54*
%TO.C,R19*%
X139740000Y-117180000D03*
X139740000Y-119180000D03*
%TD*%
D53*
%TO.C,R20*%
X157667200Y-89128600D03*
X155667200Y-89128600D03*
%TD*%
D54*
%TO.C,R21*%
X140300000Y-121325000D03*
X140300000Y-123325000D03*
%TD*%
%TO.C,R23*%
X136850000Y-121325000D03*
X136850000Y-123325000D03*
%TD*%
D52*
%TO.C,R29*%
X99940000Y-97540000D03*
X99940000Y-95540000D03*
%TD*%
%TO.C,R30*%
X144600000Y-108270000D03*
X144600000Y-106270000D03*
%TD*%
D51*
%TO.C,R31*%
X163306000Y-136780000D03*
X161306000Y-136780000D03*
%TD*%
D52*
%TO.C,R32*%
X158700000Y-130950000D03*
X158700000Y-132950000D03*
%TD*%
%TO.C,R33*%
X87970000Y-132760000D03*
X87970000Y-134760000D03*
%TD*%
D51*
%TO.C,R34*%
X163306000Y-134460000D03*
X161306000Y-134460000D03*
%TD*%
D52*
%TO.C,R46*%
X108360000Y-97530000D03*
X108360000Y-95530000D03*
%TD*%
%TO.C,R47*%
X105610000Y-97560000D03*
X105610000Y-95560000D03*
%TD*%
%TO.C,R24*%
X150775000Y-121450000D03*
X150775000Y-119450000D03*
%TD*%
D20*
%TO.C,C44*%
X68267500Y-70000000D03*
X66192500Y-70000000D03*
%TD*%
D33*
%TO.C,JP4*%
X169660000Y-126990000D03*
D13*
X169660000Y-129530000D03*
%TD*%
D23*
%TO.C,C47*%
X143030000Y-73892500D03*
X143030000Y-75967500D03*
%TD*%
D52*
%TO.C,R35*%
X135075000Y-85050000D03*
X135075000Y-83050000D03*
%TD*%
D54*
%TO.C,R48*%
X149020000Y-112800000D03*
X149020000Y-114800000D03*
%TD*%
D51*
%TO.C,R49*%
X150892000Y-77550000D03*
X152892000Y-77550000D03*
%TD*%
%TO.C,R50*%
X150892000Y-80975000D03*
X152892000Y-80975000D03*
%TD*%
D55*
%TO.C,U6*%
X143290000Y-78670000D03*
X143290000Y-79170000D03*
X143290000Y-79670000D03*
X143290000Y-80170000D03*
X143290000Y-80670000D03*
X147690000Y-80670000D03*
X147690000Y-80170000D03*
X147690000Y-79670000D03*
X147690000Y-79170000D03*
X147690000Y-78670000D03*
%TD*%
D56*
%TO.C,Y3*%
X136218000Y-79248000D03*
X139118000Y-79248000D03*
X139118000Y-76948000D03*
X136218000Y-76948000D03*
%TD*%
D57*
%TO.C,J12*%
X187025000Y-134505000D03*
X187025000Y-124345000D03*
D58*
X181945000Y-129425000D03*
D59*
X184673000Y-131711000D03*
D58*
X181945000Y-126885000D03*
D19*
X184673000Y-126631000D03*
%TD*%
D60*
%TO.C,RLY1*%
X187775000Y-98845000D03*
X187775000Y-106465000D03*
X187775000Y-111545000D03*
X187775000Y-116625000D03*
X180175000Y-98845000D03*
X180175000Y-106465000D03*
X180175000Y-111545000D03*
X180175000Y-116625000D03*
%TD*%
D23*
%TO.C,C30*%
X165325000Y-115650000D03*
X165325000Y-117725000D03*
%TD*%
D61*
%TO.C,D9*%
X175975000Y-104650000D03*
X175975000Y-107950000D03*
%TD*%
D51*
%TO.C,R5*%
X139800000Y-95850000D03*
X141800000Y-95850000D03*
%TD*%
D54*
%TO.C,R22*%
X137550000Y-119160000D03*
X137550000Y-117160000D03*
%TD*%
D52*
%TO.C,R25*%
X147550000Y-121375000D03*
X147550000Y-119375000D03*
%TD*%
D62*
%TO.C,Q8*%
X165608000Y-71374000D03*
D58*
X165608000Y-73914000D03*
X165608000Y-76454000D03*
%TD*%
D51*
%TO.C,R38*%
X169790000Y-59950000D03*
X171790000Y-59950000D03*
%TD*%
D53*
%TO.C,R39*%
X180000000Y-64900000D03*
X178000000Y-64900000D03*
%TD*%
D12*
%TO.C,JP1*%
X174030000Y-70000000D03*
D13*
X176570000Y-70000000D03*
%TD*%
D20*
%TO.C,C39*%
X144547500Y-120650000D03*
X142472500Y-120650000D03*
%TD*%
D33*
%TO.C,JP2*%
X173430000Y-126910000D03*
D13*
X173430000Y-129450000D03*
%TD*%
D63*
%TO.C,T3*%
X173355000Y-140970000D03*
X180975000Y-140970000D03*
X177228500Y-143764000D03*
X177228500Y-138176000D03*
%TD*%
D35*
%TO.C,D16*%
X178850000Y-131360000D03*
X178850000Y-133410000D03*
%TD*%
D53*
%TO.C,R28*%
X174660000Y-133250000D03*
X172660000Y-133250000D03*
%TD*%
D61*
%TO.C,D17*%
X157000000Y-82675000D03*
X157000000Y-85975000D03*
%TD*%
D48*
%TO.C,Q9*%
X167575000Y-95250000D03*
D37*
X165035000Y-95250000D03*
X162495000Y-95250000D03*
%TD*%
D22*
%TO.C,C46*%
X148012500Y-63810000D03*
X150087500Y-63810000D03*
%TD*%
D53*
%TO.C,R51*%
X167525000Y-90800000D03*
X165525000Y-90800000D03*
%TD*%
D54*
%TO.C,R52*%
X159766000Y-87138000D03*
X159766000Y-89138000D03*
%TD*%
D23*
%TO.C,C24*%
X166830000Y-64032500D03*
X166830000Y-66107500D03*
%TD*%
D53*
%TO.C,R53*%
X160050000Y-79875000D03*
X158050000Y-79875000D03*
%TD*%
D21*
%TO.C,C56*%
X152100000Y-86537500D03*
X152100000Y-84462500D03*
%TD*%
D64*
%TO.C,JP7*%
X176560000Y-116780000D03*
D13*
X174020000Y-116780000D03*
X171480000Y-116780000D03*
%TD*%
D65*
%TO.C,Q12*%
X150180000Y-70787500D03*
X152080000Y-70787500D03*
X151130000Y-68912500D03*
%TD*%
D38*
%TO.C,Q13*%
X182312500Y-65050000D03*
X182312500Y-66950000D03*
X184187500Y-66000000D03*
%TD*%
D51*
%TO.C,R65*%
X143670000Y-68760000D03*
X145670000Y-68760000D03*
%TD*%
D54*
%TO.C,R66*%
X161525000Y-99425000D03*
X161525000Y-101425000D03*
%TD*%
D52*
%TO.C,R67*%
X159550000Y-85100000D03*
X159550000Y-83100000D03*
%TD*%
D66*
%TO.C,P1*%
X90630000Y-65930000D03*
D11*
X93230000Y-65930000D03*
X88530000Y-65930000D03*
X95330000Y-65930000D03*
X88530000Y-68730000D03*
X95330000Y-68730000D03*
D67*
X85080000Y-63080000D03*
X98780000Y-63080000D03*
D68*
X91930000Y-62280000D03*
%TD*%
D52*
%TO.C,R64*%
X82330000Y-67990000D03*
X82330000Y-65990000D03*
%TD*%
D53*
%TO.C,R70*%
X105150000Y-70440000D03*
X103150000Y-70440000D03*
%TD*%
D69*
%TO.C,J13*%
X177600000Y-83200000D03*
%TD*%
D34*
%TO.C,D19*%
X160880000Y-60207000D03*
X160880000Y-58157000D03*
%TD*%
D53*
%TO.C,R71*%
X167810000Y-59930000D03*
X165810000Y-59930000D03*
%TD*%
D22*
%TO.C,C32*%
X171936500Y-94996000D03*
X174011500Y-94996000D03*
%TD*%
D65*
%TO.C,Q14*%
X117875000Y-86887500D03*
X119775000Y-86887500D03*
X118825000Y-85012500D03*
%TD*%
D51*
%TO.C,R72*%
X120375000Y-94500000D03*
X122375000Y-94500000D03*
%TD*%
D23*
%TO.C,C38*%
X147075000Y-72037500D03*
X147075000Y-74112500D03*
%TD*%
D54*
%TO.C,R73*%
X155975000Y-78750000D03*
X155975000Y-80750000D03*
%TD*%
D70*
%TO.C,RV4*%
X142790000Y-59940000D03*
X142790000Y-62480000D03*
X142790000Y-65020000D03*
%TD*%
D54*
%TO.C,R74*%
X167225000Y-85675000D03*
X167225000Y-87675000D03*
%TD*%
D34*
%TO.C,L11*%
X147900000Y-68675000D03*
X147900000Y-66625000D03*
%TD*%
D71*
%TO.C,J3*%
X54000000Y-61000000D03*
%TD*%
%TO.C,J4*%
X185500000Y-60500000D03*
%TD*%
%TO.C,J6*%
X185500000Y-141000000D03*
%TD*%
%TO.C,J7*%
X54000000Y-140500000D03*
%TD*%
D23*
%TO.C,C41*%
X128675000Y-134712500D03*
X128675000Y-136787500D03*
%TD*%
D22*
%TO.C,C58*%
X54500000Y-67000000D03*
X56575000Y-67000000D03*
%TD*%
D58*
%TO.C,T4*%
X60000000Y-67310000D03*
X60000000Y-59690000D03*
X62540000Y-67310000D03*
X62540000Y-59690000D03*
%TD*%
D23*
%TO.C,C27*%
X153300000Y-112837500D03*
X153300000Y-114912500D03*
%TD*%
D72*
%TO.C,D6*%
X186880000Y-95330000D03*
D25*
X179260000Y-95330000D03*
%TD*%
D53*
%TO.C,R76*%
X84566000Y-95758000D03*
X82566000Y-95758000D03*
%TD*%
D22*
%TO.C,C7*%
X131550500Y-116078000D03*
X133625500Y-116078000D03*
%TD*%
D11*
%TO.C,L10*%
X141732000Y-135382000D03*
D14*
X131572000Y-135382000D03*
%TD*%
D33*
%TO.C,J14*%
X158220000Y-135730000D03*
%TD*%
%TO.C,J15*%
X150622000Y-142494000D03*
%TD*%
%TO.C,J16*%
X179900000Y-58900000D03*
%TD*%
D73*
%TO.C,C3*%
X65500000Y-76000000D03*
D11*
X69000000Y-76000000D03*
%TD*%
D63*
%TO.C,L4*%
X152146000Y-58039000D03*
X152146000Y-61849000D03*
%TD*%
%TO.C,L6*%
X161895000Y-82875000D03*
X165705000Y-82875000D03*
%TD*%
D74*
%TO.C,Q15*%
X187210000Y-80770000D03*
D75*
X187210000Y-83310000D03*
X187210000Y-85850000D03*
%TD*%
D22*
%TO.C,C18*%
X163027500Y-131220000D03*
X160952500Y-131220000D03*
%TD*%
%TO.C,C60*%
X158009500Y-139040000D03*
X155934500Y-139040000D03*
%TD*%
D51*
%TO.C,R10*%
X121450000Y-116650000D03*
X123450000Y-116650000D03*
%TD*%
D76*
%TO.C,D15*%
X173530000Y-59990000D03*
X176830000Y-59990000D03*
%TD*%
%TO.C,D18*%
X149988000Y-73406000D03*
X153288000Y-73406000D03*
%TD*%
D60*
%TO.C,RV1*%
X135900000Y-143800000D03*
D49*
X138400000Y-140800000D03*
D60*
X133400000Y-143800000D03*
D49*
X133400000Y-140800000D03*
D60*
X130900000Y-143800000D03*
D49*
X128400000Y-140800000D03*
%TD*%
D77*
%TO.C,D8*%
X187250000Y-66500000D03*
X187250000Y-71500000D03*
%TD*%
D33*
%TO.C,J10*%
X140410000Y-100830000D03*
%TD*%
D22*
%TO.C,C61*%
X108970000Y-130280000D03*
X106895000Y-130280000D03*
%TD*%
D52*
%TO.C,R40*%
X97390000Y-97500000D03*
X97390000Y-95500000D03*
%TD*%
D51*
%TO.C,R75*%
X104378000Y-129794000D03*
X102378000Y-129794000D03*
%TD*%
D15*
%TO.C,SW6*%
X102475000Y-137950000D03*
X108975000Y-137950000D03*
X108975000Y-133450000D03*
X102475000Y-133450000D03*
%TD*%
D66*
%TO.C,C53*%
X126480000Y-125930000D03*
D11*
X122980000Y-125930000D03*
%TD*%
D13*
%TO.C,J17*%
X163830000Y-123190000D03*
X161290000Y-123190000D03*
X158750000Y-123190000D03*
D12*
X156210000Y-123190000D03*
%TD*%
%TO.C,J18*%
X156220000Y-143510000D03*
D13*
X158760000Y-143510000D03*
X161300000Y-143510000D03*
X163840000Y-143510000D03*
%TD*%
D20*
%TO.C,C26*%
X172587500Y-121230000D03*
X170512500Y-121230000D03*
%TD*%
D21*
%TO.C,C23*%
X162250000Y-91525000D03*
X162250000Y-89450000D03*
%TD*%
D78*
%TO.C,J19*%
X64770000Y-143080000D03*
D79*
X59570000Y-135180000D03*
D80*
X62170000Y-136180000D03*
D79*
X69570000Y-138680000D03*
D81*
X69070000Y-131780000D03*
%TD*%
D21*
%TO.C,C36*%
X61550000Y-118207500D03*
X61550000Y-116132500D03*
%TD*%
D82*
%TO.C,D10*%
X172950000Y-112900000D03*
X172950000Y-109600000D03*
%TD*%
D53*
%TO.C,R80*%
X81375000Y-126425000D03*
X83375000Y-126425000D03*
%TD*%
D83*
%TO.C,U5*%
X84212500Y-101753000D03*
X82942500Y-101753000D03*
X81672500Y-101753000D03*
X80402500Y-101753000D03*
X80402500Y-107003000D03*
X81672500Y-107003000D03*
X82942500Y-107003000D03*
X84212500Y-107003000D03*
%TD*%
D22*
%TO.C,C69*%
X81340000Y-109838000D03*
X83415000Y-109838000D03*
%TD*%
%TO.C,C67*%
X68812500Y-128750000D03*
X70887500Y-128750000D03*
%TD*%
D26*
%TO.C,L12*%
X83425000Y-128900000D03*
X81375000Y-128900000D03*
%TD*%
D84*
%TO.C,U8*%
X162250000Y-113617500D03*
X162250000Y-112982500D03*
X162250000Y-112347500D03*
X162250000Y-111712500D03*
X162250000Y-111077500D03*
X162250000Y-110442500D03*
X162250000Y-109807500D03*
X162250000Y-109172500D03*
X162250000Y-108537500D03*
X162250000Y-107902500D03*
X162250000Y-107267500D03*
X162250000Y-106632500D03*
X157050000Y-106632500D03*
X157050000Y-107267500D03*
X157050000Y-107902500D03*
X157050000Y-108537500D03*
X157050000Y-109172500D03*
X157050000Y-109807500D03*
X157050000Y-110442500D03*
X157050000Y-111077500D03*
X157050000Y-111712500D03*
X157050000Y-112347500D03*
X157050000Y-112982500D03*
X157050000Y-113617500D03*
%TD*%
D54*
%TO.C,R42*%
X59080000Y-116210000D03*
X59080000Y-118210000D03*
%TD*%
D51*
%TO.C,R77*%
X87070000Y-101760000D03*
X89070000Y-101760000D03*
%TD*%
D53*
%TO.C,R69*%
X74136000Y-105410000D03*
X72136000Y-105410000D03*
%TD*%
D52*
%TO.C,R43*%
X68580000Y-107426000D03*
X68580000Y-105426000D03*
%TD*%
%TO.C,R44*%
X92456000Y-103346000D03*
X92456000Y-101346000D03*
%TD*%
D33*
%TO.C,J24*%
X144470000Y-100850000D03*
%TD*%
D85*
%TO.C,J23*%
X159512000Y-67564000D03*
%TD*%
D21*
%TO.C,C63*%
X68580000Y-111781500D03*
X68580000Y-109706500D03*
%TD*%
D13*
%TO.C,J22*%
X118390000Y-125870000D03*
D50*
X118390000Y-128410000D03*
%TD*%
D64*
%TO.C,JP9*%
X77978000Y-122936000D03*
D13*
X75438000Y-122936000D03*
%TD*%
D35*
%TO.C,L7*%
X59080000Y-120945000D03*
X59080000Y-122995000D03*
%TD*%
D64*
%TO.C,J25*%
X125420000Y-80010000D03*
D13*
X122880000Y-80010000D03*
X120340000Y-80010000D03*
X117800000Y-80010000D03*
%TD*%
D20*
%TO.C,C65*%
X88955000Y-107230000D03*
X86880000Y-107230000D03*
%TD*%
D54*
%TO.C,R81*%
X130200000Y-118540000D03*
X130200000Y-120540000D03*
%TD*%
%TO.C,R84*%
X132310000Y-118540000D03*
X132310000Y-120540000D03*
%TD*%
D81*
%TO.C,J8*%
X124025000Y-132150000D03*
D79*
X124525000Y-139050000D03*
D80*
X117125000Y-136550000D03*
D79*
X114525000Y-135550000D03*
D78*
X119725000Y-143450000D03*
%TD*%
D21*
%TO.C,C68*%
X61310000Y-122122500D03*
X61310000Y-124197500D03*
%TD*%
D53*
%TO.C,R83*%
X83430000Y-113220000D03*
X81430000Y-113220000D03*
%TD*%
D64*
%TO.C,J27*%
X125476000Y-74676000D03*
D13*
X122936000Y-74676000D03*
X120396000Y-74676000D03*
X117856000Y-74676000D03*
%TD*%
D21*
%TO.C,C62*%
X59020000Y-127797500D03*
X59020000Y-125722500D03*
%TD*%
D54*
%TO.C,R26*%
X155430000Y-130205000D03*
X155430000Y-128205000D03*
%TD*%
D51*
%TO.C,R85*%
X85747500Y-109768000D03*
X87747500Y-109768000D03*
%TD*%
D20*
%TO.C,C70*%
X73000000Y-70000000D03*
X70925000Y-70000000D03*
%TD*%
D53*
%TO.C,R79*%
X79486000Y-109728000D03*
X77486000Y-109728000D03*
%TD*%
%TO.C,R27*%
X150025000Y-126775000D03*
X152025000Y-126775000D03*
%TD*%
D12*
%TO.C,J26*%
X111410000Y-66760000D03*
D86*
X113910000Y-66760000D03*
X113910000Y-64760000D03*
X111410000Y-64760000D03*
D87*
X118680000Y-62050000D03*
X106640000Y-62050000D03*
%TD*%
D21*
%TO.C,C29*%
X169720000Y-66107500D03*
X169720000Y-64032500D03*
%TD*%
D88*
%TO.C,U7*%
X135930000Y-58430000D03*
X127930000Y-58430000D03*
D89*
X138730000Y-58830000D03*
D90*
X124130000Y-68330000D03*
D91*
X128730000Y-68930000D03*
X129830000Y-68930000D03*
X130930000Y-68930000D03*
X132030000Y-68930000D03*
X133130000Y-68930000D03*
X134230000Y-68930000D03*
X135330000Y-68930000D03*
X136430000Y-68930000D03*
X137530000Y-68930000D03*
D92*
X138730000Y-68330000D03*
D89*
X123230000Y-58730000D03*
%TD*%
D22*
%TO.C,C40*%
X152062500Y-123775000D03*
X149987500Y-123775000D03*
%TD*%
D82*
%TO.C,D7*%
X172925000Y-107950000D03*
X172925000Y-104650000D03*
%TD*%
D64*
%TO.C,JP6*%
X69596000Y-122936000D03*
D13*
X67056000Y-122936000D03*
%TD*%
D23*
%TO.C,C43*%
X121980000Y-63902500D03*
X121980000Y-65977500D03*
%TD*%
D78*
%TO.C,J11*%
X77978000Y-142900000D03*
D79*
X72778000Y-135000000D03*
D80*
X75378000Y-136000000D03*
D79*
X82778000Y-138500000D03*
D81*
X82278000Y-131600000D03*
%TD*%
D22*
%TO.C,C66*%
X82492500Y-99230000D03*
X84567500Y-99230000D03*
%TD*%
D52*
%TO.C,R45*%
X92456000Y-107442000D03*
X92456000Y-105442000D03*
%TD*%
D21*
%TO.C,C31*%
X180090000Y-70787500D03*
X180090000Y-68712500D03*
%TD*%
D61*
%TO.C,D11*%
X175975000Y-109600000D03*
X175975000Y-112900000D03*
%TD*%
D35*
%TO.C,L8*%
X74975000Y-126075000D03*
X74975000Y-128125000D03*
%TD*%
D53*
%TO.C,R82*%
X124250000Y-84275000D03*
X122250000Y-84275000D03*
%TD*%
D20*
%TO.C,C28*%
X142512500Y-123950000D03*
X144587500Y-123950000D03*
%TD*%
D54*
%TO.C,R78*%
X76730000Y-104430000D03*
X76730000Y-106430000D03*
%TD*%
D20*
%TO.C,C64*%
X92477500Y-99060000D03*
X90402500Y-99060000D03*
%TD*%
G36*
X185539896Y-77620002D02*
G01*
X185586389Y-77673658D01*
X185597756Y-77728205D01*
X185422167Y-87760205D01*
X185400976Y-87827965D01*
X185346515Y-87873512D01*
X185296186Y-87884000D01*
X169526000Y-87884000D01*
X169457879Y-87863998D01*
X169411386Y-87810342D01*
X169400000Y-87758000D01*
X169400000Y-77726000D01*
X169420002Y-77657879D01*
X169473658Y-77611386D01*
X169526000Y-77600000D01*
X185471775Y-77600000D01*
X185539896Y-77620002D01*
G37*
G36*
X162442121Y-70520002D02*
G01*
X162488614Y-70573658D01*
X162500000Y-70626000D01*
X162500000Y-77374000D01*
X162479998Y-77442121D01*
X162426342Y-77488614D01*
X162374000Y-77500000D01*
X155876000Y-77500000D01*
X155807879Y-77479998D01*
X155761386Y-77426342D01*
X155750000Y-77374000D01*
X155750000Y-70626000D01*
X155770002Y-70557879D01*
X155823658Y-70511386D01*
X155876000Y-70500000D01*
X162374000Y-70500000D01*
X162442121Y-70520002D01*
G37*
M02*
